M48
;GenerationSoftware,Autodesk,EAGLE,9.6.2*%
;CreationDate,2024-10-09T23:53:24Z*%
FMAT,2
ICI,OFF
METRIC,TZ,000.000
T9C0.800
T8C0.813
T7C1.016
T6C1.143
T5C1.800
T4C1.850
T3C2.700
T2C2.800
T1C3.000
%
G90
M71
T1
X54610Y2540
X54610Y60960
X2540Y60960
X2540Y2540
T2
X44470Y36890
X49470Y36890
X44470Y47050
X49470Y47050
X44470Y57210
X49470Y57210
T3
X13970Y53130
X13970Y45930
T4
X5080Y31750
X5080Y27050
X5080Y36450
T5
X7970Y42780
X7970Y56280
T6
X6350Y15240
X6350Y12700
X6350Y7620
X36830Y15240
X36830Y20320
X36830Y17780
X36830Y12700
X6350Y10160
T7
X22606Y3810
X20066Y3810
X16002Y3810
X13462Y3810
X39370Y45720
X39370Y43180
X39370Y35560
X39370Y33020
X49530Y24130
X41910Y24130
X39370Y38100
X41910Y27940
X44450Y52070
X46990Y52070
X49530Y52070
X44450Y41910
X46990Y41910
X49530Y41910
X44450Y31750
X46990Y31750
X49530Y31750
X31623Y3810
X29083Y3810
X26543Y3810
X39497Y3810
X36957Y3810
X34417Y3810
X47371Y3810
X44831Y3810
X42291Y3810
X9271Y3810
X6731Y3810
X49530Y27940
X39370Y58420
X39370Y55880
X39370Y53340
X39370Y48260
T8
X11430Y30226
X11430Y32766
X15240Y30226
X15240Y32766
X11430Y36957
X11430Y39497
X15113Y39497
X44450Y17780
X46990Y17780
X15113Y36957
X15240Y23622
X11430Y23622
X11430Y26162
X15240Y26162
X44450Y10160
X46990Y10160
T9
X34290Y46990
X34290Y49530
X34290Y52070
X19050Y24130
X19050Y26670
X19050Y29210
X19050Y44450
X19050Y46990
X19050Y49530
X19050Y39370
X26670Y25400
X19050Y41910
X29210Y22860
X34290Y24130
X34290Y26670
X26670Y22860
X24130Y22860
X24130Y25400
X19050Y31750
X19050Y54610
X19050Y57150
X34290Y29210
X34290Y54610
X34290Y31750
X34290Y59690
X19050Y59690
X19050Y52070
X34290Y34290
X34290Y36830
X34290Y57150
X34290Y39370
X34290Y41910
X34290Y44450
X19050Y34290
X29210Y25400
X19050Y36830
M30