G04 EAGLE Gerber RS-274X export*
G75*
%MOMM*%
%FSLAX34Y34*%
%LPD*%
%INBottom Copper*%
%IPPOS*%
%AMOC8*
5,1,8,0,0,1.08239X$1,22.5*%
G01*
%ADD10C,0.130000*%
%ADD11C,0.152400*%
%ADD12C,1.879600*%
%ADD13P,1.732040X8X112.500000*%
%ADD14C,1.308000*%
%ADD15C,1.308000*%
%ADD16R,2.775000X2.775000*%
%ADD17C,2.775000*%
%ADD18R,2.184400X2.184400*%
%ADD19C,2.184400*%
%ADD20C,2.032000*%
%ADD21C,4.050000*%
%ADD22C,2.700000*%
%ADD23C,3.816000*%
%ADD24R,3.816000X3.816000*%
%ADD25C,0.406400*%

G36*
X522473Y10175D02*
X522473Y10175D01*
X522619Y10182D01*
X522673Y10195D01*
X522728Y10201D01*
X522868Y10244D01*
X523009Y10279D01*
X523060Y10302D01*
X523113Y10319D01*
X523241Y10388D01*
X523373Y10451D01*
X523418Y10484D01*
X523467Y10511D01*
X523579Y10604D01*
X523696Y10691D01*
X523733Y10733D01*
X523776Y10768D01*
X523868Y10882D01*
X523965Y10991D01*
X523993Y11039D01*
X524028Y11082D01*
X524095Y11212D01*
X524170Y11338D01*
X524188Y11390D01*
X524214Y11439D01*
X524254Y11580D01*
X524302Y11718D01*
X524310Y11773D01*
X524325Y11826D01*
X524337Y11972D01*
X524357Y12117D01*
X524354Y12172D01*
X524358Y12228D01*
X524341Y12373D01*
X524332Y12519D01*
X524318Y12572D01*
X524311Y12627D01*
X524266Y12766D01*
X524228Y12908D01*
X524201Y12965D01*
X524186Y13010D01*
X524145Y13083D01*
X524086Y13208D01*
X522654Y15688D01*
X520939Y22088D01*
X520939Y28712D01*
X522654Y35112D01*
X525966Y40849D01*
X530651Y45534D01*
X536388Y48846D01*
X542788Y50561D01*
X549412Y50561D01*
X555482Y48934D01*
X555563Y48921D01*
X555642Y48898D01*
X555762Y48888D01*
X555880Y48869D01*
X555962Y48872D01*
X556044Y48865D01*
X556162Y48879D01*
X556282Y48884D01*
X556362Y48903D01*
X556443Y48912D01*
X556557Y48949D01*
X556674Y48977D01*
X556748Y49012D01*
X556826Y49037D01*
X556931Y49096D01*
X557039Y49146D01*
X557105Y49195D01*
X557177Y49235D01*
X557267Y49313D01*
X557364Y49384D01*
X557419Y49444D01*
X557482Y49498D01*
X557555Y49593D01*
X557636Y49681D01*
X557678Y49752D01*
X557728Y49816D01*
X557782Y49923D01*
X557843Y50026D01*
X557871Y50103D01*
X557908Y50177D01*
X557939Y50292D01*
X557979Y50405D01*
X557991Y50486D01*
X558012Y50566D01*
X558025Y50718D01*
X558037Y50803D01*
X558035Y50844D01*
X558039Y50896D01*
X558039Y584104D01*
X558031Y584185D01*
X558033Y584268D01*
X558011Y584385D01*
X557999Y584504D01*
X557975Y584583D01*
X557961Y584664D01*
X557916Y584775D01*
X557881Y584889D01*
X557842Y584962D01*
X557812Y585038D01*
X557746Y585138D01*
X557689Y585243D01*
X557637Y585306D01*
X557592Y585375D01*
X557508Y585461D01*
X557432Y585553D01*
X557368Y585604D01*
X557310Y585663D01*
X557211Y585730D01*
X557118Y585805D01*
X557045Y585843D01*
X556977Y585889D01*
X556867Y585935D01*
X556761Y585990D01*
X556682Y586013D01*
X556606Y586045D01*
X556489Y586069D01*
X556374Y586102D01*
X556292Y586108D01*
X556211Y586125D01*
X556092Y586125D01*
X555972Y586135D01*
X555891Y586125D01*
X555809Y586125D01*
X555659Y586098D01*
X555573Y586088D01*
X555534Y586075D01*
X555482Y586066D01*
X549412Y584439D01*
X542788Y584439D01*
X536388Y586154D01*
X530651Y589466D01*
X525966Y594151D01*
X522654Y599888D01*
X520939Y606288D01*
X520939Y612912D01*
X522654Y619312D01*
X524028Y621692D01*
X524089Y621826D01*
X524156Y621955D01*
X524171Y622009D01*
X524194Y622059D01*
X524227Y622202D01*
X524267Y622342D01*
X524272Y622398D01*
X524284Y622452D01*
X524288Y622598D01*
X524300Y622744D01*
X524294Y622799D01*
X524295Y622854D01*
X524270Y622998D01*
X524253Y623143D01*
X524236Y623196D01*
X524227Y623251D01*
X524174Y623387D01*
X524129Y623526D01*
X524101Y623575D01*
X524081Y623626D01*
X524003Y623749D01*
X523931Y623877D01*
X523894Y623919D01*
X523865Y623966D01*
X523763Y624071D01*
X523668Y624182D01*
X523624Y624215D01*
X523585Y624256D01*
X523465Y624339D01*
X523349Y624428D01*
X523300Y624453D01*
X523254Y624485D01*
X523120Y624542D01*
X522989Y624608D01*
X522935Y624622D01*
X522884Y624644D01*
X522741Y624674D01*
X522600Y624712D01*
X522537Y624717D01*
X522490Y624727D01*
X522407Y624728D01*
X522269Y624739D01*
X49231Y624739D01*
X49085Y624725D01*
X48939Y624718D01*
X48885Y624705D01*
X48830Y624699D01*
X48690Y624656D01*
X48548Y624621D01*
X48498Y624598D01*
X48445Y624581D01*
X48317Y624512D01*
X48184Y624449D01*
X48140Y624416D01*
X48091Y624389D01*
X47979Y624296D01*
X47861Y624209D01*
X47824Y624167D01*
X47782Y624132D01*
X47690Y624018D01*
X47592Y623909D01*
X47564Y623861D01*
X47529Y623818D01*
X47462Y623688D01*
X47388Y623562D01*
X47369Y623510D01*
X47344Y623461D01*
X47304Y623320D01*
X47255Y623182D01*
X47248Y623127D01*
X47233Y623074D01*
X47221Y622928D01*
X47201Y622783D01*
X47204Y622728D01*
X47200Y622672D01*
X47217Y622527D01*
X47226Y622381D01*
X47240Y622328D01*
X47247Y622273D01*
X47292Y622134D01*
X47330Y621992D01*
X47357Y621935D01*
X47371Y621890D01*
X47413Y621817D01*
X47472Y621692D01*
X48846Y619312D01*
X50561Y612912D01*
X50561Y606288D01*
X48846Y599888D01*
X45534Y594151D01*
X40849Y589466D01*
X35112Y586154D01*
X28712Y584439D01*
X22088Y584439D01*
X15688Y586154D01*
X13208Y587586D01*
X13074Y587647D01*
X12945Y587714D01*
X12891Y587729D01*
X12841Y587752D01*
X12698Y587785D01*
X12558Y587825D01*
X12502Y587830D01*
X12448Y587842D01*
X12302Y587846D01*
X12156Y587858D01*
X12101Y587852D01*
X12046Y587853D01*
X11901Y587828D01*
X11757Y587811D01*
X11704Y587794D01*
X11649Y587784D01*
X11513Y587732D01*
X11374Y587686D01*
X11325Y587659D01*
X11274Y587639D01*
X11151Y587560D01*
X11023Y587488D01*
X10981Y587452D01*
X10934Y587422D01*
X10829Y587321D01*
X10718Y587225D01*
X10684Y587181D01*
X10644Y587143D01*
X10561Y587023D01*
X10472Y586907D01*
X10447Y586858D01*
X10415Y586812D01*
X10357Y586677D01*
X10292Y586547D01*
X10278Y586493D01*
X10256Y586442D01*
X10226Y586299D01*
X10188Y586158D01*
X10183Y586095D01*
X10173Y586048D01*
X10172Y585964D01*
X10161Y585827D01*
X10161Y410434D01*
X10162Y410425D01*
X10161Y410416D01*
X10182Y410223D01*
X10201Y410033D01*
X10203Y410025D01*
X10204Y410016D01*
X10263Y409831D01*
X10319Y409648D01*
X10323Y409641D01*
X10326Y409632D01*
X10419Y409464D01*
X10511Y409294D01*
X10516Y409288D01*
X10521Y409280D01*
X10645Y409133D01*
X10768Y408985D01*
X10775Y408980D01*
X10781Y408973D01*
X10933Y408853D01*
X11082Y408733D01*
X11090Y408729D01*
X11097Y408723D01*
X11270Y408635D01*
X11439Y408547D01*
X11448Y408545D01*
X11456Y408541D01*
X11642Y408489D01*
X11826Y408436D01*
X11835Y408435D01*
X11844Y408433D01*
X12037Y408419D01*
X12228Y408403D01*
X12236Y408404D01*
X12245Y408403D01*
X12438Y408428D01*
X12627Y408450D01*
X12636Y408453D01*
X12645Y408454D01*
X12827Y408515D01*
X13010Y408575D01*
X13018Y408579D01*
X13026Y408582D01*
X13193Y408678D01*
X13361Y408773D01*
X13368Y408779D01*
X13375Y408783D01*
X13628Y408998D01*
X116444Y511813D01*
X116542Y511933D01*
X116645Y512048D01*
X116669Y512088D01*
X116699Y512124D01*
X116771Y512261D01*
X116850Y512395D01*
X116865Y512439D01*
X116887Y512480D01*
X116931Y512629D01*
X116982Y512775D01*
X116989Y512821D01*
X117002Y512866D01*
X117016Y513021D01*
X117037Y513174D01*
X117034Y513220D01*
X117038Y513267D01*
X117022Y513422D01*
X117012Y513576D01*
X117000Y513621D01*
X116995Y513667D01*
X116948Y513815D01*
X116908Y513965D01*
X116886Y514012D01*
X116873Y514051D01*
X116832Y514127D01*
X116766Y514265D01*
X113255Y520346D01*
X111321Y527564D01*
X111321Y535036D01*
X113255Y542254D01*
X116991Y548725D01*
X122275Y554009D01*
X128746Y557745D01*
X135964Y559679D01*
X143436Y559679D01*
X150654Y557745D01*
X157125Y554009D01*
X162409Y548725D01*
X165501Y543369D01*
X165544Y543309D01*
X165579Y543245D01*
X165661Y543146D01*
X165736Y543042D01*
X165789Y542992D01*
X165836Y542936D01*
X165936Y542855D01*
X166031Y542768D01*
X166093Y542729D01*
X166150Y542683D01*
X166264Y542624D01*
X166374Y542557D01*
X166442Y542532D01*
X166507Y542498D01*
X166631Y542462D01*
X166751Y542418D01*
X166824Y542407D01*
X166894Y542387D01*
X167023Y542376D01*
X167149Y542356D01*
X167222Y542360D01*
X167296Y542354D01*
X167423Y542369D01*
X167552Y542374D01*
X167623Y542392D01*
X167695Y542401D01*
X167818Y542440D01*
X167942Y542471D01*
X168008Y542503D01*
X168078Y542525D01*
X168190Y542589D01*
X168306Y542644D01*
X168365Y542687D01*
X168429Y542723D01*
X168526Y542807D01*
X168629Y542884D01*
X168678Y542939D01*
X168734Y542986D01*
X168812Y543088D01*
X168898Y543184D01*
X168935Y543247D01*
X168980Y543305D01*
X169037Y543420D01*
X169103Y543530D01*
X169127Y543600D01*
X169160Y543665D01*
X169193Y543789D01*
X169235Y543911D01*
X169245Y543983D01*
X169264Y544054D01*
X169278Y544223D01*
X169290Y544309D01*
X169288Y544342D01*
X169291Y544385D01*
X169291Y549018D01*
X171524Y554409D01*
X174479Y557364D01*
X174490Y557378D01*
X174504Y557389D01*
X174617Y557533D01*
X174734Y557675D01*
X174742Y557691D01*
X174753Y557705D01*
X174837Y557869D01*
X174923Y558031D01*
X174928Y558048D01*
X174936Y558064D01*
X174985Y558241D01*
X175037Y558417D01*
X175039Y558435D01*
X175044Y558452D01*
X175057Y558635D01*
X175074Y558818D01*
X175072Y558836D01*
X175073Y558853D01*
X175050Y559035D01*
X175030Y559218D01*
X175025Y559235D01*
X175023Y559253D01*
X174964Y559427D01*
X174909Y559602D01*
X174900Y559618D01*
X174895Y559634D01*
X174803Y559794D01*
X174714Y559954D01*
X174703Y559968D01*
X174694Y559983D01*
X174479Y560236D01*
X171524Y563191D01*
X169291Y568582D01*
X169291Y574418D01*
X171524Y579809D01*
X174479Y582764D01*
X174490Y582778D01*
X174504Y582789D01*
X174617Y582933D01*
X174734Y583075D01*
X174742Y583091D01*
X174753Y583105D01*
X174837Y583269D01*
X174923Y583431D01*
X174928Y583448D01*
X174936Y583464D01*
X174985Y583641D01*
X175037Y583817D01*
X175039Y583835D01*
X175044Y583852D01*
X175057Y584035D01*
X175074Y584218D01*
X175072Y584236D01*
X175073Y584253D01*
X175050Y584435D01*
X175030Y584618D01*
X175025Y584635D01*
X175023Y584653D01*
X174964Y584827D01*
X174909Y585002D01*
X174900Y585018D01*
X174895Y585034D01*
X174803Y585194D01*
X174714Y585354D01*
X174703Y585368D01*
X174694Y585383D01*
X174479Y585636D01*
X171524Y588591D01*
X169291Y593982D01*
X169291Y599818D01*
X171524Y605209D01*
X175651Y609336D01*
X176138Y609537D01*
X176138Y609538D01*
X181042Y611569D01*
X199958Y611569D01*
X205349Y609336D01*
X209476Y605209D01*
X211709Y599818D01*
X211709Y593982D01*
X209476Y588591D01*
X206521Y585636D01*
X206510Y585623D01*
X206496Y585611D01*
X206382Y585467D01*
X206266Y585325D01*
X206258Y585309D01*
X206247Y585295D01*
X206163Y585131D01*
X206077Y584969D01*
X206072Y584952D01*
X206064Y584936D01*
X206015Y584759D01*
X205963Y584583D01*
X205961Y584565D01*
X205956Y584548D01*
X205943Y584365D01*
X205926Y584182D01*
X205928Y584164D01*
X205927Y584147D01*
X205950Y583965D01*
X205970Y583782D01*
X205975Y583765D01*
X205977Y583747D01*
X206035Y583574D01*
X206091Y583398D01*
X206100Y583382D01*
X206105Y583366D01*
X206197Y583206D01*
X206286Y583046D01*
X206297Y583032D01*
X206306Y583017D01*
X206521Y582764D01*
X209476Y579809D01*
X211709Y574418D01*
X211709Y568582D01*
X209476Y563191D01*
X206521Y560236D01*
X206510Y560223D01*
X206496Y560211D01*
X206382Y560067D01*
X206266Y559925D01*
X206258Y559909D01*
X206247Y559895D01*
X206163Y559730D01*
X206077Y559569D01*
X206072Y559552D01*
X206064Y559536D01*
X206015Y559359D01*
X205963Y559183D01*
X205961Y559165D01*
X205956Y559148D01*
X205943Y558965D01*
X205926Y558782D01*
X205928Y558764D01*
X205927Y558747D01*
X205950Y558565D01*
X205970Y558382D01*
X205975Y558365D01*
X205977Y558347D01*
X206035Y558174D01*
X206091Y557998D01*
X206100Y557982D01*
X206105Y557966D01*
X206197Y557806D01*
X206286Y557646D01*
X206297Y557632D01*
X206306Y557617D01*
X206521Y557364D01*
X209476Y554409D01*
X211709Y549018D01*
X211709Y543182D01*
X209476Y537791D01*
X206521Y534836D01*
X206510Y534822D01*
X206496Y534811D01*
X206383Y534667D01*
X206266Y534525D01*
X206258Y534509D01*
X206247Y534495D01*
X206163Y534331D01*
X206077Y534169D01*
X206072Y534152D01*
X206064Y534136D01*
X206015Y533959D01*
X205963Y533783D01*
X205961Y533765D01*
X205956Y533748D01*
X205943Y533565D01*
X205926Y533382D01*
X205928Y533364D01*
X205927Y533347D01*
X205950Y533165D01*
X205970Y532982D01*
X205975Y532965D01*
X205977Y532947D01*
X206036Y532773D01*
X206091Y532598D01*
X206100Y532582D01*
X206105Y532566D01*
X206197Y532406D01*
X206286Y532246D01*
X206297Y532232D01*
X206306Y532217D01*
X206521Y531964D01*
X209476Y529009D01*
X211709Y523618D01*
X211709Y517782D01*
X209737Y513023D01*
X209731Y513002D01*
X209721Y512982D01*
X209673Y512810D01*
X209621Y512638D01*
X209619Y512616D01*
X209613Y512594D01*
X209600Y512415D01*
X209583Y512237D01*
X209585Y512215D01*
X209584Y512193D01*
X209606Y512014D01*
X209625Y511837D01*
X209631Y511815D01*
X209634Y511793D01*
X209691Y511622D01*
X209744Y511452D01*
X209755Y511433D01*
X209762Y511411D01*
X209852Y511256D01*
X209938Y511099D01*
X209952Y511082D01*
X209963Y511063D01*
X210178Y510810D01*
X212606Y508381D01*
X215750Y505238D01*
X217297Y501503D01*
X217297Y433715D01*
X215750Y429980D01*
X211520Y425750D01*
X211506Y425733D01*
X211489Y425719D01*
X211378Y425578D01*
X211265Y425439D01*
X211254Y425419D01*
X211241Y425402D01*
X211160Y425241D01*
X211076Y425083D01*
X211070Y425062D01*
X211060Y425042D01*
X211012Y424869D01*
X210961Y424697D01*
X210959Y424675D01*
X210953Y424654D01*
X210941Y424475D01*
X210925Y424296D01*
X210927Y424274D01*
X210926Y424252D01*
X210949Y424074D01*
X210968Y423896D01*
X210975Y423875D01*
X210978Y423853D01*
X211080Y423537D01*
X211709Y422018D01*
X211709Y416182D01*
X209476Y410791D01*
X206521Y407836D01*
X206510Y407822D01*
X206496Y407811D01*
X206382Y407667D01*
X206266Y407525D01*
X206258Y407509D01*
X206247Y407495D01*
X206163Y407331D01*
X206077Y407169D01*
X206072Y407152D01*
X206064Y407136D01*
X206015Y406959D01*
X205963Y406783D01*
X205961Y406765D01*
X205956Y406748D01*
X205943Y406565D01*
X205926Y406382D01*
X205928Y406364D01*
X205927Y406347D01*
X205950Y406165D01*
X205970Y405982D01*
X205975Y405965D01*
X205977Y405947D01*
X206035Y405774D01*
X206091Y405598D01*
X206100Y405582D01*
X206105Y405566D01*
X206197Y405406D01*
X206286Y405246D01*
X206297Y405232D01*
X206306Y405217D01*
X206521Y404964D01*
X209476Y402009D01*
X211709Y396618D01*
X211709Y390782D01*
X209476Y385391D01*
X206521Y382436D01*
X206510Y382423D01*
X206496Y382411D01*
X206382Y382267D01*
X206266Y382125D01*
X206258Y382109D01*
X206247Y382095D01*
X206163Y381931D01*
X206077Y381769D01*
X206072Y381752D01*
X206064Y381736D01*
X206015Y381559D01*
X205963Y381383D01*
X205961Y381365D01*
X205956Y381348D01*
X205943Y381165D01*
X205926Y380982D01*
X205928Y380964D01*
X205927Y380947D01*
X205950Y380765D01*
X205970Y380582D01*
X205975Y380565D01*
X205977Y380547D01*
X206035Y380374D01*
X206091Y380198D01*
X206100Y380182D01*
X206105Y380166D01*
X206197Y380006D01*
X206286Y379846D01*
X206297Y379832D01*
X206306Y379817D01*
X206521Y379564D01*
X209476Y376609D01*
X211709Y371218D01*
X211709Y365382D01*
X209476Y359991D01*
X206521Y357036D01*
X206510Y357023D01*
X206496Y357011D01*
X206382Y356867D01*
X206266Y356725D01*
X206258Y356709D01*
X206247Y356695D01*
X206163Y356531D01*
X206077Y356369D01*
X206072Y356352D01*
X206064Y356336D01*
X206015Y356159D01*
X205963Y355983D01*
X205961Y355965D01*
X205956Y355948D01*
X205943Y355765D01*
X205926Y355582D01*
X205928Y355564D01*
X205927Y355547D01*
X205950Y355365D01*
X205970Y355182D01*
X205975Y355165D01*
X205977Y355147D01*
X206035Y354974D01*
X206091Y354798D01*
X206100Y354782D01*
X206105Y354766D01*
X206197Y354606D01*
X206286Y354446D01*
X206297Y354432D01*
X206306Y354417D01*
X206521Y354164D01*
X208221Y352463D01*
X208235Y352452D01*
X208247Y352438D01*
X208391Y352325D01*
X208533Y352208D01*
X208549Y352200D01*
X208563Y352189D01*
X208727Y352105D01*
X208889Y352020D01*
X208906Y352015D01*
X208922Y352007D01*
X209099Y351957D01*
X209274Y351905D01*
X209292Y351903D01*
X209309Y351899D01*
X209493Y351885D01*
X209675Y351869D01*
X209693Y351870D01*
X209711Y351869D01*
X209893Y351892D01*
X210076Y351912D01*
X210093Y351917D01*
X210110Y351920D01*
X210284Y351978D01*
X210460Y352033D01*
X210475Y352042D01*
X210492Y352048D01*
X210652Y352140D01*
X210812Y352228D01*
X210825Y352240D01*
X210841Y352249D01*
X211094Y352463D01*
X230544Y371914D01*
X230561Y371934D01*
X230582Y371952D01*
X230689Y372090D01*
X230799Y372225D01*
X230812Y372249D01*
X230828Y372270D01*
X230906Y372427D01*
X230988Y372581D01*
X230996Y372606D01*
X231008Y372631D01*
X231053Y372800D01*
X231103Y372967D01*
X231105Y372993D01*
X231112Y373019D01*
X231139Y373350D01*
X231139Y535421D01*
X232686Y539156D01*
X260944Y567414D01*
X264679Y568961D01*
X302452Y568961D01*
X302470Y568963D01*
X302488Y568961D01*
X302670Y568982D01*
X302853Y569001D01*
X302870Y569006D01*
X302887Y569008D01*
X303062Y569065D01*
X303238Y569119D01*
X303253Y569127D01*
X303270Y569133D01*
X303430Y569223D01*
X303592Y569311D01*
X303605Y569322D01*
X303621Y569331D01*
X303760Y569451D01*
X303901Y569568D01*
X303912Y569582D01*
X303926Y569594D01*
X304038Y569739D01*
X304153Y569882D01*
X304161Y569898D01*
X304172Y569912D01*
X304254Y570077D01*
X304339Y570239D01*
X304344Y570256D01*
X304352Y570272D01*
X304399Y570451D01*
X304411Y570491D01*
X306030Y574400D01*
X309174Y577544D01*
X321880Y590250D01*
X321894Y590267D01*
X321911Y590281D01*
X322022Y590422D01*
X322135Y590561D01*
X322146Y590581D01*
X322159Y590598D01*
X322240Y590759D01*
X322324Y590917D01*
X322330Y590938D01*
X322340Y590958D01*
X322388Y591131D01*
X322439Y591303D01*
X322441Y591325D01*
X322447Y591346D01*
X322459Y591525D01*
X322475Y591704D01*
X322473Y591726D01*
X322474Y591748D01*
X322451Y591926D01*
X322432Y592104D01*
X322425Y592125D01*
X322422Y592147D01*
X322320Y592463D01*
X321691Y593982D01*
X321691Y599818D01*
X323924Y605209D01*
X328051Y609336D01*
X328538Y609537D01*
X328538Y609538D01*
X333442Y611569D01*
X352358Y611569D01*
X357749Y609336D01*
X361876Y605209D01*
X364109Y599818D01*
X364109Y596392D01*
X364111Y596374D01*
X364109Y596356D01*
X364130Y596174D01*
X364149Y595991D01*
X364154Y595974D01*
X364156Y595957D01*
X364213Y595782D01*
X364267Y595606D01*
X364275Y595591D01*
X364281Y595574D01*
X364371Y595414D01*
X364459Y595252D01*
X364470Y595239D01*
X364479Y595223D01*
X364599Y595084D01*
X364716Y594943D01*
X364730Y594932D01*
X364742Y594918D01*
X364887Y594806D01*
X365030Y594691D01*
X365046Y594683D01*
X365060Y594672D01*
X365225Y594590D01*
X365387Y594505D01*
X365404Y594500D01*
X365420Y594492D01*
X365599Y594445D01*
X365774Y594394D01*
X365792Y594392D01*
X365809Y594388D01*
X366140Y594361D01*
X370321Y594361D01*
X374056Y592814D01*
X374905Y591964D01*
X374916Y591956D01*
X374924Y591945D01*
X375071Y591828D01*
X375217Y591709D01*
X375229Y591703D01*
X375239Y591694D01*
X375406Y591609D01*
X375572Y591520D01*
X375585Y591517D01*
X375597Y591511D01*
X375778Y591459D01*
X375958Y591406D01*
X375972Y591404D01*
X375985Y591401D01*
X376170Y591386D01*
X376359Y591369D01*
X376373Y591371D01*
X376386Y591370D01*
X376571Y591392D01*
X376760Y591413D01*
X376772Y591417D01*
X376786Y591418D01*
X376963Y591477D01*
X377143Y591534D01*
X377155Y591541D01*
X377168Y591545D01*
X377331Y591638D01*
X377496Y591729D01*
X377506Y591738D01*
X377518Y591744D01*
X377660Y591869D01*
X377803Y591990D01*
X377811Y592000D01*
X377821Y592009D01*
X377936Y592158D01*
X378052Y592305D01*
X378058Y592317D01*
X378067Y592328D01*
X378218Y592623D01*
X378842Y594128D01*
X383772Y599058D01*
X384551Y599381D01*
X390214Y601727D01*
X397186Y601727D01*
X403628Y599058D01*
X408558Y594128D01*
X411227Y587686D01*
X411227Y580714D01*
X408558Y574272D01*
X407223Y572936D01*
X407212Y572923D01*
X407198Y572911D01*
X407084Y572766D01*
X406968Y572625D01*
X406959Y572609D01*
X406948Y572595D01*
X406865Y572431D01*
X406779Y572269D01*
X406774Y572252D01*
X406766Y572236D01*
X406717Y572059D01*
X406664Y571883D01*
X406663Y571865D01*
X406658Y571848D01*
X406645Y571665D01*
X406628Y571482D01*
X406630Y571464D01*
X406629Y571447D01*
X406652Y571265D01*
X406671Y571082D01*
X406677Y571065D01*
X406679Y571047D01*
X406737Y570874D01*
X406793Y570698D01*
X406802Y570682D01*
X406807Y570666D01*
X406899Y570507D01*
X406988Y570346D01*
X406999Y570332D01*
X407008Y570317D01*
X407223Y570064D01*
X408558Y568728D01*
X411227Y562286D01*
X411227Y555314D01*
X408558Y548872D01*
X407223Y547536D01*
X407212Y547523D01*
X407198Y547511D01*
X407084Y547366D01*
X406968Y547225D01*
X406959Y547209D01*
X406948Y547195D01*
X406865Y547031D01*
X406779Y546869D01*
X406774Y546852D01*
X406766Y546836D01*
X406717Y546659D01*
X406664Y546483D01*
X406663Y546465D01*
X406658Y546448D01*
X406645Y546265D01*
X406628Y546082D01*
X406630Y546064D01*
X406629Y546047D01*
X406652Y545865D01*
X406671Y545682D01*
X406677Y545665D01*
X406679Y545647D01*
X406737Y545474D01*
X406793Y545298D01*
X406802Y545282D01*
X406807Y545266D01*
X406899Y545107D01*
X406988Y544946D01*
X406999Y544932D01*
X407008Y544917D01*
X407223Y544664D01*
X408558Y543328D01*
X411227Y536886D01*
X411227Y532892D01*
X411229Y532874D01*
X411227Y532856D01*
X411248Y532674D01*
X411267Y532491D01*
X411272Y532474D01*
X411274Y532457D01*
X411331Y532282D01*
X411385Y532106D01*
X411393Y532091D01*
X411399Y532074D01*
X411489Y531914D01*
X411577Y531752D01*
X411588Y531739D01*
X411597Y531723D01*
X411717Y531584D01*
X411834Y531443D01*
X411848Y531432D01*
X411860Y531418D01*
X412005Y531306D01*
X412148Y531191D01*
X412164Y531183D01*
X412178Y531172D01*
X412343Y531090D01*
X412505Y531005D01*
X412522Y531000D01*
X412538Y530992D01*
X412717Y530945D01*
X412892Y530894D01*
X412910Y530892D01*
X412927Y530888D01*
X413258Y530861D01*
X429033Y530861D01*
X429059Y530863D01*
X429086Y530861D01*
X429260Y530883D01*
X429433Y530901D01*
X429459Y530908D01*
X429486Y530912D01*
X429651Y530967D01*
X429818Y531019D01*
X429842Y531032D01*
X429867Y531040D01*
X430019Y531127D01*
X430172Y531211D01*
X430193Y531228D01*
X430216Y531241D01*
X430469Y531456D01*
X434572Y535558D01*
X441014Y538227D01*
X447986Y538227D01*
X454428Y535558D01*
X455764Y534223D01*
X455777Y534212D01*
X455789Y534198D01*
X455934Y534084D01*
X456075Y533968D01*
X456091Y533959D01*
X456105Y533948D01*
X456269Y533865D01*
X456431Y533779D01*
X456448Y533774D01*
X456464Y533766D01*
X456641Y533717D01*
X456817Y533664D01*
X456835Y533663D01*
X456852Y533658D01*
X457035Y533645D01*
X457218Y533628D01*
X457236Y533630D01*
X457253Y533629D01*
X457435Y533652D01*
X457618Y533671D01*
X457635Y533677D01*
X457653Y533679D01*
X457826Y533737D01*
X458002Y533793D01*
X458018Y533802D01*
X458034Y533807D01*
X458193Y533899D01*
X458354Y533988D01*
X458368Y533999D01*
X458383Y534008D01*
X458636Y534223D01*
X459972Y535558D01*
X466414Y538227D01*
X473386Y538227D01*
X479828Y535558D01*
X484812Y530574D01*
X484863Y530479D01*
X484899Y530436D01*
X484928Y530388D01*
X485027Y530281D01*
X485120Y530168D01*
X485163Y530133D01*
X485201Y530092D01*
X485319Y530006D01*
X485432Y529914D01*
X485482Y529889D01*
X485527Y529856D01*
X485660Y529795D01*
X485789Y529727D01*
X485842Y529712D01*
X485893Y529689D01*
X486035Y529655D01*
X486175Y529614D01*
X486231Y529609D01*
X486285Y529597D01*
X486431Y529592D01*
X486577Y529580D01*
X486632Y529586D01*
X486687Y529584D01*
X486832Y529608D01*
X486977Y529625D01*
X487030Y529642D01*
X487085Y529651D01*
X487221Y529703D01*
X487360Y529748D01*
X487408Y529775D01*
X487461Y529795D01*
X487644Y529906D01*
X487711Y529944D01*
X487725Y529956D01*
X487744Y529967D01*
X489043Y530911D01*
X490717Y531764D01*
X492504Y532345D01*
X492761Y532385D01*
X492761Y521208D01*
X492762Y521190D01*
X492761Y521173D01*
X492782Y520990D01*
X492801Y520808D01*
X492806Y520791D01*
X492808Y520773D01*
X492833Y520695D01*
X492794Y520558D01*
X492792Y520540D01*
X492788Y520523D01*
X492761Y520192D01*
X492761Y509015D01*
X492504Y509055D01*
X490717Y509636D01*
X489043Y510489D01*
X487744Y511433D01*
X487696Y511461D01*
X487652Y511495D01*
X487522Y511562D01*
X487396Y511636D01*
X487344Y511654D01*
X487294Y511679D01*
X487154Y511719D01*
X487016Y511767D01*
X486960Y511774D01*
X486907Y511789D01*
X486761Y511800D01*
X486616Y511820D01*
X486561Y511816D01*
X486505Y511820D01*
X486360Y511802D01*
X486215Y511793D01*
X486161Y511778D01*
X486106Y511771D01*
X485967Y511725D01*
X485826Y511687D01*
X485776Y511662D01*
X485724Y511645D01*
X485597Y511572D01*
X485466Y511507D01*
X485422Y511473D01*
X485374Y511445D01*
X485264Y511349D01*
X485149Y511260D01*
X485112Y511217D01*
X485070Y511181D01*
X484981Y511065D01*
X484886Y510954D01*
X484859Y510906D01*
X484825Y510862D01*
X484800Y510814D01*
X479828Y505842D01*
X474408Y503596D01*
X473386Y503173D01*
X466414Y503173D01*
X459972Y505842D01*
X458636Y507177D01*
X458622Y507188D01*
X458611Y507202D01*
X458467Y507316D01*
X458325Y507432D01*
X458309Y507441D01*
X458295Y507452D01*
X458131Y507535D01*
X457969Y507621D01*
X457952Y507626D01*
X457936Y507634D01*
X457759Y507683D01*
X457583Y507736D01*
X457565Y507737D01*
X457548Y507742D01*
X457365Y507755D01*
X457182Y507772D01*
X457164Y507770D01*
X457147Y507771D01*
X456965Y507748D01*
X456782Y507729D01*
X456765Y507723D01*
X456747Y507721D01*
X456573Y507663D01*
X456398Y507607D01*
X456382Y507598D01*
X456366Y507593D01*
X456207Y507501D01*
X456046Y507412D01*
X456032Y507401D01*
X456017Y507392D01*
X455764Y507177D01*
X454428Y505842D01*
X449008Y503596D01*
X447986Y503173D01*
X441014Y503173D01*
X434572Y505842D01*
X430469Y509944D01*
X430448Y509961D01*
X430431Y509982D01*
X430293Y510089D01*
X430158Y510199D01*
X430134Y510212D01*
X430113Y510228D01*
X429956Y510306D01*
X429802Y510388D01*
X429776Y510396D01*
X429752Y510408D01*
X429583Y510453D01*
X429416Y510503D01*
X429389Y510505D01*
X429364Y510512D01*
X429033Y510539D01*
X403354Y510539D01*
X403345Y510538D01*
X403336Y510539D01*
X403143Y510518D01*
X402953Y510499D01*
X402945Y510497D01*
X402936Y510496D01*
X402752Y510438D01*
X402568Y510381D01*
X402560Y510377D01*
X402552Y510374D01*
X402384Y510282D01*
X402214Y510189D01*
X402207Y510184D01*
X402200Y510179D01*
X402052Y510055D01*
X401905Y509932D01*
X401899Y509925D01*
X401893Y509919D01*
X401773Y509767D01*
X401653Y509618D01*
X401648Y509610D01*
X401643Y509603D01*
X401555Y509430D01*
X401467Y509261D01*
X401465Y509252D01*
X401461Y509244D01*
X401409Y509058D01*
X401356Y508874D01*
X401355Y508865D01*
X401353Y508856D01*
X401338Y508663D01*
X401323Y508472D01*
X401324Y508464D01*
X401323Y508455D01*
X401348Y508260D01*
X401370Y508073D01*
X401372Y508064D01*
X401374Y508055D01*
X401435Y507872D01*
X401495Y507690D01*
X401499Y507682D01*
X401502Y507674D01*
X401598Y507507D01*
X401692Y507339D01*
X401698Y507332D01*
X401703Y507325D01*
X401917Y507072D01*
X415268Y493721D01*
X416815Y489987D01*
X416815Y461996D01*
X416817Y461970D01*
X416815Y461943D01*
X416837Y461769D01*
X416855Y461595D01*
X416862Y461570D01*
X416866Y461543D01*
X416922Y461377D01*
X416973Y461211D01*
X416985Y461187D01*
X416994Y461162D01*
X417082Y461009D01*
X417165Y460857D01*
X417182Y460836D01*
X417195Y460813D01*
X417410Y460560D01*
X419612Y458358D01*
X419619Y458352D01*
X419624Y458345D01*
X419774Y458225D01*
X419923Y458103D01*
X419931Y458098D01*
X419938Y458093D01*
X420108Y458004D01*
X420279Y457914D01*
X420288Y457911D01*
X420295Y457907D01*
X420480Y457854D01*
X420665Y457799D01*
X420674Y457798D01*
X420682Y457796D01*
X420873Y457780D01*
X421066Y457763D01*
X421075Y457764D01*
X421084Y457763D01*
X421273Y457785D01*
X421466Y457806D01*
X421475Y457809D01*
X421483Y457810D01*
X421665Y457869D01*
X421850Y457928D01*
X421858Y457932D01*
X421866Y457935D01*
X422035Y458030D01*
X422202Y458123D01*
X422209Y458128D01*
X422217Y458133D01*
X422362Y458258D01*
X422509Y458383D01*
X422515Y458390D01*
X422522Y458396D01*
X422639Y458547D01*
X422759Y458699D01*
X422763Y458707D01*
X422768Y458714D01*
X422854Y458886D01*
X422941Y459058D01*
X422944Y459066D01*
X422948Y459075D01*
X422997Y459259D01*
X423049Y459446D01*
X423050Y459455D01*
X423052Y459463D01*
X423079Y459794D01*
X423079Y466437D01*
X440637Y466437D01*
X440637Y448879D01*
X433994Y448879D01*
X433985Y448878D01*
X433976Y448879D01*
X433783Y448858D01*
X433593Y448839D01*
X433585Y448837D01*
X433576Y448836D01*
X433391Y448777D01*
X433208Y448721D01*
X433201Y448717D01*
X433192Y448714D01*
X433024Y448621D01*
X432854Y448529D01*
X432848Y448524D01*
X432840Y448519D01*
X432693Y448395D01*
X432545Y448272D01*
X432540Y448265D01*
X432533Y448259D01*
X432413Y448107D01*
X432293Y447958D01*
X432289Y447950D01*
X432283Y447943D01*
X432195Y447770D01*
X432107Y447601D01*
X432105Y447592D01*
X432101Y447584D01*
X432049Y447398D01*
X431996Y447214D01*
X431995Y447205D01*
X431993Y447196D01*
X431979Y447003D01*
X431963Y446812D01*
X431964Y446804D01*
X431963Y446795D01*
X431988Y446602D01*
X432010Y446413D01*
X432013Y446404D01*
X432014Y446395D01*
X432075Y446212D01*
X432135Y446030D01*
X432139Y446022D01*
X432142Y446014D01*
X432238Y445847D01*
X432333Y445679D01*
X432339Y445672D01*
X432343Y445665D01*
X432558Y445412D01*
X440748Y437222D01*
X440768Y437205D01*
X440786Y437184D01*
X440924Y437077D01*
X441059Y436967D01*
X441083Y436954D01*
X441104Y436938D01*
X441261Y436860D01*
X441415Y436778D01*
X441440Y436770D01*
X441465Y436758D01*
X441634Y436713D01*
X441801Y436663D01*
X441827Y436661D01*
X441853Y436654D01*
X442184Y436627D01*
X447986Y436627D01*
X454428Y433958D01*
X455764Y432623D01*
X455777Y432612D01*
X455789Y432598D01*
X455934Y432484D01*
X456075Y432368D01*
X456091Y432359D01*
X456105Y432348D01*
X456269Y432265D01*
X456431Y432179D01*
X456448Y432174D01*
X456464Y432166D01*
X456641Y432117D01*
X456817Y432064D01*
X456835Y432063D01*
X456852Y432058D01*
X457035Y432045D01*
X457218Y432028D01*
X457236Y432030D01*
X457253Y432029D01*
X457435Y432052D01*
X457618Y432071D01*
X457635Y432077D01*
X457653Y432079D01*
X457826Y432137D01*
X458002Y432193D01*
X458018Y432202D01*
X458034Y432207D01*
X458193Y432299D01*
X458354Y432388D01*
X458368Y432399D01*
X458383Y432408D01*
X458636Y432623D01*
X459972Y433958D01*
X466414Y436627D01*
X473386Y436627D01*
X479828Y433958D01*
X484812Y428974D01*
X484863Y428879D01*
X484899Y428836D01*
X484928Y428788D01*
X485027Y428681D01*
X485120Y428568D01*
X485163Y428533D01*
X485201Y428492D01*
X485319Y428406D01*
X485432Y428314D01*
X485482Y428289D01*
X485527Y428256D01*
X485660Y428195D01*
X485789Y428127D01*
X485842Y428112D01*
X485893Y428089D01*
X486035Y428055D01*
X486175Y428014D01*
X486231Y428009D01*
X486285Y427997D01*
X486431Y427992D01*
X486577Y427980D01*
X486632Y427986D01*
X486687Y427984D01*
X486832Y428008D01*
X486977Y428025D01*
X487030Y428042D01*
X487085Y428051D01*
X487221Y428103D01*
X487360Y428148D01*
X487408Y428175D01*
X487461Y428195D01*
X487644Y428306D01*
X487711Y428344D01*
X487725Y428356D01*
X487744Y428367D01*
X489043Y429311D01*
X490717Y430164D01*
X492504Y430745D01*
X492761Y430785D01*
X492761Y419608D01*
X492762Y419590D01*
X492761Y419573D01*
X492782Y419390D01*
X492801Y419208D01*
X492806Y419191D01*
X492808Y419173D01*
X492833Y419095D01*
X492794Y418958D01*
X492792Y418940D01*
X492788Y418923D01*
X492761Y418592D01*
X492761Y407415D01*
X492504Y407455D01*
X490717Y408036D01*
X489043Y408889D01*
X487744Y409833D01*
X487696Y409861D01*
X487653Y409895D01*
X487523Y409962D01*
X487397Y410036D01*
X487344Y410054D01*
X487294Y410079D01*
X487154Y410119D01*
X487016Y410167D01*
X486961Y410174D01*
X486907Y410189D01*
X486761Y410200D01*
X486617Y410220D01*
X486561Y410216D01*
X486506Y410220D01*
X486361Y410203D01*
X486215Y410193D01*
X486161Y410178D01*
X486106Y410171D01*
X485967Y410126D01*
X485826Y410087D01*
X485777Y410062D01*
X485724Y410045D01*
X485597Y409972D01*
X485466Y409907D01*
X485422Y409873D01*
X485374Y409846D01*
X485264Y409749D01*
X485149Y409660D01*
X485112Y409618D01*
X485070Y409581D01*
X484981Y409465D01*
X484886Y409354D01*
X484859Y409306D01*
X484825Y409262D01*
X484800Y409214D01*
X479828Y404242D01*
X474499Y402034D01*
X474498Y402034D01*
X473386Y401573D01*
X466414Y401573D01*
X459972Y404242D01*
X458636Y405577D01*
X458622Y405588D01*
X458611Y405602D01*
X458467Y405716D01*
X458325Y405832D01*
X458309Y405841D01*
X458295Y405852D01*
X458131Y405935D01*
X457969Y406021D01*
X457952Y406026D01*
X457936Y406034D01*
X457759Y406083D01*
X457583Y406136D01*
X457565Y406137D01*
X457548Y406142D01*
X457365Y406155D01*
X457182Y406172D01*
X457164Y406170D01*
X457147Y406171D01*
X456965Y406148D01*
X456782Y406129D01*
X456765Y406123D01*
X456747Y406121D01*
X456573Y406063D01*
X456398Y406007D01*
X456382Y405998D01*
X456366Y405993D01*
X456207Y405901D01*
X456046Y405812D01*
X456032Y405801D01*
X456017Y405792D01*
X455764Y405577D01*
X454428Y404242D01*
X449099Y402034D01*
X449098Y402034D01*
X447986Y401573D01*
X441014Y401573D01*
X434572Y404242D01*
X429642Y409172D01*
X426973Y415614D01*
X426973Y421416D01*
X426971Y421443D01*
X426973Y421469D01*
X426951Y421643D01*
X426933Y421817D01*
X426926Y421842D01*
X426922Y421869D01*
X426867Y422034D01*
X426815Y422201D01*
X426802Y422225D01*
X426794Y422250D01*
X426707Y422402D01*
X426623Y422556D01*
X426606Y422576D01*
X426593Y422599D01*
X426378Y422852D01*
X414694Y434536D01*
X414687Y434542D01*
X414682Y434549D01*
X414532Y434669D01*
X414383Y434791D01*
X414375Y434796D01*
X414368Y434801D01*
X414197Y434890D01*
X414027Y434980D01*
X414019Y434983D01*
X414011Y434987D01*
X413825Y435040D01*
X413641Y435095D01*
X413632Y435096D01*
X413624Y435098D01*
X413432Y435114D01*
X413240Y435131D01*
X413231Y435130D01*
X413222Y435131D01*
X413033Y435109D01*
X412840Y435088D01*
X412831Y435085D01*
X412823Y435084D01*
X412641Y435025D01*
X412456Y434966D01*
X412448Y434962D01*
X412440Y434959D01*
X412271Y434864D01*
X412104Y434771D01*
X412097Y434766D01*
X412089Y434761D01*
X411943Y434635D01*
X411797Y434511D01*
X411791Y434504D01*
X411784Y434498D01*
X411667Y434347D01*
X411547Y434195D01*
X411543Y434187D01*
X411538Y434180D01*
X411452Y434008D01*
X411365Y433836D01*
X411362Y433828D01*
X411358Y433819D01*
X411308Y433633D01*
X411257Y433448D01*
X411256Y433439D01*
X411254Y433431D01*
X411227Y433100D01*
X411227Y428314D01*
X408558Y421872D01*
X403628Y416942D01*
X397186Y414273D01*
X390214Y414273D01*
X388381Y415032D01*
X388368Y415036D01*
X388357Y415042D01*
X388176Y415094D01*
X387996Y415149D01*
X387983Y415150D01*
X387970Y415154D01*
X387781Y415169D01*
X387595Y415187D01*
X387582Y415186D01*
X387568Y415187D01*
X387382Y415165D01*
X387195Y415145D01*
X387182Y415141D01*
X387169Y415140D01*
X386991Y415082D01*
X386810Y415025D01*
X386799Y415019D01*
X386786Y415015D01*
X386622Y414922D01*
X386457Y414832D01*
X386447Y414824D01*
X386435Y414817D01*
X386293Y414694D01*
X386149Y414573D01*
X386141Y414563D01*
X386130Y414554D01*
X386016Y414406D01*
X385898Y414258D01*
X385892Y414246D01*
X385884Y414236D01*
X385800Y414067D01*
X385714Y413900D01*
X385710Y413887D01*
X385704Y413875D01*
X385655Y413692D01*
X385604Y413513D01*
X385603Y413499D01*
X385600Y413486D01*
X385573Y413156D01*
X385573Y411450D01*
X385575Y411424D01*
X385573Y411397D01*
X385595Y411223D01*
X385613Y411049D01*
X385620Y411024D01*
X385624Y410997D01*
X385679Y410832D01*
X385731Y410665D01*
X385744Y410641D01*
X385752Y410616D01*
X385839Y410464D01*
X385923Y410311D01*
X385940Y410290D01*
X385953Y410267D01*
X386168Y410014D01*
X391472Y404710D01*
X391492Y404693D01*
X391510Y404672D01*
X391648Y404565D01*
X391783Y404455D01*
X391807Y404442D01*
X391828Y404426D01*
X391985Y404348D01*
X392139Y404266D01*
X392164Y404258D01*
X392189Y404246D01*
X392358Y404201D01*
X392525Y404151D01*
X392551Y404149D01*
X392577Y404142D01*
X392908Y404115D01*
X401087Y404115D01*
X404821Y402568D01*
X419745Y387644D01*
X419858Y387551D01*
X419966Y387453D01*
X420014Y387424D01*
X420057Y387389D01*
X420186Y387320D01*
X420311Y387245D01*
X420363Y387226D01*
X420412Y387200D01*
X420553Y387159D01*
X420690Y387109D01*
X420745Y387101D01*
X420798Y387085D01*
X420944Y387072D01*
X421089Y387051D01*
X421144Y387054D01*
X421199Y387049D01*
X421345Y387065D01*
X421491Y387073D01*
X421544Y387086D01*
X421600Y387092D01*
X421739Y387137D01*
X421881Y387173D01*
X421930Y387197D01*
X421983Y387214D01*
X422112Y387285D01*
X422243Y387348D01*
X422287Y387382D01*
X422336Y387409D01*
X422447Y387503D01*
X422564Y387592D01*
X422600Y387633D01*
X422643Y387669D01*
X422733Y387784D01*
X422830Y387894D01*
X422858Y387942D01*
X422892Y387985D01*
X422959Y388116D01*
X423032Y388242D01*
X423053Y388301D01*
X423075Y388344D01*
X423097Y388425D01*
X423144Y388555D01*
X423252Y388961D01*
X423587Y389540D01*
X424060Y390013D01*
X424639Y390348D01*
X425285Y390521D01*
X440637Y390521D01*
X440637Y370932D01*
X440639Y370914D01*
X440637Y370897D01*
X440658Y370714D01*
X440677Y370532D01*
X440682Y370514D01*
X440684Y370497D01*
X440741Y370322D01*
X440795Y370147D01*
X440803Y370131D01*
X440809Y370114D01*
X440899Y369954D01*
X440987Y369793D01*
X440998Y369779D01*
X441007Y369763D01*
X441127Y369624D01*
X441244Y369483D01*
X441258Y369472D01*
X441270Y369459D01*
X441415Y369346D01*
X441558Y369231D01*
X441574Y369223D01*
X441588Y369212D01*
X441753Y369130D01*
X441915Y369045D01*
X441932Y369041D01*
X441949Y369033D01*
X442127Y368985D01*
X442302Y368934D01*
X442320Y368933D01*
X442337Y368928D01*
X442668Y368901D01*
X446732Y368901D01*
X446750Y368903D01*
X446767Y368901D01*
X446950Y368923D01*
X447133Y368941D01*
X447150Y368946D01*
X447167Y368948D01*
X447342Y369005D01*
X447517Y369059D01*
X447533Y369067D01*
X447550Y369073D01*
X447710Y369163D01*
X447872Y369251D01*
X447885Y369262D01*
X447901Y369271D01*
X448040Y369391D01*
X448181Y369508D01*
X448192Y369522D01*
X448205Y369534D01*
X448318Y369679D01*
X448433Y369822D01*
X448441Y369838D01*
X448452Y369852D01*
X448534Y370017D01*
X448619Y370180D01*
X448624Y370197D01*
X448632Y370213D01*
X448679Y370391D01*
X448730Y370566D01*
X448731Y370584D01*
X448736Y370601D01*
X448763Y370932D01*
X448763Y390521D01*
X464115Y390521D01*
X464761Y390348D01*
X465340Y390013D01*
X465813Y389540D01*
X466148Y388961D01*
X466321Y388315D01*
X466321Y381744D01*
X466328Y381671D01*
X466326Y381598D01*
X466348Y381471D01*
X466361Y381343D01*
X466382Y381273D01*
X466395Y381201D01*
X466441Y381081D01*
X466479Y380958D01*
X466514Y380894D01*
X466540Y380826D01*
X466609Y380717D01*
X466671Y380604D01*
X466717Y380548D01*
X466757Y380486D01*
X466846Y380394D01*
X466928Y380295D01*
X466985Y380249D01*
X467036Y380196D01*
X467142Y380123D01*
X467242Y380043D01*
X467307Y380009D01*
X467367Y379967D01*
X467486Y379916D01*
X467599Y379857D01*
X467670Y379837D01*
X467737Y379808D01*
X467863Y379781D01*
X467986Y379746D01*
X468059Y379740D01*
X468131Y379725D01*
X468259Y379723D01*
X468388Y379713D01*
X468460Y379721D01*
X468534Y379721D01*
X468660Y379745D01*
X468787Y379760D01*
X468857Y379783D01*
X468929Y379796D01*
X469048Y379845D01*
X469170Y379885D01*
X469234Y379921D01*
X469302Y379948D01*
X469409Y380019D01*
X469521Y380083D01*
X469576Y380130D01*
X469637Y380171D01*
X469728Y380262D01*
X469825Y380346D01*
X469870Y380404D01*
X469922Y380455D01*
X470019Y380595D01*
X470072Y380664D01*
X470087Y380693D01*
X470111Y380728D01*
X472928Y385607D01*
X477993Y390672D01*
X484198Y394255D01*
X491118Y396109D01*
X498282Y396109D01*
X505202Y394255D01*
X511407Y390672D01*
X516472Y385607D01*
X520055Y379402D01*
X521909Y372482D01*
X521909Y365318D01*
X520055Y358398D01*
X516472Y352193D01*
X511407Y347128D01*
X505202Y343545D01*
X498282Y341691D01*
X491118Y341691D01*
X484198Y343545D01*
X477993Y347128D01*
X472928Y352193D01*
X470111Y357072D01*
X470068Y357131D01*
X470033Y357196D01*
X469951Y357294D01*
X469876Y357399D01*
X469823Y357449D01*
X469776Y357505D01*
X469676Y357585D01*
X469581Y357673D01*
X469519Y357711D01*
X469462Y357757D01*
X469348Y357816D01*
X469238Y357884D01*
X469170Y357909D01*
X469105Y357943D01*
X468981Y357978D01*
X468861Y358023D01*
X468788Y358034D01*
X468718Y358054D01*
X468589Y358065D01*
X468463Y358084D01*
X468390Y358081D01*
X468316Y358087D01*
X468189Y358072D01*
X468060Y358066D01*
X467989Y358049D01*
X467917Y358040D01*
X467794Y358000D01*
X467670Y357969D01*
X467604Y357938D01*
X467534Y357915D01*
X467422Y357852D01*
X467306Y357797D01*
X467247Y357753D01*
X467183Y357717D01*
X467086Y357633D01*
X466983Y357557D01*
X466934Y357502D01*
X466878Y357454D01*
X466800Y357353D01*
X466714Y357257D01*
X466677Y357194D01*
X466632Y357136D01*
X466574Y357021D01*
X466509Y356910D01*
X466485Y356841D01*
X466452Y356776D01*
X466419Y356651D01*
X466377Y356530D01*
X466367Y356458D01*
X466348Y356387D01*
X466334Y356217D01*
X466322Y356131D01*
X466324Y356098D01*
X466321Y356056D01*
X466321Y349485D01*
X466148Y348839D01*
X465813Y348260D01*
X465340Y347787D01*
X464761Y347452D01*
X464115Y347279D01*
X448763Y347279D01*
X448763Y366868D01*
X448761Y366886D01*
X448763Y366903D01*
X448741Y367086D01*
X448723Y367268D01*
X448718Y367286D01*
X448716Y367303D01*
X448659Y367478D01*
X448605Y367653D01*
X448597Y367669D01*
X448591Y367686D01*
X448501Y367846D01*
X448413Y368007D01*
X448402Y368021D01*
X448393Y368037D01*
X448273Y368176D01*
X448156Y368317D01*
X448142Y368328D01*
X448130Y368341D01*
X447985Y368454D01*
X447842Y368569D01*
X447826Y368577D01*
X447812Y368588D01*
X447647Y368670D01*
X447485Y368755D01*
X447468Y368759D01*
X447451Y368767D01*
X447273Y368815D01*
X447098Y368866D01*
X447080Y368867D01*
X447063Y368872D01*
X446732Y368899D01*
X442668Y368899D01*
X442650Y368897D01*
X442632Y368899D01*
X442450Y368877D01*
X442267Y368859D01*
X442250Y368854D01*
X442233Y368852D01*
X442058Y368795D01*
X441882Y368741D01*
X441867Y368733D01*
X441850Y368727D01*
X441690Y368637D01*
X441528Y368549D01*
X441515Y368538D01*
X441499Y368529D01*
X441360Y368409D01*
X441219Y368292D01*
X441208Y368278D01*
X441195Y368266D01*
X441082Y368121D01*
X440967Y367978D01*
X440959Y367962D01*
X440948Y367948D01*
X440866Y367783D01*
X440781Y367620D01*
X440776Y367603D01*
X440768Y367587D01*
X440721Y367409D01*
X440670Y367234D01*
X440668Y367216D01*
X440664Y367199D01*
X440637Y366868D01*
X440637Y346230D01*
X440606Y346170D01*
X440518Y346001D01*
X440516Y345992D01*
X440512Y345984D01*
X440460Y345798D01*
X440407Y345614D01*
X440406Y345605D01*
X440404Y345596D01*
X440390Y345403D01*
X440374Y345212D01*
X440375Y345204D01*
X440375Y345195D01*
X440399Y345002D01*
X440421Y344813D01*
X440424Y344804D01*
X440425Y344795D01*
X440486Y344613D01*
X440546Y344430D01*
X440550Y344422D01*
X440553Y344414D01*
X440649Y344247D01*
X440744Y344079D01*
X440750Y344072D01*
X440754Y344065D01*
X440969Y343812D01*
X450718Y334063D01*
X450742Y334043D01*
X450763Y334019D01*
X450898Y333915D01*
X451029Y333808D01*
X451057Y333793D01*
X451082Y333774D01*
X451377Y333622D01*
X454428Y332358D01*
X455764Y331023D01*
X455777Y331012D01*
X455789Y330998D01*
X455934Y330884D01*
X456075Y330768D01*
X456091Y330759D01*
X456105Y330748D01*
X456269Y330665D01*
X456431Y330579D01*
X456448Y330574D01*
X456464Y330566D01*
X456641Y330517D01*
X456817Y330464D01*
X456835Y330463D01*
X456852Y330458D01*
X457035Y330445D01*
X457218Y330428D01*
X457236Y330430D01*
X457253Y330429D01*
X457435Y330452D01*
X457618Y330471D01*
X457635Y330477D01*
X457653Y330479D01*
X457826Y330537D01*
X458002Y330593D01*
X458018Y330602D01*
X458034Y330607D01*
X458193Y330699D01*
X458354Y330788D01*
X458368Y330799D01*
X458383Y330808D01*
X458636Y331023D01*
X459972Y332358D01*
X466414Y335027D01*
X473386Y335027D01*
X479828Y332358D01*
X484812Y327374D01*
X484863Y327279D01*
X484899Y327236D01*
X484928Y327188D01*
X485027Y327081D01*
X485120Y326968D01*
X485163Y326933D01*
X485201Y326892D01*
X485319Y326806D01*
X485432Y326715D01*
X485482Y326689D01*
X485527Y326656D01*
X485660Y326595D01*
X485789Y326527D01*
X485842Y326512D01*
X485893Y326489D01*
X486035Y326455D01*
X486175Y326414D01*
X486231Y326409D01*
X486285Y326397D01*
X486431Y326392D01*
X486576Y326380D01*
X486632Y326386D01*
X486688Y326384D01*
X486831Y326408D01*
X486976Y326425D01*
X487030Y326442D01*
X487085Y326451D01*
X487221Y326503D01*
X487360Y326548D01*
X487409Y326575D01*
X487461Y326595D01*
X487644Y326706D01*
X487711Y326744D01*
X487725Y326756D01*
X487744Y326767D01*
X489043Y327711D01*
X490717Y328564D01*
X492504Y329145D01*
X492761Y329185D01*
X492761Y318008D01*
X492762Y317990D01*
X492761Y317973D01*
X492782Y317790D01*
X492801Y317608D01*
X492806Y317591D01*
X492808Y317573D01*
X492833Y317495D01*
X492794Y317358D01*
X492792Y317340D01*
X492788Y317323D01*
X492761Y316992D01*
X492761Y305815D01*
X492504Y305855D01*
X490717Y306436D01*
X489043Y307289D01*
X487744Y308233D01*
X487696Y308261D01*
X487652Y308296D01*
X487522Y308362D01*
X487396Y308436D01*
X487344Y308454D01*
X487294Y308479D01*
X487154Y308519D01*
X487016Y308567D01*
X486960Y308574D01*
X486907Y308589D01*
X486761Y308600D01*
X486617Y308620D01*
X486561Y308616D01*
X486505Y308620D01*
X486361Y308603D01*
X486215Y308593D01*
X486161Y308578D01*
X486106Y308571D01*
X485967Y308526D01*
X485826Y308487D01*
X485776Y308462D01*
X485723Y308445D01*
X485597Y308373D01*
X485466Y308307D01*
X485422Y308273D01*
X485374Y308245D01*
X485264Y308150D01*
X485149Y308060D01*
X485112Y308017D01*
X485070Y307981D01*
X484981Y307865D01*
X484886Y307754D01*
X484859Y307706D01*
X484825Y307662D01*
X484800Y307614D01*
X479828Y302642D01*
X474589Y300471D01*
X473386Y299973D01*
X466414Y299973D01*
X461615Y301961D01*
X461611Y301962D01*
X461607Y301964D01*
X461422Y302019D01*
X461230Y302077D01*
X461226Y302078D01*
X461221Y302079D01*
X461023Y302097D01*
X460829Y302115D01*
X460825Y302115D01*
X460820Y302115D01*
X460622Y302094D01*
X460429Y302074D01*
X460424Y302072D01*
X460420Y302072D01*
X460231Y302012D01*
X460044Y301954D01*
X460041Y301952D01*
X460036Y301950D01*
X459863Y301855D01*
X459691Y301761D01*
X459688Y301758D01*
X459684Y301756D01*
X459534Y301628D01*
X459383Y301502D01*
X459380Y301498D01*
X459377Y301495D01*
X459255Y301341D01*
X459132Y301187D01*
X459130Y301183D01*
X459127Y301179D01*
X459038Y301004D01*
X458948Y300829D01*
X458947Y300824D01*
X458945Y300820D01*
X458891Y300628D01*
X458838Y300441D01*
X458838Y300437D01*
X458837Y300432D01*
X458822Y300231D01*
X458807Y300040D01*
X458808Y300035D01*
X458808Y300031D01*
X458832Y299834D01*
X458856Y299640D01*
X458857Y299636D01*
X458858Y299631D01*
X458920Y299448D01*
X458983Y299258D01*
X458985Y299254D01*
X458986Y299250D01*
X459084Y299079D01*
X459182Y298908D01*
X459185Y298905D01*
X459187Y298901D01*
X459402Y298648D01*
X474276Y283774D01*
X474286Y283765D01*
X474295Y283755D01*
X474442Y283638D01*
X474588Y283519D01*
X474599Y283512D01*
X474610Y283504D01*
X474778Y283418D01*
X474943Y283330D01*
X474956Y283326D01*
X474968Y283320D01*
X475149Y283269D01*
X475329Y283215D01*
X475343Y283214D01*
X475355Y283210D01*
X475541Y283196D01*
X475730Y283179D01*
X475744Y283180D01*
X475757Y283179D01*
X475941Y283202D01*
X476130Y283222D01*
X476143Y283226D01*
X476156Y283228D01*
X476334Y283287D01*
X476514Y283344D01*
X476526Y283350D01*
X476539Y283354D01*
X476703Y283448D01*
X476867Y283538D01*
X476877Y283547D01*
X476888Y283554D01*
X477030Y283678D01*
X477174Y283799D01*
X477182Y283809D01*
X477192Y283818D01*
X477306Y283967D01*
X477423Y284115D01*
X477429Y284127D01*
X477437Y284137D01*
X477589Y284433D01*
X479796Y289760D01*
X484940Y294904D01*
X491662Y297689D01*
X498938Y297689D01*
X505660Y294904D01*
X510804Y289760D01*
X513589Y283038D01*
X513589Y275762D01*
X510804Y269040D01*
X505660Y263896D01*
X501631Y262227D01*
X501623Y262222D01*
X501614Y262220D01*
X501445Y262127D01*
X501276Y262036D01*
X501269Y262031D01*
X501261Y262026D01*
X501114Y261903D01*
X500965Y261780D01*
X500960Y261773D01*
X500953Y261767D01*
X500834Y261618D01*
X500712Y261467D01*
X500707Y261459D01*
X500702Y261452D01*
X500615Y261283D01*
X500525Y261111D01*
X500522Y261102D01*
X500518Y261094D01*
X500466Y260912D01*
X500411Y260724D01*
X500411Y260715D01*
X500408Y260707D01*
X500393Y260516D01*
X500377Y260323D01*
X500378Y260314D01*
X500377Y260306D01*
X500400Y260115D01*
X500422Y259923D01*
X500425Y259915D01*
X500426Y259906D01*
X500486Y259725D01*
X500545Y259540D01*
X500550Y259532D01*
X500552Y259524D01*
X500648Y259356D01*
X500742Y259188D01*
X500747Y259182D01*
X500752Y259174D01*
X500879Y259028D01*
X501003Y258883D01*
X501010Y258877D01*
X501016Y258870D01*
X501168Y258753D01*
X501320Y258634D01*
X501328Y258630D01*
X501335Y258625D01*
X501631Y258473D01*
X505660Y256804D01*
X510804Y251660D01*
X513589Y244938D01*
X513589Y237662D01*
X510804Y230940D01*
X505660Y225796D01*
X504500Y225315D01*
X498938Y223011D01*
X491662Y223011D01*
X484940Y225796D01*
X479796Y230940D01*
X477011Y237662D01*
X477011Y244938D01*
X478648Y248889D01*
X478655Y248911D01*
X478665Y248931D01*
X478713Y249103D01*
X478765Y249275D01*
X478767Y249297D01*
X478773Y249319D01*
X478786Y249498D01*
X478803Y249676D01*
X478800Y249698D01*
X478802Y249720D01*
X478780Y249898D01*
X478761Y250076D01*
X478754Y250097D01*
X478752Y250120D01*
X478695Y250289D01*
X478641Y250460D01*
X478630Y250480D01*
X478623Y250501D01*
X478534Y250656D01*
X478448Y250814D01*
X478434Y250831D01*
X478422Y250850D01*
X478208Y251103D01*
X438327Y290983D01*
X438324Y290986D01*
X438321Y290990D01*
X438170Y291113D01*
X438016Y291238D01*
X438012Y291241D01*
X438008Y291243D01*
X437833Y291336D01*
X437660Y291427D01*
X437656Y291428D01*
X437652Y291430D01*
X437459Y291487D01*
X437274Y291542D01*
X437270Y291542D01*
X437266Y291544D01*
X437072Y291560D01*
X436873Y291578D01*
X436869Y291578D01*
X436864Y291578D01*
X436675Y291557D01*
X436473Y291535D01*
X436469Y291534D01*
X436464Y291533D01*
X436278Y291473D01*
X436089Y291413D01*
X436085Y291411D01*
X436081Y291410D01*
X435907Y291313D01*
X435737Y291219D01*
X435734Y291216D01*
X435730Y291213D01*
X435581Y291087D01*
X435430Y290958D01*
X435427Y290954D01*
X435424Y290952D01*
X435304Y290798D01*
X435180Y290642D01*
X435178Y290638D01*
X435176Y290635D01*
X435088Y290461D01*
X434998Y290283D01*
X434997Y290279D01*
X434995Y290275D01*
X434943Y290088D01*
X434890Y289895D01*
X434890Y289891D01*
X434888Y289887D01*
X434875Y289690D01*
X434861Y289494D01*
X434861Y289489D01*
X434861Y289485D01*
X434886Y289289D01*
X434911Y289094D01*
X434912Y289090D01*
X434913Y289086D01*
X435014Y288770D01*
X437389Y283038D01*
X437389Y275762D01*
X434604Y269040D01*
X429460Y263896D01*
X425431Y262227D01*
X425423Y262222D01*
X425414Y262220D01*
X425245Y262127D01*
X425076Y262036D01*
X425069Y262031D01*
X425061Y262026D01*
X424914Y261903D01*
X424765Y261780D01*
X424760Y261773D01*
X424753Y261767D01*
X424634Y261618D01*
X424512Y261467D01*
X424507Y261459D01*
X424502Y261452D01*
X424415Y261283D01*
X424325Y261111D01*
X424322Y261102D01*
X424318Y261094D01*
X424266Y260912D01*
X424211Y260724D01*
X424211Y260715D01*
X424208Y260707D01*
X424193Y260516D01*
X424177Y260323D01*
X424178Y260314D01*
X424177Y260306D01*
X424200Y260115D01*
X424222Y259923D01*
X424225Y259915D01*
X424226Y259906D01*
X424286Y259725D01*
X424345Y259540D01*
X424350Y259532D01*
X424352Y259524D01*
X424448Y259356D01*
X424542Y259188D01*
X424547Y259182D01*
X424552Y259174D01*
X424679Y259028D01*
X424803Y258883D01*
X424810Y258877D01*
X424816Y258870D01*
X424968Y258753D01*
X425120Y258634D01*
X425128Y258630D01*
X425135Y258625D01*
X425431Y258473D01*
X429460Y256804D01*
X434604Y251660D01*
X437389Y244938D01*
X437389Y237662D01*
X434604Y230940D01*
X429856Y226192D01*
X429839Y226171D01*
X429818Y226153D01*
X429711Y226015D01*
X429601Y225880D01*
X429588Y225856D01*
X429572Y225835D01*
X429494Y225679D01*
X429412Y225524D01*
X429404Y225499D01*
X429392Y225475D01*
X429347Y225305D01*
X429297Y225138D01*
X429295Y225112D01*
X429288Y225086D01*
X429261Y224755D01*
X429261Y208250D01*
X429263Y208224D01*
X429261Y208197D01*
X429283Y208023D01*
X429301Y207849D01*
X429308Y207824D01*
X429312Y207797D01*
X429367Y207632D01*
X429419Y207465D01*
X429432Y207441D01*
X429440Y207416D01*
X429527Y207264D01*
X429611Y207111D01*
X429628Y207090D01*
X429641Y207067D01*
X429856Y206814D01*
X440748Y195922D01*
X440768Y195905D01*
X440786Y195884D01*
X440924Y195777D01*
X441059Y195667D01*
X441083Y195654D01*
X441104Y195638D01*
X441261Y195560D01*
X441415Y195478D01*
X441440Y195470D01*
X441465Y195458D01*
X441634Y195413D01*
X441801Y195363D01*
X441827Y195361D01*
X441853Y195354D01*
X442184Y195327D01*
X447986Y195327D01*
X454428Y192658D01*
X459412Y187674D01*
X459463Y187579D01*
X459499Y187536D01*
X459528Y187488D01*
X459627Y187381D01*
X459720Y187268D01*
X459763Y187233D01*
X459801Y187192D01*
X459919Y187106D01*
X460032Y187014D01*
X460082Y186989D01*
X460127Y186956D01*
X460260Y186895D01*
X460389Y186827D01*
X460442Y186812D01*
X460493Y186789D01*
X460635Y186755D01*
X460775Y186714D01*
X460831Y186709D01*
X460885Y186697D01*
X461031Y186692D01*
X461177Y186680D01*
X461232Y186686D01*
X461287Y186684D01*
X461432Y186708D01*
X461577Y186725D01*
X461630Y186742D01*
X461685Y186751D01*
X461821Y186803D01*
X461960Y186848D01*
X462008Y186875D01*
X462061Y186895D01*
X462244Y187006D01*
X462311Y187044D01*
X462325Y187056D01*
X462344Y187067D01*
X463643Y188011D01*
X465317Y188864D01*
X467104Y189445D01*
X467869Y189566D01*
X467869Y177800D01*
X467869Y166034D01*
X467104Y166155D01*
X465317Y166736D01*
X463643Y167589D01*
X462344Y168533D01*
X462296Y168561D01*
X462252Y168595D01*
X462122Y168662D01*
X461996Y168736D01*
X461944Y168754D01*
X461894Y168779D01*
X461754Y168819D01*
X461616Y168867D01*
X461560Y168874D01*
X461507Y168889D01*
X461361Y168900D01*
X461216Y168920D01*
X461161Y168916D01*
X461105Y168920D01*
X460960Y168902D01*
X460815Y168893D01*
X460761Y168878D01*
X460706Y168871D01*
X460567Y168825D01*
X460426Y168787D01*
X460376Y168762D01*
X460324Y168745D01*
X460197Y168672D01*
X460066Y168607D01*
X460022Y168573D01*
X459974Y168545D01*
X459864Y168449D01*
X459749Y168360D01*
X459712Y168317D01*
X459670Y168281D01*
X459581Y168165D01*
X459486Y168054D01*
X459459Y168006D01*
X459425Y167962D01*
X459400Y167914D01*
X454428Y162942D01*
X452991Y162346D01*
X447986Y160273D01*
X441014Y160273D01*
X434572Y162942D01*
X429642Y167872D01*
X426973Y174314D01*
X426973Y180116D01*
X426971Y180142D01*
X426973Y180169D01*
X426951Y180343D01*
X426933Y180517D01*
X426926Y180542D01*
X426922Y180569D01*
X426867Y180734D01*
X426815Y180901D01*
X426802Y180925D01*
X426794Y180950D01*
X426707Y181102D01*
X426623Y181255D01*
X426606Y181276D01*
X426593Y181299D01*
X426378Y181552D01*
X410486Y197444D01*
X408939Y201179D01*
X408939Y224755D01*
X408937Y224782D01*
X408939Y224809D01*
X408917Y224982D01*
X408899Y225156D01*
X408892Y225181D01*
X408888Y225208D01*
X408832Y225374D01*
X408781Y225541D01*
X408768Y225564D01*
X408760Y225590D01*
X408673Y225741D01*
X408589Y225895D01*
X408572Y225915D01*
X408559Y225939D01*
X408344Y226192D01*
X403596Y230940D01*
X400811Y237662D01*
X400811Y244938D01*
X403596Y251660D01*
X408740Y256804D01*
X411943Y258131D01*
X411944Y258131D01*
X412769Y258473D01*
X412777Y258478D01*
X412786Y258480D01*
X412954Y258572D01*
X413124Y258664D01*
X413131Y258669D01*
X413139Y258674D01*
X413285Y258797D01*
X413435Y258920D01*
X413440Y258927D01*
X413447Y258933D01*
X413567Y259083D01*
X413688Y259233D01*
X413693Y259241D01*
X413698Y259247D01*
X413786Y259419D01*
X413875Y259589D01*
X413878Y259598D01*
X413882Y259606D01*
X413934Y259790D01*
X413989Y259976D01*
X413989Y259984D01*
X413992Y259993D01*
X414007Y260184D01*
X414023Y260377D01*
X414022Y260386D01*
X414023Y260394D01*
X414000Y260585D01*
X413978Y260777D01*
X413975Y260785D01*
X413974Y260794D01*
X413914Y260977D01*
X413855Y261160D01*
X413851Y261168D01*
X413848Y261176D01*
X413752Y261344D01*
X413658Y261512D01*
X413653Y261518D01*
X413648Y261526D01*
X413522Y261671D01*
X413397Y261817D01*
X413390Y261823D01*
X413384Y261830D01*
X413232Y261947D01*
X413080Y262066D01*
X413072Y262070D01*
X413065Y262075D01*
X412769Y262227D01*
X408740Y263896D01*
X403596Y269040D01*
X400811Y275762D01*
X400811Y283038D01*
X403596Y289760D01*
X408740Y294904D01*
X415462Y297689D01*
X422738Y297689D01*
X428470Y295314D01*
X428474Y295313D01*
X428478Y295311D01*
X428663Y295256D01*
X428855Y295198D01*
X428860Y295198D01*
X428864Y295196D01*
X429062Y295178D01*
X429256Y295160D01*
X429260Y295160D01*
X429265Y295160D01*
X429467Y295182D01*
X429656Y295202D01*
X429661Y295203D01*
X429665Y295203D01*
X429856Y295264D01*
X430041Y295321D01*
X430045Y295324D01*
X430049Y295325D01*
X430221Y295420D01*
X430394Y295515D01*
X430397Y295518D01*
X430401Y295520D01*
X430550Y295646D01*
X430702Y295774D01*
X430705Y295777D01*
X430708Y295780D01*
X430831Y295936D01*
X430953Y296089D01*
X430955Y296093D01*
X430958Y296096D01*
X431046Y296269D01*
X431137Y296447D01*
X431138Y296451D01*
X431140Y296455D01*
X431193Y296644D01*
X431247Y296834D01*
X431247Y296839D01*
X431248Y296843D01*
X431263Y297044D01*
X431278Y297236D01*
X431277Y297240D01*
X431278Y297244D01*
X431253Y297442D01*
X431229Y297635D01*
X431228Y297639D01*
X431227Y297644D01*
X431165Y297829D01*
X431103Y298017D01*
X431100Y298021D01*
X431099Y298026D01*
X431001Y298196D01*
X430903Y298367D01*
X430900Y298370D01*
X430898Y298374D01*
X430683Y298627D01*
X422932Y306379D01*
X421385Y310113D01*
X421385Y312704D01*
X421383Y312730D01*
X421385Y312757D01*
X421363Y312931D01*
X421345Y313105D01*
X421338Y313130D01*
X421334Y313157D01*
X421279Y313322D01*
X421227Y313489D01*
X421214Y313513D01*
X421206Y313538D01*
X421119Y313690D01*
X421035Y313843D01*
X421018Y313864D01*
X421005Y313887D01*
X420790Y314140D01*
X412495Y322436D01*
X412484Y322444D01*
X412476Y322455D01*
X412329Y322572D01*
X412183Y322691D01*
X412171Y322697D01*
X412161Y322706D01*
X411994Y322791D01*
X411828Y322880D01*
X411815Y322883D01*
X411803Y322889D01*
X411622Y322941D01*
X411442Y322994D01*
X411428Y322996D01*
X411415Y322999D01*
X411230Y323014D01*
X411041Y323031D01*
X411027Y323029D01*
X411014Y323030D01*
X410829Y323008D01*
X410640Y322987D01*
X410628Y322983D01*
X410614Y322982D01*
X410437Y322923D01*
X410257Y322866D01*
X410245Y322859D01*
X410232Y322855D01*
X410069Y322762D01*
X409904Y322671D01*
X409894Y322662D01*
X409882Y322656D01*
X409740Y322531D01*
X409597Y322410D01*
X409589Y322400D01*
X409579Y322391D01*
X409464Y322242D01*
X409348Y322095D01*
X409342Y322083D01*
X409333Y322072D01*
X409182Y321777D01*
X408558Y320272D01*
X403628Y315342D01*
X397186Y312673D01*
X390214Y312673D01*
X383772Y315342D01*
X378842Y320272D01*
X376173Y326714D01*
X376173Y333686D01*
X378842Y340128D01*
X380177Y341464D01*
X380188Y341478D01*
X380202Y341489D01*
X380316Y341633D01*
X380432Y341775D01*
X380441Y341791D01*
X380452Y341805D01*
X380535Y341969D01*
X380621Y342131D01*
X380626Y342148D01*
X380634Y342164D01*
X380683Y342341D01*
X380736Y342517D01*
X380737Y342535D01*
X380742Y342552D01*
X380755Y342735D01*
X380772Y342918D01*
X380770Y342936D01*
X380771Y342953D01*
X380749Y343134D01*
X380729Y343318D01*
X380723Y343335D01*
X380721Y343353D01*
X380663Y343527D01*
X380607Y343702D01*
X380598Y343718D01*
X380593Y343734D01*
X380501Y343893D01*
X380412Y344054D01*
X380401Y344068D01*
X380392Y344083D01*
X380177Y344336D01*
X378842Y345672D01*
X376173Y352114D01*
X376173Y359440D01*
X376171Y359467D01*
X376173Y359493D01*
X376151Y359667D01*
X376133Y359841D01*
X376126Y359866D01*
X376122Y359893D01*
X376067Y360058D01*
X376015Y360225D01*
X376002Y360249D01*
X375994Y360274D01*
X375907Y360426D01*
X375823Y360580D01*
X375806Y360600D01*
X375793Y360623D01*
X375578Y360876D01*
X367576Y368878D01*
X367569Y368884D01*
X367564Y368891D01*
X367414Y369011D01*
X367265Y369133D01*
X367257Y369138D01*
X367250Y369143D01*
X367079Y369232D01*
X366909Y369322D01*
X366901Y369325D01*
X366893Y369329D01*
X366707Y369382D01*
X366523Y369437D01*
X366514Y369438D01*
X366506Y369440D01*
X366314Y369456D01*
X366122Y369473D01*
X366113Y369472D01*
X366104Y369473D01*
X365915Y369451D01*
X365722Y369430D01*
X365713Y369427D01*
X365705Y369426D01*
X365523Y369367D01*
X365338Y369308D01*
X365330Y369304D01*
X365322Y369301D01*
X365153Y369206D01*
X364986Y369113D01*
X364979Y369108D01*
X364971Y369103D01*
X364825Y368977D01*
X364679Y368853D01*
X364673Y368846D01*
X364666Y368840D01*
X364549Y368689D01*
X364429Y368537D01*
X364425Y368529D01*
X364420Y368522D01*
X364334Y368350D01*
X364247Y368178D01*
X364244Y368170D01*
X364240Y368161D01*
X364190Y367975D01*
X364139Y367790D01*
X364138Y367781D01*
X364136Y367773D01*
X364109Y367442D01*
X364109Y365382D01*
X361876Y359991D01*
X358921Y357036D01*
X358910Y357022D01*
X358896Y357011D01*
X358783Y356867D01*
X358666Y356725D01*
X358658Y356709D01*
X358647Y356695D01*
X358563Y356530D01*
X358477Y356369D01*
X358472Y356352D01*
X358464Y356336D01*
X358415Y356159D01*
X358363Y355983D01*
X358361Y355965D01*
X358356Y355948D01*
X358343Y355765D01*
X358326Y355582D01*
X358328Y355564D01*
X358327Y355547D01*
X358350Y355365D01*
X358370Y355182D01*
X358375Y355165D01*
X358377Y355147D01*
X358436Y354973D01*
X358491Y354798D01*
X358500Y354782D01*
X358505Y354766D01*
X358597Y354606D01*
X358686Y354446D01*
X358697Y354432D01*
X358706Y354417D01*
X358921Y354164D01*
X361876Y351209D01*
X364109Y345818D01*
X364109Y339982D01*
X361876Y334591D01*
X357749Y330464D01*
X354235Y329009D01*
X354120Y328947D01*
X354000Y328893D01*
X353942Y328852D01*
X353880Y328819D01*
X353779Y328735D01*
X353673Y328659D01*
X353624Y328607D01*
X353570Y328562D01*
X353487Y328461D01*
X353398Y328365D01*
X353361Y328305D01*
X353316Y328250D01*
X353255Y328134D01*
X353186Y328022D01*
X353162Y327956D01*
X353129Y327893D01*
X353092Y327768D01*
X353047Y327645D01*
X353036Y327575D01*
X353016Y327507D01*
X353004Y327376D01*
X352984Y327247D01*
X352987Y327176D01*
X352981Y327105D01*
X352996Y326976D01*
X353001Y326845D01*
X353018Y326776D01*
X353026Y326705D01*
X353066Y326581D01*
X353097Y326454D01*
X353128Y326390D01*
X353149Y326322D01*
X353213Y326208D01*
X353269Y326089D01*
X353311Y326032D01*
X353346Y325971D01*
X353431Y325871D01*
X353509Y325766D01*
X353561Y325719D01*
X353608Y325665D01*
X353711Y325584D01*
X353808Y325496D01*
X353878Y325453D01*
X353925Y325417D01*
X353993Y325382D01*
X354090Y325322D01*
X354199Y325266D01*
X355356Y324426D01*
X356366Y323416D01*
X357207Y322259D01*
X357855Y320986D01*
X358297Y319626D01*
X358312Y319531D01*
X342900Y319531D01*
X342883Y319530D01*
X342865Y319531D01*
X342682Y319510D01*
X342500Y319491D01*
X342483Y319486D01*
X342465Y319484D01*
X342290Y319427D01*
X342115Y319373D01*
X342099Y319365D01*
X342082Y319359D01*
X341922Y319269D01*
X341761Y319182D01*
X341747Y319170D01*
X341732Y319161D01*
X341592Y319041D01*
X341452Y318924D01*
X341440Y318910D01*
X341427Y318898D01*
X341314Y318753D01*
X341199Y318610D01*
X341191Y318594D01*
X341180Y318580D01*
X341098Y318415D01*
X341014Y318253D01*
X341009Y318236D01*
X341001Y318220D01*
X340953Y318042D01*
X340902Y317866D01*
X340901Y317848D01*
X340896Y317831D01*
X340869Y317500D01*
X340871Y317482D01*
X340869Y317465D01*
X340869Y317464D01*
X340891Y317282D01*
X340909Y317099D01*
X340914Y317082D01*
X340916Y317064D01*
X340973Y316890D01*
X341027Y316714D01*
X341036Y316699D01*
X341041Y316682D01*
X341132Y316521D01*
X341219Y316360D01*
X341230Y316347D01*
X341239Y316331D01*
X341359Y316192D01*
X341477Y316051D01*
X341491Y316040D01*
X341502Y316026D01*
X341647Y315914D01*
X341790Y315799D01*
X341806Y315790D01*
X341820Y315780D01*
X341985Y315698D01*
X342148Y315613D01*
X342165Y315608D01*
X342181Y315600D01*
X342359Y315552D01*
X342535Y315502D01*
X342552Y315500D01*
X342570Y315496D01*
X342900Y315469D01*
X358312Y315469D01*
X358297Y315374D01*
X357855Y314014D01*
X357207Y312741D01*
X356366Y311584D01*
X355356Y310574D01*
X354199Y309734D01*
X354090Y309678D01*
X353980Y309607D01*
X353865Y309544D01*
X353811Y309499D01*
X353751Y309460D01*
X353657Y309370D01*
X353557Y309285D01*
X353513Y309230D01*
X353462Y309180D01*
X353388Y309073D01*
X353306Y308970D01*
X353274Y308907D01*
X353233Y308849D01*
X353182Y308729D01*
X353122Y308612D01*
X353103Y308544D01*
X353075Y308479D01*
X353048Y308350D01*
X353013Y308225D01*
X353007Y308154D01*
X352992Y308085D01*
X352991Y307954D01*
X352981Y307823D01*
X352990Y307753D01*
X352989Y307682D01*
X353014Y307553D01*
X353030Y307424D01*
X353052Y307356D01*
X353066Y307287D01*
X353115Y307166D01*
X353157Y307042D01*
X353192Y306980D01*
X353219Y306914D01*
X353291Y306806D01*
X353356Y306692D01*
X353403Y306638D01*
X353442Y306579D01*
X353535Y306487D01*
X353620Y306388D01*
X353677Y306345D01*
X353727Y306295D01*
X353836Y306222D01*
X353940Y306143D01*
X354012Y306105D01*
X354062Y306072D01*
X354133Y306043D01*
X354235Y305991D01*
X357749Y304536D01*
X361876Y300409D01*
X364109Y295018D01*
X364109Y289182D01*
X361876Y283791D01*
X358921Y280836D01*
X358910Y280822D01*
X358896Y280811D01*
X358782Y280667D01*
X358666Y280525D01*
X358658Y280509D01*
X358647Y280495D01*
X358563Y280331D01*
X358477Y280169D01*
X358472Y280152D01*
X358464Y280136D01*
X358415Y279959D01*
X358363Y279783D01*
X358361Y279765D01*
X358356Y279748D01*
X358343Y279565D01*
X358326Y279382D01*
X358328Y279364D01*
X358327Y279347D01*
X358350Y279165D01*
X358370Y278982D01*
X358375Y278965D01*
X358377Y278947D01*
X358436Y278773D01*
X358491Y278598D01*
X358500Y278582D01*
X358505Y278566D01*
X358597Y278406D01*
X358686Y278246D01*
X358697Y278232D01*
X358706Y278217D01*
X358921Y277964D01*
X361876Y275009D01*
X364109Y269618D01*
X364109Y263782D01*
X361876Y258391D01*
X358921Y255436D01*
X358910Y255422D01*
X358896Y255411D01*
X358783Y255267D01*
X358666Y255125D01*
X358658Y255109D01*
X358647Y255095D01*
X358563Y254931D01*
X358477Y254769D01*
X358472Y254752D01*
X358464Y254736D01*
X358415Y254559D01*
X358363Y254383D01*
X358361Y254365D01*
X358356Y254348D01*
X358343Y254165D01*
X358326Y253982D01*
X358328Y253964D01*
X358327Y253947D01*
X358350Y253765D01*
X358370Y253582D01*
X358375Y253565D01*
X358377Y253547D01*
X358436Y253373D01*
X358491Y253198D01*
X358500Y253182D01*
X358505Y253166D01*
X358597Y253006D01*
X358686Y252846D01*
X358697Y252832D01*
X358706Y252817D01*
X358921Y252564D01*
X361876Y249609D01*
X364109Y244218D01*
X364109Y238382D01*
X361876Y232991D01*
X357749Y228864D01*
X354085Y227346D01*
X354084Y227346D01*
X352358Y226631D01*
X333442Y226631D01*
X328691Y228599D01*
X328678Y228603D01*
X328667Y228609D01*
X328486Y228661D01*
X328306Y228716D01*
X328293Y228717D01*
X328280Y228721D01*
X328092Y228736D01*
X327905Y228754D01*
X327892Y228752D01*
X327878Y228753D01*
X327691Y228731D01*
X327505Y228712D01*
X327492Y228708D01*
X327479Y228707D01*
X327299Y228648D01*
X327120Y228592D01*
X327109Y228586D01*
X327096Y228582D01*
X326931Y228489D01*
X326767Y228399D01*
X326757Y228390D01*
X326745Y228384D01*
X326603Y228261D01*
X326459Y228140D01*
X326451Y228129D01*
X326440Y228121D01*
X326325Y227972D01*
X326208Y227825D01*
X326202Y227813D01*
X326194Y227803D01*
X326110Y227634D01*
X326024Y227467D01*
X326020Y227454D01*
X326014Y227442D01*
X325965Y227259D01*
X325914Y227079D01*
X325913Y227066D01*
X325910Y227053D01*
X325883Y226723D01*
X325883Y157755D01*
X325885Y157729D01*
X325883Y157702D01*
X325905Y157528D01*
X325923Y157355D01*
X325930Y157329D01*
X325934Y157302D01*
X325989Y157137D01*
X326041Y156970D01*
X326054Y156946D01*
X326062Y156921D01*
X326149Y156769D01*
X326233Y156616D01*
X326250Y156595D01*
X326263Y156572D01*
X326478Y156319D01*
X351370Y131427D01*
X351377Y131421D01*
X351382Y131414D01*
X351532Y131294D01*
X351681Y131172D01*
X351689Y131168D01*
X351696Y131162D01*
X351867Y131073D01*
X352037Y130983D01*
X352045Y130981D01*
X352053Y130976D01*
X352239Y130923D01*
X352423Y130868D01*
X352432Y130867D01*
X352440Y130865D01*
X352632Y130849D01*
X352824Y130832D01*
X352833Y130833D01*
X352842Y130832D01*
X353031Y130854D01*
X353224Y130875D01*
X353233Y130878D01*
X353241Y130879D01*
X353423Y130938D01*
X353608Y130997D01*
X353616Y131001D01*
X353624Y131004D01*
X353793Y131099D01*
X353960Y131192D01*
X353967Y131197D01*
X353975Y131202D01*
X354121Y131328D01*
X354267Y131452D01*
X354273Y131459D01*
X354280Y131465D01*
X354397Y131616D01*
X354517Y131768D01*
X354521Y131776D01*
X354526Y131783D01*
X354612Y131955D01*
X354699Y132127D01*
X354702Y132136D01*
X354706Y132144D01*
X354756Y132330D01*
X354807Y132515D01*
X354808Y132524D01*
X354810Y132532D01*
X354837Y132863D01*
X354837Y138257D01*
X355080Y139161D01*
X355081Y139172D01*
X355101Y139228D01*
X355115Y139335D01*
X355140Y139439D01*
X355143Y139534D01*
X355155Y139627D01*
X355148Y139734D01*
X355152Y139842D01*
X355136Y139935D01*
X355130Y140029D01*
X355102Y140133D01*
X355084Y140239D01*
X355070Y140274D01*
X354837Y141143D01*
X354837Y149543D01*
X365443Y149543D01*
X365443Y127826D01*
X365445Y127808D01*
X365444Y127790D01*
X365465Y127608D01*
X365483Y127425D01*
X365488Y127408D01*
X365490Y127390D01*
X365547Y127216D01*
X365601Y127040D01*
X365610Y127024D01*
X365615Y127008D01*
X365706Y126847D01*
X365793Y126686D01*
X365804Y126672D01*
X365813Y126657D01*
X365933Y126518D01*
X366051Y126377D01*
X366065Y126366D01*
X366076Y126352D01*
X366221Y126240D01*
X366364Y126125D01*
X366380Y126116D01*
X366394Y126105D01*
X366559Y126023D01*
X366722Y125939D01*
X366739Y125934D01*
X366755Y125926D01*
X366933Y125878D01*
X367109Y125828D01*
X367126Y125826D01*
X367129Y125825D01*
X367134Y125774D01*
X367140Y125757D01*
X367142Y125739D01*
X367199Y125564D01*
X367252Y125389D01*
X367261Y125373D01*
X367267Y125356D01*
X367357Y125196D01*
X367444Y125035D01*
X367456Y125021D01*
X367464Y125006D01*
X367585Y124866D01*
X367702Y124726D01*
X367716Y124714D01*
X367728Y124701D01*
X367873Y124588D01*
X368016Y124473D01*
X368032Y124465D01*
X368046Y124454D01*
X368211Y124372D01*
X368373Y124288D01*
X368390Y124283D01*
X368406Y124275D01*
X368584Y124227D01*
X368760Y124176D01*
X368778Y124175D01*
X368795Y124170D01*
X369126Y124143D01*
X381763Y124143D01*
X381763Y115743D01*
X381590Y115097D01*
X381255Y114518D01*
X380782Y114045D01*
X380203Y113710D01*
X379557Y113537D01*
X374163Y113537D01*
X374154Y113536D01*
X374145Y113537D01*
X373952Y113516D01*
X373762Y113497D01*
X373754Y113495D01*
X373745Y113494D01*
X373561Y113435D01*
X373378Y113379D01*
X373370Y113375D01*
X373361Y113372D01*
X373193Y113279D01*
X373024Y113187D01*
X373017Y113182D01*
X373009Y113177D01*
X372862Y113053D01*
X372714Y112930D01*
X372709Y112923D01*
X372702Y112917D01*
X372582Y112765D01*
X372462Y112616D01*
X372458Y112608D01*
X372452Y112601D01*
X372364Y112428D01*
X372276Y112259D01*
X372274Y112250D01*
X372270Y112242D01*
X372218Y112056D01*
X372165Y111872D01*
X372164Y111863D01*
X372162Y111854D01*
X372148Y111661D01*
X372132Y111470D01*
X372133Y111462D01*
X372133Y111453D01*
X372157Y111260D01*
X372179Y111071D01*
X372182Y111062D01*
X372183Y111053D01*
X372244Y110871D01*
X372304Y110688D01*
X372308Y110680D01*
X372311Y110672D01*
X372407Y110505D01*
X372502Y110337D01*
X372508Y110330D01*
X372512Y110323D01*
X372727Y110070D01*
X408541Y74256D01*
X408562Y74239D01*
X408579Y74218D01*
X408717Y74111D01*
X408852Y74001D01*
X408876Y73988D01*
X408897Y73972D01*
X409054Y73894D01*
X409208Y73812D01*
X409234Y73804D01*
X409258Y73792D01*
X409427Y73747D01*
X409594Y73697D01*
X409621Y73695D01*
X409646Y73688D01*
X409977Y73661D01*
X452871Y73661D01*
X456606Y72114D01*
X472498Y56222D01*
X472518Y56205D01*
X472536Y56184D01*
X472674Y56077D01*
X472809Y55967D01*
X472833Y55954D01*
X472854Y55938D01*
X473011Y55860D01*
X473165Y55778D01*
X473190Y55770D01*
X473215Y55758D01*
X473384Y55713D01*
X473551Y55663D01*
X473577Y55661D01*
X473603Y55654D01*
X473934Y55627D01*
X477196Y55627D01*
X483638Y52958D01*
X488568Y48028D01*
X491237Y41586D01*
X491237Y34614D01*
X488568Y28172D01*
X483638Y23242D01*
X477196Y20573D01*
X470224Y20573D01*
X463782Y23242D01*
X462446Y24577D01*
X462433Y24588D01*
X462421Y24602D01*
X462276Y24716D01*
X462135Y24832D01*
X462119Y24841D01*
X462105Y24852D01*
X461941Y24935D01*
X461779Y25021D01*
X461762Y25026D01*
X461746Y25034D01*
X461569Y25083D01*
X461393Y25136D01*
X461375Y25137D01*
X461358Y25142D01*
X461175Y25155D01*
X460992Y25172D01*
X460974Y25170D01*
X460957Y25171D01*
X460775Y25148D01*
X460592Y25129D01*
X460575Y25123D01*
X460557Y25121D01*
X460384Y25063D01*
X460208Y25007D01*
X460192Y24998D01*
X460176Y24993D01*
X460017Y24901D01*
X459856Y24812D01*
X459842Y24801D01*
X459827Y24792D01*
X459574Y24577D01*
X458238Y23242D01*
X451796Y20573D01*
X444824Y20573D01*
X438382Y23242D01*
X433398Y28226D01*
X433347Y28321D01*
X433311Y28364D01*
X433282Y28412D01*
X433183Y28519D01*
X433090Y28632D01*
X433047Y28667D01*
X433009Y28708D01*
X432891Y28794D01*
X432778Y28885D01*
X432728Y28911D01*
X432683Y28944D01*
X432550Y29005D01*
X432421Y29073D01*
X432368Y29088D01*
X432317Y29111D01*
X432175Y29145D01*
X432035Y29186D01*
X431979Y29191D01*
X431925Y29203D01*
X431779Y29208D01*
X431634Y29220D01*
X431578Y29214D01*
X431522Y29216D01*
X431379Y29192D01*
X431234Y29175D01*
X431180Y29158D01*
X431125Y29149D01*
X430989Y29097D01*
X430850Y29052D01*
X430801Y29025D01*
X430749Y29005D01*
X430566Y28894D01*
X430499Y28856D01*
X430485Y28844D01*
X430466Y28833D01*
X429167Y27889D01*
X427493Y27036D01*
X425706Y26455D01*
X425449Y26415D01*
X425449Y37592D01*
X425447Y37610D01*
X425449Y37627D01*
X425428Y37810D01*
X425409Y37992D01*
X425404Y38009D01*
X425402Y38027D01*
X425345Y38202D01*
X425291Y38377D01*
X425283Y38393D01*
X425277Y38410D01*
X425187Y38570D01*
X425099Y38731D01*
X425088Y38745D01*
X425079Y38761D01*
X424959Y38900D01*
X424842Y39041D01*
X424828Y39052D01*
X424816Y39065D01*
X424671Y39178D01*
X424528Y39293D01*
X424512Y39301D01*
X424498Y39312D01*
X424333Y39394D01*
X424171Y39478D01*
X424154Y39483D01*
X424138Y39491D01*
X423959Y39539D01*
X423784Y39590D01*
X423766Y39591D01*
X423749Y39596D01*
X423418Y39623D01*
X422402Y39623D01*
X422384Y39621D01*
X422366Y39623D01*
X422184Y39601D01*
X422001Y39583D01*
X421984Y39578D01*
X421967Y39576D01*
X421792Y39519D01*
X421616Y39465D01*
X421601Y39457D01*
X421584Y39451D01*
X421424Y39361D01*
X421262Y39273D01*
X421249Y39262D01*
X421233Y39253D01*
X421094Y39133D01*
X420953Y39015D01*
X420942Y39002D01*
X420928Y38990D01*
X420816Y38845D01*
X420701Y38702D01*
X420693Y38686D01*
X420682Y38672D01*
X420600Y38507D01*
X420515Y38344D01*
X420510Y38327D01*
X420502Y38311D01*
X420454Y38133D01*
X420404Y37958D01*
X420402Y37940D01*
X420398Y37923D01*
X420371Y37592D01*
X420371Y26415D01*
X420114Y26455D01*
X418204Y27076D01*
X418063Y27107D01*
X417924Y27145D01*
X417867Y27150D01*
X417810Y27162D01*
X417666Y27164D01*
X417523Y27175D01*
X417465Y27168D01*
X417408Y27169D01*
X417266Y27142D01*
X417123Y27124D01*
X417069Y27106D01*
X417012Y27096D01*
X416878Y27042D01*
X416742Y26996D01*
X416692Y26967D01*
X416638Y26946D01*
X416518Y26867D01*
X416393Y26795D01*
X416343Y26753D01*
X416301Y26726D01*
X416242Y26667D01*
X416140Y26581D01*
X409235Y19676D01*
X406091Y16532D01*
X402357Y14985D01*
X374883Y14985D01*
X371149Y16532D01*
X368005Y19676D01*
X367702Y19978D01*
X367682Y19995D01*
X367664Y20016D01*
X367526Y20123D01*
X367391Y20233D01*
X367367Y20246D01*
X367346Y20262D01*
X367190Y20340D01*
X367035Y20422D01*
X367010Y20430D01*
X366986Y20442D01*
X366817Y20487D01*
X366649Y20537D01*
X366623Y20539D01*
X366597Y20546D01*
X366266Y20573D01*
X366084Y20573D01*
X359642Y23242D01*
X354658Y28226D01*
X354607Y28321D01*
X354571Y28364D01*
X354542Y28412D01*
X354443Y28519D01*
X354350Y28632D01*
X354307Y28667D01*
X354269Y28708D01*
X354151Y28794D01*
X354038Y28885D01*
X353988Y28911D01*
X353943Y28944D01*
X353810Y29005D01*
X353681Y29073D01*
X353628Y29088D01*
X353577Y29111D01*
X353435Y29145D01*
X353295Y29186D01*
X353239Y29191D01*
X353185Y29203D01*
X353039Y29208D01*
X352894Y29220D01*
X352838Y29214D01*
X352782Y29216D01*
X352639Y29192D01*
X352494Y29175D01*
X352440Y29158D01*
X352385Y29149D01*
X352249Y29097D01*
X352110Y29052D01*
X352061Y29025D01*
X352009Y29005D01*
X351826Y28894D01*
X351759Y28856D01*
X351745Y28844D01*
X351726Y28833D01*
X350427Y27889D01*
X348753Y27036D01*
X346966Y26455D01*
X346709Y26415D01*
X346709Y37592D01*
X346707Y37610D01*
X346709Y37627D01*
X346688Y37810D01*
X346669Y37992D01*
X346664Y38009D01*
X346662Y38027D01*
X346605Y38202D01*
X346551Y38377D01*
X346543Y38393D01*
X346537Y38410D01*
X346447Y38570D01*
X346359Y38731D01*
X346348Y38745D01*
X346339Y38761D01*
X346219Y38900D01*
X346102Y39041D01*
X346088Y39052D01*
X346076Y39065D01*
X345931Y39178D01*
X345788Y39293D01*
X345772Y39301D01*
X345758Y39312D01*
X345593Y39394D01*
X345431Y39478D01*
X345414Y39483D01*
X345398Y39491D01*
X345219Y39539D01*
X345044Y39590D01*
X345026Y39591D01*
X345009Y39596D01*
X344678Y39623D01*
X343662Y39623D01*
X343644Y39621D01*
X343626Y39623D01*
X343444Y39601D01*
X343261Y39583D01*
X343244Y39578D01*
X343227Y39576D01*
X343052Y39519D01*
X342876Y39465D01*
X342861Y39457D01*
X342844Y39451D01*
X342684Y39361D01*
X342522Y39273D01*
X342509Y39262D01*
X342493Y39253D01*
X342354Y39133D01*
X342213Y39015D01*
X342202Y39002D01*
X342188Y38990D01*
X342076Y38845D01*
X341961Y38702D01*
X341953Y38686D01*
X341942Y38672D01*
X341860Y38507D01*
X341775Y38344D01*
X341770Y38327D01*
X341762Y38311D01*
X341714Y38133D01*
X341664Y37958D01*
X341662Y37940D01*
X341658Y37923D01*
X341631Y37592D01*
X341631Y26415D01*
X341374Y26455D01*
X339464Y27076D01*
X339323Y27107D01*
X339184Y27145D01*
X339127Y27150D01*
X339070Y27162D01*
X338926Y27164D01*
X338783Y27175D01*
X338725Y27168D01*
X338668Y27169D01*
X338526Y27142D01*
X338383Y27124D01*
X338329Y27106D01*
X338272Y27096D01*
X338138Y27042D01*
X338002Y26996D01*
X337952Y26967D01*
X337898Y26946D01*
X337778Y26867D01*
X337653Y26795D01*
X337603Y26753D01*
X337561Y26726D01*
X337502Y26667D01*
X337400Y26581D01*
X330495Y19676D01*
X327351Y16532D01*
X323617Y14985D01*
X296143Y14985D01*
X292409Y16532D01*
X288962Y19978D01*
X288942Y19995D01*
X288924Y20016D01*
X288786Y20123D01*
X288651Y20233D01*
X288627Y20246D01*
X288606Y20262D01*
X288449Y20340D01*
X288295Y20422D01*
X288270Y20430D01*
X288246Y20442D01*
X288076Y20487D01*
X287909Y20537D01*
X287883Y20539D01*
X287857Y20546D01*
X287526Y20573D01*
X287344Y20573D01*
X280902Y23242D01*
X275918Y28226D01*
X275867Y28321D01*
X275831Y28364D01*
X275802Y28412D01*
X275703Y28519D01*
X275610Y28632D01*
X275567Y28667D01*
X275529Y28708D01*
X275411Y28794D01*
X275298Y28885D01*
X275248Y28911D01*
X275203Y28944D01*
X275070Y29005D01*
X274941Y29073D01*
X274888Y29088D01*
X274837Y29111D01*
X274695Y29145D01*
X274555Y29186D01*
X274499Y29191D01*
X274445Y29203D01*
X274299Y29208D01*
X274154Y29220D01*
X274098Y29214D01*
X274042Y29216D01*
X273899Y29192D01*
X273754Y29175D01*
X273700Y29158D01*
X273645Y29149D01*
X273509Y29097D01*
X273370Y29052D01*
X273321Y29025D01*
X273269Y29005D01*
X273086Y28894D01*
X273019Y28856D01*
X273005Y28844D01*
X272986Y28833D01*
X271687Y27889D01*
X270013Y27036D01*
X268226Y26455D01*
X267969Y26415D01*
X267969Y37592D01*
X267967Y37610D01*
X267969Y37627D01*
X267948Y37810D01*
X267929Y37992D01*
X267924Y38009D01*
X267922Y38027D01*
X267897Y38105D01*
X267936Y38242D01*
X267938Y38260D01*
X267942Y38277D01*
X267969Y38608D01*
X267969Y49785D01*
X268226Y49745D01*
X270013Y49164D01*
X271687Y48311D01*
X272986Y47367D01*
X273034Y47339D01*
X273078Y47304D01*
X273208Y47238D01*
X273334Y47164D01*
X273386Y47146D01*
X273436Y47121D01*
X273576Y47081D01*
X273714Y47033D01*
X273770Y47026D01*
X273823Y47011D01*
X273969Y47000D01*
X274113Y46980D01*
X274169Y46984D01*
X274225Y46980D01*
X274369Y46997D01*
X274515Y47007D01*
X274569Y47022D01*
X274624Y47029D01*
X274763Y47074D01*
X274904Y47113D01*
X274954Y47138D01*
X275007Y47155D01*
X275133Y47227D01*
X275264Y47293D01*
X275308Y47327D01*
X275356Y47355D01*
X275466Y47450D01*
X275581Y47540D01*
X275618Y47583D01*
X275660Y47619D01*
X275749Y47735D01*
X275844Y47846D01*
X275871Y47894D01*
X275905Y47938D01*
X275930Y47986D01*
X280074Y52131D01*
X280091Y52152D01*
X280112Y52169D01*
X280219Y52307D01*
X280329Y52442D01*
X280342Y52466D01*
X280358Y52487D01*
X280436Y52644D01*
X280518Y52798D01*
X280526Y52824D01*
X280538Y52848D01*
X280583Y53017D01*
X280633Y53184D01*
X280635Y53211D01*
X280642Y53236D01*
X280669Y53567D01*
X280669Y160506D01*
X280667Y160532D01*
X280669Y160559D01*
X280647Y160733D01*
X280629Y160906D01*
X280622Y160932D01*
X280618Y160958D01*
X280563Y161124D01*
X280511Y161291D01*
X280498Y161315D01*
X280490Y161340D01*
X280403Y161492D01*
X280319Y161645D01*
X280302Y161666D01*
X280289Y161689D01*
X280074Y161942D01*
X249572Y192444D01*
X249551Y192461D01*
X249534Y192482D01*
X249396Y192589D01*
X249260Y192699D01*
X249237Y192712D01*
X249216Y192728D01*
X249059Y192806D01*
X248905Y192888D01*
X248879Y192896D01*
X248855Y192908D01*
X248686Y192953D01*
X248519Y193003D01*
X248492Y193005D01*
X248466Y193012D01*
X248136Y193039D01*
X157450Y193039D01*
X157423Y193037D01*
X157397Y193039D01*
X157223Y193017D01*
X157049Y192999D01*
X157024Y192992D01*
X156997Y192988D01*
X156831Y192932D01*
X156665Y192881D01*
X156641Y192868D01*
X156616Y192860D01*
X156464Y192773D01*
X156310Y192689D01*
X156290Y192672D01*
X156267Y192659D01*
X156014Y192444D01*
X145376Y181806D01*
X145359Y181786D01*
X145338Y181768D01*
X145231Y181630D01*
X145121Y181495D01*
X145108Y181471D01*
X145092Y181450D01*
X145014Y181293D01*
X144932Y181139D01*
X144924Y181114D01*
X144912Y181089D01*
X144867Y180920D01*
X144817Y180753D01*
X144815Y180727D01*
X144808Y180701D01*
X144781Y180370D01*
X144781Y53567D01*
X144783Y53541D01*
X144781Y53514D01*
X144803Y53340D01*
X144821Y53167D01*
X144828Y53141D01*
X144832Y53114D01*
X144888Y52949D01*
X144939Y52782D01*
X144952Y52758D01*
X144960Y52733D01*
X145047Y52581D01*
X145131Y52428D01*
X145148Y52407D01*
X145161Y52384D01*
X145376Y52131D01*
X149532Y47974D01*
X149583Y47879D01*
X149619Y47836D01*
X149648Y47788D01*
X149747Y47681D01*
X149840Y47568D01*
X149883Y47533D01*
X149921Y47492D01*
X150039Y47406D01*
X150152Y47314D01*
X150202Y47289D01*
X150247Y47256D01*
X150380Y47195D01*
X150509Y47127D01*
X150562Y47112D01*
X150613Y47089D01*
X150755Y47055D01*
X150895Y47014D01*
X150951Y47009D01*
X151005Y46997D01*
X151151Y46992D01*
X151297Y46980D01*
X151352Y46986D01*
X151407Y46984D01*
X151552Y47008D01*
X151697Y47025D01*
X151750Y47042D01*
X151805Y47051D01*
X151941Y47103D01*
X152080Y47148D01*
X152128Y47175D01*
X152181Y47195D01*
X152364Y47306D01*
X152431Y47344D01*
X152445Y47356D01*
X152464Y47367D01*
X153763Y48311D01*
X155437Y49164D01*
X157224Y49745D01*
X157481Y49785D01*
X157481Y38608D01*
X157482Y38590D01*
X157481Y38573D01*
X157502Y38390D01*
X157521Y38208D01*
X157526Y38191D01*
X157528Y38173D01*
X157553Y38095D01*
X157514Y37958D01*
X157512Y37940D01*
X157508Y37923D01*
X157481Y37592D01*
X157481Y26415D01*
X157224Y26455D01*
X155437Y27036D01*
X153763Y27889D01*
X152464Y28833D01*
X152416Y28861D01*
X152372Y28895D01*
X152242Y28962D01*
X152116Y29036D01*
X152064Y29054D01*
X152014Y29079D01*
X151874Y29119D01*
X151736Y29167D01*
X151680Y29174D01*
X151627Y29189D01*
X151481Y29200D01*
X151336Y29220D01*
X151281Y29216D01*
X151225Y29220D01*
X151080Y29202D01*
X150935Y29193D01*
X150881Y29178D01*
X150826Y29171D01*
X150687Y29125D01*
X150546Y29087D01*
X150496Y29062D01*
X150444Y29045D01*
X150317Y28972D01*
X150186Y28907D01*
X150142Y28873D01*
X150094Y28845D01*
X149984Y28749D01*
X149869Y28660D01*
X149832Y28617D01*
X149790Y28581D01*
X149701Y28465D01*
X149606Y28354D01*
X149579Y28306D01*
X149545Y28262D01*
X149520Y28214D01*
X144548Y23242D01*
X138106Y20573D01*
X131134Y20573D01*
X124692Y23242D01*
X119762Y28172D01*
X117093Y34614D01*
X117093Y41586D01*
X119762Y48028D01*
X123864Y52131D01*
X123881Y52152D01*
X123902Y52169D01*
X124009Y52307D01*
X124119Y52442D01*
X124132Y52466D01*
X124148Y52487D01*
X124226Y52644D01*
X124308Y52798D01*
X124316Y52824D01*
X124328Y52848D01*
X124373Y53017D01*
X124423Y53184D01*
X124425Y53211D01*
X124432Y53236D01*
X124459Y53567D01*
X124459Y187441D01*
X126006Y191176D01*
X129150Y194320D01*
X143500Y208670D01*
X143501Y208670D01*
X146644Y211814D01*
X150379Y213361D01*
X210850Y213361D01*
X210876Y213363D01*
X210903Y213361D01*
X211077Y213383D01*
X211251Y213401D01*
X211276Y213408D01*
X211303Y213412D01*
X211468Y213467D01*
X211635Y213519D01*
X211659Y213532D01*
X211684Y213540D01*
X211836Y213627D01*
X211989Y213711D01*
X212010Y213728D01*
X212033Y213741D01*
X212286Y213956D01*
X212794Y214464D01*
X212806Y214478D01*
X212819Y214489D01*
X212933Y214633D01*
X213049Y214775D01*
X213058Y214791D01*
X213069Y214805D01*
X213152Y214969D01*
X213238Y215131D01*
X213243Y215148D01*
X213251Y215164D01*
X213301Y215341D01*
X213353Y215517D01*
X213354Y215535D01*
X213359Y215552D01*
X213373Y215735D01*
X213389Y215918D01*
X213387Y215936D01*
X213389Y215953D01*
X213366Y216135D01*
X213346Y216318D01*
X213340Y216335D01*
X213338Y216353D01*
X213280Y216527D01*
X213224Y216702D01*
X213216Y216718D01*
X213210Y216734D01*
X213118Y216894D01*
X213029Y217054D01*
X213018Y217068D01*
X213009Y217083D01*
X212794Y217336D01*
X209682Y220448D01*
X209662Y220465D01*
X209644Y220486D01*
X209506Y220592D01*
X209371Y220703D01*
X209347Y220716D01*
X209326Y220732D01*
X209170Y220810D01*
X209015Y220892D01*
X208989Y220900D01*
X208965Y220912D01*
X208796Y220957D01*
X208629Y221007D01*
X208603Y221009D01*
X208577Y221016D01*
X208246Y221043D01*
X177757Y221043D01*
X174022Y222590D01*
X171148Y225464D01*
X171128Y225481D01*
X171110Y225502D01*
X170972Y225609D01*
X170837Y225719D01*
X170813Y225732D01*
X170792Y225748D01*
X170635Y225826D01*
X170481Y225908D01*
X170456Y225916D01*
X170431Y225928D01*
X170262Y225973D01*
X170095Y226023D01*
X170069Y226025D01*
X170043Y226032D01*
X169712Y226059D01*
X165892Y226059D01*
X165865Y226057D01*
X165838Y226059D01*
X165664Y226037D01*
X165491Y226019D01*
X165465Y226012D01*
X165439Y226008D01*
X165273Y225953D01*
X165106Y225901D01*
X165082Y225888D01*
X165057Y225880D01*
X164905Y225793D01*
X164752Y225709D01*
X164731Y225692D01*
X164708Y225679D01*
X164455Y225464D01*
X159081Y220090D01*
X145719Y220090D01*
X140345Y225464D01*
X140324Y225481D01*
X140307Y225502D01*
X140169Y225609D01*
X140033Y225719D01*
X140010Y225732D01*
X139989Y225748D01*
X139832Y225826D01*
X139678Y225908D01*
X139652Y225916D01*
X139628Y225928D01*
X139459Y225973D01*
X139292Y226023D01*
X139265Y226025D01*
X139239Y226032D01*
X138909Y226059D01*
X127791Y226059D01*
X127765Y226057D01*
X127738Y226059D01*
X127564Y226037D01*
X127391Y226019D01*
X127365Y226012D01*
X127339Y226008D01*
X127173Y225952D01*
X127006Y225901D01*
X126982Y225888D01*
X126957Y225880D01*
X126805Y225793D01*
X126652Y225709D01*
X126631Y225692D01*
X126608Y225679D01*
X126355Y225464D01*
X120981Y220090D01*
X107619Y220090D01*
X98170Y229539D01*
X98170Y242901D01*
X106704Y251435D01*
X106715Y251449D01*
X106729Y251460D01*
X106843Y251605D01*
X106959Y251746D01*
X106968Y251762D01*
X106979Y251776D01*
X107062Y251940D01*
X107148Y252102D01*
X107153Y252119D01*
X107161Y252135D01*
X107210Y252313D01*
X107263Y252488D01*
X107264Y252506D01*
X107269Y252523D01*
X107282Y252706D01*
X107299Y252889D01*
X107297Y252907D01*
X107298Y252925D01*
X107275Y253107D01*
X107256Y253289D01*
X107250Y253306D01*
X107248Y253324D01*
X107190Y253498D01*
X107134Y253673D01*
X107125Y253689D01*
X107120Y253706D01*
X107028Y253865D01*
X106939Y254026D01*
X106928Y254039D01*
X106919Y254055D01*
X106704Y254308D01*
X103758Y257253D01*
X103758Y259589D01*
X114300Y259589D01*
X124842Y259589D01*
X124842Y257253D01*
X121896Y254308D01*
X121885Y254294D01*
X121871Y254282D01*
X121757Y254138D01*
X121641Y253996D01*
X121632Y253980D01*
X121621Y253966D01*
X121538Y253802D01*
X121452Y253640D01*
X121447Y253623D01*
X121439Y253607D01*
X121390Y253430D01*
X121337Y253254D01*
X121336Y253237D01*
X121331Y253220D01*
X121318Y253036D01*
X121301Y252854D01*
X121303Y252836D01*
X121302Y252818D01*
X121325Y252636D01*
X121344Y252453D01*
X121350Y252436D01*
X121352Y252419D01*
X121410Y252245D01*
X121466Y252069D01*
X121475Y252054D01*
X121480Y252037D01*
X121572Y251877D01*
X121661Y251717D01*
X121672Y251704D01*
X121681Y251688D01*
X121896Y251435D01*
X126355Y246976D01*
X126376Y246959D01*
X126393Y246938D01*
X126531Y246831D01*
X126667Y246721D01*
X126690Y246708D01*
X126711Y246692D01*
X126868Y246614D01*
X127022Y246532D01*
X127048Y246524D01*
X127072Y246512D01*
X127241Y246467D01*
X127408Y246417D01*
X127435Y246415D01*
X127461Y246408D01*
X127791Y246381D01*
X138909Y246381D01*
X138935Y246383D01*
X138962Y246381D01*
X139136Y246403D01*
X139309Y246421D01*
X139335Y246428D01*
X139361Y246432D01*
X139527Y246487D01*
X139694Y246539D01*
X139718Y246552D01*
X139743Y246560D01*
X139895Y246647D01*
X140048Y246731D01*
X140069Y246748D01*
X140092Y246761D01*
X140345Y246976D01*
X144804Y251435D01*
X144815Y251449D01*
X144829Y251460D01*
X144943Y251605D01*
X145059Y251746D01*
X145068Y251762D01*
X145079Y251776D01*
X145162Y251941D01*
X145248Y252102D01*
X145253Y252119D01*
X145261Y252135D01*
X145310Y252313D01*
X145363Y252488D01*
X145364Y252506D01*
X145369Y252523D01*
X145382Y252706D01*
X145399Y252889D01*
X145397Y252907D01*
X145398Y252925D01*
X145375Y253107D01*
X145356Y253289D01*
X145350Y253306D01*
X145348Y253324D01*
X145290Y253498D01*
X145234Y253673D01*
X145225Y253689D01*
X145220Y253706D01*
X145128Y253865D01*
X145039Y254026D01*
X145028Y254039D01*
X145019Y254055D01*
X144804Y254308D01*
X141858Y257253D01*
X141858Y259589D01*
X152400Y259589D01*
X162942Y259589D01*
X162942Y257253D01*
X159996Y254308D01*
X159984Y254294D01*
X159971Y254282D01*
X159857Y254139D01*
X159741Y253996D01*
X159732Y253980D01*
X159721Y253966D01*
X159638Y253802D01*
X159552Y253640D01*
X159547Y253623D01*
X159539Y253607D01*
X159490Y253430D01*
X159437Y253254D01*
X159436Y253237D01*
X159431Y253220D01*
X159418Y253036D01*
X159401Y252854D01*
X159403Y252836D01*
X159402Y252818D01*
X159425Y252636D01*
X159444Y252453D01*
X159450Y252436D01*
X159452Y252419D01*
X159510Y252245D01*
X159566Y252069D01*
X159575Y252054D01*
X159580Y252037D01*
X159672Y251877D01*
X159761Y251717D01*
X159772Y251704D01*
X159781Y251688D01*
X159996Y251435D01*
X164455Y246976D01*
X164476Y246959D01*
X164493Y246938D01*
X164631Y246832D01*
X164767Y246721D01*
X164790Y246708D01*
X164811Y246692D01*
X164967Y246614D01*
X165122Y246532D01*
X165148Y246524D01*
X165172Y246512D01*
X165341Y246467D01*
X165508Y246417D01*
X165535Y246415D01*
X165561Y246408D01*
X165892Y246381D01*
X168830Y246381D01*
X168852Y246383D01*
X168874Y246381D01*
X169052Y246403D01*
X169231Y246421D01*
X169252Y246427D01*
X169274Y246430D01*
X169444Y246486D01*
X169615Y246539D01*
X169635Y246549D01*
X169656Y246556D01*
X169812Y246645D01*
X169970Y246731D01*
X169987Y246745D01*
X170006Y246756D01*
X170141Y246874D01*
X170279Y246988D01*
X170293Y247006D01*
X170310Y247020D01*
X170419Y247163D01*
X170531Y247302D01*
X170541Y247322D01*
X170555Y247340D01*
X170707Y247635D01*
X171524Y249609D01*
X175651Y253736D01*
X176455Y254069D01*
X179165Y255191D01*
X179281Y255253D01*
X179400Y255307D01*
X179458Y255348D01*
X179520Y255381D01*
X179621Y255465D01*
X179727Y255541D01*
X179776Y255593D01*
X179830Y255638D01*
X179913Y255739D01*
X180002Y255835D01*
X180040Y255895D01*
X180084Y255950D01*
X180145Y256066D01*
X180214Y256178D01*
X180238Y256244D01*
X180271Y256307D01*
X180308Y256432D01*
X180353Y256555D01*
X180364Y256625D01*
X180384Y256693D01*
X180396Y256824D01*
X180416Y256953D01*
X180413Y257024D01*
X180419Y257095D01*
X180404Y257224D01*
X180399Y257355D01*
X180382Y257424D01*
X180374Y257495D01*
X180334Y257619D01*
X180302Y257746D01*
X180272Y257810D01*
X180251Y257878D01*
X180187Y257992D01*
X180131Y258111D01*
X180089Y258168D01*
X180054Y258229D01*
X179969Y258329D01*
X179891Y258434D01*
X179839Y258481D01*
X179792Y258535D01*
X179689Y258616D01*
X179592Y258704D01*
X179523Y258747D01*
X179475Y258783D01*
X179407Y258818D01*
X179310Y258878D01*
X179201Y258934D01*
X178044Y259774D01*
X177034Y260784D01*
X176193Y261941D01*
X175545Y263214D01*
X175103Y264574D01*
X175088Y264669D01*
X190500Y264669D01*
X190517Y264670D01*
X190535Y264669D01*
X190718Y264690D01*
X190900Y264708D01*
X190917Y264714D01*
X190935Y264716D01*
X191110Y264773D01*
X191285Y264827D01*
X191301Y264835D01*
X191318Y264841D01*
X191478Y264931D01*
X191639Y265018D01*
X191653Y265030D01*
X191668Y265039D01*
X191808Y265159D01*
X191948Y265276D01*
X191960Y265290D01*
X191973Y265302D01*
X192086Y265447D01*
X192201Y265590D01*
X192209Y265606D01*
X192220Y265620D01*
X192302Y265785D01*
X192386Y265947D01*
X192391Y265964D01*
X192399Y265980D01*
X192447Y266158D01*
X192498Y266334D01*
X192499Y266352D01*
X192504Y266369D01*
X192531Y266700D01*
X192529Y266718D01*
X192531Y266735D01*
X192531Y266736D01*
X192509Y266918D01*
X192491Y267101D01*
X192486Y267118D01*
X192484Y267136D01*
X192427Y267310D01*
X192373Y267486D01*
X192364Y267501D01*
X192359Y267518D01*
X192268Y267679D01*
X192181Y267840D01*
X192170Y267853D01*
X192161Y267869D01*
X192041Y268008D01*
X191923Y268149D01*
X191909Y268160D01*
X191898Y268174D01*
X191753Y268286D01*
X191610Y268401D01*
X191594Y268410D01*
X191580Y268420D01*
X191415Y268502D01*
X191252Y268587D01*
X191235Y268592D01*
X191219Y268600D01*
X191041Y268648D01*
X190865Y268698D01*
X190848Y268700D01*
X190830Y268704D01*
X190500Y268731D01*
X175088Y268731D01*
X175103Y268826D01*
X175545Y270186D01*
X176193Y271459D01*
X177034Y272616D01*
X178044Y273626D01*
X179201Y274466D01*
X179310Y274522D01*
X179420Y274593D01*
X179535Y274656D01*
X179589Y274701D01*
X179649Y274740D01*
X179743Y274830D01*
X179843Y274915D01*
X179887Y274970D01*
X179938Y275019D01*
X180012Y275127D01*
X180094Y275230D01*
X180126Y275292D01*
X180167Y275351D01*
X180218Y275472D01*
X180278Y275588D01*
X180297Y275656D01*
X180325Y275721D01*
X180352Y275849D01*
X180388Y275975D01*
X180393Y276046D01*
X180408Y276115D01*
X180409Y276246D01*
X180419Y276377D01*
X180410Y276447D01*
X180411Y276518D01*
X180386Y276646D01*
X180370Y276776D01*
X180348Y276843D01*
X180334Y276913D01*
X180285Y277034D01*
X180243Y277158D01*
X180208Y277220D01*
X180181Y277286D01*
X180109Y277395D01*
X180044Y277508D01*
X179998Y277562D01*
X179958Y277621D01*
X179865Y277713D01*
X179780Y277812D01*
X179723Y277855D01*
X179673Y277905D01*
X179564Y277977D01*
X179460Y278057D01*
X179388Y278095D01*
X179338Y278128D01*
X179267Y278156D01*
X179165Y278209D01*
X175651Y279664D01*
X171524Y283791D01*
X169291Y289182D01*
X169291Y291437D01*
X169290Y291445D01*
X169291Y291454D01*
X169270Y291648D01*
X169251Y291837D01*
X169249Y291846D01*
X169248Y291855D01*
X169190Y292039D01*
X169133Y292222D01*
X169129Y292230D01*
X169126Y292238D01*
X169033Y292407D01*
X168941Y292576D01*
X168936Y292583D01*
X168931Y292591D01*
X168807Y292738D01*
X168684Y292885D01*
X168677Y292891D01*
X168671Y292898D01*
X168520Y293017D01*
X168370Y293138D01*
X168362Y293142D01*
X168355Y293147D01*
X168182Y293235D01*
X168013Y293323D01*
X168004Y293326D01*
X167996Y293330D01*
X167810Y293382D01*
X167626Y293435D01*
X167617Y293435D01*
X167608Y293438D01*
X167415Y293452D01*
X167224Y293467D01*
X167216Y293466D01*
X167207Y293467D01*
X167014Y293443D01*
X166825Y293421D01*
X166816Y293418D01*
X166807Y293417D01*
X166624Y293355D01*
X166442Y293296D01*
X166434Y293291D01*
X166426Y293288D01*
X166259Y293192D01*
X166091Y293098D01*
X166084Y293092D01*
X166077Y293088D01*
X165824Y292873D01*
X159081Y286130D01*
X145719Y286130D01*
X136270Y295579D01*
X136270Y308941D01*
X144804Y317475D01*
X144810Y317482D01*
X144816Y317487D01*
X144822Y317494D01*
X144829Y317500D01*
X144943Y317645D01*
X145059Y317786D01*
X145064Y317795D01*
X145068Y317801D01*
X145072Y317808D01*
X145079Y317816D01*
X145162Y317980D01*
X145248Y318142D01*
X145251Y318152D01*
X145254Y318158D01*
X145256Y318165D01*
X145261Y318175D01*
X145310Y318352D01*
X145363Y318528D01*
X145364Y318539D01*
X145365Y318545D01*
X145366Y318552D01*
X145369Y318563D01*
X145382Y318746D01*
X145399Y318929D01*
X145398Y318941D01*
X145398Y318946D01*
X145397Y318952D01*
X145398Y318965D01*
X145375Y319147D01*
X145356Y319329D01*
X145352Y319341D01*
X145351Y319346D01*
X145350Y319351D01*
X145348Y319364D01*
X145290Y319538D01*
X145234Y319713D01*
X145228Y319724D01*
X145226Y319729D01*
X145224Y319733D01*
X145220Y319746D01*
X145128Y319905D01*
X145039Y320066D01*
X145031Y320075D01*
X145029Y320080D01*
X145025Y320083D01*
X145019Y320095D01*
X144804Y320348D01*
X141858Y323293D01*
X141858Y325629D01*
X152400Y325629D01*
X162942Y325629D01*
X162942Y323293D01*
X159996Y320348D01*
X159987Y320337D01*
X159984Y320334D01*
X159981Y320331D01*
X159971Y320322D01*
X159857Y320179D01*
X159741Y320036D01*
X159735Y320024D01*
X159732Y320021D01*
X159729Y320017D01*
X159721Y320006D01*
X159638Y319842D01*
X159552Y319680D01*
X159548Y319668D01*
X159546Y319663D01*
X159545Y319659D01*
X159539Y319647D01*
X159489Y319470D01*
X159437Y319294D01*
X159436Y319282D01*
X159435Y319276D01*
X159434Y319271D01*
X159431Y319260D01*
X159418Y319076D01*
X159401Y318894D01*
X159402Y318881D01*
X159402Y318875D01*
X159402Y318870D01*
X159402Y318858D01*
X159425Y318676D01*
X159444Y318493D01*
X159448Y318482D01*
X159449Y318475D01*
X159451Y318470D01*
X159452Y318459D01*
X159510Y318285D01*
X159566Y318109D01*
X159571Y318100D01*
X159574Y318093D01*
X159577Y318086D01*
X159580Y318077D01*
X159672Y317917D01*
X159761Y317757D01*
X159767Y317749D01*
X159771Y317742D01*
X159776Y317736D01*
X159781Y317728D01*
X159996Y317475D01*
X166598Y310873D01*
X166601Y310870D01*
X166604Y310867D01*
X166758Y310742D01*
X166909Y310618D01*
X166913Y310616D01*
X166917Y310613D01*
X167094Y310520D01*
X167265Y310429D01*
X167269Y310428D01*
X167273Y310426D01*
X167464Y310370D01*
X167651Y310315D01*
X167655Y310314D01*
X167660Y310313D01*
X167852Y310296D01*
X168052Y310278D01*
X168056Y310279D01*
X168061Y310278D01*
X168250Y310300D01*
X168452Y310322D01*
X168457Y310323D01*
X168461Y310323D01*
X168645Y310383D01*
X168836Y310443D01*
X168840Y310445D01*
X168844Y310447D01*
X169016Y310543D01*
X169188Y310638D01*
X169192Y310641D01*
X169196Y310643D01*
X169348Y310773D01*
X169495Y310898D01*
X169498Y310902D01*
X169502Y310905D01*
X169623Y311060D01*
X169745Y311214D01*
X169747Y311218D01*
X169750Y311222D01*
X169838Y311397D01*
X169927Y311573D01*
X169928Y311578D01*
X169931Y311582D01*
X169982Y311771D01*
X170035Y311961D01*
X170036Y311966D01*
X170037Y311970D01*
X170050Y312158D01*
X170065Y312363D01*
X170064Y312367D01*
X170064Y312372D01*
X170040Y312560D01*
X170014Y312762D01*
X170013Y312767D01*
X170012Y312771D01*
X169911Y313087D01*
X169291Y314582D01*
X169291Y320418D01*
X171524Y325809D01*
X174479Y328764D01*
X174490Y328777D01*
X174504Y328789D01*
X174618Y328933D01*
X174734Y329075D01*
X174742Y329091D01*
X174753Y329105D01*
X174837Y329269D01*
X174923Y329431D01*
X174928Y329448D01*
X174936Y329464D01*
X174985Y329641D01*
X175037Y329817D01*
X175039Y329835D01*
X175044Y329852D01*
X175057Y330035D01*
X175074Y330218D01*
X175072Y330236D01*
X175073Y330253D01*
X175050Y330435D01*
X175030Y330618D01*
X175025Y330635D01*
X175023Y330653D01*
X174965Y330826D01*
X174909Y331002D01*
X174900Y331018D01*
X174895Y331034D01*
X174803Y331194D01*
X174714Y331354D01*
X174703Y331368D01*
X174694Y331383D01*
X174479Y331636D01*
X171524Y334591D01*
X169291Y339982D01*
X169291Y345818D01*
X171524Y351209D01*
X174479Y354164D01*
X174490Y354178D01*
X174504Y354189D01*
X174617Y354333D01*
X174734Y354475D01*
X174742Y354491D01*
X174753Y354505D01*
X174837Y354669D01*
X174923Y354831D01*
X174928Y354848D01*
X174936Y354864D01*
X174985Y355041D01*
X175037Y355217D01*
X175039Y355235D01*
X175044Y355252D01*
X175057Y355435D01*
X175074Y355618D01*
X175072Y355636D01*
X175073Y355653D01*
X175050Y355835D01*
X175030Y356018D01*
X175025Y356035D01*
X175023Y356053D01*
X174965Y356226D01*
X174909Y356402D01*
X174900Y356418D01*
X174895Y356434D01*
X174803Y356594D01*
X174714Y356754D01*
X174703Y356768D01*
X174694Y356783D01*
X174479Y357036D01*
X171524Y359991D01*
X170590Y362247D01*
X170584Y362259D01*
X170579Y362272D01*
X170489Y362435D01*
X170400Y362602D01*
X170391Y362612D01*
X170385Y362624D01*
X170264Y362767D01*
X170143Y362912D01*
X170133Y362921D01*
X170124Y362931D01*
X169976Y363048D01*
X169831Y363166D01*
X169819Y363172D01*
X169808Y363181D01*
X169640Y363266D01*
X169474Y363353D01*
X169461Y363357D01*
X169449Y363363D01*
X169267Y363414D01*
X169088Y363466D01*
X169074Y363467D01*
X169061Y363471D01*
X168873Y363485D01*
X168687Y363501D01*
X168673Y363499D01*
X168660Y363500D01*
X168471Y363477D01*
X168287Y363456D01*
X168274Y363452D01*
X168260Y363450D01*
X168081Y363390D01*
X167903Y363333D01*
X167891Y363326D01*
X167879Y363322D01*
X167715Y363228D01*
X167552Y363136D01*
X167542Y363127D01*
X167530Y363121D01*
X167277Y362906D01*
X157811Y353440D01*
X144449Y353440D01*
X135000Y362889D01*
X135000Y376251D01*
X143534Y384785D01*
X143545Y384799D01*
X143559Y384810D01*
X143673Y384955D01*
X143789Y385096D01*
X143798Y385112D01*
X143809Y385126D01*
X143892Y385290D01*
X143978Y385452D01*
X143983Y385469D01*
X143991Y385485D01*
X144040Y385663D01*
X144093Y385838D01*
X144094Y385856D01*
X144099Y385873D01*
X144112Y386056D01*
X144129Y386239D01*
X144127Y386257D01*
X144128Y386275D01*
X144105Y386457D01*
X144086Y386639D01*
X144080Y386656D01*
X144078Y386674D01*
X144020Y386848D01*
X143964Y387023D01*
X143955Y387039D01*
X143950Y387056D01*
X143858Y387215D01*
X143769Y387376D01*
X143758Y387389D01*
X143749Y387405D01*
X143534Y387658D01*
X140588Y390603D01*
X140588Y392939D01*
X151130Y392939D01*
X161672Y392939D01*
X161672Y390603D01*
X158726Y387658D01*
X158715Y387644D01*
X158701Y387632D01*
X158587Y387488D01*
X158471Y387346D01*
X158462Y387330D01*
X158451Y387316D01*
X158368Y387152D01*
X158282Y386990D01*
X158277Y386973D01*
X158269Y386957D01*
X158220Y386780D01*
X158167Y386604D01*
X158166Y386587D01*
X158161Y386570D01*
X158148Y386386D01*
X158131Y386204D01*
X158133Y386186D01*
X158132Y386168D01*
X158155Y385986D01*
X158174Y385803D01*
X158180Y385786D01*
X158182Y385769D01*
X158240Y385595D01*
X158296Y385419D01*
X158305Y385404D01*
X158310Y385387D01*
X158402Y385227D01*
X158491Y385067D01*
X158502Y385054D01*
X158511Y385038D01*
X158726Y384785D01*
X167290Y376221D01*
X167300Y376124D01*
X167301Y376120D01*
X167301Y376116D01*
X167360Y375928D01*
X167418Y375739D01*
X167420Y375736D01*
X167421Y375731D01*
X167517Y375557D01*
X167610Y375385D01*
X167612Y375382D01*
X167615Y375378D01*
X167743Y375225D01*
X167867Y375076D01*
X167871Y375073D01*
X167874Y375070D01*
X168029Y374946D01*
X168181Y374824D01*
X168185Y374822D01*
X168189Y374819D01*
X168367Y374727D01*
X168538Y374638D01*
X168543Y374637D01*
X168547Y374635D01*
X168740Y374580D01*
X168925Y374527D01*
X168930Y374527D01*
X168934Y374525D01*
X169130Y374510D01*
X169327Y374494D01*
X169331Y374495D01*
X169335Y374494D01*
X169529Y374518D01*
X169726Y374541D01*
X169731Y374542D01*
X169735Y374543D01*
X169920Y374604D01*
X170109Y374666D01*
X170113Y374668D01*
X170117Y374669D01*
X170286Y374766D01*
X170460Y374864D01*
X170463Y374867D01*
X170467Y374869D01*
X170616Y374998D01*
X170764Y375127D01*
X170767Y375130D01*
X170771Y375133D01*
X170893Y375293D01*
X171011Y375445D01*
X171013Y375449D01*
X171016Y375453D01*
X171168Y375748D01*
X171524Y376609D01*
X174479Y379564D01*
X174490Y379578D01*
X174504Y379589D01*
X174617Y379733D01*
X174734Y379875D01*
X174742Y379891D01*
X174753Y379905D01*
X174837Y380069D01*
X174923Y380231D01*
X174928Y380248D01*
X174936Y380264D01*
X174985Y380441D01*
X175037Y380617D01*
X175039Y380635D01*
X175044Y380652D01*
X175057Y380835D01*
X175074Y381018D01*
X175072Y381036D01*
X175073Y381053D01*
X175050Y381235D01*
X175030Y381418D01*
X175025Y381435D01*
X175023Y381453D01*
X174964Y381627D01*
X174909Y381802D01*
X174900Y381818D01*
X174895Y381834D01*
X174803Y381994D01*
X174714Y382154D01*
X174703Y382168D01*
X174694Y382183D01*
X174479Y382436D01*
X171524Y385391D01*
X169291Y390782D01*
X169291Y396618D01*
X171263Y401377D01*
X171269Y401398D01*
X171279Y401418D01*
X171327Y401590D01*
X171379Y401762D01*
X171381Y401784D01*
X171387Y401806D01*
X171400Y401985D01*
X171417Y402163D01*
X171415Y402185D01*
X171416Y402207D01*
X171394Y402386D01*
X171375Y402563D01*
X171369Y402585D01*
X171366Y402607D01*
X171309Y402777D01*
X171256Y402948D01*
X171245Y402967D01*
X171238Y402989D01*
X171148Y403144D01*
X171062Y403301D01*
X171048Y403318D01*
X171037Y403337D01*
X170822Y403590D01*
X168394Y406019D01*
X165250Y409162D01*
X163703Y412897D01*
X163703Y447717D01*
X163688Y447865D01*
X163681Y448014D01*
X163669Y448065D01*
X163663Y448117D01*
X163620Y448260D01*
X163583Y448404D01*
X163561Y448452D01*
X163545Y448502D01*
X163474Y448633D01*
X163410Y448768D01*
X163379Y448810D01*
X163353Y448856D01*
X163258Y448971D01*
X163169Y449090D01*
X163129Y449125D01*
X163096Y449165D01*
X162980Y449259D01*
X162868Y449358D01*
X162823Y449385D01*
X162782Y449418D01*
X162650Y449486D01*
X162521Y449562D01*
X162471Y449579D01*
X162425Y449603D01*
X162282Y449644D01*
X162140Y449693D01*
X162088Y449700D01*
X162038Y449715D01*
X161889Y449727D01*
X161741Y449747D01*
X161689Y449743D01*
X161636Y449747D01*
X161488Y449730D01*
X161340Y449720D01*
X161289Y449707D01*
X161237Y449701D01*
X161095Y449654D01*
X160951Y449616D01*
X160904Y449592D01*
X160854Y449576D01*
X160724Y449502D01*
X160591Y449436D01*
X160549Y449404D01*
X160503Y449378D01*
X160390Y449280D01*
X160273Y449189D01*
X160238Y449149D01*
X160199Y449115D01*
X160107Y448997D01*
X160010Y448884D01*
X159980Y448833D01*
X159952Y448797D01*
X159914Y448721D01*
X159842Y448598D01*
X159678Y448258D01*
X158317Y446091D01*
X156721Y444090D01*
X154910Y442279D01*
X152909Y440683D01*
X150742Y439322D01*
X148435Y438211D01*
X146019Y437365D01*
X143763Y436851D01*
X143763Y457268D01*
X143761Y457286D01*
X143763Y457303D01*
X143741Y457486D01*
X143723Y457668D01*
X143718Y457686D01*
X143716Y457703D01*
X143659Y457878D01*
X143605Y458053D01*
X143597Y458069D01*
X143591Y458086D01*
X143501Y458246D01*
X143413Y458407D01*
X143402Y458421D01*
X143393Y458437D01*
X143273Y458576D01*
X143156Y458717D01*
X143142Y458728D01*
X143130Y458741D01*
X142985Y458854D01*
X142842Y458969D01*
X142826Y458977D01*
X142812Y458988D01*
X142647Y459070D01*
X142485Y459155D01*
X142468Y459159D01*
X142451Y459167D01*
X142273Y459215D01*
X142098Y459266D01*
X142080Y459267D01*
X142063Y459272D01*
X141732Y459299D01*
X139699Y459299D01*
X139699Y461332D01*
X139697Y461350D01*
X139699Y461367D01*
X139677Y461550D01*
X139659Y461733D01*
X139654Y461750D01*
X139652Y461767D01*
X139595Y461942D01*
X139541Y462117D01*
X139533Y462133D01*
X139527Y462150D01*
X139437Y462310D01*
X139349Y462472D01*
X139338Y462485D01*
X139329Y462501D01*
X139209Y462640D01*
X139092Y462781D01*
X139078Y462792D01*
X139066Y462805D01*
X138921Y462918D01*
X138778Y463033D01*
X138762Y463041D01*
X138748Y463052D01*
X138583Y463134D01*
X138420Y463219D01*
X138403Y463224D01*
X138387Y463232D01*
X138209Y463279D01*
X138034Y463330D01*
X138016Y463331D01*
X137999Y463336D01*
X137668Y463363D01*
X117251Y463363D01*
X117765Y465619D01*
X118611Y468035D01*
X119722Y470342D01*
X121083Y472509D01*
X122679Y474510D01*
X124490Y476321D01*
X126491Y477917D01*
X128658Y479278D01*
X130965Y480389D01*
X133381Y481234D01*
X135130Y481634D01*
X135296Y481689D01*
X135463Y481741D01*
X135487Y481753D01*
X135511Y481762D01*
X135663Y481849D01*
X135817Y481933D01*
X135838Y481949D01*
X135860Y481963D01*
X135992Y482078D01*
X136127Y482190D01*
X136143Y482211D01*
X136163Y482228D01*
X136269Y482368D01*
X136379Y482504D01*
X136391Y482527D01*
X136407Y482548D01*
X136484Y482706D01*
X136564Y482861D01*
X136572Y482887D01*
X136583Y482910D01*
X136628Y483080D01*
X136676Y483248D01*
X136678Y483275D01*
X136685Y483300D01*
X136694Y483475D01*
X136709Y483650D01*
X136706Y483676D01*
X136707Y483702D01*
X136682Y483876D01*
X136662Y484049D01*
X136654Y484074D01*
X136650Y484101D01*
X136591Y484266D01*
X136537Y484432D01*
X136524Y484455D01*
X136515Y484480D01*
X136425Y484630D01*
X136339Y484783D01*
X136322Y484803D01*
X136308Y484825D01*
X136190Y484955D01*
X136076Y485088D01*
X136055Y485104D01*
X136037Y485123D01*
X135896Y485227D01*
X135758Y485334D01*
X135734Y485346D01*
X135713Y485362D01*
X135555Y485435D01*
X135397Y485514D01*
X135372Y485520D01*
X135348Y485532D01*
X135178Y485572D01*
X135009Y485618D01*
X134979Y485621D01*
X134957Y485626D01*
X134873Y485629D01*
X134678Y485645D01*
X128635Y485645D01*
X128609Y485643D01*
X128582Y485645D01*
X128408Y485623D01*
X128235Y485605D01*
X128209Y485598D01*
X128182Y485594D01*
X128017Y485539D01*
X127850Y485487D01*
X127826Y485474D01*
X127801Y485466D01*
X127649Y485379D01*
X127496Y485295D01*
X127475Y485278D01*
X127452Y485265D01*
X127199Y485050D01*
X91508Y449360D01*
X91500Y449349D01*
X91489Y449340D01*
X91372Y449193D01*
X91253Y449048D01*
X91247Y449036D01*
X91238Y449026D01*
X91152Y448858D01*
X91064Y448692D01*
X91061Y448679D01*
X91054Y448667D01*
X91003Y448486D01*
X90950Y448306D01*
X90948Y448293D01*
X90945Y448280D01*
X90930Y448093D01*
X90913Y447906D01*
X90915Y447892D01*
X90914Y447879D01*
X90936Y447693D01*
X90957Y447505D01*
X90961Y447492D01*
X90962Y447479D01*
X91021Y447301D01*
X91078Y447121D01*
X91085Y447110D01*
X91089Y447097D01*
X91182Y446933D01*
X91273Y446769D01*
X91282Y446759D01*
X91288Y446747D01*
X91412Y446605D01*
X91534Y446462D01*
X91544Y446454D01*
X91553Y446443D01*
X91702Y446329D01*
X91849Y446212D01*
X91861Y446206D01*
X91872Y446198D01*
X91908Y446180D01*
X98036Y440052D01*
X101329Y432102D01*
X101329Y423498D01*
X98036Y415548D01*
X91952Y409464D01*
X84002Y406171D01*
X75398Y406171D01*
X67448Y409464D01*
X61308Y415605D01*
X61263Y415687D01*
X61255Y415698D01*
X61248Y415710D01*
X61127Y415853D01*
X61007Y415998D01*
X60996Y416006D01*
X60988Y416017D01*
X60841Y416133D01*
X60694Y416252D01*
X60682Y416258D01*
X60672Y416266D01*
X60504Y416351D01*
X60338Y416439D01*
X60325Y416443D01*
X60313Y416449D01*
X60131Y416499D01*
X59951Y416552D01*
X59938Y416553D01*
X59925Y416557D01*
X59737Y416570D01*
X59550Y416587D01*
X59537Y416585D01*
X59523Y416586D01*
X59337Y416562D01*
X59150Y416541D01*
X59137Y416537D01*
X59124Y416536D01*
X58946Y416476D01*
X58767Y416418D01*
X58755Y416412D01*
X58742Y416407D01*
X58579Y416314D01*
X58415Y416222D01*
X58405Y416213D01*
X58393Y416207D01*
X58140Y415992D01*
X36156Y394007D01*
X36139Y393986D01*
X36118Y393969D01*
X36011Y393831D01*
X35901Y393696D01*
X35888Y393672D01*
X35872Y393651D01*
X35794Y393494D01*
X35712Y393340D01*
X35704Y393314D01*
X35692Y393290D01*
X35647Y393121D01*
X35597Y392954D01*
X35595Y392927D01*
X35588Y392902D01*
X35561Y392571D01*
X35561Y388535D01*
X35563Y388517D01*
X35561Y388499D01*
X35582Y388317D01*
X35601Y388134D01*
X35606Y388117D01*
X35608Y388100D01*
X35665Y387925D01*
X35719Y387749D01*
X35727Y387734D01*
X35733Y387717D01*
X35823Y387557D01*
X35911Y387395D01*
X35922Y387382D01*
X35931Y387366D01*
X36051Y387227D01*
X36168Y387086D01*
X36182Y387075D01*
X36194Y387061D01*
X36339Y386949D01*
X36482Y386834D01*
X36498Y386826D01*
X36512Y386815D01*
X36677Y386733D01*
X36839Y386648D01*
X36856Y386643D01*
X36872Y386635D01*
X37051Y386588D01*
X37226Y386537D01*
X37244Y386535D01*
X37261Y386531D01*
X37592Y386504D01*
X66292Y386504D01*
X69280Y385266D01*
X71566Y382980D01*
X72804Y379992D01*
X72804Y349008D01*
X71566Y346020D01*
X69280Y343734D01*
X67816Y343128D01*
X66292Y342496D01*
X58164Y342496D01*
X58159Y342496D01*
X58155Y342496D01*
X57961Y342476D01*
X57763Y342456D01*
X57759Y342455D01*
X57755Y342455D01*
X57569Y342397D01*
X57378Y342338D01*
X57374Y342336D01*
X57370Y342335D01*
X57199Y342241D01*
X57024Y342146D01*
X57021Y342144D01*
X57017Y342141D01*
X56866Y342014D01*
X56715Y341889D01*
X56712Y341885D01*
X56709Y341882D01*
X56586Y341728D01*
X56463Y341575D01*
X56461Y341571D01*
X56458Y341568D01*
X56365Y341387D01*
X56277Y341218D01*
X56276Y341213D01*
X56274Y341209D01*
X56220Y341020D01*
X56166Y340831D01*
X56166Y340826D01*
X56164Y340822D01*
X56149Y340629D01*
X56133Y340429D01*
X56134Y340425D01*
X56133Y340421D01*
X56157Y340228D01*
X56180Y340030D01*
X56181Y340025D01*
X56182Y340021D01*
X56243Y339835D01*
X56305Y339647D01*
X56307Y339643D01*
X56308Y339639D01*
X56406Y339467D01*
X56503Y339296D01*
X56506Y339293D01*
X56508Y339289D01*
X56638Y339140D01*
X56766Y338992D01*
X56769Y338989D01*
X56772Y338985D01*
X56929Y338865D01*
X57084Y338745D01*
X57088Y338743D01*
X57092Y338740D01*
X57387Y338588D01*
X63264Y336154D01*
X69454Y329964D01*
X72804Y321877D01*
X72804Y313123D01*
X69454Y305036D01*
X63264Y298846D01*
X62284Y298440D01*
X56095Y295877D01*
X56087Y295872D01*
X56079Y295870D01*
X55911Y295778D01*
X55740Y295686D01*
X55733Y295681D01*
X55726Y295676D01*
X55579Y295553D01*
X55430Y295430D01*
X55424Y295423D01*
X55417Y295417D01*
X55298Y295267D01*
X55176Y295117D01*
X55172Y295109D01*
X55166Y295103D01*
X55078Y294931D01*
X54989Y294761D01*
X54987Y294752D01*
X54982Y294744D01*
X54930Y294560D01*
X54876Y294374D01*
X54875Y294366D01*
X54873Y294357D01*
X54858Y294166D01*
X54841Y293973D01*
X54842Y293964D01*
X54842Y293956D01*
X54865Y293765D01*
X54887Y293573D01*
X54889Y293565D01*
X54890Y293556D01*
X54951Y293373D01*
X55010Y293190D01*
X55014Y293182D01*
X55017Y293174D01*
X55113Y293006D01*
X55206Y292838D01*
X55212Y292832D01*
X55216Y292824D01*
X55343Y292679D01*
X55468Y292533D01*
X55475Y292527D01*
X55481Y292520D01*
X55634Y292403D01*
X55785Y292284D01*
X55793Y292280D01*
X55800Y292275D01*
X56095Y292123D01*
X63264Y289154D01*
X69454Y282964D01*
X72804Y274877D01*
X72804Y266123D01*
X69454Y258036D01*
X63264Y251846D01*
X55177Y248496D01*
X46423Y248496D01*
X38369Y251832D01*
X38356Y251836D01*
X38345Y251842D01*
X38164Y251894D01*
X37984Y251949D01*
X37971Y251950D01*
X37958Y251954D01*
X37770Y251969D01*
X37583Y251987D01*
X37570Y251985D01*
X37556Y251987D01*
X37369Y251965D01*
X37183Y251945D01*
X37170Y251941D01*
X37157Y251940D01*
X36977Y251881D01*
X36798Y251825D01*
X36787Y251819D01*
X36774Y251815D01*
X36609Y251722D01*
X36445Y251632D01*
X36435Y251624D01*
X36423Y251617D01*
X36281Y251494D01*
X36137Y251373D01*
X36129Y251362D01*
X36118Y251354D01*
X36003Y251205D01*
X35886Y251058D01*
X35880Y251046D01*
X35872Y251036D01*
X35788Y250867D01*
X35702Y250700D01*
X35698Y250687D01*
X35692Y250675D01*
X35643Y250492D01*
X35592Y250313D01*
X35591Y250299D01*
X35588Y250286D01*
X35561Y249956D01*
X35561Y92477D01*
X35563Y92451D01*
X35561Y92424D01*
X35583Y92250D01*
X35601Y92077D01*
X35608Y92051D01*
X35612Y92024D01*
X35667Y91859D01*
X35719Y91692D01*
X35732Y91668D01*
X35740Y91643D01*
X35827Y91491D01*
X35911Y91338D01*
X35928Y91317D01*
X35941Y91294D01*
X36156Y91041D01*
X46570Y80627D01*
X46577Y80621D01*
X46582Y80614D01*
X46732Y80494D01*
X46881Y80372D01*
X46889Y80368D01*
X46896Y80362D01*
X47066Y80273D01*
X47237Y80183D01*
X47246Y80181D01*
X47253Y80176D01*
X47438Y80123D01*
X47623Y80068D01*
X47632Y80067D01*
X47640Y80065D01*
X47832Y80049D01*
X48024Y80032D01*
X48033Y80033D01*
X48042Y80032D01*
X48231Y80054D01*
X48424Y80075D01*
X48433Y80078D01*
X48441Y80079D01*
X48623Y80138D01*
X48808Y80197D01*
X48816Y80201D01*
X48824Y80204D01*
X48993Y80299D01*
X49160Y80392D01*
X49167Y80397D01*
X49175Y80402D01*
X49321Y80528D01*
X49467Y80652D01*
X49473Y80659D01*
X49480Y80665D01*
X49597Y80816D01*
X49717Y80968D01*
X49721Y80976D01*
X49726Y80983D01*
X49812Y81155D01*
X49899Y81327D01*
X49902Y81336D01*
X49906Y81344D01*
X49956Y81530D01*
X50007Y81715D01*
X50008Y81724D01*
X50010Y81732D01*
X50037Y82063D01*
X50037Y87457D01*
X50280Y88361D01*
X50281Y88372D01*
X50301Y88428D01*
X50315Y88535D01*
X50340Y88639D01*
X50343Y88734D01*
X50355Y88827D01*
X50348Y88934D01*
X50352Y89042D01*
X50336Y89135D01*
X50330Y89229D01*
X50302Y89333D01*
X50284Y89439D01*
X50270Y89474D01*
X50037Y90343D01*
X50037Y98743D01*
X60643Y98743D01*
X60643Y77026D01*
X60645Y77008D01*
X60644Y76990D01*
X60665Y76808D01*
X60683Y76625D01*
X60688Y76608D01*
X60690Y76590D01*
X60747Y76416D01*
X60801Y76240D01*
X60810Y76224D01*
X60815Y76208D01*
X60906Y76047D01*
X60993Y75886D01*
X61004Y75872D01*
X61013Y75857D01*
X61133Y75718D01*
X61251Y75577D01*
X61265Y75566D01*
X61276Y75552D01*
X61421Y75440D01*
X61564Y75325D01*
X61580Y75316D01*
X61594Y75305D01*
X61759Y75223D01*
X61922Y75139D01*
X61939Y75134D01*
X61955Y75126D01*
X62133Y75078D01*
X62309Y75028D01*
X62326Y75026D01*
X62329Y75025D01*
X62334Y74974D01*
X62340Y74957D01*
X62342Y74939D01*
X62399Y74764D01*
X62452Y74589D01*
X62461Y74573D01*
X62467Y74556D01*
X62557Y74396D01*
X62644Y74235D01*
X62656Y74221D01*
X62664Y74206D01*
X62785Y74066D01*
X62902Y73926D01*
X62916Y73914D01*
X62928Y73901D01*
X63073Y73788D01*
X63216Y73673D01*
X63232Y73665D01*
X63246Y73654D01*
X63411Y73572D01*
X63573Y73488D01*
X63590Y73483D01*
X63606Y73475D01*
X63784Y73427D01*
X63960Y73376D01*
X63978Y73375D01*
X63995Y73370D01*
X64326Y73343D01*
X76963Y73343D01*
X76963Y68286D01*
X76965Y68264D01*
X76963Y68241D01*
X76985Y68064D01*
X77003Y67885D01*
X77009Y67864D01*
X77012Y67842D01*
X77068Y67671D01*
X77121Y67500D01*
X77131Y67481D01*
X77138Y67460D01*
X77227Y67304D01*
X77313Y67146D01*
X77327Y67129D01*
X77338Y67110D01*
X77456Y66974D01*
X77570Y66837D01*
X77588Y66823D01*
X77602Y66806D01*
X77745Y66697D01*
X77884Y66585D01*
X77904Y66574D01*
X77921Y66561D01*
X78217Y66409D01*
X79162Y66018D01*
X82305Y62874D01*
X82306Y62874D01*
X88958Y56222D01*
X88978Y56205D01*
X88996Y56184D01*
X89134Y56077D01*
X89269Y55967D01*
X89293Y55954D01*
X89314Y55938D01*
X89471Y55860D01*
X89625Y55778D01*
X89650Y55770D01*
X89675Y55758D01*
X89844Y55713D01*
X90011Y55663D01*
X90037Y55661D01*
X90063Y55654D01*
X90394Y55627D01*
X96196Y55627D01*
X102638Y52958D01*
X107568Y48028D01*
X110237Y41586D01*
X110237Y34614D01*
X107568Y28172D01*
X102638Y23242D01*
X96196Y20573D01*
X89224Y20573D01*
X82782Y23242D01*
X81446Y24577D01*
X81433Y24588D01*
X81421Y24602D01*
X81276Y24716D01*
X81135Y24832D01*
X81119Y24841D01*
X81105Y24852D01*
X80941Y24935D01*
X80779Y25021D01*
X80762Y25026D01*
X80746Y25034D01*
X80569Y25083D01*
X80393Y25136D01*
X80375Y25137D01*
X80358Y25142D01*
X80175Y25155D01*
X79992Y25172D01*
X79974Y25170D01*
X79957Y25171D01*
X79775Y25148D01*
X79592Y25129D01*
X79575Y25123D01*
X79557Y25121D01*
X79384Y25063D01*
X79208Y25007D01*
X79192Y24998D01*
X79176Y24993D01*
X79017Y24901D01*
X78856Y24812D01*
X78842Y24801D01*
X78827Y24792D01*
X78574Y24577D01*
X77238Y23242D01*
X70796Y20573D01*
X63824Y20573D01*
X57382Y23242D01*
X54028Y26595D01*
X54021Y26601D01*
X54016Y26608D01*
X53866Y26728D01*
X53717Y26850D01*
X53709Y26854D01*
X53702Y26860D01*
X53531Y26949D01*
X53361Y27039D01*
X53352Y27041D01*
X53345Y27046D01*
X53160Y27099D01*
X52975Y27154D01*
X52966Y27155D01*
X52958Y27157D01*
X52767Y27173D01*
X52574Y27190D01*
X52565Y27189D01*
X52556Y27190D01*
X52367Y27168D01*
X52174Y27147D01*
X52165Y27144D01*
X52157Y27143D01*
X51974Y27083D01*
X51790Y27025D01*
X51782Y27021D01*
X51774Y27018D01*
X51605Y26923D01*
X51438Y26830D01*
X51431Y26825D01*
X51423Y26820D01*
X51277Y26694D01*
X51131Y26570D01*
X51125Y26563D01*
X51118Y26557D01*
X51001Y26406D01*
X50881Y26254D01*
X50877Y26246D01*
X50872Y26239D01*
X50786Y26067D01*
X50699Y25895D01*
X50696Y25886D01*
X50692Y25878D01*
X50642Y25692D01*
X50591Y25507D01*
X50590Y25498D01*
X50588Y25490D01*
X50561Y25159D01*
X50561Y22088D01*
X48846Y15688D01*
X47414Y13208D01*
X47353Y13074D01*
X47286Y12945D01*
X47271Y12891D01*
X47248Y12841D01*
X47215Y12698D01*
X47175Y12558D01*
X47170Y12502D01*
X47158Y12448D01*
X47154Y12302D01*
X47142Y12156D01*
X47148Y12101D01*
X47147Y12046D01*
X47172Y11901D01*
X47189Y11757D01*
X47206Y11704D01*
X47216Y11649D01*
X47268Y11513D01*
X47314Y11374D01*
X47341Y11325D01*
X47361Y11274D01*
X47440Y11151D01*
X47512Y11023D01*
X47548Y10981D01*
X47578Y10934D01*
X47679Y10829D01*
X47775Y10718D01*
X47819Y10684D01*
X47857Y10644D01*
X47977Y10561D01*
X48093Y10472D01*
X48142Y10447D01*
X48188Y10415D01*
X48323Y10357D01*
X48453Y10292D01*
X48507Y10278D01*
X48558Y10256D01*
X48701Y10226D01*
X48842Y10188D01*
X48905Y10183D01*
X48952Y10173D01*
X49036Y10172D01*
X49173Y10161D01*
X522327Y10161D01*
X522473Y10175D01*
G37*
%LPC*%
G36*
X491118Y443291D02*
X491118Y443291D01*
X484198Y445145D01*
X477993Y448728D01*
X472928Y453793D01*
X470111Y458672D01*
X470068Y458731D01*
X470033Y458796D01*
X469951Y458894D01*
X469876Y458999D01*
X469823Y459049D01*
X469776Y459105D01*
X469676Y459185D01*
X469581Y459273D01*
X469519Y459311D01*
X469462Y459357D01*
X469348Y459416D01*
X469238Y459484D01*
X469170Y459509D01*
X469105Y459543D01*
X468981Y459578D01*
X468861Y459623D01*
X468788Y459634D01*
X468718Y459654D01*
X468589Y459665D01*
X468463Y459684D01*
X468390Y459681D01*
X468316Y459687D01*
X468189Y459672D01*
X468060Y459666D01*
X467989Y459649D01*
X467917Y459640D01*
X467794Y459600D01*
X467670Y459569D01*
X467604Y459538D01*
X467534Y459515D01*
X467422Y459452D01*
X467306Y459397D01*
X467247Y459353D01*
X467183Y459317D01*
X467086Y459233D01*
X466983Y459157D01*
X466934Y459102D01*
X466878Y459054D01*
X466800Y458953D01*
X466714Y458857D01*
X466677Y458794D01*
X466632Y458736D01*
X466574Y458621D01*
X466509Y458510D01*
X466485Y458441D01*
X466452Y458376D01*
X466419Y458251D01*
X466377Y458130D01*
X466367Y458058D01*
X466348Y457987D01*
X466334Y457817D01*
X466322Y457731D01*
X466324Y457698D01*
X466321Y457656D01*
X466321Y451085D01*
X466148Y450439D01*
X465813Y449860D01*
X465340Y449387D01*
X464761Y449052D01*
X464115Y448879D01*
X448763Y448879D01*
X448763Y468468D01*
X448761Y468486D01*
X448763Y468503D01*
X448741Y468686D01*
X448723Y468868D01*
X448718Y468886D01*
X448716Y468903D01*
X448659Y469078D01*
X448605Y469253D01*
X448597Y469269D01*
X448591Y469286D01*
X448501Y469446D01*
X448413Y469607D01*
X448402Y469621D01*
X448393Y469637D01*
X448273Y469776D01*
X448156Y469917D01*
X448142Y469928D01*
X448130Y469941D01*
X447985Y470054D01*
X447842Y470169D01*
X447826Y470177D01*
X447812Y470188D01*
X447647Y470270D01*
X447485Y470355D01*
X447468Y470359D01*
X447451Y470367D01*
X447273Y470415D01*
X447098Y470466D01*
X447080Y470467D01*
X447063Y470472D01*
X446732Y470499D01*
X444699Y470499D01*
X444699Y470501D01*
X446732Y470501D01*
X446750Y470503D01*
X446767Y470501D01*
X446950Y470523D01*
X447133Y470541D01*
X447150Y470546D01*
X447167Y470548D01*
X447342Y470605D01*
X447517Y470659D01*
X447533Y470667D01*
X447550Y470673D01*
X447710Y470763D01*
X447872Y470851D01*
X447885Y470862D01*
X447901Y470871D01*
X448040Y470991D01*
X448181Y471108D01*
X448192Y471122D01*
X448205Y471134D01*
X448318Y471279D01*
X448433Y471422D01*
X448441Y471438D01*
X448452Y471452D01*
X448534Y471617D01*
X448619Y471780D01*
X448624Y471797D01*
X448632Y471813D01*
X448679Y471991D01*
X448730Y472166D01*
X448731Y472184D01*
X448736Y472201D01*
X448763Y472532D01*
X448763Y492121D01*
X464115Y492121D01*
X464761Y491948D01*
X465340Y491613D01*
X465813Y491140D01*
X466148Y490561D01*
X466321Y489915D01*
X466321Y483344D01*
X466328Y483271D01*
X466326Y483198D01*
X466348Y483071D01*
X466361Y482943D01*
X466382Y482873D01*
X466395Y482801D01*
X466441Y482681D01*
X466479Y482558D01*
X466514Y482494D01*
X466540Y482426D01*
X466609Y482317D01*
X466671Y482204D01*
X466717Y482148D01*
X466757Y482086D01*
X466846Y481994D01*
X466928Y481895D01*
X466985Y481849D01*
X467036Y481796D01*
X467142Y481723D01*
X467242Y481643D01*
X467307Y481609D01*
X467367Y481567D01*
X467486Y481516D01*
X467599Y481457D01*
X467670Y481437D01*
X467737Y481408D01*
X467863Y481381D01*
X467986Y481346D01*
X468059Y481340D01*
X468131Y481325D01*
X468259Y481323D01*
X468388Y481313D01*
X468460Y481321D01*
X468534Y481321D01*
X468660Y481345D01*
X468787Y481360D01*
X468857Y481383D01*
X468929Y481396D01*
X469048Y481445D01*
X469170Y481485D01*
X469234Y481521D01*
X469302Y481548D01*
X469409Y481619D01*
X469521Y481683D01*
X469576Y481730D01*
X469637Y481771D01*
X469728Y481862D01*
X469825Y481946D01*
X469870Y482004D01*
X469922Y482055D01*
X470019Y482195D01*
X470072Y482264D01*
X470087Y482293D01*
X470111Y482328D01*
X472928Y487207D01*
X477993Y492272D01*
X484198Y495855D01*
X491118Y497709D01*
X498282Y497709D01*
X505202Y495855D01*
X511407Y492272D01*
X516472Y487207D01*
X520055Y481002D01*
X521909Y474082D01*
X521909Y466918D01*
X520055Y459998D01*
X516472Y453793D01*
X511407Y448728D01*
X505202Y445145D01*
X498282Y443291D01*
X491118Y443291D01*
G37*
%LPD*%
%LPC*%
G36*
X491118Y544891D02*
X491118Y544891D01*
X484198Y546745D01*
X477993Y550328D01*
X472928Y555393D01*
X470111Y560272D01*
X470068Y560331D01*
X470033Y560396D01*
X469951Y560494D01*
X469876Y560599D01*
X469823Y560649D01*
X469776Y560705D01*
X469676Y560785D01*
X469581Y560873D01*
X469519Y560911D01*
X469462Y560957D01*
X469348Y561016D01*
X469238Y561084D01*
X469170Y561109D01*
X469105Y561143D01*
X468981Y561178D01*
X468861Y561223D01*
X468788Y561234D01*
X468718Y561254D01*
X468589Y561265D01*
X468463Y561284D01*
X468390Y561281D01*
X468316Y561287D01*
X468189Y561272D01*
X468060Y561266D01*
X467989Y561249D01*
X467917Y561240D01*
X467794Y561200D01*
X467670Y561169D01*
X467604Y561138D01*
X467534Y561115D01*
X467422Y561052D01*
X467306Y560997D01*
X467247Y560953D01*
X467183Y560917D01*
X467086Y560834D01*
X466983Y560757D01*
X466934Y560702D01*
X466878Y560654D01*
X466800Y560553D01*
X466714Y560457D01*
X466677Y560394D01*
X466632Y560336D01*
X466574Y560221D01*
X466509Y560110D01*
X466485Y560041D01*
X466452Y559976D01*
X466419Y559851D01*
X466377Y559730D01*
X466367Y559658D01*
X466348Y559587D01*
X466334Y559418D01*
X466322Y559331D01*
X466324Y559298D01*
X466321Y559256D01*
X466321Y552685D01*
X466148Y552039D01*
X465813Y551460D01*
X465340Y550987D01*
X464761Y550652D01*
X464115Y550479D01*
X448763Y550479D01*
X448763Y570068D01*
X448761Y570086D01*
X448763Y570103D01*
X448741Y570286D01*
X448723Y570468D01*
X448718Y570486D01*
X448716Y570503D01*
X448659Y570678D01*
X448605Y570853D01*
X448597Y570869D01*
X448591Y570886D01*
X448501Y571046D01*
X448413Y571207D01*
X448402Y571221D01*
X448393Y571237D01*
X448273Y571376D01*
X448156Y571517D01*
X448142Y571528D01*
X448130Y571541D01*
X447985Y571654D01*
X447842Y571769D01*
X447826Y571777D01*
X447812Y571788D01*
X447647Y571870D01*
X447485Y571955D01*
X447468Y571959D01*
X447451Y571967D01*
X447273Y572015D01*
X447098Y572066D01*
X447080Y572067D01*
X447063Y572072D01*
X446732Y572099D01*
X444699Y572099D01*
X444699Y572101D01*
X446732Y572101D01*
X446750Y572103D01*
X446767Y572101D01*
X446950Y572123D01*
X447133Y572141D01*
X447150Y572146D01*
X447167Y572148D01*
X447342Y572205D01*
X447517Y572259D01*
X447533Y572267D01*
X447550Y572273D01*
X447710Y572363D01*
X447872Y572451D01*
X447885Y572462D01*
X447901Y572471D01*
X448040Y572591D01*
X448181Y572708D01*
X448192Y572722D01*
X448205Y572734D01*
X448318Y572879D01*
X448433Y573022D01*
X448441Y573038D01*
X448452Y573052D01*
X448534Y573217D01*
X448619Y573380D01*
X448624Y573397D01*
X448632Y573413D01*
X448679Y573591D01*
X448730Y573766D01*
X448731Y573784D01*
X448736Y573801D01*
X448763Y574132D01*
X448763Y593721D01*
X464115Y593721D01*
X464761Y593548D01*
X465340Y593213D01*
X465813Y592740D01*
X466148Y592161D01*
X466321Y591515D01*
X466321Y584944D01*
X466328Y584871D01*
X466326Y584798D01*
X466348Y584671D01*
X466361Y584543D01*
X466382Y584473D01*
X466395Y584401D01*
X466441Y584281D01*
X466479Y584158D01*
X466514Y584094D01*
X466540Y584026D01*
X466609Y583917D01*
X466671Y583804D01*
X466717Y583748D01*
X466757Y583686D01*
X466846Y583594D01*
X466928Y583495D01*
X466985Y583449D01*
X467036Y583396D01*
X467142Y583323D01*
X467242Y583243D01*
X467307Y583209D01*
X467367Y583167D01*
X467485Y583116D01*
X467599Y583057D01*
X467670Y583037D01*
X467737Y583008D01*
X467863Y582981D01*
X467986Y582946D01*
X468059Y582940D01*
X468131Y582925D01*
X468259Y582923D01*
X468388Y582913D01*
X468460Y582921D01*
X468534Y582921D01*
X468660Y582945D01*
X468787Y582960D01*
X468857Y582982D01*
X468929Y582996D01*
X469048Y583045D01*
X469170Y583085D01*
X469234Y583121D01*
X469302Y583148D01*
X469409Y583219D01*
X469521Y583283D01*
X469576Y583330D01*
X469637Y583371D01*
X469728Y583462D01*
X469825Y583546D01*
X469870Y583604D01*
X469922Y583655D01*
X470019Y583795D01*
X470072Y583864D01*
X470087Y583893D01*
X470088Y583895D01*
X470089Y583897D01*
X470111Y583928D01*
X472928Y588807D01*
X477993Y593872D01*
X484198Y597455D01*
X491118Y599309D01*
X498282Y599309D01*
X505202Y597455D01*
X511407Y593872D01*
X516472Y588807D01*
X520055Y582602D01*
X521909Y575682D01*
X521909Y568518D01*
X520055Y561598D01*
X516472Y555393D01*
X511407Y550328D01*
X505202Y546745D01*
X498282Y544891D01*
X491118Y544891D01*
G37*
%LPD*%
%LPC*%
G36*
X63427Y104312D02*
X63427Y104312D01*
X63410Y104317D01*
X63394Y104325D01*
X63216Y104373D01*
X63040Y104424D01*
X63022Y104425D01*
X63005Y104430D01*
X62674Y104457D01*
X50037Y104457D01*
X50037Y112680D01*
X50035Y112706D01*
X50037Y112733D01*
X50015Y112907D01*
X49997Y113080D01*
X49990Y113106D01*
X49986Y113132D01*
X49931Y113298D01*
X49879Y113465D01*
X49866Y113489D01*
X49858Y113514D01*
X49771Y113666D01*
X49687Y113819D01*
X49670Y113840D01*
X49657Y113863D01*
X49442Y114116D01*
X47350Y116209D01*
X44449Y123211D01*
X44449Y130789D01*
X47350Y137791D01*
X47822Y138264D01*
X47833Y138277D01*
X47847Y138289D01*
X47960Y138433D01*
X48077Y138575D01*
X48085Y138591D01*
X48096Y138605D01*
X48179Y138768D01*
X48266Y138931D01*
X48271Y138948D01*
X48279Y138964D01*
X48328Y139140D01*
X48380Y139317D01*
X48382Y139335D01*
X48387Y139352D01*
X48400Y139535D01*
X48417Y139718D01*
X48415Y139735D01*
X48416Y139753D01*
X48393Y139935D01*
X48373Y140118D01*
X48368Y140135D01*
X48366Y140153D01*
X48307Y140327D01*
X48252Y140502D01*
X48243Y140517D01*
X48238Y140534D01*
X48146Y140694D01*
X48057Y140854D01*
X48046Y140868D01*
X48037Y140883D01*
X47822Y141136D01*
X47350Y141609D01*
X44449Y148611D01*
X44449Y156189D01*
X47350Y163191D01*
X52709Y168550D01*
X59711Y171451D01*
X67289Y171451D01*
X74291Y168550D01*
X79650Y163191D01*
X82551Y156189D01*
X82551Y148611D01*
X79650Y141609D01*
X79178Y141136D01*
X79167Y141122D01*
X79153Y141111D01*
X79039Y140967D01*
X78923Y140825D01*
X78915Y140809D01*
X78904Y140795D01*
X78820Y140631D01*
X78734Y140469D01*
X78729Y140452D01*
X78721Y140436D01*
X78672Y140259D01*
X78620Y140083D01*
X78618Y140065D01*
X78613Y140048D01*
X78600Y139865D01*
X78583Y139682D01*
X78585Y139664D01*
X78584Y139647D01*
X78607Y139465D01*
X78627Y139282D01*
X78632Y139265D01*
X78634Y139247D01*
X78693Y139074D01*
X78748Y138898D01*
X78757Y138882D01*
X78762Y138866D01*
X78854Y138706D01*
X78943Y138546D01*
X78954Y138532D01*
X78963Y138517D01*
X79178Y138264D01*
X79650Y137791D01*
X82551Y130789D01*
X82551Y123211D01*
X79650Y116209D01*
X77558Y114116D01*
X77541Y114095D01*
X77520Y114078D01*
X77413Y113940D01*
X77303Y113804D01*
X77290Y113781D01*
X77274Y113760D01*
X77196Y113603D01*
X77114Y113449D01*
X77106Y113423D01*
X77094Y113399D01*
X77049Y113230D01*
X76999Y113063D01*
X76997Y113036D01*
X76990Y113010D01*
X76963Y112680D01*
X76963Y104457D01*
X64326Y104457D01*
X64308Y104455D01*
X64290Y104456D01*
X64108Y104435D01*
X63925Y104417D01*
X63908Y104412D01*
X63890Y104410D01*
X63716Y104353D01*
X63540Y104299D01*
X63524Y104290D01*
X63508Y104285D01*
X63494Y104277D01*
X63427Y104312D01*
G37*
%LPD*%
%LPC*%
G36*
X368227Y155112D02*
X368227Y155112D01*
X368210Y155117D01*
X368194Y155125D01*
X368016Y155173D01*
X367840Y155224D01*
X367822Y155225D01*
X367805Y155230D01*
X367474Y155257D01*
X354837Y155257D01*
X354837Y163480D01*
X354835Y163506D01*
X354837Y163533D01*
X354815Y163707D01*
X354797Y163880D01*
X354790Y163906D01*
X354786Y163932D01*
X354730Y164098D01*
X354679Y164265D01*
X354666Y164289D01*
X354658Y164314D01*
X354571Y164465D01*
X354487Y164619D01*
X354470Y164640D01*
X354457Y164663D01*
X354242Y164916D01*
X352150Y167009D01*
X349249Y174011D01*
X349249Y181589D01*
X352150Y188591D01*
X352622Y189064D01*
X352633Y189077D01*
X352647Y189089D01*
X352760Y189233D01*
X352877Y189375D01*
X352885Y189391D01*
X352896Y189405D01*
X352979Y189568D01*
X353066Y189731D01*
X353071Y189748D01*
X353079Y189764D01*
X353128Y189940D01*
X353180Y190117D01*
X353182Y190135D01*
X353187Y190152D01*
X353200Y190335D01*
X353217Y190518D01*
X353215Y190535D01*
X353216Y190553D01*
X353193Y190735D01*
X353173Y190918D01*
X353168Y190935D01*
X353166Y190953D01*
X353107Y191127D01*
X353052Y191302D01*
X353043Y191317D01*
X353038Y191334D01*
X352946Y191494D01*
X352857Y191654D01*
X352846Y191668D01*
X352837Y191683D01*
X352622Y191936D01*
X352150Y192409D01*
X349249Y199411D01*
X349249Y206989D01*
X352150Y213991D01*
X357509Y219350D01*
X364511Y222251D01*
X372089Y222251D01*
X379091Y219350D01*
X384450Y213991D01*
X387351Y206989D01*
X387351Y199411D01*
X384450Y192409D01*
X383978Y191936D01*
X383967Y191922D01*
X383953Y191911D01*
X383839Y191767D01*
X383723Y191625D01*
X383715Y191609D01*
X383704Y191595D01*
X383620Y191431D01*
X383534Y191269D01*
X383529Y191252D01*
X383521Y191236D01*
X383472Y191059D01*
X383420Y190883D01*
X383418Y190865D01*
X383413Y190848D01*
X383400Y190665D01*
X383383Y190482D01*
X383385Y190464D01*
X383384Y190447D01*
X383407Y190265D01*
X383427Y190082D01*
X383432Y190065D01*
X383434Y190047D01*
X383493Y189874D01*
X383548Y189698D01*
X383557Y189682D01*
X383562Y189666D01*
X383654Y189506D01*
X383743Y189346D01*
X383754Y189332D01*
X383763Y189317D01*
X383978Y189064D01*
X384450Y188591D01*
X387351Y181589D01*
X387351Y174011D01*
X384450Y167009D01*
X382358Y164916D01*
X382341Y164895D01*
X382320Y164878D01*
X382213Y164740D01*
X382103Y164604D01*
X382090Y164581D01*
X382074Y164560D01*
X381996Y164403D01*
X381914Y164249D01*
X381906Y164223D01*
X381894Y164199D01*
X381849Y164030D01*
X381799Y163863D01*
X381797Y163836D01*
X381790Y163810D01*
X381763Y163480D01*
X381763Y155257D01*
X369126Y155257D01*
X369108Y155255D01*
X369090Y155256D01*
X368908Y155235D01*
X368725Y155217D01*
X368708Y155212D01*
X368690Y155210D01*
X368516Y155153D01*
X368340Y155099D01*
X368324Y155090D01*
X368308Y155085D01*
X368294Y155077D01*
X368227Y155112D01*
G37*
%LPD*%
%LPC*%
G36*
X75398Y541171D02*
X75398Y541171D01*
X67448Y544464D01*
X61364Y550548D01*
X58071Y558498D01*
X58071Y567102D01*
X61364Y575052D01*
X67448Y581136D01*
X75398Y584429D01*
X84002Y584429D01*
X91952Y581136D01*
X98036Y575052D01*
X101329Y567102D01*
X101329Y558498D01*
X98036Y550548D01*
X91952Y544464D01*
X84002Y541171D01*
X75398Y541171D01*
G37*
%LPD*%
%LPC*%
G36*
X441014Y84073D02*
X441014Y84073D01*
X434572Y86742D01*
X429642Y91672D01*
X426973Y98114D01*
X426973Y105086D01*
X429642Y111528D01*
X434572Y116458D01*
X441014Y119127D01*
X447986Y119127D01*
X454428Y116458D01*
X459412Y111474D01*
X459463Y111379D01*
X459499Y111336D01*
X459528Y111288D01*
X459627Y111181D01*
X459720Y111068D01*
X459763Y111033D01*
X459801Y110992D01*
X459919Y110906D01*
X460032Y110815D01*
X460082Y110789D01*
X460127Y110756D01*
X460260Y110695D01*
X460389Y110627D01*
X460442Y110612D01*
X460493Y110589D01*
X460635Y110555D01*
X460775Y110514D01*
X460831Y110509D01*
X460885Y110497D01*
X461031Y110492D01*
X461176Y110480D01*
X461232Y110486D01*
X461288Y110484D01*
X461431Y110508D01*
X461576Y110525D01*
X461630Y110542D01*
X461685Y110551D01*
X461821Y110603D01*
X461960Y110648D01*
X462009Y110675D01*
X462061Y110695D01*
X462244Y110806D01*
X462311Y110844D01*
X462325Y110856D01*
X462344Y110867D01*
X463643Y111811D01*
X465317Y112664D01*
X467104Y113245D01*
X467869Y113366D01*
X467869Y101600D01*
X467869Y89834D01*
X467104Y89955D01*
X465317Y90536D01*
X463643Y91389D01*
X462344Y92333D01*
X462296Y92361D01*
X462252Y92396D01*
X462122Y92462D01*
X461996Y92536D01*
X461944Y92554D01*
X461894Y92579D01*
X461754Y92619D01*
X461616Y92667D01*
X461560Y92674D01*
X461507Y92689D01*
X461361Y92700D01*
X461217Y92720D01*
X461161Y92716D01*
X461105Y92720D01*
X460961Y92703D01*
X460815Y92693D01*
X460761Y92678D01*
X460706Y92671D01*
X460567Y92626D01*
X460426Y92587D01*
X460376Y92562D01*
X460323Y92545D01*
X460197Y92473D01*
X460066Y92407D01*
X460022Y92373D01*
X459974Y92345D01*
X459864Y92250D01*
X459749Y92160D01*
X459712Y92117D01*
X459670Y92081D01*
X459581Y91965D01*
X459486Y91854D01*
X459459Y91806D01*
X459425Y91762D01*
X459400Y91714D01*
X454428Y86742D01*
X447986Y84073D01*
X441014Y84073D01*
G37*
%LPD*%
%LPC*%
G36*
X197174Y20573D02*
X197174Y20573D01*
X190732Y23242D01*
X185802Y28172D01*
X183133Y34614D01*
X183133Y41586D01*
X185802Y48028D01*
X190732Y52958D01*
X195676Y55006D01*
X197174Y55627D01*
X204146Y55627D01*
X210588Y52958D01*
X215572Y47974D01*
X215623Y47879D01*
X215659Y47836D01*
X215688Y47788D01*
X215787Y47681D01*
X215880Y47568D01*
X215923Y47533D01*
X215961Y47492D01*
X216079Y47406D01*
X216192Y47314D01*
X216242Y47289D01*
X216287Y47256D01*
X216420Y47195D01*
X216549Y47127D01*
X216602Y47112D01*
X216653Y47089D01*
X216795Y47055D01*
X216935Y47014D01*
X216991Y47009D01*
X217045Y46997D01*
X217191Y46992D01*
X217337Y46980D01*
X217392Y46986D01*
X217447Y46984D01*
X217592Y47008D01*
X217737Y47025D01*
X217790Y47042D01*
X217845Y47051D01*
X217981Y47103D01*
X218120Y47148D01*
X218168Y47175D01*
X218221Y47195D01*
X218404Y47306D01*
X218471Y47344D01*
X218485Y47356D01*
X218504Y47367D01*
X219803Y48311D01*
X221477Y49164D01*
X223264Y49745D01*
X223521Y49785D01*
X223521Y38608D01*
X223522Y38590D01*
X223521Y38573D01*
X223542Y38390D01*
X223561Y38208D01*
X223566Y38191D01*
X223568Y38173D01*
X223593Y38095D01*
X223554Y37958D01*
X223552Y37940D01*
X223548Y37923D01*
X223521Y37592D01*
X223521Y26415D01*
X223264Y26455D01*
X221477Y27036D01*
X219803Y27889D01*
X218504Y28833D01*
X218456Y28861D01*
X218412Y28895D01*
X218282Y28962D01*
X218156Y29036D01*
X218104Y29054D01*
X218054Y29079D01*
X217914Y29119D01*
X217776Y29167D01*
X217720Y29174D01*
X217667Y29189D01*
X217521Y29200D01*
X217376Y29220D01*
X217321Y29216D01*
X217265Y29220D01*
X217120Y29202D01*
X216975Y29193D01*
X216921Y29178D01*
X216866Y29171D01*
X216727Y29125D01*
X216586Y29087D01*
X216536Y29062D01*
X216484Y29045D01*
X216357Y28972D01*
X216226Y28907D01*
X216182Y28873D01*
X216134Y28845D01*
X216024Y28749D01*
X215909Y28660D01*
X215872Y28617D01*
X215830Y28581D01*
X215741Y28465D01*
X215646Y28354D01*
X215619Y28306D01*
X215585Y28262D01*
X215560Y28214D01*
X210588Y23242D01*
X204146Y20573D01*
X197174Y20573D01*
G37*
%LPD*%
%LPC*%
G36*
X107619Y286130D02*
X107619Y286130D01*
X98170Y295579D01*
X98170Y308941D01*
X106704Y317475D01*
X106710Y317482D01*
X106716Y317487D01*
X106722Y317494D01*
X106729Y317500D01*
X106843Y317644D01*
X106959Y317787D01*
X106964Y317795D01*
X106968Y317801D01*
X106972Y317808D01*
X106979Y317816D01*
X107062Y317981D01*
X107148Y318142D01*
X107151Y318152D01*
X107154Y318158D01*
X107156Y318165D01*
X107161Y318175D01*
X107210Y318353D01*
X107263Y318528D01*
X107264Y318539D01*
X107265Y318545D01*
X107266Y318552D01*
X107269Y318563D01*
X107282Y318746D01*
X107299Y318929D01*
X107298Y318941D01*
X107298Y318946D01*
X107297Y318952D01*
X107298Y318965D01*
X107275Y319147D01*
X107256Y319329D01*
X107252Y319341D01*
X107251Y319346D01*
X107250Y319351D01*
X107248Y319364D01*
X107190Y319538D01*
X107134Y319713D01*
X107128Y319724D01*
X107126Y319729D01*
X107124Y319733D01*
X107120Y319746D01*
X107028Y319905D01*
X106939Y320066D01*
X106931Y320076D01*
X106929Y320080D01*
X106926Y320083D01*
X106919Y320095D01*
X106704Y320348D01*
X103758Y323293D01*
X103758Y325629D01*
X114300Y325629D01*
X124842Y325629D01*
X124842Y323293D01*
X121896Y320348D01*
X121887Y320337D01*
X121884Y320334D01*
X121881Y320331D01*
X121871Y320322D01*
X121757Y320178D01*
X121641Y320036D01*
X121635Y320024D01*
X121632Y320021D01*
X121630Y320017D01*
X121621Y320006D01*
X121538Y319842D01*
X121452Y319680D01*
X121448Y319668D01*
X121446Y319663D01*
X121445Y319659D01*
X121439Y319647D01*
X121390Y319470D01*
X121337Y319295D01*
X121336Y319282D01*
X121335Y319276D01*
X121334Y319271D01*
X121331Y319260D01*
X121318Y319077D01*
X121301Y318894D01*
X121302Y318881D01*
X121302Y318875D01*
X121302Y318870D01*
X121302Y318858D01*
X121325Y318676D01*
X121344Y318493D01*
X121348Y318482D01*
X121349Y318475D01*
X121351Y318469D01*
X121352Y318459D01*
X121411Y318284D01*
X121466Y318109D01*
X121471Y318100D01*
X121474Y318093D01*
X121477Y318086D01*
X121480Y318077D01*
X121572Y317917D01*
X121661Y317757D01*
X121667Y317749D01*
X121671Y317742D01*
X121677Y317736D01*
X121681Y317728D01*
X121896Y317475D01*
X130430Y308941D01*
X130430Y295579D01*
X120981Y286130D01*
X107619Y286130D01*
G37*
%LPD*%
%LPC*%
G36*
X107619Y353440D02*
X107619Y353440D01*
X98170Y362889D01*
X98170Y376251D01*
X106704Y384785D01*
X106715Y384799D01*
X106729Y384810D01*
X106843Y384955D01*
X106959Y385096D01*
X106968Y385112D01*
X106979Y385126D01*
X107062Y385290D01*
X107148Y385452D01*
X107153Y385469D01*
X107161Y385485D01*
X107210Y385663D01*
X107263Y385838D01*
X107264Y385856D01*
X107269Y385873D01*
X107282Y386056D01*
X107299Y386239D01*
X107297Y386257D01*
X107298Y386275D01*
X107275Y386457D01*
X107256Y386639D01*
X107250Y386656D01*
X107248Y386674D01*
X107190Y386848D01*
X107134Y387023D01*
X107125Y387039D01*
X107120Y387056D01*
X107028Y387215D01*
X106939Y387376D01*
X106928Y387389D01*
X106919Y387405D01*
X106704Y387658D01*
X103758Y390603D01*
X103758Y392939D01*
X114300Y392939D01*
X124842Y392939D01*
X124842Y390603D01*
X121896Y387658D01*
X121885Y387644D01*
X121871Y387632D01*
X121757Y387488D01*
X121641Y387346D01*
X121632Y387330D01*
X121621Y387316D01*
X121538Y387152D01*
X121452Y386990D01*
X121447Y386973D01*
X121439Y386957D01*
X121390Y386780D01*
X121337Y386604D01*
X121336Y386587D01*
X121331Y386570D01*
X121318Y386386D01*
X121301Y386204D01*
X121303Y386186D01*
X121302Y386168D01*
X121325Y385986D01*
X121344Y385803D01*
X121350Y385786D01*
X121352Y385769D01*
X121410Y385595D01*
X121466Y385419D01*
X121475Y385404D01*
X121480Y385387D01*
X121572Y385227D01*
X121661Y385067D01*
X121672Y385054D01*
X121681Y385038D01*
X121896Y384785D01*
X130430Y376251D01*
X130430Y362889D01*
X120981Y353440D01*
X107619Y353440D01*
G37*
%LPD*%
%LPC*%
G36*
X423079Y576163D02*
X423079Y576163D01*
X423079Y591515D01*
X423252Y592161D01*
X423587Y592740D01*
X424060Y593213D01*
X424639Y593548D01*
X425285Y593721D01*
X440637Y593721D01*
X440637Y576163D01*
X423079Y576163D01*
G37*
%LPD*%
%LPC*%
G36*
X423079Y474563D02*
X423079Y474563D01*
X423079Y489915D01*
X423252Y490561D01*
X423587Y491140D01*
X424060Y491613D01*
X424639Y491948D01*
X425285Y492121D01*
X440637Y492121D01*
X440637Y474563D01*
X423079Y474563D01*
G37*
%LPD*%
%LPC*%
G36*
X425285Y550479D02*
X425285Y550479D01*
X424639Y550652D01*
X424060Y550987D01*
X423587Y551460D01*
X423252Y552039D01*
X423079Y552685D01*
X423079Y568037D01*
X440637Y568037D01*
X440637Y550479D01*
X425285Y550479D01*
G37*
%LPD*%
%LPC*%
G36*
X133381Y437365D02*
X133381Y437365D01*
X130965Y438211D01*
X128658Y439322D01*
X126491Y440683D01*
X124490Y442279D01*
X122679Y444090D01*
X121083Y446091D01*
X119722Y448258D01*
X118611Y450565D01*
X117765Y452981D01*
X117251Y455237D01*
X135637Y455237D01*
X135637Y436851D01*
X133381Y437365D01*
G37*
%LPD*%
%LPC*%
G36*
X66357Y79057D02*
X66357Y79057D01*
X66357Y98743D01*
X76963Y98743D01*
X76963Y90343D01*
X76720Y89439D01*
X76719Y89428D01*
X76699Y89370D01*
X76684Y89263D01*
X76660Y89159D01*
X76657Y89064D01*
X76645Y88971D01*
X76652Y88863D01*
X76649Y88756D01*
X76665Y88663D01*
X76671Y88569D01*
X76699Y88465D01*
X76717Y88359D01*
X76730Y88325D01*
X76963Y87457D01*
X76963Y79057D01*
X66357Y79057D01*
G37*
%LPD*%
%LPC*%
G36*
X371157Y129857D02*
X371157Y129857D01*
X371157Y149543D01*
X381763Y149543D01*
X381763Y141143D01*
X381520Y140239D01*
X381519Y140228D01*
X381499Y140170D01*
X381484Y140063D01*
X381460Y139959D01*
X381457Y139864D01*
X381445Y139771D01*
X381452Y139663D01*
X381449Y139556D01*
X381465Y139463D01*
X381471Y139369D01*
X381499Y139265D01*
X381517Y139159D01*
X381530Y139125D01*
X381763Y138257D01*
X381763Y129857D01*
X371157Y129857D01*
G37*
%LPD*%
%LPC*%
G36*
X471931Y179831D02*
X471931Y179831D01*
X471931Y189566D01*
X472696Y189445D01*
X474483Y188864D01*
X476157Y188011D01*
X477678Y186906D01*
X479006Y185578D01*
X480111Y184057D01*
X480964Y182383D01*
X481545Y180596D01*
X481666Y179831D01*
X471931Y179831D01*
G37*
%LPD*%
%LPC*%
G36*
X471931Y103631D02*
X471931Y103631D01*
X471931Y113366D01*
X472696Y113245D01*
X474483Y112664D01*
X476157Y111811D01*
X477678Y110706D01*
X479006Y109378D01*
X480111Y107857D01*
X480964Y106183D01*
X481545Y104396D01*
X481666Y103631D01*
X471931Y103631D01*
G37*
%LPD*%
%LPC*%
G36*
X471931Y99569D02*
X471931Y99569D01*
X481666Y99569D01*
X481545Y98804D01*
X480964Y97017D01*
X480111Y95343D01*
X479006Y93822D01*
X477678Y92494D01*
X476157Y91389D01*
X474483Y90536D01*
X472696Y89955D01*
X471931Y89834D01*
X471931Y99569D01*
G37*
%LPD*%
%LPC*%
G36*
X471931Y175769D02*
X471931Y175769D01*
X481666Y175769D01*
X481545Y175004D01*
X480964Y173217D01*
X480111Y171543D01*
X479006Y170022D01*
X477678Y168694D01*
X476157Y167589D01*
X474483Y166736D01*
X472696Y166155D01*
X471931Y166034D01*
X471931Y175769D01*
G37*
%LPD*%
%LPC*%
G36*
X497839Y421639D02*
X497839Y421639D01*
X497839Y430785D01*
X498096Y430745D01*
X499883Y430164D01*
X501557Y429311D01*
X503078Y428206D01*
X504406Y426878D01*
X505511Y425357D01*
X506364Y423683D01*
X506945Y421896D01*
X506985Y421639D01*
X497839Y421639D01*
G37*
%LPD*%
%LPC*%
G36*
X497839Y320039D02*
X497839Y320039D01*
X497839Y329185D01*
X498096Y329145D01*
X499883Y328564D01*
X501557Y327711D01*
X503078Y326606D01*
X504406Y325278D01*
X505511Y323757D01*
X506364Y322083D01*
X506945Y320296D01*
X506985Y320039D01*
X497839Y320039D01*
G37*
%LPD*%
%LPC*%
G36*
X228599Y40639D02*
X228599Y40639D01*
X228599Y49785D01*
X228856Y49745D01*
X230643Y49164D01*
X232317Y48311D01*
X233838Y47206D01*
X235166Y45878D01*
X236271Y44357D01*
X237124Y42683D01*
X237705Y40896D01*
X237745Y40639D01*
X228599Y40639D01*
G37*
%LPD*%
%LPC*%
G36*
X497839Y523239D02*
X497839Y523239D01*
X497839Y532385D01*
X498096Y532345D01*
X499883Y531764D01*
X501557Y530911D01*
X503078Y529806D01*
X504406Y528478D01*
X505511Y526957D01*
X506364Y525283D01*
X506945Y523496D01*
X506985Y523239D01*
X497839Y523239D01*
G37*
%LPD*%
%LPC*%
G36*
X162559Y40639D02*
X162559Y40639D01*
X162559Y49785D01*
X162816Y49745D01*
X164603Y49164D01*
X166277Y48311D01*
X167798Y47206D01*
X169126Y45878D01*
X170231Y44357D01*
X171084Y42683D01*
X171665Y40896D01*
X171705Y40639D01*
X162559Y40639D01*
G37*
%LPD*%
%LPC*%
G36*
X497839Y416561D02*
X497839Y416561D01*
X506985Y416561D01*
X506945Y416304D01*
X506364Y414517D01*
X505511Y412843D01*
X504406Y411322D01*
X503078Y409994D01*
X501557Y408889D01*
X499883Y408036D01*
X498096Y407455D01*
X497839Y407415D01*
X497839Y416561D01*
G37*
%LPD*%
%LPC*%
G36*
X497839Y518161D02*
X497839Y518161D01*
X506985Y518161D01*
X506945Y517904D01*
X506364Y516117D01*
X505511Y514443D01*
X504406Y512922D01*
X503078Y511594D01*
X501557Y510489D01*
X499883Y509636D01*
X498096Y509055D01*
X497839Y509015D01*
X497839Y518161D01*
G37*
%LPD*%
%LPC*%
G36*
X497839Y314961D02*
X497839Y314961D01*
X506985Y314961D01*
X506945Y314704D01*
X506364Y312917D01*
X505511Y311243D01*
X504406Y309722D01*
X503078Y308394D01*
X501557Y307289D01*
X499883Y306436D01*
X498096Y305855D01*
X497839Y305815D01*
X497839Y314961D01*
G37*
%LPD*%
%LPC*%
G36*
X253745Y40639D02*
X253745Y40639D01*
X253785Y40896D01*
X254366Y42683D01*
X255219Y44357D01*
X256324Y45878D01*
X257652Y47206D01*
X259173Y48311D01*
X260847Y49164D01*
X262634Y49745D01*
X262891Y49785D01*
X262891Y40639D01*
X253745Y40639D01*
G37*
%LPD*%
%LPC*%
G36*
X228599Y35561D02*
X228599Y35561D01*
X237745Y35561D01*
X237705Y35304D01*
X237124Y33517D01*
X236271Y31843D01*
X235166Y30322D01*
X233838Y28994D01*
X232317Y27889D01*
X230643Y27036D01*
X228856Y26455D01*
X228599Y26415D01*
X228599Y35561D01*
G37*
%LPD*%
%LPC*%
G36*
X162559Y35561D02*
X162559Y35561D01*
X171705Y35561D01*
X171665Y35304D01*
X171084Y33517D01*
X170231Y31843D01*
X169126Y30322D01*
X167798Y28994D01*
X166277Y27889D01*
X164603Y27036D01*
X162816Y26455D01*
X162559Y26415D01*
X162559Y35561D01*
G37*
%LPD*%
%LPC*%
G36*
X262634Y26455D02*
X262634Y26455D01*
X260847Y27036D01*
X259173Y27889D01*
X257652Y28994D01*
X256324Y30322D01*
X255219Y31843D01*
X254366Y33517D01*
X253785Y35304D01*
X253745Y35561D01*
X262891Y35561D01*
X262891Y26415D01*
X262634Y26455D01*
G37*
%LPD*%
%LPC*%
G36*
X116331Y263651D02*
X116331Y263651D01*
X116331Y272162D01*
X118667Y272162D01*
X124842Y265987D01*
X124842Y263651D01*
X116331Y263651D01*
G37*
%LPD*%
%LPC*%
G36*
X154431Y263651D02*
X154431Y263651D01*
X154431Y272162D01*
X156767Y272162D01*
X162942Y265987D01*
X162942Y263651D01*
X154431Y263651D01*
G37*
%LPD*%
%LPC*%
G36*
X116331Y329691D02*
X116331Y329691D01*
X116331Y338202D01*
X118667Y338202D01*
X124842Y332027D01*
X124842Y329691D01*
X116331Y329691D01*
G37*
%LPD*%
%LPC*%
G36*
X116331Y397001D02*
X116331Y397001D01*
X116331Y405512D01*
X118667Y405512D01*
X124842Y399337D01*
X124842Y397001D01*
X116331Y397001D01*
G37*
%LPD*%
%LPC*%
G36*
X153161Y397001D02*
X153161Y397001D01*
X153161Y405512D01*
X155497Y405512D01*
X161672Y399337D01*
X161672Y397001D01*
X153161Y397001D01*
G37*
%LPD*%
%LPC*%
G36*
X154431Y329691D02*
X154431Y329691D01*
X154431Y338202D01*
X156767Y338202D01*
X162942Y332027D01*
X162942Y329691D01*
X154431Y329691D01*
G37*
%LPD*%
%LPC*%
G36*
X141858Y263651D02*
X141858Y263651D01*
X141858Y265987D01*
X148033Y272162D01*
X150369Y272162D01*
X150369Y263651D01*
X141858Y263651D01*
G37*
%LPD*%
%LPC*%
G36*
X141858Y329691D02*
X141858Y329691D01*
X141858Y332027D01*
X148033Y338202D01*
X150369Y338202D01*
X150369Y329691D01*
X141858Y329691D01*
G37*
%LPD*%
%LPC*%
G36*
X103758Y329691D02*
X103758Y329691D01*
X103758Y332027D01*
X109933Y338202D01*
X112269Y338202D01*
X112269Y329691D01*
X103758Y329691D01*
G37*
%LPD*%
%LPC*%
G36*
X103758Y397001D02*
X103758Y397001D01*
X103758Y399337D01*
X109933Y405512D01*
X112269Y405512D01*
X112269Y397001D01*
X103758Y397001D01*
G37*
%LPD*%
%LPC*%
G36*
X140588Y397001D02*
X140588Y397001D01*
X140588Y399337D01*
X146763Y405512D01*
X149099Y405512D01*
X149099Y397001D01*
X140588Y397001D01*
G37*
%LPD*%
%LPC*%
G36*
X103758Y263651D02*
X103758Y263651D01*
X103758Y265987D01*
X109933Y272162D01*
X112269Y272162D01*
X112269Y263651D01*
X103758Y263651D01*
G37*
%LPD*%
D10*
X0Y635000D02*
X0Y692600D01*
X571500Y692600D02*
X571500Y635000D01*
X570850Y673100D02*
X650Y673100D01*
X26000Y676292D01*
X26000Y669908D01*
X650Y673100D01*
X26000Y674400D01*
X26000Y671800D02*
X650Y673100D01*
X26000Y675700D01*
X26000Y670500D02*
X650Y673100D01*
X545500Y676292D02*
X570850Y673100D01*
X545500Y676292D02*
X545500Y669908D01*
X570850Y673100D01*
X545500Y674400D01*
X545500Y671800D02*
X570850Y673100D01*
X545500Y675700D01*
X545500Y670500D02*
X570850Y673100D01*
D11*
X316898Y679607D02*
X311479Y679607D01*
X311361Y679609D01*
X311243Y679615D01*
X311125Y679624D01*
X311008Y679638D01*
X310891Y679655D01*
X310774Y679676D01*
X310659Y679701D01*
X310544Y679730D01*
X310430Y679763D01*
X310318Y679799D01*
X310207Y679839D01*
X310097Y679882D01*
X309988Y679929D01*
X309881Y679979D01*
X309776Y680034D01*
X309673Y680091D01*
X309572Y680152D01*
X309472Y680216D01*
X309375Y680283D01*
X309280Y680353D01*
X309188Y680427D01*
X309097Y680503D01*
X309010Y680583D01*
X308925Y680665D01*
X308843Y680750D01*
X308763Y680837D01*
X308687Y680928D01*
X308613Y681020D01*
X308543Y681115D01*
X308476Y681212D01*
X308412Y681312D01*
X308351Y681413D01*
X308294Y681516D01*
X308239Y681621D01*
X308189Y681728D01*
X308142Y681837D01*
X308099Y681947D01*
X308059Y682058D01*
X308023Y682170D01*
X307990Y682284D01*
X307961Y682399D01*
X307936Y682514D01*
X307915Y682631D01*
X307898Y682748D01*
X307884Y682865D01*
X307875Y682983D01*
X307869Y683101D01*
X307867Y683219D01*
X307867Y685026D01*
X307869Y685144D01*
X307875Y685262D01*
X307884Y685380D01*
X307898Y685497D01*
X307915Y685614D01*
X307936Y685731D01*
X307961Y685846D01*
X307990Y685961D01*
X308023Y686075D01*
X308059Y686187D01*
X308099Y686298D01*
X308142Y686408D01*
X308189Y686517D01*
X308239Y686624D01*
X308294Y686729D01*
X308351Y686832D01*
X308412Y686933D01*
X308476Y687033D01*
X308543Y687130D01*
X308613Y687225D01*
X308687Y687317D01*
X308763Y687408D01*
X308843Y687495D01*
X308925Y687580D01*
X309010Y687662D01*
X309097Y687742D01*
X309188Y687818D01*
X309280Y687892D01*
X309375Y687962D01*
X309472Y688029D01*
X309572Y688093D01*
X309673Y688154D01*
X309776Y688211D01*
X309881Y688266D01*
X309988Y688316D01*
X310097Y688363D01*
X310207Y688406D01*
X310318Y688446D01*
X310430Y688482D01*
X310544Y688515D01*
X310659Y688544D01*
X310774Y688569D01*
X310891Y688590D01*
X311008Y688607D01*
X311125Y688621D01*
X311243Y688630D01*
X311361Y688636D01*
X311479Y688638D01*
X316898Y688638D01*
X316898Y695863D01*
X307867Y695863D01*
X301267Y695863D02*
X301267Y694057D01*
X301267Y695863D02*
X292236Y695863D01*
X296751Y679607D01*
X286261Y679607D02*
X286261Y680510D01*
X285358Y680510D01*
X285358Y679607D01*
X286261Y679607D01*
X279383Y692251D02*
X274868Y695863D01*
X274868Y679607D01*
X279383Y679607D02*
X270352Y679607D01*
X263752Y679607D02*
X258333Y679607D01*
X258215Y679609D01*
X258097Y679615D01*
X257979Y679624D01*
X257862Y679638D01*
X257745Y679655D01*
X257628Y679676D01*
X257513Y679701D01*
X257398Y679730D01*
X257284Y679763D01*
X257172Y679799D01*
X257061Y679839D01*
X256951Y679882D01*
X256842Y679929D01*
X256735Y679979D01*
X256630Y680034D01*
X256527Y680091D01*
X256426Y680152D01*
X256326Y680216D01*
X256229Y680283D01*
X256134Y680353D01*
X256042Y680427D01*
X255951Y680503D01*
X255864Y680583D01*
X255779Y680665D01*
X255697Y680750D01*
X255617Y680837D01*
X255541Y680928D01*
X255467Y681020D01*
X255397Y681115D01*
X255330Y681212D01*
X255266Y681312D01*
X255205Y681413D01*
X255148Y681516D01*
X255093Y681621D01*
X255043Y681728D01*
X254996Y681837D01*
X254953Y681947D01*
X254913Y682058D01*
X254877Y682170D01*
X254844Y682284D01*
X254815Y682399D01*
X254790Y682514D01*
X254769Y682631D01*
X254752Y682748D01*
X254738Y682865D01*
X254729Y682983D01*
X254723Y683101D01*
X254721Y683219D01*
X254721Y685026D01*
X254723Y685144D01*
X254729Y685262D01*
X254738Y685380D01*
X254752Y685497D01*
X254769Y685614D01*
X254790Y685731D01*
X254815Y685846D01*
X254844Y685961D01*
X254877Y686075D01*
X254913Y686187D01*
X254953Y686298D01*
X254996Y686408D01*
X255043Y686517D01*
X255093Y686624D01*
X255148Y686729D01*
X255205Y686832D01*
X255266Y686933D01*
X255330Y687033D01*
X255397Y687130D01*
X255467Y687225D01*
X255541Y687317D01*
X255617Y687408D01*
X255697Y687495D01*
X255779Y687580D01*
X255864Y687662D01*
X255951Y687742D01*
X256042Y687818D01*
X256134Y687892D01*
X256229Y687962D01*
X256326Y688029D01*
X256426Y688093D01*
X256527Y688154D01*
X256630Y688211D01*
X256735Y688266D01*
X256842Y688316D01*
X256951Y688363D01*
X257061Y688406D01*
X257172Y688446D01*
X257284Y688482D01*
X257398Y688515D01*
X257513Y688544D01*
X257628Y688569D01*
X257745Y688590D01*
X257862Y688607D01*
X257979Y688621D01*
X258097Y688630D01*
X258215Y688636D01*
X258333Y688638D01*
X263752Y688638D01*
X263752Y695863D01*
X254721Y695863D01*
D10*
X-12700Y0D02*
X-171900Y0D01*
X-171900Y635000D02*
X-12700Y635000D01*
X-152400Y634350D02*
X-152400Y650D01*
X-155592Y26000D01*
X-149208Y26000D01*
X-152400Y650D01*
X-153700Y26000D01*
X-151100Y26000D02*
X-152400Y650D01*
X-155000Y26000D01*
X-149800Y26000D02*
X-152400Y650D01*
X-155592Y609000D02*
X-152400Y634350D01*
X-155592Y609000D02*
X-149208Y609000D01*
X-152400Y634350D01*
X-153700Y609000D01*
X-151100Y609000D02*
X-152400Y634350D01*
X-155000Y609000D01*
X-149800Y609000D02*
X-152400Y634350D01*
D11*
X-166132Y291889D02*
X-166132Y286471D01*
X-166132Y291889D02*
X-166134Y292007D01*
X-166140Y292125D01*
X-166149Y292243D01*
X-166163Y292360D01*
X-166180Y292477D01*
X-166201Y292594D01*
X-166226Y292709D01*
X-166255Y292824D01*
X-166288Y292938D01*
X-166324Y293050D01*
X-166364Y293161D01*
X-166407Y293271D01*
X-166454Y293380D01*
X-166504Y293487D01*
X-166559Y293592D01*
X-166616Y293695D01*
X-166677Y293796D01*
X-166741Y293896D01*
X-166808Y293993D01*
X-166878Y294088D01*
X-166952Y294180D01*
X-167028Y294271D01*
X-167108Y294358D01*
X-167190Y294443D01*
X-167275Y294525D01*
X-167362Y294605D01*
X-167453Y294681D01*
X-167545Y294755D01*
X-167640Y294825D01*
X-167737Y294892D01*
X-167837Y294956D01*
X-167938Y295017D01*
X-168041Y295074D01*
X-168146Y295129D01*
X-168253Y295179D01*
X-168362Y295226D01*
X-168472Y295269D01*
X-168583Y295309D01*
X-168695Y295345D01*
X-168809Y295378D01*
X-168924Y295407D01*
X-169039Y295432D01*
X-169156Y295453D01*
X-169273Y295470D01*
X-169390Y295484D01*
X-169508Y295493D01*
X-169626Y295499D01*
X-169744Y295501D01*
X-169744Y295502D02*
X-170647Y295502D01*
X-170780Y295500D01*
X-170912Y295494D01*
X-171044Y295484D01*
X-171176Y295471D01*
X-171308Y295453D01*
X-171438Y295432D01*
X-171569Y295407D01*
X-171698Y295378D01*
X-171826Y295345D01*
X-171954Y295309D01*
X-172080Y295269D01*
X-172205Y295225D01*
X-172329Y295177D01*
X-172451Y295126D01*
X-172572Y295071D01*
X-172691Y295013D01*
X-172809Y294951D01*
X-172924Y294886D01*
X-173038Y294817D01*
X-173149Y294746D01*
X-173258Y294670D01*
X-173365Y294592D01*
X-173470Y294511D01*
X-173572Y294426D01*
X-173672Y294339D01*
X-173769Y294249D01*
X-173864Y294156D01*
X-173955Y294060D01*
X-174044Y293962D01*
X-174130Y293861D01*
X-174213Y293757D01*
X-174293Y293651D01*
X-174369Y293543D01*
X-174443Y293433D01*
X-174513Y293320D01*
X-174580Y293206D01*
X-174643Y293089D01*
X-174703Y292971D01*
X-174760Y292851D01*
X-174813Y292729D01*
X-174862Y292606D01*
X-174908Y292482D01*
X-174950Y292356D01*
X-174988Y292229D01*
X-175023Y292101D01*
X-175054Y291972D01*
X-175081Y291843D01*
X-175104Y291712D01*
X-175124Y291581D01*
X-175139Y291449D01*
X-175151Y291317D01*
X-175159Y291185D01*
X-175163Y291052D01*
X-175163Y290920D01*
X-175159Y290787D01*
X-175151Y290655D01*
X-175139Y290523D01*
X-175124Y290391D01*
X-175104Y290260D01*
X-175081Y290129D01*
X-175054Y290000D01*
X-175023Y289871D01*
X-174988Y289743D01*
X-174950Y289616D01*
X-174908Y289490D01*
X-174862Y289366D01*
X-174813Y289243D01*
X-174760Y289121D01*
X-174703Y289001D01*
X-174643Y288883D01*
X-174580Y288766D01*
X-174513Y288652D01*
X-174443Y288539D01*
X-174369Y288429D01*
X-174293Y288321D01*
X-174213Y288215D01*
X-174130Y288111D01*
X-174044Y288010D01*
X-173955Y287912D01*
X-173864Y287816D01*
X-173769Y287723D01*
X-173672Y287633D01*
X-173572Y287546D01*
X-173470Y287461D01*
X-173365Y287380D01*
X-173258Y287302D01*
X-173149Y287226D01*
X-173038Y287155D01*
X-172924Y287086D01*
X-172809Y287021D01*
X-172691Y286959D01*
X-172572Y286901D01*
X-172451Y286846D01*
X-172329Y286795D01*
X-172205Y286747D01*
X-172080Y286703D01*
X-171954Y286663D01*
X-171826Y286627D01*
X-171698Y286594D01*
X-171569Y286565D01*
X-171438Y286540D01*
X-171308Y286519D01*
X-171176Y286501D01*
X-171044Y286488D01*
X-170912Y286478D01*
X-170780Y286472D01*
X-170647Y286470D01*
X-170647Y286471D02*
X-166132Y286471D01*
X-165955Y286473D01*
X-165777Y286480D01*
X-165600Y286491D01*
X-165424Y286506D01*
X-165248Y286525D01*
X-165072Y286549D01*
X-164897Y286577D01*
X-164722Y286610D01*
X-164549Y286647D01*
X-164376Y286688D01*
X-164205Y286733D01*
X-164035Y286782D01*
X-163866Y286836D01*
X-163698Y286893D01*
X-163532Y286955D01*
X-163367Y287021D01*
X-163204Y287091D01*
X-163043Y287165D01*
X-162884Y287242D01*
X-162726Y287324D01*
X-162571Y287410D01*
X-162418Y287499D01*
X-162267Y287592D01*
X-162118Y287689D01*
X-161972Y287789D01*
X-161828Y287893D01*
X-161687Y288000D01*
X-161549Y288111D01*
X-161413Y288225D01*
X-161280Y288343D01*
X-161150Y288463D01*
X-161023Y288587D01*
X-160899Y288714D01*
X-160779Y288844D01*
X-160661Y288977D01*
X-160547Y289112D01*
X-160436Y289251D01*
X-160329Y289392D01*
X-160225Y289536D01*
X-160125Y289682D01*
X-160028Y289831D01*
X-159935Y289982D01*
X-159846Y290135D01*
X-159760Y290290D01*
X-159678Y290448D01*
X-159601Y290607D01*
X-159527Y290768D01*
X-159457Y290931D01*
X-159391Y291096D01*
X-159329Y291262D01*
X-159272Y291430D01*
X-159218Y291599D01*
X-159169Y291769D01*
X-159124Y291940D01*
X-159083Y292113D01*
X-159046Y292286D01*
X-159013Y292461D01*
X-158985Y292636D01*
X-158961Y292812D01*
X-158942Y292988D01*
X-158927Y293164D01*
X-158916Y293341D01*
X-158909Y293519D01*
X-158907Y293696D01*
X-175163Y302102D02*
X-175163Y306618D01*
X-175161Y306751D01*
X-175155Y306883D01*
X-175145Y307015D01*
X-175132Y307147D01*
X-175114Y307279D01*
X-175093Y307409D01*
X-175068Y307540D01*
X-175039Y307669D01*
X-175006Y307797D01*
X-174970Y307925D01*
X-174930Y308051D01*
X-174886Y308176D01*
X-174838Y308300D01*
X-174787Y308422D01*
X-174732Y308543D01*
X-174674Y308662D01*
X-174612Y308780D01*
X-174547Y308895D01*
X-174478Y309009D01*
X-174407Y309120D01*
X-174331Y309229D01*
X-174253Y309336D01*
X-174172Y309441D01*
X-174087Y309543D01*
X-174000Y309643D01*
X-173910Y309740D01*
X-173817Y309835D01*
X-173721Y309926D01*
X-173623Y310015D01*
X-173522Y310101D01*
X-173418Y310184D01*
X-173312Y310264D01*
X-173204Y310340D01*
X-173094Y310414D01*
X-172981Y310484D01*
X-172867Y310551D01*
X-172750Y310614D01*
X-172632Y310674D01*
X-172512Y310731D01*
X-172390Y310784D01*
X-172267Y310833D01*
X-172143Y310879D01*
X-172017Y310921D01*
X-171890Y310959D01*
X-171762Y310994D01*
X-171633Y311025D01*
X-171504Y311052D01*
X-171373Y311075D01*
X-171242Y311095D01*
X-171110Y311110D01*
X-170978Y311122D01*
X-170846Y311130D01*
X-170713Y311134D01*
X-170581Y311134D01*
X-170448Y311130D01*
X-170316Y311122D01*
X-170184Y311110D01*
X-170052Y311095D01*
X-169921Y311075D01*
X-169790Y311052D01*
X-169661Y311025D01*
X-169532Y310994D01*
X-169404Y310959D01*
X-169277Y310921D01*
X-169151Y310879D01*
X-169027Y310833D01*
X-168904Y310784D01*
X-168782Y310731D01*
X-168662Y310674D01*
X-168544Y310614D01*
X-168427Y310551D01*
X-168313Y310484D01*
X-168200Y310414D01*
X-168090Y310340D01*
X-167982Y310264D01*
X-167876Y310184D01*
X-167772Y310101D01*
X-167671Y310015D01*
X-167573Y309926D01*
X-167477Y309835D01*
X-167384Y309740D01*
X-167294Y309643D01*
X-167207Y309543D01*
X-167122Y309441D01*
X-167041Y309336D01*
X-166963Y309229D01*
X-166887Y309120D01*
X-166816Y309009D01*
X-166747Y308895D01*
X-166682Y308780D01*
X-166620Y308662D01*
X-166562Y308543D01*
X-166507Y308422D01*
X-166456Y308300D01*
X-166408Y308176D01*
X-166364Y308051D01*
X-166324Y307925D01*
X-166288Y307797D01*
X-166255Y307669D01*
X-166226Y307540D01*
X-166201Y307409D01*
X-166180Y307279D01*
X-166162Y307147D01*
X-166149Y307015D01*
X-166139Y306883D01*
X-166133Y306751D01*
X-166131Y306618D01*
X-158907Y307521D02*
X-158907Y302102D01*
X-158907Y307521D02*
X-158909Y307640D01*
X-158915Y307760D01*
X-158925Y307879D01*
X-158939Y307997D01*
X-158956Y308116D01*
X-158978Y308233D01*
X-159003Y308350D01*
X-159033Y308465D01*
X-159066Y308580D01*
X-159103Y308694D01*
X-159143Y308806D01*
X-159188Y308917D01*
X-159236Y309026D01*
X-159287Y309134D01*
X-159342Y309240D01*
X-159401Y309344D01*
X-159463Y309446D01*
X-159528Y309546D01*
X-159597Y309644D01*
X-159669Y309740D01*
X-159744Y309833D01*
X-159821Y309923D01*
X-159902Y310011D01*
X-159986Y310096D01*
X-160073Y310178D01*
X-160162Y310258D01*
X-160254Y310334D01*
X-160348Y310408D01*
X-160445Y310478D01*
X-160543Y310545D01*
X-160644Y310609D01*
X-160748Y310669D01*
X-160853Y310726D01*
X-160960Y310779D01*
X-161068Y310829D01*
X-161178Y310875D01*
X-161290Y310917D01*
X-161403Y310956D01*
X-161517Y310991D01*
X-161632Y311022D01*
X-161749Y311050D01*
X-161866Y311073D01*
X-161983Y311093D01*
X-162102Y311109D01*
X-162221Y311121D01*
X-162340Y311129D01*
X-162459Y311133D01*
X-162579Y311133D01*
X-162698Y311129D01*
X-162817Y311121D01*
X-162936Y311109D01*
X-163055Y311093D01*
X-163172Y311073D01*
X-163289Y311050D01*
X-163406Y311022D01*
X-163521Y310991D01*
X-163635Y310956D01*
X-163748Y310917D01*
X-163860Y310875D01*
X-163970Y310829D01*
X-164078Y310779D01*
X-164185Y310726D01*
X-164290Y310669D01*
X-164394Y310609D01*
X-164495Y310545D01*
X-164593Y310478D01*
X-164690Y310408D01*
X-164784Y310334D01*
X-164876Y310258D01*
X-164965Y310178D01*
X-165052Y310096D01*
X-165136Y310011D01*
X-165217Y309923D01*
X-165294Y309833D01*
X-165369Y309740D01*
X-165441Y309644D01*
X-165510Y309546D01*
X-165575Y309446D01*
X-165637Y309344D01*
X-165696Y309240D01*
X-165751Y309134D01*
X-165802Y309026D01*
X-165850Y308917D01*
X-165895Y308806D01*
X-165935Y308694D01*
X-165972Y308580D01*
X-166005Y308465D01*
X-166035Y308350D01*
X-166060Y308233D01*
X-166082Y308116D01*
X-166099Y307997D01*
X-166113Y307879D01*
X-166123Y307760D01*
X-166129Y307640D01*
X-166131Y307521D01*
X-166132Y307521D02*
X-166132Y303908D01*
X-174260Y317108D02*
X-175163Y317108D01*
X-174260Y317108D02*
X-174260Y318011D01*
X-175163Y318011D01*
X-175163Y317108D01*
X-175163Y323986D02*
X-175163Y329404D01*
X-175161Y329522D01*
X-175155Y329640D01*
X-175146Y329758D01*
X-175132Y329875D01*
X-175115Y329992D01*
X-175094Y330109D01*
X-175069Y330224D01*
X-175040Y330339D01*
X-175007Y330453D01*
X-174971Y330565D01*
X-174931Y330676D01*
X-174888Y330786D01*
X-174841Y330895D01*
X-174791Y331002D01*
X-174736Y331107D01*
X-174679Y331210D01*
X-174618Y331311D01*
X-174554Y331411D01*
X-174487Y331508D01*
X-174417Y331603D01*
X-174343Y331695D01*
X-174267Y331786D01*
X-174187Y331873D01*
X-174105Y331958D01*
X-174020Y332040D01*
X-173933Y332120D01*
X-173842Y332196D01*
X-173750Y332270D01*
X-173655Y332340D01*
X-173558Y332407D01*
X-173458Y332471D01*
X-173357Y332532D01*
X-173254Y332589D01*
X-173149Y332644D01*
X-173042Y332694D01*
X-172933Y332741D01*
X-172823Y332784D01*
X-172712Y332824D01*
X-172600Y332860D01*
X-172486Y332893D01*
X-172371Y332922D01*
X-172256Y332947D01*
X-172139Y332968D01*
X-172022Y332985D01*
X-171905Y332999D01*
X-171787Y333008D01*
X-171669Y333014D01*
X-171551Y333016D01*
X-171551Y333017D02*
X-169744Y333017D01*
X-169744Y333016D02*
X-169626Y333014D01*
X-169508Y333008D01*
X-169390Y332999D01*
X-169273Y332985D01*
X-169156Y332968D01*
X-169039Y332947D01*
X-168924Y332922D01*
X-168809Y332893D01*
X-168695Y332860D01*
X-168583Y332824D01*
X-168472Y332784D01*
X-168362Y332741D01*
X-168253Y332694D01*
X-168146Y332644D01*
X-168041Y332589D01*
X-167938Y332532D01*
X-167837Y332471D01*
X-167737Y332407D01*
X-167640Y332340D01*
X-167545Y332270D01*
X-167453Y332196D01*
X-167362Y332120D01*
X-167275Y332040D01*
X-167190Y331958D01*
X-167108Y331873D01*
X-167028Y331786D01*
X-166952Y331695D01*
X-166878Y331603D01*
X-166808Y331508D01*
X-166741Y331411D01*
X-166677Y331311D01*
X-166616Y331210D01*
X-166559Y331107D01*
X-166504Y331002D01*
X-166454Y330895D01*
X-166407Y330786D01*
X-166364Y330676D01*
X-166324Y330565D01*
X-166288Y330453D01*
X-166255Y330339D01*
X-166226Y330224D01*
X-166201Y330109D01*
X-166180Y329992D01*
X-166163Y329875D01*
X-166149Y329758D01*
X-166140Y329640D01*
X-166134Y329522D01*
X-166132Y329404D01*
X-166132Y323986D01*
X-158907Y323986D01*
X-158907Y333017D01*
X-161165Y340972D02*
X-161454Y340835D01*
X-161746Y340705D01*
X-162042Y340582D01*
X-162340Y340467D01*
X-162641Y340358D01*
X-162944Y340257D01*
X-163250Y340163D01*
X-163557Y340076D01*
X-163867Y339997D01*
X-164179Y339925D01*
X-164492Y339861D01*
X-164807Y339804D01*
X-165123Y339754D01*
X-165440Y339712D01*
X-165758Y339678D01*
X-166076Y339651D01*
X-166396Y339632D01*
X-166715Y339621D01*
X-167035Y339617D01*
X-161164Y340972D02*
X-161056Y341011D01*
X-160949Y341054D01*
X-160844Y341100D01*
X-160741Y341150D01*
X-160639Y341204D01*
X-160539Y341261D01*
X-160441Y341322D01*
X-160345Y341386D01*
X-160252Y341453D01*
X-160161Y341523D01*
X-160072Y341597D01*
X-159986Y341673D01*
X-159903Y341753D01*
X-159822Y341835D01*
X-159744Y341920D01*
X-159670Y342007D01*
X-159598Y342098D01*
X-159529Y342190D01*
X-159464Y342285D01*
X-159402Y342382D01*
X-159343Y342481D01*
X-159288Y342582D01*
X-159237Y342685D01*
X-159189Y342790D01*
X-159144Y342896D01*
X-159103Y343003D01*
X-159066Y343112D01*
X-159033Y343223D01*
X-159004Y343334D01*
X-158978Y343446D01*
X-158956Y343559D01*
X-158939Y343673D01*
X-158925Y343787D01*
X-158915Y343902D01*
X-158909Y344017D01*
X-158907Y344132D01*
X-158909Y344247D01*
X-158915Y344362D01*
X-158925Y344477D01*
X-158939Y344591D01*
X-158956Y344705D01*
X-158978Y344818D01*
X-159004Y344930D01*
X-159033Y345042D01*
X-159066Y345152D01*
X-159103Y345261D01*
X-159144Y345369D01*
X-159189Y345475D01*
X-159237Y345580D01*
X-159288Y345682D01*
X-159344Y345784D01*
X-159402Y345883D01*
X-159464Y345980D01*
X-159530Y346075D01*
X-159598Y346167D01*
X-159670Y346257D01*
X-159744Y346345D01*
X-159822Y346430D01*
X-159903Y346512D01*
X-159986Y346591D01*
X-160072Y346668D01*
X-160161Y346741D01*
X-160252Y346812D01*
X-160346Y346879D01*
X-160441Y346943D01*
X-160539Y347004D01*
X-160639Y347061D01*
X-160741Y347114D01*
X-160845Y347165D01*
X-160950Y347211D01*
X-161057Y347254D01*
X-161165Y347293D01*
X-161454Y347430D01*
X-161746Y347560D01*
X-162042Y347683D01*
X-162340Y347798D01*
X-162641Y347907D01*
X-162944Y348008D01*
X-163250Y348102D01*
X-163557Y348189D01*
X-163867Y348268D01*
X-164179Y348340D01*
X-164492Y348404D01*
X-164807Y348461D01*
X-165123Y348511D01*
X-165440Y348553D01*
X-165758Y348587D01*
X-166076Y348614D01*
X-166396Y348633D01*
X-166715Y348644D01*
X-167035Y348648D01*
X-167035Y339617D02*
X-167355Y339621D01*
X-167674Y339632D01*
X-167994Y339651D01*
X-168312Y339678D01*
X-168630Y339712D01*
X-168947Y339754D01*
X-169263Y339804D01*
X-169578Y339861D01*
X-169891Y339925D01*
X-170203Y339997D01*
X-170513Y340076D01*
X-170820Y340163D01*
X-171126Y340257D01*
X-171429Y340358D01*
X-171730Y340467D01*
X-172028Y340582D01*
X-172324Y340705D01*
X-172616Y340835D01*
X-172905Y340972D01*
X-172906Y340971D02*
X-173014Y341010D01*
X-173121Y341053D01*
X-173226Y341099D01*
X-173330Y341150D01*
X-173432Y341203D01*
X-173532Y341260D01*
X-173630Y341321D01*
X-173725Y341385D01*
X-173819Y341452D01*
X-173910Y341523D01*
X-173999Y341596D01*
X-174085Y341673D01*
X-174168Y341752D01*
X-174249Y341834D01*
X-174327Y341919D01*
X-174401Y342007D01*
X-174473Y342097D01*
X-174542Y342190D01*
X-174607Y342284D01*
X-174669Y342381D01*
X-174727Y342481D01*
X-174783Y342582D01*
X-174834Y342684D01*
X-174882Y342789D01*
X-174927Y342895D01*
X-174968Y343003D01*
X-175005Y343112D01*
X-175038Y343222D01*
X-175067Y343334D01*
X-175093Y343446D01*
X-175115Y343559D01*
X-175132Y343673D01*
X-175146Y343787D01*
X-175156Y343902D01*
X-175162Y344017D01*
X-175164Y344132D01*
X-172905Y347293D02*
X-172616Y347430D01*
X-172324Y347560D01*
X-172028Y347683D01*
X-171730Y347798D01*
X-171429Y347907D01*
X-171126Y348008D01*
X-170820Y348102D01*
X-170513Y348189D01*
X-170203Y348268D01*
X-169891Y348340D01*
X-169578Y348404D01*
X-169263Y348461D01*
X-168947Y348511D01*
X-168630Y348553D01*
X-168312Y348587D01*
X-167994Y348614D01*
X-167674Y348633D01*
X-167355Y348644D01*
X-167035Y348648D01*
X-172905Y347293D02*
X-173013Y347254D01*
X-173120Y347211D01*
X-173225Y347165D01*
X-173329Y347114D01*
X-173431Y347061D01*
X-173531Y347004D01*
X-173629Y346943D01*
X-173724Y346879D01*
X-173818Y346812D01*
X-173909Y346741D01*
X-173998Y346668D01*
X-174084Y346591D01*
X-174167Y346512D01*
X-174248Y346430D01*
X-174326Y346345D01*
X-174400Y346257D01*
X-174472Y346167D01*
X-174541Y346074D01*
X-174606Y345980D01*
X-174668Y345883D01*
X-174726Y345783D01*
X-174782Y345682D01*
X-174833Y345579D01*
X-174881Y345475D01*
X-174926Y345369D01*
X-174967Y345261D01*
X-175004Y345152D01*
X-175037Y345042D01*
X-175066Y344930D01*
X-175092Y344818D01*
X-175114Y344705D01*
X-175131Y344591D01*
X-175145Y344477D01*
X-175155Y344362D01*
X-175161Y344247D01*
X-175163Y344132D01*
X-171551Y340520D02*
X-162519Y347745D01*
D10*
X-12700Y635000D02*
X-12700Y781500D01*
X571500Y781500D02*
X571500Y635000D01*
X570850Y762000D02*
X-12050Y762000D01*
X13300Y765192D01*
X13300Y758808D01*
X-12050Y762000D01*
X13300Y763300D01*
X13300Y760700D02*
X-12050Y762000D01*
X13300Y764600D01*
X13300Y759400D02*
X-12050Y762000D01*
X545500Y765192D02*
X570850Y762000D01*
X545500Y765192D02*
X545500Y758808D01*
X570850Y762000D01*
X545500Y763300D01*
X545500Y760700D02*
X570850Y762000D01*
X545500Y764600D01*
X545500Y759400D02*
X570850Y762000D01*
D11*
X310548Y768507D02*
X305129Y768507D01*
X305011Y768509D01*
X304893Y768515D01*
X304775Y768524D01*
X304658Y768538D01*
X304541Y768555D01*
X304424Y768576D01*
X304309Y768601D01*
X304194Y768630D01*
X304080Y768663D01*
X303968Y768699D01*
X303857Y768739D01*
X303747Y768782D01*
X303638Y768829D01*
X303531Y768879D01*
X303426Y768934D01*
X303323Y768991D01*
X303222Y769052D01*
X303122Y769116D01*
X303025Y769183D01*
X302930Y769253D01*
X302838Y769327D01*
X302747Y769403D01*
X302660Y769483D01*
X302575Y769565D01*
X302493Y769650D01*
X302413Y769737D01*
X302337Y769828D01*
X302263Y769920D01*
X302193Y770015D01*
X302126Y770112D01*
X302062Y770212D01*
X302001Y770313D01*
X301944Y770416D01*
X301889Y770521D01*
X301839Y770628D01*
X301792Y770737D01*
X301749Y770847D01*
X301709Y770958D01*
X301673Y771070D01*
X301640Y771184D01*
X301611Y771299D01*
X301586Y771414D01*
X301565Y771531D01*
X301548Y771648D01*
X301534Y771765D01*
X301525Y771883D01*
X301519Y772001D01*
X301517Y772119D01*
X301517Y773926D01*
X301519Y774044D01*
X301525Y774162D01*
X301534Y774280D01*
X301548Y774397D01*
X301565Y774514D01*
X301586Y774631D01*
X301611Y774746D01*
X301640Y774861D01*
X301673Y774975D01*
X301709Y775087D01*
X301749Y775198D01*
X301792Y775308D01*
X301839Y775417D01*
X301889Y775524D01*
X301944Y775629D01*
X302001Y775732D01*
X302062Y775833D01*
X302126Y775933D01*
X302193Y776030D01*
X302263Y776125D01*
X302337Y776217D01*
X302413Y776308D01*
X302493Y776395D01*
X302575Y776480D01*
X302660Y776562D01*
X302747Y776642D01*
X302838Y776718D01*
X302930Y776792D01*
X303025Y776862D01*
X303122Y776929D01*
X303222Y776993D01*
X303323Y777054D01*
X303426Y777111D01*
X303531Y777166D01*
X303638Y777216D01*
X303747Y777263D01*
X303857Y777306D01*
X303968Y777346D01*
X304080Y777382D01*
X304194Y777415D01*
X304309Y777444D01*
X304424Y777469D01*
X304541Y777490D01*
X304658Y777507D01*
X304775Y777521D01*
X304893Y777530D01*
X305011Y777536D01*
X305129Y777538D01*
X310548Y777538D01*
X310548Y784763D01*
X301517Y784763D01*
X294917Y773023D02*
X294915Y773156D01*
X294909Y773288D01*
X294899Y773420D01*
X294886Y773552D01*
X294868Y773684D01*
X294847Y773814D01*
X294822Y773945D01*
X294793Y774074D01*
X294760Y774202D01*
X294724Y774330D01*
X294684Y774456D01*
X294640Y774581D01*
X294592Y774705D01*
X294541Y774827D01*
X294486Y774948D01*
X294428Y775067D01*
X294366Y775185D01*
X294301Y775300D01*
X294232Y775414D01*
X294161Y775525D01*
X294085Y775634D01*
X294007Y775741D01*
X293926Y775846D01*
X293841Y775948D01*
X293754Y776048D01*
X293664Y776145D01*
X293571Y776240D01*
X293475Y776331D01*
X293377Y776420D01*
X293276Y776506D01*
X293172Y776589D01*
X293066Y776669D01*
X292958Y776745D01*
X292848Y776819D01*
X292735Y776889D01*
X292621Y776956D01*
X292504Y777019D01*
X292386Y777079D01*
X292266Y777136D01*
X292144Y777189D01*
X292021Y777238D01*
X291897Y777284D01*
X291771Y777326D01*
X291644Y777364D01*
X291516Y777399D01*
X291387Y777430D01*
X291258Y777457D01*
X291127Y777480D01*
X290996Y777500D01*
X290864Y777515D01*
X290732Y777527D01*
X290600Y777535D01*
X290467Y777539D01*
X290335Y777539D01*
X290202Y777535D01*
X290070Y777527D01*
X289938Y777515D01*
X289806Y777500D01*
X289675Y777480D01*
X289544Y777457D01*
X289415Y777430D01*
X289286Y777399D01*
X289158Y777364D01*
X289031Y777326D01*
X288905Y777284D01*
X288781Y777238D01*
X288658Y777189D01*
X288536Y777136D01*
X288416Y777079D01*
X288298Y777019D01*
X288181Y776956D01*
X288067Y776889D01*
X287954Y776819D01*
X287844Y776745D01*
X287736Y776669D01*
X287630Y776589D01*
X287526Y776506D01*
X287425Y776420D01*
X287327Y776331D01*
X287231Y776240D01*
X287138Y776145D01*
X287048Y776048D01*
X286961Y775948D01*
X286876Y775846D01*
X286795Y775741D01*
X286717Y775634D01*
X286641Y775525D01*
X286570Y775414D01*
X286501Y775300D01*
X286436Y775185D01*
X286374Y775067D01*
X286316Y774948D01*
X286261Y774827D01*
X286210Y774705D01*
X286162Y774581D01*
X286118Y774456D01*
X286078Y774330D01*
X286042Y774202D01*
X286009Y774074D01*
X285980Y773945D01*
X285955Y773814D01*
X285934Y773684D01*
X285916Y773552D01*
X285903Y773420D01*
X285893Y773288D01*
X285887Y773156D01*
X285885Y773023D01*
X285887Y772890D01*
X285893Y772758D01*
X285903Y772626D01*
X285916Y772494D01*
X285934Y772362D01*
X285955Y772232D01*
X285980Y772101D01*
X286009Y771972D01*
X286042Y771844D01*
X286078Y771716D01*
X286118Y771590D01*
X286162Y771465D01*
X286210Y771341D01*
X286261Y771219D01*
X286316Y771098D01*
X286374Y770979D01*
X286436Y770861D01*
X286501Y770746D01*
X286570Y770632D01*
X286641Y770521D01*
X286717Y770412D01*
X286795Y770305D01*
X286876Y770200D01*
X286961Y770098D01*
X287048Y769998D01*
X287138Y769901D01*
X287231Y769806D01*
X287327Y769715D01*
X287425Y769626D01*
X287526Y769540D01*
X287630Y769457D01*
X287736Y769377D01*
X287844Y769301D01*
X287954Y769227D01*
X288067Y769157D01*
X288181Y769090D01*
X288298Y769027D01*
X288416Y768967D01*
X288536Y768910D01*
X288658Y768857D01*
X288781Y768808D01*
X288905Y768762D01*
X289031Y768720D01*
X289158Y768682D01*
X289286Y768647D01*
X289415Y768616D01*
X289544Y768589D01*
X289675Y768566D01*
X289806Y768546D01*
X289938Y768531D01*
X290070Y768519D01*
X290202Y768511D01*
X290335Y768507D01*
X290467Y768507D01*
X290600Y768511D01*
X290732Y768519D01*
X290864Y768531D01*
X290996Y768546D01*
X291127Y768566D01*
X291258Y768589D01*
X291387Y768616D01*
X291516Y768647D01*
X291644Y768682D01*
X291771Y768720D01*
X291897Y768762D01*
X292021Y768808D01*
X292144Y768857D01*
X292266Y768910D01*
X292386Y768967D01*
X292504Y769027D01*
X292621Y769090D01*
X292735Y769157D01*
X292848Y769227D01*
X292958Y769301D01*
X293066Y769377D01*
X293172Y769457D01*
X293276Y769540D01*
X293377Y769626D01*
X293475Y769715D01*
X293571Y769806D01*
X293664Y769901D01*
X293754Y769998D01*
X293841Y770098D01*
X293926Y770200D01*
X294007Y770305D01*
X294085Y770412D01*
X294161Y770521D01*
X294232Y770632D01*
X294301Y770746D01*
X294366Y770861D01*
X294428Y770979D01*
X294486Y771098D01*
X294541Y771219D01*
X294592Y771341D01*
X294640Y771465D01*
X294684Y771590D01*
X294724Y771716D01*
X294760Y771844D01*
X294793Y771972D01*
X294822Y772101D01*
X294847Y772232D01*
X294868Y772362D01*
X294886Y772494D01*
X294899Y772626D01*
X294909Y772758D01*
X294915Y772890D01*
X294917Y773023D01*
X294013Y781151D02*
X294011Y781270D01*
X294005Y781390D01*
X293995Y781509D01*
X293981Y781627D01*
X293964Y781746D01*
X293942Y781863D01*
X293917Y781980D01*
X293887Y782095D01*
X293854Y782210D01*
X293817Y782324D01*
X293777Y782436D01*
X293732Y782547D01*
X293684Y782656D01*
X293633Y782764D01*
X293578Y782870D01*
X293519Y782974D01*
X293457Y783076D01*
X293392Y783176D01*
X293323Y783274D01*
X293251Y783370D01*
X293176Y783463D01*
X293099Y783553D01*
X293018Y783641D01*
X292934Y783726D01*
X292847Y783808D01*
X292758Y783888D01*
X292666Y783964D01*
X292572Y784038D01*
X292475Y784108D01*
X292377Y784175D01*
X292276Y784239D01*
X292172Y784299D01*
X292067Y784356D01*
X291960Y784409D01*
X291852Y784459D01*
X291742Y784505D01*
X291630Y784547D01*
X291517Y784586D01*
X291403Y784621D01*
X291288Y784652D01*
X291171Y784680D01*
X291054Y784703D01*
X290937Y784723D01*
X290818Y784739D01*
X290699Y784751D01*
X290580Y784759D01*
X290461Y784763D01*
X290341Y784763D01*
X290222Y784759D01*
X290103Y784751D01*
X289984Y784739D01*
X289865Y784723D01*
X289748Y784703D01*
X289631Y784680D01*
X289514Y784652D01*
X289399Y784621D01*
X289285Y784586D01*
X289172Y784547D01*
X289060Y784505D01*
X288950Y784459D01*
X288842Y784409D01*
X288735Y784356D01*
X288630Y784299D01*
X288526Y784239D01*
X288425Y784175D01*
X288327Y784108D01*
X288230Y784038D01*
X288136Y783964D01*
X288044Y783888D01*
X287955Y783808D01*
X287868Y783726D01*
X287784Y783641D01*
X287703Y783553D01*
X287626Y783463D01*
X287551Y783370D01*
X287479Y783274D01*
X287410Y783176D01*
X287345Y783076D01*
X287283Y782974D01*
X287224Y782870D01*
X287169Y782764D01*
X287118Y782656D01*
X287070Y782547D01*
X287025Y782436D01*
X286985Y782324D01*
X286948Y782210D01*
X286915Y782095D01*
X286885Y781980D01*
X286860Y781863D01*
X286838Y781746D01*
X286821Y781627D01*
X286807Y781509D01*
X286797Y781390D01*
X286791Y781270D01*
X286789Y781151D01*
X286791Y781032D01*
X286797Y780912D01*
X286807Y780793D01*
X286821Y780675D01*
X286838Y780556D01*
X286860Y780439D01*
X286885Y780322D01*
X286915Y780207D01*
X286948Y780092D01*
X286985Y779978D01*
X287025Y779866D01*
X287070Y779755D01*
X287118Y779646D01*
X287169Y779538D01*
X287224Y779432D01*
X287283Y779328D01*
X287345Y779226D01*
X287410Y779126D01*
X287479Y779028D01*
X287551Y778932D01*
X287626Y778839D01*
X287703Y778749D01*
X287784Y778661D01*
X287868Y778576D01*
X287955Y778494D01*
X288044Y778414D01*
X288136Y778338D01*
X288230Y778264D01*
X288327Y778194D01*
X288425Y778127D01*
X288526Y778063D01*
X288630Y778003D01*
X288735Y777946D01*
X288842Y777893D01*
X288950Y777843D01*
X289060Y777797D01*
X289172Y777755D01*
X289285Y777716D01*
X289399Y777681D01*
X289514Y777650D01*
X289631Y777622D01*
X289748Y777599D01*
X289865Y777579D01*
X289984Y777563D01*
X290103Y777551D01*
X290222Y777543D01*
X290341Y777539D01*
X290461Y777539D01*
X290580Y777543D01*
X290699Y777551D01*
X290818Y777563D01*
X290937Y777579D01*
X291054Y777599D01*
X291171Y777622D01*
X291288Y777650D01*
X291403Y777681D01*
X291517Y777716D01*
X291630Y777755D01*
X291742Y777797D01*
X291852Y777843D01*
X291960Y777893D01*
X292067Y777946D01*
X292172Y778003D01*
X292276Y778063D01*
X292377Y778127D01*
X292475Y778194D01*
X292572Y778264D01*
X292666Y778338D01*
X292758Y778414D01*
X292847Y778494D01*
X292934Y778576D01*
X293018Y778661D01*
X293099Y778749D01*
X293176Y778839D01*
X293251Y778932D01*
X293323Y779028D01*
X293392Y779126D01*
X293457Y779226D01*
X293519Y779328D01*
X293578Y779432D01*
X293633Y779538D01*
X293684Y779646D01*
X293732Y779755D01*
X293777Y779866D01*
X293817Y779978D01*
X293854Y780092D01*
X293887Y780207D01*
X293917Y780322D01*
X293942Y780439D01*
X293964Y780556D01*
X293981Y780675D01*
X293995Y780793D01*
X294005Y780912D01*
X294011Y781032D01*
X294013Y781151D01*
X279911Y769410D02*
X279911Y768507D01*
X279911Y769410D02*
X279008Y769410D01*
X279008Y768507D01*
X279911Y768507D01*
X273033Y772119D02*
X269421Y784763D01*
X273033Y772119D02*
X264002Y772119D01*
X266711Y775732D02*
X266711Y768507D01*
X252435Y784763D02*
X252310Y784761D01*
X252185Y784755D01*
X252060Y784746D01*
X251936Y784732D01*
X251812Y784715D01*
X251688Y784694D01*
X251566Y784669D01*
X251444Y784640D01*
X251323Y784608D01*
X251203Y784572D01*
X251084Y784532D01*
X250967Y784489D01*
X250851Y784442D01*
X250736Y784391D01*
X250624Y784337D01*
X250512Y784279D01*
X250403Y784219D01*
X250296Y784154D01*
X250190Y784087D01*
X250087Y784016D01*
X249986Y783942D01*
X249887Y783865D01*
X249791Y783785D01*
X249697Y783702D01*
X249606Y783617D01*
X249517Y783528D01*
X249432Y783437D01*
X249349Y783343D01*
X249269Y783247D01*
X249192Y783148D01*
X249118Y783047D01*
X249047Y782944D01*
X248980Y782838D01*
X248915Y782731D01*
X248855Y782622D01*
X248797Y782510D01*
X248743Y782398D01*
X248692Y782283D01*
X248645Y782167D01*
X248602Y782050D01*
X248562Y781931D01*
X248526Y781811D01*
X248494Y781690D01*
X248465Y781568D01*
X248440Y781446D01*
X248419Y781322D01*
X248402Y781198D01*
X248388Y781074D01*
X248379Y780949D01*
X248373Y780824D01*
X248371Y780699D01*
X252435Y784763D02*
X252578Y784761D01*
X252720Y784755D01*
X252863Y784745D01*
X253005Y784732D01*
X253146Y784714D01*
X253288Y784693D01*
X253428Y784668D01*
X253568Y784639D01*
X253707Y784606D01*
X253845Y784569D01*
X253982Y784529D01*
X254117Y784485D01*
X254252Y784437D01*
X254385Y784385D01*
X254517Y784330D01*
X254647Y784271D01*
X254775Y784209D01*
X254902Y784143D01*
X255027Y784074D01*
X255150Y784002D01*
X255271Y783926D01*
X255389Y783847D01*
X255506Y783764D01*
X255620Y783679D01*
X255732Y783590D01*
X255841Y783499D01*
X255948Y783404D01*
X256053Y783307D01*
X256154Y783206D01*
X256253Y783103D01*
X256349Y782998D01*
X256442Y782889D01*
X256532Y782778D01*
X256619Y782665D01*
X256703Y782550D01*
X256783Y782432D01*
X256861Y782312D01*
X256935Y782190D01*
X257005Y782066D01*
X257073Y781940D01*
X257136Y781812D01*
X257197Y781683D01*
X257254Y781552D01*
X257307Y781420D01*
X257356Y781286D01*
X257402Y781151D01*
X249726Y777538D02*
X249632Y777630D01*
X249542Y777724D01*
X249454Y777821D01*
X249369Y777921D01*
X249287Y778023D01*
X249208Y778128D01*
X249133Y778235D01*
X249061Y778344D01*
X248992Y778455D01*
X248926Y778569D01*
X248864Y778684D01*
X248805Y778801D01*
X248750Y778920D01*
X248699Y779040D01*
X248651Y779162D01*
X248606Y779285D01*
X248566Y779409D01*
X248529Y779535D01*
X248496Y779662D01*
X248467Y779789D01*
X248441Y779918D01*
X248420Y780047D01*
X248402Y780177D01*
X248389Y780307D01*
X248379Y780437D01*
X248373Y780568D01*
X248371Y780699D01*
X249725Y777538D02*
X257402Y768507D01*
X248371Y768507D01*
D12*
X226060Y38100D03*
X200660Y38100D03*
X160020Y38100D03*
X134620Y38100D03*
D13*
X114300Y302260D03*
X114300Y327660D03*
X152400Y302260D03*
X152400Y327660D03*
X114300Y369570D03*
X114300Y394970D03*
X151130Y369570D03*
X151130Y394970D03*
D14*
X336360Y241300D02*
X349440Y241300D01*
X349440Y266700D02*
X336360Y266700D01*
X336360Y292100D02*
X349440Y292100D01*
X349440Y317500D02*
X336360Y317500D01*
X336360Y342900D02*
X349440Y342900D01*
X349440Y368300D02*
X336360Y368300D01*
X336360Y393700D02*
X349440Y393700D01*
X349440Y419100D02*
X336360Y419100D01*
X336360Y444500D02*
X349440Y444500D01*
X349440Y469900D02*
X336360Y469900D01*
X336360Y495300D02*
X349440Y495300D01*
X349440Y520700D02*
X336360Y520700D01*
X197040Y241300D02*
X183960Y241300D01*
X183960Y266700D02*
X197040Y266700D01*
X197040Y292100D02*
X183960Y292100D01*
X183960Y444500D02*
X197040Y444500D01*
X197040Y469900D02*
X183960Y469900D01*
X183960Y495300D02*
X197040Y495300D01*
X197040Y520700D02*
X183960Y520700D01*
X183960Y596900D02*
X197040Y596900D01*
X336360Y596900D02*
X349440Y596900D01*
X349440Y571500D02*
X336360Y571500D01*
X336360Y546100D02*
X349440Y546100D01*
X197040Y571500D02*
X183960Y571500D01*
X183960Y546100D02*
X197040Y546100D01*
X197040Y317500D02*
X183960Y317500D01*
D15*
X241300Y254000D03*
X266700Y254000D03*
X292100Y254000D03*
D14*
X197040Y419100D02*
X183960Y419100D01*
X183960Y393700D02*
X197040Y393700D01*
X197040Y368300D02*
X183960Y368300D01*
X183960Y342900D02*
X197040Y342900D01*
D15*
X241300Y228600D03*
X266700Y228600D03*
X292100Y228600D03*
D12*
X92710Y38100D03*
X67310Y38100D03*
D16*
X50800Y364500D03*
D17*
X50800Y317500D03*
X50800Y270500D03*
D18*
X368300Y127000D03*
D19*
X368300Y177800D03*
X368300Y203200D03*
D18*
X368300Y152400D03*
X63500Y76200D03*
D19*
X63500Y127000D03*
X63500Y152400D03*
D18*
X63500Y101600D03*
D12*
X393700Y584200D03*
X393700Y558800D03*
X393700Y533400D03*
X393700Y482600D03*
X393700Y457200D03*
X393700Y431800D03*
X393700Y381000D03*
X393700Y355600D03*
X393700Y330200D03*
X444500Y177800D03*
X469900Y177800D03*
D20*
X495300Y241300D03*
X419100Y241300D03*
D13*
X114300Y236220D03*
X114300Y261620D03*
X152400Y236220D03*
X152400Y261620D03*
D12*
X444500Y101600D03*
X469900Y101600D03*
D20*
X419100Y279400D03*
X495300Y279400D03*
D12*
X444500Y520700D03*
X469900Y520700D03*
X495300Y520700D03*
X444500Y419100D03*
X469900Y419100D03*
X495300Y419100D03*
X444500Y317500D03*
X469900Y317500D03*
X495300Y317500D03*
D21*
X139700Y459300D03*
X139700Y531300D03*
D22*
X79700Y562800D03*
X79700Y427800D03*
D23*
X494700Y572100D03*
D24*
X444700Y572100D03*
D23*
X494700Y470500D03*
D24*
X444700Y470500D03*
D23*
X494700Y368900D03*
D24*
X444700Y368900D03*
D12*
X316230Y38100D03*
X290830Y38100D03*
X265430Y38100D03*
X394970Y38100D03*
X369570Y38100D03*
X344170Y38100D03*
X473710Y38100D03*
X448310Y38100D03*
X422910Y38100D03*
D25*
X368300Y584200D02*
X330200Y584200D01*
X314644Y568644D01*
X314644Y558800D01*
X314644Y542142D01*
X253186Y203200D02*
X215900Y203200D01*
X152400Y203200D01*
X314644Y528138D02*
X314644Y542142D01*
X290830Y38100D02*
X290830Y32480D01*
X298164Y25146D01*
X290830Y38100D02*
X290830Y165556D01*
X253186Y203200D01*
X329184Y32734D02*
X321596Y25146D01*
X298164Y25146D01*
X376904Y25146D02*
X400336Y25146D01*
X215900Y203200D02*
X228600Y215900D01*
X332178Y510604D02*
X352996Y510604D01*
X332178Y510604D02*
X314644Y528138D01*
X323386Y533400D02*
X353317Y533400D01*
X323386Y533400D02*
X314644Y542142D01*
X352996Y510604D02*
X359536Y504064D01*
X359536Y440564D01*
X369824Y430276D01*
X373888Y512829D02*
X353317Y533400D01*
X373888Y512829D02*
X373888Y477012D01*
X241300Y533400D02*
X241300Y368300D01*
X241300Y533400D02*
X266700Y558800D01*
X314644Y558800D01*
X241300Y368300D02*
X190500Y317500D01*
X213296Y231204D02*
X228600Y215900D01*
X179778Y231204D02*
X174762Y236220D01*
X179778Y231204D02*
X203200Y231204D01*
X213296Y231204D01*
X207136Y237118D02*
X203200Y233182D01*
X203200Y231204D01*
X207136Y300864D02*
X190500Y317500D01*
X207136Y300864D02*
X207136Y237118D01*
X356616Y51054D02*
X369570Y38100D01*
X356616Y51054D02*
X338804Y51054D01*
X369570Y38100D02*
X369570Y32480D01*
X376904Y25146D01*
X338804Y51054D02*
X329184Y41434D01*
X329184Y32734D01*
X409956Y43466D02*
X417544Y51054D01*
X428276Y51054D01*
X428530Y50800D01*
X435610Y50800D02*
X448310Y38100D01*
X435610Y50800D02*
X428530Y50800D01*
X409956Y43466D02*
X409956Y34766D01*
X400336Y25146D01*
X369824Y381000D02*
X369824Y430276D01*
X152400Y236220D02*
X114300Y236220D01*
X393700Y355600D02*
X431546Y317754D01*
X431546Y312134D01*
X495300Y248380D01*
X393700Y558800D02*
X368300Y584200D01*
X373888Y477012D02*
X393700Y457200D01*
X393700Y357124D02*
X393700Y355600D01*
X174762Y236220D02*
X152400Y236220D01*
X152400Y203200D02*
X134620Y185420D01*
X134620Y38100D01*
X495300Y241300D02*
X495300Y248380D01*
X393700Y357124D02*
X369824Y381000D01*
X18542Y399542D02*
X18542Y76708D01*
X18542Y399542D02*
X126494Y507494D01*
X149561Y507494D02*
X150067Y508000D01*
X198618Y508000D01*
X149561Y507494D02*
X126494Y507494D01*
X198618Y508000D02*
X207136Y499482D01*
X207136Y435736D01*
X190500Y419100D01*
X67310Y38100D02*
X57150Y38100D01*
X18542Y76708D01*
X123585Y495806D02*
X149561Y495806D01*
X73406Y57404D02*
X92710Y38100D01*
X25400Y397621D02*
X123585Y495806D01*
X149561Y495806D02*
X173864Y471503D01*
X190500Y398282D02*
X190500Y393700D01*
X190500Y398282D02*
X173864Y414918D01*
X173864Y471503D01*
X25400Y87427D02*
X55423Y57404D01*
X25400Y87427D02*
X25400Y397621D01*
X55423Y57404D02*
X73406Y57404D01*
X419100Y203200D02*
X444500Y177800D01*
X419100Y203200D02*
X419100Y241300D01*
X399066Y520446D02*
X388334Y520446D01*
X399066Y520446D02*
X399320Y520700D01*
X444500Y520700D01*
X380746Y533654D02*
X342900Y571500D01*
X380746Y533654D02*
X380746Y528034D01*
X388334Y520446D01*
X406654Y487966D02*
X406654Y456946D01*
X406654Y487966D02*
X348520Y546100D01*
X342900Y546100D01*
X406654Y456946D02*
X444500Y419100D01*
X368300Y508000D02*
X355600Y520700D01*
X368300Y508000D02*
X368300Y439703D01*
X375412Y432591D02*
X375412Y406400D01*
X375412Y432591D02*
X368300Y439703D01*
X387858Y393954D02*
X399066Y393954D01*
X387858Y393954D02*
X375412Y406400D01*
X422064Y370956D02*
X422064Y348347D01*
X444500Y325911D02*
X444500Y317500D01*
X444500Y325911D02*
X422064Y348347D01*
X422064Y370956D02*
X399066Y393954D01*
X355600Y520700D02*
X342900Y520700D01*
X303530Y457200D02*
X303530Y50800D01*
X316230Y38100D01*
X303530Y457200D02*
X341630Y495300D01*
X342900Y495300D01*
X342900Y469900D02*
X309118Y436118D01*
X309118Y123952D02*
X394970Y38100D01*
X309118Y123952D02*
X309118Y436118D01*
X315722Y152705D02*
X404927Y63500D01*
X450850Y63500D01*
X473710Y40640D02*
X473710Y38100D01*
X473710Y40640D02*
X450850Y63500D01*
X315722Y152705D02*
X315722Y417322D01*
X342900Y444500D01*
M02*
