G04 EAGLE Gerber RS-274X export*
G75*
%MOMM*%
%FSLAX34Y34*%
%LPD*%
%INTop Copper*%
%IPPOS*%
%AMOC8*
5,1,8,0,0,1.08239X$1,22.5*%
G01*
%ADD10C,1.879600*%
%ADD11P,1.732040X8X112.500000*%
%ADD12C,1.308000*%
%ADD13C,1.308000*%
%ADD14R,2.775000X2.775000*%
%ADD15C,2.775000*%
%ADD16R,2.184400X2.184400*%
%ADD17C,2.184400*%
%ADD18C,2.032000*%
%ADD19C,4.050000*%
%ADD20C,2.700000*%
%ADD21C,3.816000*%
%ADD22R,3.816000X3.816000*%
%ADD23C,1.676400*%
%ADD24C,0.406400*%

G36*
X524621Y10176D02*
X524621Y10176D01*
X524716Y10185D01*
X524742Y10196D01*
X524770Y10200D01*
X524854Y10245D01*
X524941Y10283D01*
X524962Y10302D01*
X524987Y10316D01*
X525053Y10385D01*
X525123Y10449D01*
X525137Y10473D01*
X525156Y10494D01*
X525197Y10580D01*
X525243Y10664D01*
X525248Y10691D01*
X525260Y10717D01*
X525270Y10812D01*
X525288Y10905D01*
X525284Y10933D01*
X525287Y10961D01*
X525267Y11055D01*
X525253Y11149D01*
X525239Y11181D01*
X525235Y11202D01*
X525218Y11230D01*
X525186Y11303D01*
X522654Y15688D01*
X520939Y22088D01*
X520939Y28712D01*
X522654Y35112D01*
X525966Y40849D01*
X530651Y45534D01*
X536388Y48846D01*
X542788Y50561D01*
X549412Y50561D01*
X555812Y48846D01*
X556897Y48219D01*
X556987Y48186D01*
X557073Y48145D01*
X557101Y48142D01*
X557127Y48132D01*
X557223Y48129D01*
X557317Y48118D01*
X557345Y48124D01*
X557373Y48123D01*
X557465Y48150D01*
X557558Y48170D01*
X557582Y48185D01*
X557609Y48193D01*
X557687Y48248D01*
X557769Y48297D01*
X557787Y48318D01*
X557810Y48334D01*
X557867Y48411D01*
X557929Y48484D01*
X557939Y48510D01*
X557956Y48533D01*
X557985Y48623D01*
X558021Y48712D01*
X558025Y48747D01*
X558031Y48767D01*
X558031Y48800D01*
X558039Y48878D01*
X558039Y586122D01*
X558024Y586216D01*
X558015Y586311D01*
X558004Y586336D01*
X558000Y586364D01*
X557955Y586448D01*
X557917Y586536D01*
X557898Y586557D01*
X557884Y586582D01*
X557815Y586647D01*
X557751Y586718D01*
X557727Y586732D01*
X557706Y586751D01*
X557620Y586791D01*
X557536Y586838D01*
X557509Y586843D01*
X557483Y586855D01*
X557388Y586865D01*
X557295Y586883D01*
X557267Y586879D01*
X557239Y586882D01*
X557145Y586862D01*
X557051Y586848D01*
X557019Y586834D01*
X556998Y586830D01*
X556970Y586813D01*
X556897Y586781D01*
X555812Y586154D01*
X549412Y584439D01*
X542788Y584439D01*
X536388Y586154D01*
X530651Y589466D01*
X525966Y594151D01*
X522654Y599888D01*
X520939Y606288D01*
X520939Y612912D01*
X522654Y619312D01*
X525128Y623597D01*
X525162Y623686D01*
X525202Y623773D01*
X525205Y623801D01*
X525215Y623827D01*
X525219Y623923D01*
X525229Y624017D01*
X525223Y624045D01*
X525224Y624073D01*
X525197Y624165D01*
X525177Y624258D01*
X525163Y624282D01*
X525155Y624309D01*
X525100Y624387D01*
X525051Y624469D01*
X525029Y624487D01*
X525013Y624510D01*
X524937Y624567D01*
X524864Y624629D01*
X524838Y624639D01*
X524815Y624656D01*
X524724Y624685D01*
X524636Y624721D01*
X524601Y624725D01*
X524581Y624731D01*
X524548Y624731D01*
X524469Y624739D01*
X206061Y624739D01*
X205965Y624724D01*
X205868Y624714D01*
X205844Y624704D01*
X205818Y624700D01*
X205732Y624654D01*
X205643Y624614D01*
X205624Y624597D01*
X205601Y624584D01*
X205534Y624514D01*
X205462Y624448D01*
X205449Y624425D01*
X205431Y624406D01*
X205390Y624318D01*
X205343Y624232D01*
X205339Y624207D01*
X205328Y624183D01*
X205317Y624086D01*
X205300Y623990D01*
X205304Y623964D01*
X205301Y623939D01*
X205321Y623843D01*
X205336Y623747D01*
X205347Y623724D01*
X205353Y623698D01*
X205403Y623615D01*
X205447Y623528D01*
X205466Y623509D01*
X205479Y623487D01*
X205553Y623424D01*
X205623Y623356D01*
X205651Y623340D01*
X205666Y623327D01*
X205697Y623315D01*
X205770Y623275D01*
X209464Y621745D01*
X212358Y618851D01*
X230359Y600850D01*
X233253Y597956D01*
X234761Y594315D01*
X234761Y260704D01*
X234772Y260633D01*
X234774Y260561D01*
X234792Y260512D01*
X234800Y260461D01*
X234834Y260398D01*
X234859Y260330D01*
X234891Y260290D01*
X234916Y260244D01*
X234968Y260194D01*
X235012Y260138D01*
X235056Y260110D01*
X235094Y260074D01*
X235159Y260044D01*
X235219Y260005D01*
X235270Y259993D01*
X235317Y259971D01*
X235388Y259963D01*
X235458Y259945D01*
X235510Y259949D01*
X235561Y259944D01*
X235632Y259959D01*
X235703Y259964D01*
X235751Y259985D01*
X235802Y259996D01*
X235863Y260033D01*
X235929Y260061D01*
X235985Y260105D01*
X236013Y260122D01*
X236028Y260140D01*
X236060Y260165D01*
X236732Y260837D01*
X239696Y262065D01*
X242904Y262065D01*
X245868Y260837D01*
X248137Y258568D01*
X249365Y255604D01*
X249365Y252396D01*
X248137Y249432D01*
X245868Y247163D01*
X242904Y245935D01*
X239696Y245935D01*
X236732Y247163D01*
X236060Y247835D01*
X236002Y247876D01*
X235950Y247926D01*
X235903Y247948D01*
X235861Y247978D01*
X235792Y247999D01*
X235727Y248029D01*
X235675Y248035D01*
X235625Y248050D01*
X235554Y248049D01*
X235483Y248056D01*
X235432Y248045D01*
X235380Y248044D01*
X235312Y248019D01*
X235242Y248004D01*
X235197Y247977D01*
X235149Y247960D01*
X235093Y247915D01*
X235031Y247878D01*
X234997Y247838D01*
X234957Y247806D01*
X234918Y247746D01*
X234871Y247691D01*
X234852Y247643D01*
X234824Y247599D01*
X234806Y247529D01*
X234779Y247463D01*
X234771Y247392D01*
X234763Y247360D01*
X234765Y247337D01*
X234761Y247296D01*
X234761Y235304D01*
X234772Y235233D01*
X234774Y235161D01*
X234792Y235112D01*
X234800Y235061D01*
X234834Y234998D01*
X234859Y234930D01*
X234891Y234890D01*
X234916Y234844D01*
X234968Y234794D01*
X235012Y234738D01*
X235056Y234710D01*
X235094Y234674D01*
X235159Y234644D01*
X235219Y234605D01*
X235270Y234593D01*
X235317Y234571D01*
X235388Y234563D01*
X235458Y234545D01*
X235510Y234549D01*
X235561Y234544D01*
X235632Y234559D01*
X235703Y234564D01*
X235751Y234585D01*
X235802Y234596D01*
X235863Y234633D01*
X235929Y234661D01*
X235985Y234705D01*
X236013Y234722D01*
X236028Y234740D01*
X236060Y234765D01*
X236732Y235437D01*
X239696Y236665D01*
X242904Y236665D01*
X245868Y235437D01*
X248137Y233168D01*
X249365Y230204D01*
X249365Y226996D01*
X248137Y224032D01*
X245868Y221763D01*
X242904Y220535D01*
X241955Y220535D01*
X241884Y220524D01*
X241812Y220522D01*
X241763Y220504D01*
X241712Y220496D01*
X241648Y220462D01*
X241581Y220437D01*
X241540Y220405D01*
X241494Y220380D01*
X241445Y220328D01*
X241389Y220284D01*
X241361Y220240D01*
X241325Y220202D01*
X241295Y220137D01*
X241256Y220077D01*
X241243Y220026D01*
X241221Y219979D01*
X241214Y219908D01*
X241196Y219838D01*
X241200Y219786D01*
X241194Y219735D01*
X241210Y219664D01*
X241215Y219593D01*
X241236Y219545D01*
X241247Y219494D01*
X241283Y219433D01*
X241311Y219367D01*
X241356Y219311D01*
X241373Y219283D01*
X241391Y219268D01*
X241416Y219236D01*
X243956Y216696D01*
X244030Y216643D01*
X244100Y216583D01*
X244130Y216571D01*
X244156Y216552D01*
X244243Y216525D01*
X244328Y216491D01*
X244369Y216487D01*
X244391Y216480D01*
X244423Y216481D01*
X244495Y216473D01*
X354205Y216473D01*
X357846Y214965D01*
X359616Y213195D01*
X359632Y213183D01*
X359644Y213167D01*
X359732Y213111D01*
X359815Y213051D01*
X359834Y213045D01*
X359851Y213034D01*
X359952Y213009D01*
X360050Y212979D01*
X360070Y212979D01*
X360090Y212974D01*
X360193Y212982D01*
X360296Y212985D01*
X360315Y212992D01*
X360335Y212993D01*
X360430Y213034D01*
X360527Y213069D01*
X360543Y213082D01*
X360561Y213090D01*
X360692Y213195D01*
X361250Y213752D01*
X365824Y215647D01*
X370776Y215647D01*
X375351Y213752D01*
X378852Y210251D01*
X380747Y205676D01*
X380747Y200724D01*
X378852Y196150D01*
X378430Y195727D01*
X378376Y195653D01*
X378317Y195584D01*
X378305Y195554D01*
X378286Y195528D01*
X378259Y195441D01*
X378225Y195356D01*
X378221Y195315D01*
X378214Y195293D01*
X378215Y195260D01*
X378207Y195189D01*
X378207Y185811D01*
X378221Y185721D01*
X378229Y185630D01*
X378241Y185600D01*
X378246Y185568D01*
X378289Y185488D01*
X378325Y185404D01*
X378351Y185371D01*
X378362Y185351D01*
X378385Y185329D01*
X378430Y185273D01*
X378852Y184850D01*
X380747Y180276D01*
X380747Y175324D01*
X378852Y170749D01*
X375351Y167248D01*
X373089Y166311D01*
X373006Y166260D01*
X372920Y166214D01*
X372902Y166196D01*
X372880Y166182D01*
X372817Y166106D01*
X372750Y166036D01*
X372739Y166012D01*
X372723Y165992D01*
X372688Y165901D01*
X372647Y165813D01*
X372644Y165787D01*
X372635Y165763D01*
X372630Y165665D01*
X372620Y165569D01*
X372625Y165543D01*
X372624Y165517D01*
X372651Y165423D01*
X372672Y165328D01*
X372685Y165306D01*
X372693Y165281D01*
X372748Y165201D01*
X372798Y165117D01*
X372818Y165100D01*
X372833Y165079D01*
X372911Y165020D01*
X372985Y164957D01*
X373009Y164947D01*
X373030Y164932D01*
X373123Y164902D01*
X373213Y164865D01*
X373246Y164862D01*
X373264Y164856D01*
X373297Y164856D01*
X373380Y164847D01*
X379854Y164847D01*
X380747Y163954D01*
X380747Y140846D01*
X380139Y140238D01*
X380127Y140222D01*
X380111Y140210D01*
X380055Y140122D01*
X379995Y140039D01*
X379989Y140020D01*
X379978Y140003D01*
X379953Y139902D01*
X379923Y139803D01*
X379923Y139784D01*
X379918Y139764D01*
X379926Y139661D01*
X379929Y139558D01*
X379936Y139539D01*
X379937Y139519D01*
X379978Y139424D01*
X380013Y139327D01*
X380026Y139311D01*
X380034Y139293D01*
X380139Y139162D01*
X380747Y138554D01*
X380747Y115446D01*
X379854Y114553D01*
X356746Y114553D01*
X355853Y115446D01*
X355853Y138554D01*
X356461Y139162D01*
X356473Y139178D01*
X356489Y139190D01*
X356545Y139278D01*
X356605Y139361D01*
X356611Y139380D01*
X356622Y139397D01*
X356647Y139498D01*
X356677Y139597D01*
X356677Y139616D01*
X356682Y139636D01*
X356674Y139739D01*
X356671Y139842D01*
X356664Y139861D01*
X356663Y139881D01*
X356622Y139976D01*
X356587Y140073D01*
X356574Y140089D01*
X356566Y140107D01*
X356461Y140238D01*
X355853Y140846D01*
X355853Y163954D01*
X356746Y164847D01*
X363220Y164847D01*
X363316Y164862D01*
X363413Y164872D01*
X363437Y164882D01*
X363463Y164886D01*
X363549Y164932D01*
X363638Y164972D01*
X363657Y164989D01*
X363680Y165002D01*
X363747Y165072D01*
X363819Y165138D01*
X363832Y165161D01*
X363850Y165180D01*
X363891Y165268D01*
X363938Y165354D01*
X363942Y165379D01*
X363953Y165403D01*
X363964Y165500D01*
X363981Y165596D01*
X363977Y165622D01*
X363980Y165647D01*
X363960Y165743D01*
X363945Y165839D01*
X363934Y165862D01*
X363928Y165888D01*
X363878Y165971D01*
X363834Y166058D01*
X363815Y166077D01*
X363802Y166099D01*
X363728Y166162D01*
X363658Y166230D01*
X363630Y166246D01*
X363615Y166259D01*
X363584Y166271D01*
X363511Y166311D01*
X361249Y167248D01*
X357748Y170749D01*
X355853Y175324D01*
X355853Y180276D01*
X357748Y184850D01*
X358170Y185273D01*
X358224Y185347D01*
X358283Y185416D01*
X358295Y185446D01*
X358314Y185472D01*
X358341Y185559D01*
X358375Y185644D01*
X358379Y185685D01*
X358386Y185707D01*
X358385Y185740D01*
X358393Y185811D01*
X358393Y186081D01*
X358379Y186171D01*
X358371Y186262D01*
X358359Y186292D01*
X358354Y186324D01*
X358311Y186405D01*
X358275Y186489D01*
X358249Y186521D01*
X358238Y186541D01*
X358215Y186564D01*
X358170Y186619D01*
X348353Y196436D01*
X348280Y196489D01*
X348210Y196549D01*
X348180Y196561D01*
X348154Y196580D01*
X348067Y196607D01*
X347982Y196641D01*
X347941Y196645D01*
X347919Y196652D01*
X347886Y196651D01*
X347815Y196659D01*
X238105Y196659D01*
X234464Y198167D01*
X216455Y216176D01*
X214947Y219817D01*
X214947Y587925D01*
X214933Y588015D01*
X214925Y588106D01*
X214913Y588136D01*
X214908Y588168D01*
X214865Y588249D01*
X214829Y588333D01*
X214803Y588365D01*
X214792Y588385D01*
X214769Y588408D01*
X214746Y588437D01*
X214744Y588440D01*
X214741Y588443D01*
X214724Y588464D01*
X206404Y596784D01*
X206346Y596826D01*
X206294Y596875D01*
X206247Y596897D01*
X206205Y596927D01*
X206136Y596948D01*
X206071Y596979D01*
X206019Y596984D01*
X205969Y597000D01*
X205898Y596998D01*
X205827Y597006D01*
X205776Y596995D01*
X205724Y596993D01*
X205656Y596969D01*
X205586Y596953D01*
X205541Y596927D01*
X205493Y596909D01*
X205437Y596864D01*
X205375Y596827D01*
X205341Y596788D01*
X205301Y596755D01*
X205262Y596695D01*
X205215Y596640D01*
X205196Y596592D01*
X205168Y596548D01*
X205150Y596479D01*
X205123Y596412D01*
X205115Y596341D01*
X205107Y596310D01*
X205109Y596286D01*
X205105Y596245D01*
X205105Y595296D01*
X203877Y592332D01*
X201608Y590063D01*
X198644Y588835D01*
X182356Y588835D01*
X179392Y590063D01*
X177123Y592332D01*
X175895Y595296D01*
X175895Y598504D01*
X177123Y601468D01*
X177795Y602140D01*
X177836Y602198D01*
X177886Y602250D01*
X177908Y602297D01*
X177938Y602339D01*
X177959Y602408D01*
X177989Y602473D01*
X177995Y602525D01*
X178010Y602575D01*
X178009Y602646D01*
X178016Y602717D01*
X178005Y602768D01*
X178004Y602820D01*
X177979Y602888D01*
X177964Y602958D01*
X177937Y603003D01*
X177920Y603051D01*
X177875Y603107D01*
X177838Y603169D01*
X177798Y603203D01*
X177766Y603243D01*
X177706Y603282D01*
X177651Y603329D01*
X177603Y603348D01*
X177559Y603376D01*
X177489Y603394D01*
X177423Y603421D01*
X177352Y603429D01*
X177320Y603437D01*
X177297Y603435D01*
X177256Y603439D01*
X156819Y603439D01*
X156729Y603425D01*
X156638Y603417D01*
X156608Y603405D01*
X156576Y603400D01*
X156495Y603357D01*
X156412Y603321D01*
X156379Y603295D01*
X156359Y603284D01*
X156337Y603261D01*
X156281Y603216D01*
X125480Y572415D01*
X125427Y572342D01*
X125367Y572272D01*
X125355Y572242D01*
X125336Y572216D01*
X125309Y572129D01*
X125275Y572044D01*
X125271Y572003D01*
X125264Y571981D01*
X125265Y571948D01*
X125257Y571877D01*
X125257Y549489D01*
X125268Y549418D01*
X125270Y549346D01*
X125288Y549297D01*
X125296Y549246D01*
X125330Y549183D01*
X125355Y549115D01*
X125387Y549075D01*
X125412Y549029D01*
X125464Y548979D01*
X125508Y548923D01*
X125552Y548895D01*
X125590Y548859D01*
X125655Y548829D01*
X125715Y548790D01*
X125766Y548777D01*
X125813Y548756D01*
X125884Y548748D01*
X125954Y548730D01*
X126006Y548734D01*
X126057Y548728D01*
X126128Y548744D01*
X126199Y548749D01*
X126247Y548770D01*
X126298Y548781D01*
X126359Y548817D01*
X126425Y548846D01*
X126481Y548890D01*
X126509Y548907D01*
X126524Y548925D01*
X126556Y548950D01*
X127366Y549760D01*
X135369Y553075D01*
X144031Y553075D01*
X152034Y549760D01*
X158160Y543634D01*
X161475Y535631D01*
X161475Y526969D01*
X158160Y518966D01*
X152034Y512840D01*
X144031Y509525D01*
X135369Y509525D01*
X127366Y512840D01*
X125496Y514710D01*
X125480Y514721D01*
X125468Y514737D01*
X125381Y514793D01*
X125297Y514853D01*
X125278Y514859D01*
X125261Y514870D01*
X125160Y514895D01*
X125062Y514925D01*
X125042Y514925D01*
X125022Y514930D01*
X124919Y514922D01*
X124816Y514919D01*
X124797Y514912D01*
X124777Y514911D01*
X124682Y514870D01*
X124585Y514835D01*
X124569Y514822D01*
X124551Y514814D01*
X124420Y514710D01*
X120855Y511145D01*
X120855Y511144D01*
X61980Y452269D01*
X61927Y452196D01*
X61867Y452126D01*
X61855Y452096D01*
X61836Y452070D01*
X61809Y451983D01*
X61775Y451898D01*
X61771Y451857D01*
X61764Y451835D01*
X61765Y451802D01*
X61757Y451731D01*
X61757Y423739D01*
X61771Y423649D01*
X61779Y423558D01*
X61791Y423528D01*
X61796Y423496D01*
X61839Y423415D01*
X61875Y423331D01*
X61901Y423299D01*
X61912Y423279D01*
X61935Y423256D01*
X61980Y423201D01*
X65014Y420166D01*
X65093Y420109D01*
X65168Y420047D01*
X65193Y420038D01*
X65214Y420022D01*
X65307Y419994D01*
X65398Y419959D01*
X65424Y419958D01*
X65449Y419950D01*
X65546Y419953D01*
X65644Y419948D01*
X65669Y419956D01*
X65695Y419956D01*
X65787Y419990D01*
X65880Y420017D01*
X65901Y420032D01*
X65926Y420041D01*
X66002Y420102D01*
X66082Y420157D01*
X66098Y420178D01*
X66118Y420195D01*
X66171Y420276D01*
X66229Y420355D01*
X66237Y420379D01*
X66251Y420401D01*
X66275Y420496D01*
X66305Y420588D01*
X66305Y420615D01*
X66311Y420640D01*
X66304Y420737D01*
X66303Y420834D01*
X66293Y420866D01*
X66292Y420885D01*
X66279Y420915D01*
X66256Y420996D01*
X64675Y424811D01*
X64675Y430789D01*
X66963Y436311D01*
X71189Y440537D01*
X76711Y442825D01*
X82689Y442825D01*
X88211Y440537D01*
X92437Y436311D01*
X94725Y430789D01*
X94725Y424811D01*
X92437Y419289D01*
X88211Y415063D01*
X82689Y412775D01*
X76711Y412775D01*
X72896Y414356D01*
X72801Y414378D01*
X72708Y414407D01*
X72681Y414406D01*
X72656Y414412D01*
X72559Y414403D01*
X72462Y414400D01*
X72437Y414391D01*
X72411Y414389D01*
X72322Y414349D01*
X72231Y414316D01*
X72210Y414300D01*
X72186Y414289D01*
X72115Y414223D01*
X72039Y414162D01*
X72025Y414140D01*
X72005Y414123D01*
X71958Y414037D01*
X71906Y413955D01*
X71899Y413930D01*
X71887Y413907D01*
X71869Y413811D01*
X71846Y413717D01*
X71848Y413691D01*
X71843Y413665D01*
X71857Y413568D01*
X71865Y413472D01*
X71875Y413448D01*
X71879Y413422D01*
X71923Y413335D01*
X71961Y413245D01*
X71981Y413220D01*
X71990Y413202D01*
X72014Y413179D01*
X72066Y413114D01*
X105481Y379700D01*
X105554Y379647D01*
X105624Y379587D01*
X105654Y379575D01*
X105680Y379556D01*
X105767Y379529D01*
X105852Y379495D01*
X105893Y379491D01*
X105915Y379484D01*
X105948Y379485D01*
X106019Y379477D01*
X153101Y379477D01*
X153880Y379154D01*
X153944Y379139D01*
X154005Y379114D01*
X154088Y379105D01*
X154120Y379098D01*
X154139Y379099D01*
X154172Y379096D01*
X155076Y379096D01*
X155715Y378457D01*
X155768Y378418D01*
X155815Y378372D01*
X155888Y378332D01*
X155915Y378313D01*
X155933Y378307D01*
X155962Y378292D01*
X156742Y377969D01*
X159529Y375182D01*
X159852Y374402D01*
X159886Y374346D01*
X159912Y374286D01*
X159964Y374221D01*
X159981Y374193D01*
X159996Y374180D01*
X160017Y374155D01*
X160656Y373516D01*
X160656Y372612D01*
X160666Y372547D01*
X160667Y372482D01*
X160690Y372402D01*
X160695Y372369D01*
X160705Y372352D01*
X160714Y372320D01*
X161037Y371541D01*
X161037Y367599D01*
X160714Y366820D01*
X160699Y366756D01*
X160674Y366695D01*
X160665Y366612D01*
X160658Y366580D01*
X160659Y366561D01*
X160656Y366528D01*
X160656Y365624D01*
X160017Y364985D01*
X159978Y364932D01*
X159932Y364885D01*
X159892Y364812D01*
X159873Y364785D01*
X159867Y364767D01*
X159852Y364738D01*
X159529Y363958D01*
X156742Y361171D01*
X155962Y360848D01*
X155906Y360814D01*
X155846Y360788D01*
X155781Y360736D01*
X155753Y360719D01*
X155740Y360704D01*
X155715Y360683D01*
X155076Y360044D01*
X154172Y360044D01*
X154107Y360034D01*
X154042Y360033D01*
X153962Y360010D01*
X153929Y360005D01*
X153912Y359995D01*
X153880Y359986D01*
X153101Y359663D01*
X99629Y359663D01*
X95988Y361171D01*
X93095Y364065D01*
X93094Y364065D01*
X46345Y410814D01*
X43451Y413708D01*
X41943Y417349D01*
X41943Y458121D01*
X43451Y461762D01*
X46345Y464655D01*
X46345Y464656D01*
X105220Y523531D01*
X105273Y523604D01*
X105333Y523674D01*
X105345Y523704D01*
X105364Y523730D01*
X105391Y523817D01*
X105425Y523902D01*
X105429Y523943D01*
X105436Y523965D01*
X105435Y523998D01*
X105443Y524069D01*
X105443Y578267D01*
X106951Y581908D01*
X146788Y621745D01*
X150483Y623275D01*
X150566Y623326D01*
X150651Y623372D01*
X150669Y623390D01*
X150692Y623404D01*
X150754Y623480D01*
X150821Y623550D01*
X150832Y623574D01*
X150848Y623594D01*
X150883Y623685D01*
X150924Y623773D01*
X150927Y623799D01*
X150937Y623823D01*
X150941Y623921D01*
X150951Y624017D01*
X150946Y624043D01*
X150947Y624069D01*
X150920Y624163D01*
X150899Y624258D01*
X150886Y624280D01*
X150878Y624305D01*
X150823Y624385D01*
X150773Y624469D01*
X150753Y624486D01*
X150738Y624507D01*
X150660Y624566D01*
X150586Y624629D01*
X150562Y624639D01*
X150541Y624654D01*
X150448Y624684D01*
X150358Y624721D01*
X150325Y624724D01*
X150307Y624730D01*
X150274Y624730D01*
X150191Y624739D01*
X47031Y624739D01*
X46937Y624724D01*
X46842Y624715D01*
X46816Y624704D01*
X46788Y624700D01*
X46704Y624655D01*
X46617Y624617D01*
X46596Y624598D01*
X46571Y624584D01*
X46505Y624515D01*
X46435Y624451D01*
X46421Y624427D01*
X46401Y624406D01*
X46361Y624320D01*
X46315Y624236D01*
X46310Y624209D01*
X46298Y624183D01*
X46287Y624088D01*
X46270Y623995D01*
X46274Y623967D01*
X46271Y623939D01*
X46291Y623845D01*
X46304Y623751D01*
X46319Y623719D01*
X46323Y623698D01*
X46340Y623670D01*
X46372Y623597D01*
X48846Y619312D01*
X50561Y612912D01*
X50561Y606288D01*
X48846Y599888D01*
X45534Y594151D01*
X40849Y589466D01*
X35112Y586154D01*
X28712Y584439D01*
X22088Y584439D01*
X15688Y586154D01*
X11303Y588686D01*
X11214Y588720D01*
X11127Y588760D01*
X11099Y588763D01*
X11073Y588773D01*
X10977Y588777D01*
X10883Y588787D01*
X10855Y588781D01*
X10827Y588782D01*
X10735Y588755D01*
X10642Y588735D01*
X10618Y588720D01*
X10591Y588712D01*
X10513Y588657D01*
X10431Y588609D01*
X10413Y588587D01*
X10390Y588571D01*
X10333Y588494D01*
X10271Y588422D01*
X10261Y588395D01*
X10244Y588373D01*
X10215Y588282D01*
X10179Y588194D01*
X10175Y588158D01*
X10169Y588138D01*
X10169Y588106D01*
X10161Y588027D01*
X10161Y46973D01*
X10176Y46879D01*
X10185Y46784D01*
X10196Y46758D01*
X10200Y46730D01*
X10245Y46646D01*
X10283Y46559D01*
X10302Y46538D01*
X10316Y46513D01*
X10385Y46447D01*
X10449Y46377D01*
X10473Y46363D01*
X10494Y46344D01*
X10580Y46303D01*
X10664Y46257D01*
X10691Y46252D01*
X10717Y46240D01*
X10812Y46230D01*
X10905Y46212D01*
X10933Y46216D01*
X10961Y46213D01*
X11055Y46233D01*
X11149Y46247D01*
X11181Y46261D01*
X11202Y46265D01*
X11230Y46282D01*
X11303Y46314D01*
X15688Y48846D01*
X22088Y50561D01*
X28712Y50561D01*
X35112Y48846D01*
X40849Y45534D01*
X45534Y40849D01*
X48846Y35112D01*
X50561Y28712D01*
X50561Y22088D01*
X48846Y15688D01*
X46314Y11303D01*
X46280Y11214D01*
X46240Y11127D01*
X46237Y11099D01*
X46227Y11073D01*
X46223Y10977D01*
X46213Y10883D01*
X46219Y10855D01*
X46218Y10827D01*
X46245Y10735D01*
X46265Y10642D01*
X46280Y10618D01*
X46288Y10591D01*
X46343Y10513D01*
X46391Y10431D01*
X46413Y10413D01*
X46429Y10390D01*
X46506Y10333D01*
X46578Y10271D01*
X46605Y10261D01*
X46627Y10244D01*
X46718Y10215D01*
X46806Y10179D01*
X46842Y10175D01*
X46862Y10169D01*
X46894Y10169D01*
X46973Y10161D01*
X524527Y10161D01*
X524621Y10176D01*
G37*
%LPC*%
G36*
X51946Y63753D02*
X51946Y63753D01*
X51053Y64646D01*
X51053Y87754D01*
X51661Y88362D01*
X51673Y88378D01*
X51689Y88390D01*
X51745Y88478D01*
X51805Y88561D01*
X51811Y88580D01*
X51822Y88597D01*
X51847Y88698D01*
X51877Y88797D01*
X51877Y88816D01*
X51882Y88836D01*
X51874Y88939D01*
X51871Y89042D01*
X51864Y89061D01*
X51863Y89081D01*
X51822Y89176D01*
X51787Y89273D01*
X51774Y89289D01*
X51766Y89307D01*
X51661Y89438D01*
X51053Y90046D01*
X51053Y113154D01*
X51946Y114047D01*
X58420Y114047D01*
X58516Y114062D01*
X58613Y114072D01*
X58637Y114082D01*
X58663Y114086D01*
X58749Y114132D01*
X58838Y114172D01*
X58857Y114189D01*
X58880Y114202D01*
X58947Y114272D01*
X59019Y114338D01*
X59032Y114361D01*
X59050Y114380D01*
X59091Y114468D01*
X59138Y114554D01*
X59142Y114579D01*
X59153Y114603D01*
X59164Y114700D01*
X59181Y114796D01*
X59177Y114822D01*
X59180Y114847D01*
X59160Y114943D01*
X59145Y115039D01*
X59134Y115062D01*
X59128Y115088D01*
X59078Y115171D01*
X59034Y115258D01*
X59015Y115277D01*
X59002Y115299D01*
X58928Y115362D01*
X58858Y115430D01*
X58830Y115446D01*
X58815Y115459D01*
X58784Y115471D01*
X58711Y115511D01*
X56449Y116448D01*
X52948Y119949D01*
X51053Y124524D01*
X51053Y129476D01*
X52948Y134050D01*
X53370Y134473D01*
X53413Y134532D01*
X53456Y134578D01*
X53464Y134594D01*
X53483Y134616D01*
X53495Y134646D01*
X53514Y134672D01*
X53540Y134759D01*
X53560Y134801D01*
X53561Y134810D01*
X53575Y134844D01*
X53579Y134885D01*
X53586Y134907D01*
X53585Y134940D01*
X53593Y135011D01*
X53593Y135281D01*
X53579Y135371D01*
X53571Y135462D01*
X53559Y135492D01*
X53554Y135524D01*
X53511Y135605D01*
X53475Y135688D01*
X53449Y135721D01*
X53438Y135741D01*
X53415Y135763D01*
X53370Y135819D01*
X17001Y172188D01*
X15493Y175829D01*
X15493Y294071D01*
X17001Y297712D01*
X19895Y300606D01*
X35177Y315888D01*
X35230Y315961D01*
X35290Y316031D01*
X35302Y316061D01*
X35321Y316087D01*
X35348Y316174D01*
X35382Y316259D01*
X35386Y316300D01*
X35393Y316322D01*
X35392Y316355D01*
X35400Y316426D01*
X35400Y320563D01*
X37745Y326223D01*
X42077Y330555D01*
X47737Y332900D01*
X53863Y332900D01*
X59523Y330555D01*
X63855Y326223D01*
X66200Y320563D01*
X66200Y314437D01*
X63855Y308777D01*
X59523Y304445D01*
X53863Y302100D01*
X49726Y302100D01*
X49636Y302086D01*
X49545Y302078D01*
X49515Y302066D01*
X49483Y302061D01*
X49402Y302018D01*
X49318Y301982D01*
X49286Y301956D01*
X49266Y301945D01*
X49243Y301922D01*
X49188Y301877D01*
X35530Y288219D01*
X35477Y288146D01*
X35417Y288076D01*
X35405Y288046D01*
X35386Y288020D01*
X35359Y287933D01*
X35325Y287848D01*
X35321Y287807D01*
X35314Y287785D01*
X35315Y287752D01*
X35307Y287681D01*
X35307Y279337D01*
X35314Y279290D01*
X35313Y279242D01*
X35334Y279169D01*
X35346Y279095D01*
X35369Y279052D01*
X35383Y279006D01*
X35426Y278944D01*
X35462Y278877D01*
X35496Y278844D01*
X35524Y278805D01*
X35585Y278760D01*
X35640Y278708D01*
X35683Y278688D01*
X35722Y278659D01*
X35794Y278636D01*
X35863Y278604D01*
X35911Y278599D01*
X35956Y278584D01*
X36032Y278585D01*
X36107Y278577D01*
X36154Y278587D01*
X36202Y278588D01*
X36274Y278613D01*
X36348Y278629D01*
X36389Y278654D01*
X36434Y278670D01*
X36494Y278717D01*
X36559Y278756D01*
X36590Y278792D01*
X36628Y278822D01*
X36704Y278925D01*
X36719Y278942D01*
X36721Y278949D01*
X36727Y278957D01*
X37121Y279640D01*
X38432Y281347D01*
X39953Y282868D01*
X41660Y284179D01*
X43524Y285254D01*
X45512Y286078D01*
X47590Y286635D01*
X49277Y286857D01*
X49277Y271262D01*
X49280Y271245D01*
X49278Y271230D01*
X49278Y271228D01*
X49278Y271223D01*
X49300Y271121D01*
X49317Y271019D01*
X49326Y271002D01*
X49330Y270982D01*
X49383Y270893D01*
X49432Y270802D01*
X49446Y270788D01*
X49456Y270771D01*
X49535Y270704D01*
X49610Y270633D01*
X49628Y270624D01*
X49643Y270611D01*
X49739Y270573D01*
X49833Y270529D01*
X49853Y270527D01*
X49871Y270519D01*
X50038Y270501D01*
X50801Y270501D01*
X50801Y270499D01*
X50038Y270499D01*
X50018Y270496D01*
X49999Y270498D01*
X49897Y270476D01*
X49795Y270459D01*
X49778Y270450D01*
X49758Y270446D01*
X49669Y270393D01*
X49578Y270344D01*
X49564Y270330D01*
X49547Y270320D01*
X49480Y270241D01*
X49409Y270166D01*
X49400Y270148D01*
X49387Y270133D01*
X49348Y270037D01*
X49305Y269943D01*
X49303Y269923D01*
X49295Y269905D01*
X49277Y269738D01*
X49277Y254143D01*
X47590Y254365D01*
X45512Y254922D01*
X43524Y255746D01*
X41660Y256821D01*
X39953Y258132D01*
X38432Y259653D01*
X37121Y261360D01*
X36727Y262043D01*
X36697Y262080D01*
X36674Y262123D01*
X36620Y262175D01*
X36571Y262234D01*
X36531Y262259D01*
X36496Y262292D01*
X36427Y262324D01*
X36363Y262364D01*
X36317Y262376D01*
X36273Y262396D01*
X36198Y262404D01*
X36124Y262422D01*
X36076Y262418D01*
X36029Y262423D01*
X35954Y262407D01*
X35879Y262400D01*
X35835Y262381D01*
X35788Y262371D01*
X35723Y262332D01*
X35654Y262301D01*
X35618Y262269D01*
X35577Y262244D01*
X35528Y262187D01*
X35472Y262136D01*
X35448Y262094D01*
X35417Y262058D01*
X35389Y261987D01*
X35352Y261921D01*
X35343Y261874D01*
X35325Y261829D01*
X35311Y261701D01*
X35307Y261679D01*
X35308Y261673D01*
X35307Y261663D01*
X35307Y182219D01*
X35321Y182129D01*
X35329Y182038D01*
X35341Y182008D01*
X35346Y181976D01*
X35389Y181895D01*
X35425Y181812D01*
X35451Y181779D01*
X35462Y181759D01*
X35485Y181737D01*
X35494Y181725D01*
X35502Y181712D01*
X35510Y181706D01*
X35530Y181681D01*
X54816Y162395D01*
X54832Y162383D01*
X54844Y162367D01*
X54932Y162311D01*
X55015Y162251D01*
X55034Y162245D01*
X55051Y162234D01*
X55152Y162209D01*
X55250Y162179D01*
X55270Y162179D01*
X55290Y162174D01*
X55393Y162182D01*
X55496Y162185D01*
X55515Y162192D01*
X55535Y162193D01*
X55630Y162234D01*
X55727Y162269D01*
X55743Y162282D01*
X55761Y162290D01*
X55892Y162395D01*
X56450Y162952D01*
X61024Y164847D01*
X65976Y164847D01*
X70551Y162952D01*
X74052Y159451D01*
X75947Y154876D01*
X75947Y149924D01*
X74052Y145349D01*
X73630Y144927D01*
X73577Y144853D01*
X73517Y144784D01*
X73505Y144754D01*
X73486Y144728D01*
X73459Y144641D01*
X73425Y144556D01*
X73421Y144515D01*
X73414Y144493D01*
X73415Y144460D01*
X73407Y144389D01*
X73407Y135011D01*
X73413Y134970D01*
X73413Y134966D01*
X73417Y134946D01*
X73421Y134921D01*
X73429Y134830D01*
X73441Y134800D01*
X73446Y134768D01*
X73463Y134738D01*
X73465Y134726D01*
X73492Y134682D01*
X73525Y134604D01*
X73551Y134571D01*
X73562Y134551D01*
X73581Y134532D01*
X73591Y134515D01*
X73606Y134503D01*
X73630Y134473D01*
X74052Y134050D01*
X75947Y129476D01*
X75947Y124524D01*
X74052Y119949D01*
X70551Y116448D01*
X68289Y115511D01*
X68206Y115460D01*
X68120Y115414D01*
X68102Y115396D01*
X68080Y115382D01*
X68017Y115306D01*
X67950Y115236D01*
X67939Y115212D01*
X67923Y115192D01*
X67888Y115101D01*
X67847Y115013D01*
X67844Y114987D01*
X67835Y114963D01*
X67830Y114865D01*
X67820Y114769D01*
X67825Y114743D01*
X67824Y114717D01*
X67851Y114623D01*
X67872Y114528D01*
X67885Y114506D01*
X67893Y114481D01*
X67948Y114401D01*
X67998Y114317D01*
X68018Y114300D01*
X68033Y114279D01*
X68111Y114220D01*
X68185Y114157D01*
X68209Y114147D01*
X68230Y114132D01*
X68323Y114102D01*
X68413Y114065D01*
X68446Y114062D01*
X68464Y114056D01*
X68497Y114056D01*
X68580Y114047D01*
X75054Y114047D01*
X75947Y113154D01*
X75947Y90046D01*
X75339Y89438D01*
X75327Y89422D01*
X75311Y89410D01*
X75255Y89322D01*
X75195Y89239D01*
X75189Y89220D01*
X75178Y89203D01*
X75153Y89102D01*
X75123Y89003D01*
X75123Y88984D01*
X75118Y88964D01*
X75126Y88861D01*
X75129Y88758D01*
X75136Y88739D01*
X75137Y88719D01*
X75178Y88624D01*
X75213Y88527D01*
X75226Y88511D01*
X75234Y88493D01*
X75339Y88362D01*
X75947Y87754D01*
X75947Y64646D01*
X75054Y63753D01*
X51946Y63753D01*
G37*
%LPD*%
%LPC*%
G36*
X442327Y90677D02*
X442327Y90677D01*
X438313Y92340D01*
X435240Y95413D01*
X433577Y99427D01*
X433577Y103773D01*
X435240Y107787D01*
X438313Y110860D01*
X440537Y111781D01*
X440614Y111829D01*
X440696Y111870D01*
X440718Y111894D01*
X440746Y111911D01*
X440804Y111981D01*
X440868Y112046D01*
X440888Y112082D01*
X440903Y112100D01*
X440914Y112130D01*
X440949Y112193D01*
X442197Y115208D01*
X505236Y178247D01*
X505289Y178320D01*
X505349Y178390D01*
X505361Y178420D01*
X505380Y178446D01*
X505407Y178533D01*
X505441Y178618D01*
X505445Y178659D01*
X505452Y178681D01*
X505451Y178714D01*
X505459Y178785D01*
X505459Y233097D01*
X505448Y233167D01*
X505446Y233239D01*
X505428Y233288D01*
X505420Y233340D01*
X505386Y233403D01*
X505361Y233470D01*
X505329Y233511D01*
X505304Y233557D01*
X505252Y233606D01*
X505208Y233662D01*
X505164Y233690D01*
X505126Y233726D01*
X505061Y233756D01*
X505001Y233795D01*
X504950Y233808D01*
X504903Y233830D01*
X504832Y233838D01*
X504762Y233855D01*
X504710Y233851D01*
X504659Y233857D01*
X504588Y233842D01*
X504517Y233836D01*
X504469Y233816D01*
X504418Y233805D01*
X504357Y233768D01*
X504291Y233740D01*
X504235Y233695D01*
X504207Y233679D01*
X504192Y233661D01*
X504160Y233635D01*
X501919Y231394D01*
X497624Y229615D01*
X492976Y229615D01*
X488681Y231394D01*
X485394Y234681D01*
X483615Y238976D01*
X483615Y243624D01*
X485394Y247919D01*
X488681Y251206D01*
X492976Y252985D01*
X496145Y252985D01*
X496216Y252996D01*
X496287Y252998D01*
X496336Y253016D01*
X496388Y253024D01*
X496451Y253058D01*
X496518Y253083D01*
X496559Y253115D01*
X496605Y253140D01*
X496654Y253192D01*
X496710Y253236D01*
X496739Y253280D01*
X496774Y253318D01*
X496805Y253383D01*
X496843Y253443D01*
X496856Y253494D01*
X496878Y253541D01*
X496886Y253612D01*
X496903Y253682D01*
X496899Y253734D01*
X496905Y253785D01*
X496890Y253856D01*
X496884Y253927D01*
X496864Y253975D01*
X496853Y254026D01*
X496816Y254087D01*
X496788Y254153D01*
X496743Y254209D01*
X496727Y254237D01*
X496714Y254247D01*
X496712Y254252D01*
X496704Y254259D01*
X496683Y254284D01*
X486901Y264066D01*
X485393Y267707D01*
X485393Y272632D01*
X485383Y272697D01*
X485382Y272762D01*
X485359Y272842D01*
X485354Y272875D01*
X485344Y272892D01*
X485335Y272923D01*
X483615Y277076D01*
X483615Y281724D01*
X485394Y286019D01*
X488681Y289306D01*
X492976Y291085D01*
X497624Y291085D01*
X501919Y289306D01*
X505206Y286019D01*
X506985Y281724D01*
X506985Y277076D01*
X505694Y273959D01*
X505667Y273845D01*
X505638Y273732D01*
X505639Y273725D01*
X505637Y273719D01*
X505648Y273603D01*
X505658Y273486D01*
X505660Y273481D01*
X505661Y273474D01*
X505708Y273367D01*
X505754Y273260D01*
X505758Y273254D01*
X505761Y273250D01*
X505773Y273236D01*
X505859Y273129D01*
X520871Y258117D01*
X523765Y255223D01*
X525273Y251582D01*
X525273Y172395D01*
X523765Y168754D01*
X468832Y113822D01*
X468791Y113764D01*
X468741Y113712D01*
X468719Y113665D01*
X468689Y113623D01*
X468668Y113554D01*
X468638Y113489D01*
X468632Y113437D01*
X468617Y113387D01*
X468618Y113316D01*
X468611Y113245D01*
X468622Y113194D01*
X468623Y113142D01*
X468648Y113074D01*
X468663Y113004D01*
X468690Y112959D01*
X468707Y112911D01*
X468752Y112855D01*
X468789Y112793D01*
X468829Y112759D01*
X468861Y112719D01*
X468921Y112680D01*
X468976Y112633D01*
X469024Y112614D01*
X469068Y112586D01*
X469137Y112568D01*
X469204Y112541D01*
X469275Y112533D01*
X469307Y112525D01*
X469330Y112527D01*
X469371Y112523D01*
X472073Y112523D01*
X476087Y110860D01*
X479160Y107787D01*
X480823Y103773D01*
X480823Y99427D01*
X479160Y95413D01*
X476087Y92340D01*
X472073Y90677D01*
X467727Y90677D01*
X463713Y92340D01*
X460640Y95413D01*
X458977Y99427D01*
X458977Y100229D01*
X458966Y100300D01*
X458964Y100372D01*
X458946Y100421D01*
X458938Y100472D01*
X458904Y100535D01*
X458879Y100603D01*
X458847Y100643D01*
X458822Y100689D01*
X458771Y100739D01*
X458726Y100795D01*
X458682Y100823D01*
X458644Y100859D01*
X458579Y100889D01*
X458519Y100928D01*
X458468Y100940D01*
X458421Y100962D01*
X458350Y100970D01*
X458280Y100988D01*
X458228Y100984D01*
X458177Y100989D01*
X458106Y100974D01*
X458035Y100969D01*
X457987Y100948D01*
X457936Y100937D01*
X457875Y100900D01*
X457809Y100872D01*
X457753Y100828D01*
X457725Y100811D01*
X457710Y100793D01*
X457678Y100768D01*
X454883Y97973D01*
X454845Y97920D01*
X454799Y97873D01*
X454759Y97800D01*
X454739Y97773D01*
X454734Y97754D01*
X454718Y97726D01*
X453760Y95413D01*
X450687Y92340D01*
X446673Y90677D01*
X442327Y90677D01*
G37*
%LPD*%
%LPC*%
G36*
X467727Y306577D02*
X467727Y306577D01*
X463713Y308240D01*
X460640Y311313D01*
X458977Y315327D01*
X458977Y319673D01*
X459872Y321833D01*
X459899Y321947D01*
X459927Y322060D01*
X459927Y322067D01*
X459928Y322073D01*
X459917Y322189D01*
X459908Y322306D01*
X459906Y322311D01*
X459905Y322318D01*
X459857Y322425D01*
X459812Y322532D01*
X459807Y322538D01*
X459805Y322542D01*
X459793Y322556D01*
X459707Y322663D01*
X439886Y342484D01*
X439812Y342537D01*
X439742Y342597D01*
X439712Y342609D01*
X439686Y342628D01*
X439599Y342655D01*
X439514Y342689D01*
X439473Y342693D01*
X439451Y342700D01*
X439419Y342699D01*
X439347Y342707D01*
X422674Y342707D01*
X418507Y346874D01*
X418507Y350847D01*
X418493Y350938D01*
X418485Y351028D01*
X418473Y351058D01*
X418468Y351090D01*
X418425Y351171D01*
X418389Y351255D01*
X418363Y351287D01*
X418352Y351308D01*
X418329Y351330D01*
X418284Y351386D01*
X398863Y370807D01*
X398768Y370875D01*
X398674Y370945D01*
X398668Y370947D01*
X398663Y370951D01*
X398552Y370985D01*
X398440Y371021D01*
X398434Y371021D01*
X398428Y371023D01*
X398311Y371020D01*
X398194Y371019D01*
X398187Y371017D01*
X398182Y371017D01*
X398165Y371010D01*
X398033Y370972D01*
X395873Y370077D01*
X391527Y370077D01*
X387513Y371740D01*
X384440Y374813D01*
X382777Y378827D01*
X382777Y383173D01*
X384440Y387187D01*
X387513Y390260D01*
X391527Y391923D01*
X395873Y391923D01*
X399887Y390260D01*
X402960Y387187D01*
X404623Y383173D01*
X404623Y378827D01*
X403728Y376667D01*
X403701Y376553D01*
X403673Y376440D01*
X403673Y376433D01*
X403672Y376427D01*
X403683Y376311D01*
X403692Y376194D01*
X403694Y376189D01*
X403695Y376182D01*
X403743Y376075D01*
X403788Y375968D01*
X403793Y375962D01*
X403795Y375958D01*
X403807Y375944D01*
X403893Y375837D01*
X422796Y356934D01*
X422854Y356892D01*
X422906Y356843D01*
X422953Y356821D01*
X422995Y356791D01*
X423064Y356770D01*
X423129Y356739D01*
X423181Y356734D01*
X423231Y356718D01*
X423302Y356720D01*
X423373Y356712D01*
X423424Y356723D01*
X423476Y356725D01*
X423544Y356749D01*
X423614Y356765D01*
X423658Y356791D01*
X423707Y356809D01*
X423763Y356854D01*
X423825Y356891D01*
X423859Y356930D01*
X423899Y356963D01*
X423938Y357023D01*
X423985Y357078D01*
X424004Y357126D01*
X424032Y357170D01*
X424050Y357239D01*
X424077Y357306D01*
X424085Y357377D01*
X424093Y357408D01*
X424091Y357432D01*
X424095Y357473D01*
X424095Y388612D01*
X424988Y389505D01*
X464412Y389505D01*
X465305Y388612D01*
X465305Y349188D01*
X464412Y348295D01*
X445973Y348295D01*
X445902Y348284D01*
X445830Y348282D01*
X445781Y348264D01*
X445730Y348256D01*
X445667Y348222D01*
X445599Y348197D01*
X445558Y348165D01*
X445512Y348140D01*
X445463Y348089D01*
X445407Y348044D01*
X445379Y348000D01*
X445343Y347962D01*
X445313Y347897D01*
X445274Y347837D01*
X445261Y347786D01*
X445239Y347739D01*
X445231Y347668D01*
X445214Y347598D01*
X445218Y347546D01*
X445212Y347495D01*
X445228Y347424D01*
X445233Y347353D01*
X445253Y347305D01*
X445265Y347254D01*
X445301Y347193D01*
X445329Y347127D01*
X445374Y347071D01*
X445391Y347043D01*
X445409Y347028D01*
X445434Y346996D01*
X464737Y327693D01*
X464832Y327625D01*
X464926Y327555D01*
X464932Y327553D01*
X464937Y327549D01*
X465048Y327515D01*
X465160Y327479D01*
X465166Y327479D01*
X465172Y327477D01*
X465289Y327480D01*
X465406Y327481D01*
X465413Y327483D01*
X465418Y327483D01*
X465435Y327490D01*
X465567Y327528D01*
X467727Y328423D01*
X472073Y328423D01*
X476087Y326760D01*
X479160Y323687D01*
X480823Y319673D01*
X480823Y315327D01*
X479160Y311313D01*
X476087Y308240D01*
X472073Y306577D01*
X467727Y306577D01*
G37*
%LPD*%
%LPC*%
G36*
X442327Y509777D02*
X442327Y509777D01*
X438313Y511440D01*
X435240Y514513D01*
X433577Y518527D01*
X433577Y522873D01*
X435240Y526887D01*
X437151Y528798D01*
X437193Y528856D01*
X437242Y528908D01*
X437264Y528955D01*
X437294Y528997D01*
X437315Y529066D01*
X437346Y529131D01*
X437351Y529183D01*
X437367Y529233D01*
X437365Y529304D01*
X437373Y529375D01*
X437362Y529426D01*
X437360Y529478D01*
X437336Y529546D01*
X437320Y529616D01*
X437294Y529661D01*
X437276Y529709D01*
X437231Y529765D01*
X437194Y529827D01*
X437155Y529861D01*
X437122Y529901D01*
X437062Y529940D01*
X437007Y529987D01*
X436959Y530006D01*
X436915Y530034D01*
X436846Y530052D01*
X436779Y530079D01*
X436708Y530087D01*
X436677Y530095D01*
X436653Y530093D01*
X436612Y530097D01*
X421143Y530097D01*
X421052Y530083D01*
X420962Y530075D01*
X420932Y530063D01*
X420900Y530058D01*
X420819Y530015D01*
X420735Y529979D01*
X420703Y529953D01*
X420682Y529942D01*
X420680Y529940D01*
X420660Y529919D01*
X420604Y529874D01*
X420573Y529843D01*
X417627Y529843D01*
X402843Y544627D01*
X402843Y550658D01*
X402841Y550674D01*
X402842Y550688D01*
X402831Y550737D01*
X402830Y550801D01*
X402812Y550850D01*
X402804Y550901D01*
X402790Y550926D01*
X402790Y550928D01*
X402784Y550938D01*
X402770Y550964D01*
X402745Y551032D01*
X402713Y551072D01*
X402688Y551119D01*
X402636Y551168D01*
X402592Y551224D01*
X402548Y551252D01*
X402510Y551288D01*
X402445Y551318D01*
X402385Y551357D01*
X402334Y551370D01*
X402287Y551392D01*
X402216Y551399D01*
X402146Y551417D01*
X402094Y551413D01*
X402043Y551419D01*
X401972Y551403D01*
X401901Y551398D01*
X401853Y551377D01*
X401802Y551366D01*
X401741Y551330D01*
X401675Y551301D01*
X401625Y551262D01*
X401612Y551255D01*
X401607Y551250D01*
X401591Y551240D01*
X401576Y551222D01*
X401544Y551197D01*
X399887Y549540D01*
X395873Y547877D01*
X391527Y547877D01*
X387513Y549540D01*
X384440Y552613D01*
X382777Y556627D01*
X382777Y560973D01*
X384440Y564987D01*
X387513Y568060D01*
X391527Y569723D01*
X395873Y569723D01*
X399887Y568060D01*
X401544Y566403D01*
X401602Y566361D01*
X401654Y566312D01*
X401701Y566290D01*
X401743Y566260D01*
X401812Y566239D01*
X401877Y566208D01*
X401929Y566203D01*
X401979Y566187D01*
X402050Y566189D01*
X402121Y566181D01*
X402172Y566192D01*
X402224Y566194D01*
X402292Y566218D01*
X402362Y566234D01*
X402407Y566260D01*
X402455Y566278D01*
X402511Y566323D01*
X402573Y566360D01*
X402607Y566399D01*
X402647Y566432D01*
X402686Y566492D01*
X402733Y566547D01*
X402752Y566595D01*
X402780Y566639D01*
X402798Y566708D01*
X402825Y566775D01*
X402833Y566846D01*
X402841Y566877D01*
X402839Y566901D01*
X402843Y566942D01*
X402843Y569711D01*
X402842Y569718D01*
X402842Y569719D01*
X402841Y569723D01*
X402829Y569802D01*
X402821Y569892D01*
X402809Y569922D01*
X402804Y569954D01*
X402761Y570035D01*
X402725Y570119D01*
X402699Y570151D01*
X402688Y570172D01*
X402665Y570194D01*
X402620Y570250D01*
X398863Y574007D01*
X398768Y574076D01*
X398674Y574145D01*
X398668Y574147D01*
X398663Y574151D01*
X398551Y574185D01*
X398440Y574221D01*
X398434Y574221D01*
X398428Y574223D01*
X398311Y574220D01*
X398194Y574219D01*
X398187Y574217D01*
X398182Y574217D01*
X398165Y574210D01*
X398033Y574172D01*
X395873Y573277D01*
X391527Y573277D01*
X387513Y574940D01*
X384440Y578013D01*
X382777Y582027D01*
X382777Y586373D01*
X384440Y590387D01*
X387513Y593460D01*
X391527Y595123D01*
X395873Y595123D01*
X399887Y593460D01*
X402960Y590387D01*
X404623Y586373D01*
X404623Y582027D01*
X403728Y579867D01*
X403717Y579822D01*
X403698Y579781D01*
X403690Y579710D01*
X403673Y579640D01*
X403673Y579633D01*
X403672Y579627D01*
X403676Y579581D01*
X403671Y579536D01*
X403686Y579467D01*
X403692Y579394D01*
X403694Y579389D01*
X403695Y579382D01*
X403714Y579340D01*
X403723Y579296D01*
X403759Y579235D01*
X403788Y579168D01*
X403793Y579162D01*
X403795Y579158D01*
X403807Y579144D01*
X403834Y579111D01*
X403849Y579085D01*
X403866Y579070D01*
X403893Y579037D01*
X409957Y572973D01*
X409957Y566208D01*
X409971Y566118D01*
X409979Y566027D01*
X409991Y565998D01*
X409996Y565966D01*
X410039Y565885D01*
X410075Y565801D01*
X410101Y565769D01*
X410112Y565748D01*
X410135Y565726D01*
X410180Y565670D01*
X410211Y565639D01*
X410211Y551961D01*
X410180Y551930D01*
X410135Y551868D01*
X410106Y551838D01*
X410101Y551826D01*
X410067Y551787D01*
X410055Y551756D01*
X410036Y551730D01*
X410009Y551643D01*
X409975Y551558D01*
X409971Y551517D01*
X409964Y551495D01*
X409965Y551463D01*
X409957Y551392D01*
X409957Y547889D01*
X409971Y547798D01*
X409979Y547708D01*
X409991Y547678D01*
X409996Y547646D01*
X410039Y547565D01*
X410075Y547481D01*
X410101Y547449D01*
X410112Y547428D01*
X410135Y547406D01*
X410180Y547350D01*
X420096Y537434D01*
X420170Y537381D01*
X420240Y537321D01*
X420270Y537309D01*
X420296Y537290D01*
X420383Y537263D01*
X420468Y537229D01*
X420509Y537225D01*
X420531Y537218D01*
X420563Y537219D01*
X420635Y537211D01*
X458419Y537211D01*
X460726Y534904D01*
X464737Y530893D01*
X464832Y530825D01*
X464926Y530755D01*
X464932Y530753D01*
X464937Y530749D01*
X465048Y530715D01*
X465160Y530679D01*
X465166Y530679D01*
X465172Y530677D01*
X465289Y530680D01*
X465406Y530681D01*
X465413Y530683D01*
X465418Y530683D01*
X465435Y530690D01*
X465567Y530728D01*
X467727Y531623D01*
X472073Y531623D01*
X476087Y529960D01*
X479160Y526887D01*
X480823Y522873D01*
X480823Y518527D01*
X479160Y514513D01*
X476087Y511440D01*
X472073Y509777D01*
X467727Y509777D01*
X463713Y511440D01*
X460640Y514513D01*
X458977Y518527D01*
X458977Y522873D01*
X459872Y525033D01*
X459899Y525147D01*
X459927Y525260D01*
X459927Y525267D01*
X459928Y525273D01*
X459917Y525389D01*
X459908Y525506D01*
X459906Y525511D01*
X459905Y525518D01*
X459857Y525625D01*
X459812Y525732D01*
X459807Y525738D01*
X459805Y525742D01*
X459793Y525756D01*
X459707Y525863D01*
X455696Y529874D01*
X455622Y529927D01*
X455552Y529987D01*
X455522Y529999D01*
X455496Y530018D01*
X455409Y530045D01*
X455324Y530079D01*
X455283Y530083D01*
X455261Y530090D01*
X455229Y530089D01*
X455157Y530097D01*
X452388Y530097D01*
X452317Y530086D01*
X452245Y530084D01*
X452196Y530066D01*
X452145Y530058D01*
X452082Y530024D01*
X452014Y529999D01*
X451974Y529967D01*
X451927Y529942D01*
X451878Y529890D01*
X451822Y529846D01*
X451794Y529802D01*
X451758Y529764D01*
X451728Y529699D01*
X451689Y529639D01*
X451676Y529588D01*
X451654Y529541D01*
X451647Y529470D01*
X451629Y529400D01*
X451633Y529348D01*
X451627Y529297D01*
X451643Y529226D01*
X451648Y529155D01*
X451669Y529107D01*
X451680Y529056D01*
X451716Y528995D01*
X451745Y528929D01*
X451789Y528873D01*
X451806Y528845D01*
X451808Y528843D01*
X451809Y528842D01*
X451825Y528829D01*
X451849Y528798D01*
X453760Y526887D01*
X455423Y522873D01*
X455423Y518527D01*
X453760Y514513D01*
X450687Y511440D01*
X446673Y509777D01*
X442327Y509777D01*
G37*
%LPD*%
%LPC*%
G36*
X467727Y408177D02*
X467727Y408177D01*
X463713Y409840D01*
X460640Y412913D01*
X458977Y416927D01*
X458977Y421273D01*
X460640Y425287D01*
X463713Y428360D01*
X465873Y429255D01*
X465973Y429316D01*
X466073Y429376D01*
X466077Y429381D01*
X466082Y429384D01*
X466157Y429474D01*
X466233Y429563D01*
X466235Y429569D01*
X466239Y429574D01*
X466281Y429682D01*
X466325Y429791D01*
X466326Y429799D01*
X466327Y429803D01*
X466328Y429822D01*
X466343Y429958D01*
X466343Y430011D01*
X466338Y430046D01*
X466338Y430049D01*
X466336Y430055D01*
X466329Y430102D01*
X466321Y430192D01*
X466309Y430222D01*
X466304Y430254D01*
X466261Y430335D01*
X466225Y430419D01*
X466199Y430451D01*
X466188Y430472D01*
X466165Y430494D01*
X466120Y430550D01*
X455950Y440720D01*
X455876Y440773D01*
X455806Y440833D01*
X455776Y440845D01*
X455750Y440864D01*
X455663Y440891D01*
X455578Y440925D01*
X455537Y440929D01*
X455515Y440936D01*
X455483Y440935D01*
X455411Y440943D01*
X417881Y440943D01*
X415574Y443250D01*
X405186Y453638D01*
X405149Y453664D01*
X405118Y453698D01*
X405050Y453736D01*
X404987Y453781D01*
X404943Y453795D01*
X404903Y453817D01*
X404826Y453831D01*
X404752Y453854D01*
X404706Y453852D01*
X404661Y453861D01*
X404583Y453849D01*
X404506Y453847D01*
X404463Y453831D01*
X404417Y453825D01*
X404348Y453789D01*
X404275Y453763D01*
X404239Y453734D01*
X404198Y453713D01*
X404143Y453658D01*
X404083Y453609D01*
X404058Y453570D01*
X404026Y453538D01*
X403960Y453418D01*
X403950Y453402D01*
X403948Y453397D01*
X403945Y453391D01*
X402960Y451013D01*
X399887Y447940D01*
X395873Y446277D01*
X391527Y446277D01*
X387513Y447940D01*
X384440Y451013D01*
X382777Y455027D01*
X382777Y459373D01*
X384440Y463387D01*
X387513Y466460D01*
X391527Y468123D01*
X395873Y468123D01*
X399887Y466460D01*
X401798Y464549D01*
X401856Y464507D01*
X401908Y464458D01*
X401955Y464436D01*
X401997Y464406D01*
X402066Y464385D01*
X402131Y464354D01*
X402183Y464349D01*
X402233Y464333D01*
X402304Y464335D01*
X402375Y464327D01*
X402426Y464338D01*
X402478Y464340D01*
X402546Y464364D01*
X402616Y464380D01*
X402661Y464406D01*
X402709Y464424D01*
X402765Y464469D01*
X402827Y464506D01*
X402861Y464545D01*
X402901Y464578D01*
X402940Y464638D01*
X402987Y464693D01*
X403006Y464741D01*
X403034Y464785D01*
X403052Y464854D01*
X403079Y464921D01*
X403087Y464992D01*
X403095Y465023D01*
X403093Y465047D01*
X403097Y465088D01*
X403097Y467857D01*
X403083Y467948D01*
X403075Y468038D01*
X403063Y468068D01*
X403058Y468100D01*
X403015Y468181D01*
X402979Y468265D01*
X402953Y468297D01*
X402942Y468318D01*
X402919Y468340D01*
X402874Y468396D01*
X398863Y472407D01*
X398768Y472476D01*
X398674Y472545D01*
X398668Y472547D01*
X398663Y472551D01*
X398551Y472585D01*
X398440Y472621D01*
X398434Y472621D01*
X398428Y472623D01*
X398311Y472620D01*
X398194Y472619D01*
X398187Y472617D01*
X398182Y472617D01*
X398165Y472610D01*
X398033Y472572D01*
X395873Y471677D01*
X391527Y471677D01*
X387513Y473340D01*
X384440Y476413D01*
X382777Y480427D01*
X382777Y484773D01*
X384440Y488787D01*
X387513Y491860D01*
X391527Y493523D01*
X395873Y493523D01*
X399887Y491860D01*
X402960Y488787D01*
X404623Y484773D01*
X404623Y480427D01*
X403728Y478267D01*
X403701Y478153D01*
X403673Y478040D01*
X403673Y478033D01*
X403672Y478027D01*
X403683Y477911D01*
X403692Y477794D01*
X403694Y477789D01*
X403695Y477782D01*
X403743Y477675D01*
X403788Y477568D01*
X403793Y477562D01*
X403795Y477558D01*
X403807Y477544D01*
X403893Y477437D01*
X407904Y473426D01*
X410211Y471119D01*
X410211Y458989D01*
X410225Y458898D01*
X410233Y458808D01*
X410245Y458778D01*
X410250Y458746D01*
X410293Y458665D01*
X410329Y458581D01*
X410355Y458549D01*
X410366Y458528D01*
X410389Y458506D01*
X410434Y458450D01*
X420604Y448280D01*
X420678Y448227D01*
X420748Y448167D01*
X420778Y448155D01*
X420804Y448136D01*
X420891Y448109D01*
X420976Y448075D01*
X421017Y448071D01*
X421039Y448064D01*
X421071Y448065D01*
X421143Y448057D01*
X458673Y448057D01*
X473457Y433273D01*
X473457Y429958D01*
X473476Y429843D01*
X473493Y429727D01*
X473495Y429722D01*
X473496Y429715D01*
X473551Y429613D01*
X473604Y429508D01*
X473609Y429503D01*
X473612Y429498D01*
X473696Y429418D01*
X473780Y429336D01*
X473786Y429332D01*
X473790Y429329D01*
X473807Y429321D01*
X473927Y429255D01*
X476087Y428360D01*
X479160Y425287D01*
X480823Y421273D01*
X480823Y416927D01*
X479160Y412913D01*
X476087Y409840D01*
X472073Y408177D01*
X467727Y408177D01*
G37*
%LPD*%
%LPC*%
G36*
X424988Y449895D02*
X424988Y449895D01*
X424095Y450788D01*
X424095Y490212D01*
X424988Y491105D01*
X464412Y491105D01*
X465305Y490212D01*
X465305Y450788D01*
X464412Y449895D01*
X424988Y449895D01*
G37*
%LPD*%
%LPC*%
G36*
X424988Y551495D02*
X424988Y551495D01*
X424095Y552388D01*
X424095Y591812D01*
X424988Y592705D01*
X464412Y592705D01*
X465305Y591812D01*
X465305Y552388D01*
X464412Y551495D01*
X424988Y551495D01*
G37*
%LPD*%
%LPC*%
G36*
X135369Y437525D02*
X135369Y437525D01*
X127366Y440840D01*
X121240Y446966D01*
X117925Y454969D01*
X117925Y463631D01*
X121240Y471634D01*
X127366Y477760D01*
X135369Y481075D01*
X144031Y481075D01*
X152034Y477760D01*
X158160Y471634D01*
X161475Y463631D01*
X161475Y454969D01*
X158160Y446966D01*
X152034Y440840D01*
X144031Y437525D01*
X135369Y437525D01*
G37*
%LPD*%
%LPC*%
G36*
X36293Y349100D02*
X36293Y349100D01*
X35400Y349993D01*
X35400Y379007D01*
X36293Y379900D01*
X65307Y379900D01*
X66200Y379007D01*
X66200Y349993D01*
X65307Y349100D01*
X36293Y349100D01*
G37*
%LPD*%
%LPC*%
G36*
X76711Y547775D02*
X76711Y547775D01*
X71189Y550063D01*
X66963Y554289D01*
X64675Y559811D01*
X64675Y565789D01*
X66963Y571311D01*
X71189Y575537D01*
X76711Y577825D01*
X82689Y577825D01*
X88211Y575537D01*
X92437Y571311D01*
X94725Y565789D01*
X94725Y559811D01*
X92437Y554289D01*
X88211Y550063D01*
X82689Y547775D01*
X76711Y547775D01*
G37*
%LPD*%
%LPC*%
G36*
X416776Y229615D02*
X416776Y229615D01*
X412481Y231394D01*
X409194Y234681D01*
X407415Y238976D01*
X407415Y243624D01*
X409194Y247919D01*
X412481Y251206D01*
X416776Y252985D01*
X421424Y252985D01*
X425719Y251206D01*
X429006Y247919D01*
X430785Y243624D01*
X430785Y238976D01*
X429006Y234681D01*
X425719Y231394D01*
X421424Y229615D01*
X416776Y229615D01*
G37*
%LPD*%
%LPC*%
G36*
X182356Y563435D02*
X182356Y563435D01*
X179392Y564663D01*
X177123Y566932D01*
X175895Y569896D01*
X175895Y573104D01*
X177123Y576068D01*
X179392Y578337D01*
X182356Y579565D01*
X198644Y579565D01*
X201608Y578337D01*
X203877Y576068D01*
X205105Y573104D01*
X205105Y569896D01*
X203877Y566932D01*
X201608Y564663D01*
X198644Y563435D01*
X182356Y563435D01*
G37*
%LPD*%
%LPC*%
G36*
X182356Y284035D02*
X182356Y284035D01*
X179392Y285263D01*
X177123Y287532D01*
X175895Y290496D01*
X175895Y293704D01*
X177123Y296668D01*
X179392Y298937D01*
X182356Y300165D01*
X198644Y300165D01*
X201608Y298937D01*
X203877Y296668D01*
X205105Y293704D01*
X205105Y290496D01*
X203877Y287532D01*
X201608Y285263D01*
X198644Y284035D01*
X182356Y284035D01*
G37*
%LPD*%
%LPC*%
G36*
X334756Y360235D02*
X334756Y360235D01*
X331792Y361463D01*
X329523Y363732D01*
X328295Y366696D01*
X328295Y369904D01*
X329523Y372868D01*
X331792Y375137D01*
X334756Y376365D01*
X351044Y376365D01*
X354008Y375137D01*
X356277Y372868D01*
X357505Y369904D01*
X357505Y366696D01*
X356277Y363732D01*
X354008Y361463D01*
X351044Y360235D01*
X334756Y360235D01*
G37*
%LPD*%
%LPC*%
G36*
X182356Y538035D02*
X182356Y538035D01*
X179392Y539263D01*
X177123Y541532D01*
X175895Y544496D01*
X175895Y547704D01*
X177123Y550668D01*
X179392Y552937D01*
X182356Y554165D01*
X198644Y554165D01*
X201608Y552937D01*
X203877Y550668D01*
X205105Y547704D01*
X205105Y544496D01*
X203877Y541532D01*
X201608Y539263D01*
X198644Y538035D01*
X182356Y538035D01*
G37*
%LPD*%
%LPC*%
G36*
X334756Y538035D02*
X334756Y538035D01*
X331792Y539263D01*
X329523Y541532D01*
X328295Y544496D01*
X328295Y547704D01*
X329523Y550668D01*
X331792Y552937D01*
X334756Y554165D01*
X351044Y554165D01*
X354008Y552937D01*
X356277Y550668D01*
X357505Y547704D01*
X357505Y544496D01*
X356277Y541532D01*
X354008Y539263D01*
X351044Y538035D01*
X334756Y538035D01*
G37*
%LPD*%
%LPC*%
G36*
X182356Y360235D02*
X182356Y360235D01*
X179392Y361463D01*
X177123Y363732D01*
X175895Y366696D01*
X175895Y369904D01*
X177123Y372868D01*
X179392Y375137D01*
X182356Y376365D01*
X198644Y376365D01*
X201608Y375137D01*
X203877Y372868D01*
X205105Y369904D01*
X205105Y366696D01*
X203877Y363732D01*
X201608Y361463D01*
X198644Y360235D01*
X182356Y360235D01*
G37*
%LPD*%
%LPC*%
G36*
X334756Y258635D02*
X334756Y258635D01*
X331792Y259863D01*
X329523Y262132D01*
X328295Y265096D01*
X328295Y268304D01*
X329523Y271268D01*
X331792Y273537D01*
X334756Y274765D01*
X351044Y274765D01*
X354008Y273537D01*
X356277Y271268D01*
X357505Y268304D01*
X357505Y265096D01*
X356277Y262132D01*
X354008Y259863D01*
X351044Y258635D01*
X334756Y258635D01*
G37*
%LPD*%
%LPC*%
G36*
X334756Y512635D02*
X334756Y512635D01*
X331792Y513863D01*
X329523Y516132D01*
X328295Y519096D01*
X328295Y522304D01*
X329523Y525268D01*
X331792Y527537D01*
X334756Y528765D01*
X351044Y528765D01*
X354008Y527537D01*
X356277Y525268D01*
X357505Y522304D01*
X357505Y519096D01*
X356277Y516132D01*
X354008Y513863D01*
X351044Y512635D01*
X334756Y512635D01*
G37*
%LPD*%
%LPC*%
G36*
X182356Y512635D02*
X182356Y512635D01*
X179392Y513863D01*
X177123Y516132D01*
X175895Y519096D01*
X175895Y522304D01*
X177123Y525268D01*
X179392Y527537D01*
X182356Y528765D01*
X198644Y528765D01*
X201608Y527537D01*
X203877Y525268D01*
X205105Y522304D01*
X205105Y519096D01*
X203877Y516132D01*
X201608Y513863D01*
X198644Y512635D01*
X182356Y512635D01*
G37*
%LPD*%
%LPC*%
G36*
X182356Y487235D02*
X182356Y487235D01*
X179392Y488463D01*
X177123Y490732D01*
X175895Y493696D01*
X175895Y496904D01*
X177123Y499868D01*
X179392Y502137D01*
X182356Y503365D01*
X198644Y503365D01*
X201608Y502137D01*
X203877Y499868D01*
X205105Y496904D01*
X205105Y493696D01*
X203877Y490732D01*
X201608Y488463D01*
X198644Y487235D01*
X182356Y487235D01*
G37*
%LPD*%
%LPC*%
G36*
X334756Y284035D02*
X334756Y284035D01*
X331792Y285263D01*
X329523Y287532D01*
X328295Y290496D01*
X328295Y293704D01*
X329523Y296668D01*
X331792Y298937D01*
X334756Y300165D01*
X351044Y300165D01*
X354008Y298937D01*
X356277Y296668D01*
X357505Y293704D01*
X357505Y290496D01*
X356277Y287532D01*
X354008Y285263D01*
X351044Y284035D01*
X334756Y284035D01*
G37*
%LPD*%
%LPC*%
G36*
X334756Y588835D02*
X334756Y588835D01*
X331792Y590063D01*
X329523Y592332D01*
X328295Y595296D01*
X328295Y598504D01*
X329523Y601468D01*
X331792Y603737D01*
X334756Y604965D01*
X351044Y604965D01*
X354008Y603737D01*
X356277Y601468D01*
X357505Y598504D01*
X357505Y595296D01*
X356277Y592332D01*
X354008Y590063D01*
X351044Y588835D01*
X334756Y588835D01*
G37*
%LPD*%
%LPC*%
G36*
X182356Y258635D02*
X182356Y258635D01*
X179392Y259863D01*
X177123Y262132D01*
X175895Y265096D01*
X175895Y268304D01*
X177123Y271268D01*
X179392Y273537D01*
X182356Y274765D01*
X198644Y274765D01*
X201608Y273537D01*
X203877Y271268D01*
X205105Y268304D01*
X205105Y265096D01*
X203877Y262132D01*
X201608Y259863D01*
X198644Y258635D01*
X182356Y258635D01*
G37*
%LPD*%
%LPC*%
G36*
X334756Y461835D02*
X334756Y461835D01*
X331792Y463063D01*
X329523Y465332D01*
X328295Y468296D01*
X328295Y471504D01*
X329523Y474468D01*
X331792Y476737D01*
X334756Y477965D01*
X351044Y477965D01*
X354008Y476737D01*
X356277Y474468D01*
X357505Y471504D01*
X357505Y468296D01*
X356277Y465332D01*
X354008Y463063D01*
X351044Y461835D01*
X334756Y461835D01*
G37*
%LPD*%
%LPC*%
G36*
X182356Y461835D02*
X182356Y461835D01*
X179392Y463063D01*
X177123Y465332D01*
X175895Y468296D01*
X175895Y471504D01*
X177123Y474468D01*
X179392Y476737D01*
X182356Y477965D01*
X198644Y477965D01*
X201608Y476737D01*
X203877Y474468D01*
X205105Y471504D01*
X205105Y468296D01*
X203877Y465332D01*
X201608Y463063D01*
X198644Y461835D01*
X182356Y461835D01*
G37*
%LPD*%
%LPC*%
G36*
X334756Y309435D02*
X334756Y309435D01*
X331792Y310663D01*
X329523Y312932D01*
X328295Y315896D01*
X328295Y319104D01*
X329523Y322068D01*
X331792Y324337D01*
X334756Y325565D01*
X351044Y325565D01*
X354008Y324337D01*
X356277Y322068D01*
X357505Y319104D01*
X357505Y315896D01*
X356277Y312932D01*
X354008Y310663D01*
X351044Y309435D01*
X334756Y309435D01*
G37*
%LPD*%
%LPC*%
G36*
X334756Y334835D02*
X334756Y334835D01*
X331792Y336063D01*
X329523Y338332D01*
X328295Y341296D01*
X328295Y344504D01*
X329523Y347468D01*
X331792Y349737D01*
X334756Y350965D01*
X351044Y350965D01*
X354008Y349737D01*
X356277Y347468D01*
X357505Y344504D01*
X357505Y341296D01*
X356277Y338332D01*
X354008Y336063D01*
X351044Y334835D01*
X334756Y334835D01*
G37*
%LPD*%
%LPC*%
G36*
X334756Y233235D02*
X334756Y233235D01*
X331792Y234463D01*
X329523Y236732D01*
X328295Y239696D01*
X328295Y242904D01*
X329523Y245868D01*
X331792Y248137D01*
X334756Y249365D01*
X351044Y249365D01*
X354008Y248137D01*
X356277Y245868D01*
X357505Y242904D01*
X357505Y239696D01*
X356277Y236732D01*
X354008Y234463D01*
X351044Y233235D01*
X334756Y233235D01*
G37*
%LPD*%
%LPC*%
G36*
X334756Y436435D02*
X334756Y436435D01*
X331792Y437663D01*
X329523Y439932D01*
X328295Y442896D01*
X328295Y446104D01*
X329523Y449068D01*
X331792Y451337D01*
X334756Y452565D01*
X351044Y452565D01*
X354008Y451337D01*
X356277Y449068D01*
X357505Y446104D01*
X357505Y442896D01*
X356277Y439932D01*
X354008Y437663D01*
X351044Y436435D01*
X334756Y436435D01*
G37*
%LPD*%
%LPC*%
G36*
X182356Y436435D02*
X182356Y436435D01*
X179392Y437663D01*
X177123Y439932D01*
X175895Y442896D01*
X175895Y446104D01*
X177123Y449068D01*
X179392Y451337D01*
X182356Y452565D01*
X198644Y452565D01*
X201608Y451337D01*
X203877Y449068D01*
X205105Y446104D01*
X205105Y442896D01*
X203877Y439932D01*
X201608Y437663D01*
X198644Y436435D01*
X182356Y436435D01*
G37*
%LPD*%
%LPC*%
G36*
X182356Y334835D02*
X182356Y334835D01*
X179392Y336063D01*
X177123Y338332D01*
X175895Y341296D01*
X175895Y344504D01*
X177123Y347468D01*
X179392Y349737D01*
X182356Y350965D01*
X198644Y350965D01*
X201608Y349737D01*
X203877Y347468D01*
X205105Y344504D01*
X205105Y341296D01*
X203877Y338332D01*
X201608Y336063D01*
X198644Y334835D01*
X182356Y334835D01*
G37*
%LPD*%
%LPC*%
G36*
X334756Y487235D02*
X334756Y487235D01*
X331792Y488463D01*
X329523Y490732D01*
X328295Y493696D01*
X328295Y496904D01*
X329523Y499868D01*
X331792Y502137D01*
X334756Y503365D01*
X351044Y503365D01*
X354008Y502137D01*
X356277Y499868D01*
X357505Y496904D01*
X357505Y493696D01*
X356277Y490732D01*
X354008Y488463D01*
X351044Y487235D01*
X334756Y487235D01*
G37*
%LPD*%
%LPC*%
G36*
X182356Y309435D02*
X182356Y309435D01*
X179392Y310663D01*
X177123Y312932D01*
X175895Y315896D01*
X175895Y319104D01*
X177123Y322068D01*
X179392Y324337D01*
X182356Y325565D01*
X198644Y325565D01*
X201608Y324337D01*
X203877Y322068D01*
X205105Y319104D01*
X205105Y315896D01*
X203877Y312932D01*
X201608Y310663D01*
X198644Y309435D01*
X182356Y309435D01*
G37*
%LPD*%
%LPC*%
G36*
X182356Y411035D02*
X182356Y411035D01*
X179392Y412263D01*
X177123Y414532D01*
X175895Y417496D01*
X175895Y420704D01*
X177123Y423668D01*
X179392Y425937D01*
X182356Y427165D01*
X198644Y427165D01*
X201608Y425937D01*
X203877Y423668D01*
X205105Y420704D01*
X205105Y417496D01*
X203877Y414532D01*
X201608Y412263D01*
X198644Y411035D01*
X182356Y411035D01*
G37*
%LPD*%
%LPC*%
G36*
X334756Y411035D02*
X334756Y411035D01*
X331792Y412263D01*
X329523Y414532D01*
X328295Y417496D01*
X328295Y420704D01*
X329523Y423668D01*
X331792Y425937D01*
X334756Y427165D01*
X351044Y427165D01*
X354008Y425937D01*
X356277Y423668D01*
X357505Y420704D01*
X357505Y417496D01*
X356277Y414532D01*
X354008Y412263D01*
X351044Y411035D01*
X334756Y411035D01*
G37*
%LPD*%
%LPC*%
G36*
X182356Y233235D02*
X182356Y233235D01*
X179392Y234463D01*
X177123Y236732D01*
X175895Y239696D01*
X175895Y242904D01*
X177123Y245868D01*
X179392Y248137D01*
X182356Y249365D01*
X198644Y249365D01*
X201608Y248137D01*
X203877Y245868D01*
X205105Y242904D01*
X205105Y239696D01*
X203877Y236732D01*
X201608Y234463D01*
X198644Y233235D01*
X182356Y233235D01*
G37*
%LPD*%
%LPC*%
G36*
X334756Y563435D02*
X334756Y563435D01*
X331792Y564663D01*
X329523Y566932D01*
X328295Y569896D01*
X328295Y573104D01*
X329523Y576068D01*
X331792Y578337D01*
X334756Y579565D01*
X351044Y579565D01*
X354008Y578337D01*
X356277Y576068D01*
X357505Y573104D01*
X357505Y569896D01*
X356277Y566932D01*
X354008Y564663D01*
X351044Y563435D01*
X334756Y563435D01*
G37*
%LPD*%
%LPC*%
G36*
X334756Y385635D02*
X334756Y385635D01*
X331792Y386863D01*
X329523Y389132D01*
X328295Y392096D01*
X328295Y395304D01*
X329523Y398268D01*
X331792Y400537D01*
X334756Y401765D01*
X351044Y401765D01*
X354008Y400537D01*
X356277Y398268D01*
X357505Y395304D01*
X357505Y392096D01*
X356277Y389132D01*
X354008Y386863D01*
X351044Y385635D01*
X334756Y385635D01*
G37*
%LPD*%
%LPC*%
G36*
X182356Y385635D02*
X182356Y385635D01*
X179392Y386863D01*
X177123Y389132D01*
X175895Y392096D01*
X175895Y395304D01*
X177123Y398268D01*
X179392Y400537D01*
X182356Y401765D01*
X198644Y401765D01*
X201608Y400537D01*
X203877Y398268D01*
X205105Y395304D01*
X205105Y392096D01*
X203877Y389132D01*
X201608Y386863D01*
X198644Y385635D01*
X182356Y385635D01*
G37*
%LPD*%
%LPC*%
G36*
X341997Y27177D02*
X341997Y27177D01*
X337983Y28840D01*
X334910Y31913D01*
X333247Y35927D01*
X333247Y40273D01*
X334910Y44287D01*
X337983Y47360D01*
X341997Y49023D01*
X346343Y49023D01*
X350357Y47360D01*
X353430Y44287D01*
X355093Y40273D01*
X355093Y35927D01*
X353430Y31913D01*
X350357Y28840D01*
X346343Y27177D01*
X341997Y27177D01*
G37*
%LPD*%
%LPC*%
G36*
X314057Y27177D02*
X314057Y27177D01*
X310043Y28840D01*
X306970Y31913D01*
X305307Y35927D01*
X305307Y40273D01*
X306970Y44287D01*
X310043Y47360D01*
X314057Y49023D01*
X318403Y49023D01*
X322417Y47360D01*
X325490Y44287D01*
X327153Y40273D01*
X327153Y35927D01*
X325490Y31913D01*
X322417Y28840D01*
X318403Y27177D01*
X314057Y27177D01*
G37*
%LPD*%
%LPC*%
G36*
X288657Y27177D02*
X288657Y27177D01*
X284643Y28840D01*
X281570Y31913D01*
X279907Y35927D01*
X279907Y40273D01*
X281570Y44287D01*
X284643Y47360D01*
X288657Y49023D01*
X293003Y49023D01*
X297017Y47360D01*
X300090Y44287D01*
X301753Y40273D01*
X301753Y35927D01*
X300090Y31913D01*
X297017Y28840D01*
X293003Y27177D01*
X288657Y27177D01*
G37*
%LPD*%
%LPC*%
G36*
X263257Y27177D02*
X263257Y27177D01*
X259243Y28840D01*
X256170Y31913D01*
X254507Y35927D01*
X254507Y40273D01*
X256170Y44287D01*
X259243Y47360D01*
X263257Y49023D01*
X267603Y49023D01*
X271617Y47360D01*
X274690Y44287D01*
X276353Y40273D01*
X276353Y35927D01*
X274690Y31913D01*
X271617Y28840D01*
X267603Y27177D01*
X263257Y27177D01*
G37*
%LPD*%
%LPC*%
G36*
X223887Y27177D02*
X223887Y27177D01*
X219873Y28840D01*
X216800Y31913D01*
X215137Y35927D01*
X215137Y40273D01*
X216800Y44287D01*
X219873Y47360D01*
X223887Y49023D01*
X228233Y49023D01*
X232247Y47360D01*
X235320Y44287D01*
X236983Y40273D01*
X236983Y35927D01*
X235320Y31913D01*
X232247Y28840D01*
X228233Y27177D01*
X223887Y27177D01*
G37*
%LPD*%
%LPC*%
G36*
X391527Y522477D02*
X391527Y522477D01*
X387513Y524140D01*
X384440Y527213D01*
X382777Y531227D01*
X382777Y535573D01*
X384440Y539587D01*
X387513Y542660D01*
X391527Y544323D01*
X395873Y544323D01*
X399887Y542660D01*
X402960Y539587D01*
X404623Y535573D01*
X404623Y531227D01*
X402960Y527213D01*
X399887Y524140D01*
X395873Y522477D01*
X391527Y522477D01*
G37*
%LPD*%
%LPC*%
G36*
X493127Y509777D02*
X493127Y509777D01*
X489113Y511440D01*
X486040Y514513D01*
X484377Y518527D01*
X484377Y522873D01*
X486040Y526887D01*
X489113Y529960D01*
X493127Y531623D01*
X497473Y531623D01*
X501487Y529960D01*
X504560Y526887D01*
X506223Y522873D01*
X506223Y518527D01*
X504560Y514513D01*
X501487Y511440D01*
X497473Y509777D01*
X493127Y509777D01*
G37*
%LPD*%
%LPC*%
G36*
X157847Y27177D02*
X157847Y27177D01*
X153833Y28840D01*
X150760Y31913D01*
X149097Y35927D01*
X149097Y40273D01*
X150760Y44287D01*
X153833Y47360D01*
X157847Y49023D01*
X162193Y49023D01*
X166207Y47360D01*
X169280Y44287D01*
X170943Y40273D01*
X170943Y35927D01*
X169280Y31913D01*
X166207Y28840D01*
X162193Y27177D01*
X157847Y27177D01*
G37*
%LPD*%
%LPC*%
G36*
X132447Y27177D02*
X132447Y27177D01*
X128433Y28840D01*
X125360Y31913D01*
X123697Y35927D01*
X123697Y40273D01*
X125360Y44287D01*
X128433Y47360D01*
X132447Y49023D01*
X136793Y49023D01*
X140807Y47360D01*
X143880Y44287D01*
X145543Y40273D01*
X145543Y35927D01*
X143880Y31913D01*
X140807Y28840D01*
X136793Y27177D01*
X132447Y27177D01*
G37*
%LPD*%
%LPC*%
G36*
X90537Y27177D02*
X90537Y27177D01*
X86523Y28840D01*
X83450Y31913D01*
X81787Y35927D01*
X81787Y40273D01*
X83450Y44287D01*
X86523Y47360D01*
X90537Y49023D01*
X94883Y49023D01*
X98897Y47360D01*
X101970Y44287D01*
X103633Y40273D01*
X103633Y35927D01*
X101970Y31913D01*
X98897Y28840D01*
X94883Y27177D01*
X90537Y27177D01*
G37*
%LPD*%
%LPC*%
G36*
X65137Y27177D02*
X65137Y27177D01*
X61123Y28840D01*
X58050Y31913D01*
X56387Y35927D01*
X56387Y40273D01*
X58050Y44287D01*
X61123Y47360D01*
X65137Y49023D01*
X69483Y49023D01*
X73497Y47360D01*
X76570Y44287D01*
X78233Y40273D01*
X78233Y35927D01*
X76570Y31913D01*
X73497Y28840D01*
X69483Y27177D01*
X65137Y27177D01*
G37*
%LPD*%
%LPC*%
G36*
X391527Y420877D02*
X391527Y420877D01*
X387513Y422540D01*
X384440Y425613D01*
X382777Y429627D01*
X382777Y433973D01*
X384440Y437987D01*
X387513Y441060D01*
X391527Y442723D01*
X395873Y442723D01*
X399887Y441060D01*
X402960Y437987D01*
X404623Y433973D01*
X404623Y429627D01*
X402960Y425613D01*
X399887Y422540D01*
X395873Y420877D01*
X391527Y420877D01*
G37*
%LPD*%
%LPC*%
G36*
X493127Y408177D02*
X493127Y408177D01*
X489113Y409840D01*
X486040Y412913D01*
X484377Y416927D01*
X484377Y421273D01*
X486040Y425287D01*
X489113Y428360D01*
X493127Y430023D01*
X497473Y430023D01*
X501487Y428360D01*
X504560Y425287D01*
X506223Y421273D01*
X506223Y416927D01*
X504560Y412913D01*
X501487Y409840D01*
X497473Y408177D01*
X493127Y408177D01*
G37*
%LPD*%
%LPC*%
G36*
X442327Y408177D02*
X442327Y408177D01*
X438313Y409840D01*
X435240Y412913D01*
X433577Y416927D01*
X433577Y421273D01*
X435240Y425287D01*
X438313Y428360D01*
X442327Y430023D01*
X446673Y430023D01*
X450687Y428360D01*
X453760Y425287D01*
X455423Y421273D01*
X455423Y416927D01*
X453760Y412913D01*
X450687Y409840D01*
X446673Y408177D01*
X442327Y408177D01*
G37*
%LPD*%
%LPC*%
G36*
X391527Y344677D02*
X391527Y344677D01*
X387513Y346340D01*
X384440Y349413D01*
X382777Y353427D01*
X382777Y357773D01*
X384440Y361787D01*
X387513Y364860D01*
X391527Y366523D01*
X395873Y366523D01*
X399887Y364860D01*
X402960Y361787D01*
X404623Y357773D01*
X404623Y353427D01*
X402960Y349413D01*
X399887Y346340D01*
X395873Y344677D01*
X391527Y344677D01*
G37*
%LPD*%
%LPC*%
G36*
X391527Y319277D02*
X391527Y319277D01*
X387513Y320940D01*
X384440Y324013D01*
X382777Y328027D01*
X382777Y332373D01*
X384440Y336387D01*
X387513Y339460D01*
X391527Y341123D01*
X395873Y341123D01*
X399887Y339460D01*
X402960Y336387D01*
X404623Y332373D01*
X404623Y328027D01*
X402960Y324013D01*
X399887Y320940D01*
X395873Y319277D01*
X391527Y319277D01*
G37*
%LPD*%
%LPC*%
G36*
X442327Y306577D02*
X442327Y306577D01*
X438313Y308240D01*
X435240Y311313D01*
X433577Y315327D01*
X433577Y319673D01*
X435240Y323687D01*
X438313Y326760D01*
X442327Y328423D01*
X446673Y328423D01*
X450687Y326760D01*
X453760Y323687D01*
X455423Y319673D01*
X455423Y315327D01*
X453760Y311313D01*
X450687Y308240D01*
X446673Y306577D01*
X442327Y306577D01*
G37*
%LPD*%
%LPC*%
G36*
X493127Y306577D02*
X493127Y306577D01*
X489113Y308240D01*
X486040Y311313D01*
X484377Y315327D01*
X484377Y319673D01*
X486040Y323687D01*
X489113Y326760D01*
X493127Y328423D01*
X497473Y328423D01*
X501487Y326760D01*
X504560Y323687D01*
X506223Y319673D01*
X506223Y315327D01*
X504560Y311313D01*
X501487Y308240D01*
X497473Y306577D01*
X493127Y306577D01*
G37*
%LPD*%
%LPC*%
G36*
X446137Y27177D02*
X446137Y27177D01*
X442123Y28840D01*
X439050Y31913D01*
X437387Y35927D01*
X437387Y40273D01*
X439050Y44287D01*
X442123Y47360D01*
X446137Y49023D01*
X450483Y49023D01*
X454497Y47360D01*
X457570Y44287D01*
X459233Y40273D01*
X459233Y35927D01*
X457570Y31913D01*
X454497Y28840D01*
X450483Y27177D01*
X446137Y27177D01*
G37*
%LPD*%
%LPC*%
G36*
X442327Y166877D02*
X442327Y166877D01*
X438313Y168540D01*
X435240Y171613D01*
X433577Y175627D01*
X433577Y179973D01*
X435240Y183987D01*
X438313Y187060D01*
X442327Y188723D01*
X446673Y188723D01*
X450687Y187060D01*
X453760Y183987D01*
X455423Y179973D01*
X455423Y175627D01*
X453760Y171613D01*
X450687Y168540D01*
X446673Y166877D01*
X442327Y166877D01*
G37*
%LPD*%
%LPC*%
G36*
X467727Y166877D02*
X467727Y166877D01*
X463713Y168540D01*
X460640Y171613D01*
X458977Y175627D01*
X458977Y179973D01*
X460640Y183987D01*
X463713Y187060D01*
X467727Y188723D01*
X472073Y188723D01*
X476087Y187060D01*
X479160Y183987D01*
X480823Y179973D01*
X480823Y175627D01*
X479160Y171613D01*
X476087Y168540D01*
X472073Y166877D01*
X467727Y166877D01*
G37*
%LPD*%
%LPC*%
G36*
X420737Y27177D02*
X420737Y27177D01*
X416723Y28840D01*
X413650Y31913D01*
X411987Y35927D01*
X411987Y40273D01*
X413650Y44287D01*
X416723Y47360D01*
X420737Y49023D01*
X425083Y49023D01*
X429097Y47360D01*
X432170Y44287D01*
X433833Y40273D01*
X433833Y35927D01*
X432170Y31913D01*
X429097Y28840D01*
X425083Y27177D01*
X420737Y27177D01*
G37*
%LPD*%
%LPC*%
G36*
X471537Y27177D02*
X471537Y27177D01*
X467523Y28840D01*
X464450Y31913D01*
X462787Y35927D01*
X462787Y40273D01*
X464450Y44287D01*
X467523Y47360D01*
X471537Y49023D01*
X475883Y49023D01*
X479897Y47360D01*
X482970Y44287D01*
X484633Y40273D01*
X484633Y35927D01*
X482970Y31913D01*
X479897Y28840D01*
X475883Y27177D01*
X471537Y27177D01*
G37*
%LPD*%
%LPC*%
G36*
X392797Y27177D02*
X392797Y27177D01*
X388783Y28840D01*
X385710Y31913D01*
X384047Y35927D01*
X384047Y40273D01*
X385710Y44287D01*
X388783Y47360D01*
X392797Y49023D01*
X397143Y49023D01*
X401157Y47360D01*
X404230Y44287D01*
X405893Y40273D01*
X405893Y35927D01*
X404230Y31913D01*
X401157Y28840D01*
X397143Y27177D01*
X392797Y27177D01*
G37*
%LPD*%
%LPC*%
G36*
X367397Y27177D02*
X367397Y27177D01*
X363383Y28840D01*
X360310Y31913D01*
X358647Y35927D01*
X358647Y40273D01*
X360310Y44287D01*
X363383Y47360D01*
X367397Y49023D01*
X371743Y49023D01*
X375757Y47360D01*
X378830Y44287D01*
X380493Y40273D01*
X380493Y35927D01*
X378830Y31913D01*
X375757Y28840D01*
X371743Y27177D01*
X367397Y27177D01*
G37*
%LPD*%
%LPC*%
G36*
X496223Y573623D02*
X496223Y573623D01*
X496223Y593707D01*
X498927Y593351D01*
X501665Y592617D01*
X504283Y591533D01*
X506738Y590116D01*
X508986Y588390D01*
X510990Y586386D01*
X512716Y584138D01*
X514133Y581683D01*
X515217Y579065D01*
X515951Y576327D01*
X516307Y573623D01*
X496223Y573623D01*
G37*
%LPD*%
%LPC*%
G36*
X496223Y472023D02*
X496223Y472023D01*
X496223Y492107D01*
X498927Y491751D01*
X501665Y491017D01*
X504283Y489933D01*
X506738Y488516D01*
X508986Y486790D01*
X510990Y484786D01*
X512716Y482538D01*
X514133Y480083D01*
X515217Y477465D01*
X515951Y474727D01*
X516307Y472023D01*
X496223Y472023D01*
G37*
%LPD*%
%LPC*%
G36*
X496223Y370423D02*
X496223Y370423D01*
X496223Y390507D01*
X498927Y390151D01*
X501665Y389417D01*
X504283Y388333D01*
X506738Y386916D01*
X508986Y385190D01*
X510990Y383186D01*
X512716Y380938D01*
X514133Y378483D01*
X515217Y375865D01*
X515951Y373127D01*
X516307Y370423D01*
X496223Y370423D01*
G37*
%LPD*%
%LPC*%
G36*
X473093Y573623D02*
X473093Y573623D01*
X473449Y576327D01*
X474183Y579065D01*
X475267Y581683D01*
X476684Y584138D01*
X478410Y586386D01*
X480414Y588390D01*
X482662Y590116D01*
X485117Y591533D01*
X487735Y592617D01*
X490473Y593351D01*
X493177Y593707D01*
X493177Y573623D01*
X473093Y573623D01*
G37*
%LPD*%
%LPC*%
G36*
X473093Y370423D02*
X473093Y370423D01*
X473449Y373127D01*
X474183Y375865D01*
X475267Y378483D01*
X476684Y380938D01*
X478410Y383186D01*
X480414Y385190D01*
X482662Y386916D01*
X485117Y388333D01*
X487735Y389417D01*
X490473Y390151D01*
X493177Y390507D01*
X493177Y370423D01*
X473093Y370423D01*
G37*
%LPD*%
%LPC*%
G36*
X496223Y570577D02*
X496223Y570577D01*
X516307Y570577D01*
X515951Y567873D01*
X515217Y565135D01*
X514133Y562517D01*
X512716Y560062D01*
X510990Y557814D01*
X508986Y555810D01*
X506738Y554084D01*
X504283Y552667D01*
X501665Y551583D01*
X498927Y550849D01*
X496223Y550493D01*
X496223Y570577D01*
G37*
%LPD*%
%LPC*%
G36*
X473093Y472023D02*
X473093Y472023D01*
X473449Y474727D01*
X474183Y477465D01*
X475267Y480083D01*
X476684Y482538D01*
X478410Y484786D01*
X480414Y486790D01*
X482662Y488516D01*
X485117Y489933D01*
X487735Y491017D01*
X490473Y491751D01*
X493177Y492107D01*
X493177Y472023D01*
X473093Y472023D01*
G37*
%LPD*%
%LPC*%
G36*
X496223Y468977D02*
X496223Y468977D01*
X516307Y468977D01*
X515951Y466273D01*
X515217Y463535D01*
X514133Y460917D01*
X512716Y458462D01*
X510990Y456214D01*
X508986Y454210D01*
X506738Y452484D01*
X504283Y451067D01*
X501665Y449983D01*
X498927Y449249D01*
X496223Y448893D01*
X496223Y468977D01*
G37*
%LPD*%
%LPC*%
G36*
X496223Y367377D02*
X496223Y367377D01*
X516307Y367377D01*
X515951Y364673D01*
X515217Y361935D01*
X514133Y359317D01*
X512716Y356862D01*
X510990Y354614D01*
X508986Y352610D01*
X506738Y350884D01*
X504283Y349467D01*
X501665Y348383D01*
X498927Y347649D01*
X496223Y347293D01*
X496223Y367377D01*
G37*
%LPD*%
%LPC*%
G36*
X490473Y550849D02*
X490473Y550849D01*
X487735Y551583D01*
X485117Y552667D01*
X482662Y554084D01*
X480414Y555810D01*
X478410Y557814D01*
X476684Y560062D01*
X475267Y562517D01*
X474183Y565135D01*
X473449Y567873D01*
X473093Y570577D01*
X493177Y570577D01*
X493177Y550493D01*
X490473Y550849D01*
G37*
%LPD*%
%LPC*%
G36*
X490473Y449249D02*
X490473Y449249D01*
X487735Y449983D01*
X485117Y451067D01*
X482662Y452484D01*
X480414Y454210D01*
X478410Y456214D01*
X476684Y458462D01*
X475267Y460917D01*
X474183Y463535D01*
X473449Y466273D01*
X473093Y468977D01*
X493177Y468977D01*
X493177Y448893D01*
X490473Y449249D01*
G37*
%LPD*%
%LPC*%
G36*
X490473Y347649D02*
X490473Y347649D01*
X487735Y348383D01*
X485117Y349467D01*
X482662Y350884D01*
X480414Y352610D01*
X478410Y354614D01*
X476684Y356862D01*
X475267Y359317D01*
X474183Y361935D01*
X473449Y364673D01*
X473093Y367377D01*
X493177Y367377D01*
X493177Y347293D01*
X490473Y347649D01*
G37*
%LPD*%
%LPC*%
G36*
X110354Y318134D02*
X110354Y318134D01*
X104774Y323714D01*
X104774Y331606D01*
X110354Y337186D01*
X118246Y337186D01*
X123826Y331606D01*
X123826Y323714D01*
X118246Y318134D01*
X110354Y318134D01*
G37*
%LPD*%
%LPC*%
G36*
X148454Y226694D02*
X148454Y226694D01*
X142874Y232274D01*
X142874Y240166D01*
X148454Y245746D01*
X156346Y245746D01*
X161926Y240166D01*
X161926Y232274D01*
X156346Y226694D01*
X148454Y226694D01*
G37*
%LPD*%
%LPC*%
G36*
X148454Y252094D02*
X148454Y252094D01*
X142874Y257674D01*
X142874Y265566D01*
X148454Y271146D01*
X156346Y271146D01*
X161926Y265566D01*
X161926Y257674D01*
X156346Y252094D01*
X148454Y252094D01*
G37*
%LPD*%
%LPC*%
G36*
X110354Y252094D02*
X110354Y252094D01*
X104774Y257674D01*
X104774Y265566D01*
X110354Y271146D01*
X118246Y271146D01*
X123826Y265566D01*
X123826Y257674D01*
X118246Y252094D01*
X110354Y252094D01*
G37*
%LPD*%
%LPC*%
G36*
X110354Y226694D02*
X110354Y226694D01*
X104774Y232274D01*
X104774Y240166D01*
X110354Y245746D01*
X118246Y245746D01*
X123826Y240166D01*
X123826Y232274D01*
X118246Y226694D01*
X110354Y226694D01*
G37*
%LPD*%
%LPC*%
G36*
X148454Y318134D02*
X148454Y318134D01*
X142874Y323714D01*
X142874Y331606D01*
X148454Y337186D01*
X156346Y337186D01*
X161926Y331606D01*
X161926Y323714D01*
X156346Y318134D01*
X148454Y318134D01*
G37*
%LPD*%
%LPC*%
G36*
X110354Y385444D02*
X110354Y385444D01*
X104774Y391024D01*
X104774Y398916D01*
X110354Y404496D01*
X118246Y404496D01*
X123826Y398916D01*
X123826Y391024D01*
X118246Y385444D01*
X110354Y385444D01*
G37*
%LPD*%
%LPC*%
G36*
X147184Y385444D02*
X147184Y385444D01*
X141604Y391024D01*
X141604Y398916D01*
X147184Y404496D01*
X155076Y404496D01*
X160656Y398916D01*
X160656Y391024D01*
X155076Y385444D01*
X147184Y385444D01*
G37*
%LPD*%
%LPC*%
G36*
X290496Y245935D02*
X290496Y245935D01*
X287532Y247163D01*
X285263Y249432D01*
X284035Y252396D01*
X284035Y255604D01*
X285263Y258568D01*
X287532Y260837D01*
X290496Y262065D01*
X293704Y262065D01*
X296668Y260837D01*
X298937Y258568D01*
X300165Y255604D01*
X300165Y252396D01*
X298937Y249432D01*
X296668Y247163D01*
X293704Y245935D01*
X290496Y245935D01*
G37*
%LPD*%
%LPC*%
G36*
X265096Y220535D02*
X265096Y220535D01*
X262132Y221763D01*
X259863Y224032D01*
X258635Y226996D01*
X258635Y230204D01*
X259863Y233168D01*
X262132Y235437D01*
X265096Y236665D01*
X268304Y236665D01*
X271268Y235437D01*
X273537Y233168D01*
X274765Y230204D01*
X274765Y226996D01*
X273537Y224032D01*
X271268Y221763D01*
X268304Y220535D01*
X265096Y220535D01*
G37*
%LPD*%
%LPC*%
G36*
X290496Y220535D02*
X290496Y220535D01*
X287532Y221763D01*
X285263Y224032D01*
X284035Y226996D01*
X284035Y230204D01*
X285263Y233168D01*
X287532Y235437D01*
X290496Y236665D01*
X293704Y236665D01*
X296668Y235437D01*
X298937Y233168D01*
X300165Y230204D01*
X300165Y226996D01*
X298937Y224032D01*
X296668Y221763D01*
X293704Y220535D01*
X290496Y220535D01*
G37*
%LPD*%
%LPC*%
G36*
X265096Y245935D02*
X265096Y245935D01*
X262132Y247163D01*
X259863Y249432D01*
X258635Y252396D01*
X258635Y255604D01*
X259863Y258568D01*
X262132Y260837D01*
X265096Y262065D01*
X268304Y262065D01*
X271268Y260837D01*
X273537Y258568D01*
X274765Y255604D01*
X274765Y252396D01*
X273537Y249432D01*
X271268Y247163D01*
X268304Y245935D01*
X265096Y245935D01*
G37*
%LPD*%
%LPC*%
G36*
X52323Y272023D02*
X52323Y272023D01*
X52323Y286857D01*
X54010Y286635D01*
X56088Y286078D01*
X58076Y285254D01*
X59940Y284179D01*
X61647Y282868D01*
X63168Y281347D01*
X64479Y279640D01*
X65554Y277776D01*
X66378Y275788D01*
X66935Y273710D01*
X67157Y272023D01*
X52323Y272023D01*
G37*
%LPD*%
%LPC*%
G36*
X52323Y268977D02*
X52323Y268977D01*
X67157Y268977D01*
X66935Y267290D01*
X66378Y265212D01*
X65554Y263224D01*
X64479Y261360D01*
X63168Y259653D01*
X61647Y258132D01*
X59940Y256821D01*
X58076Y255746D01*
X56088Y254922D01*
X54010Y254365D01*
X52323Y254143D01*
X52323Y268977D01*
G37*
%LPD*%
%LPC*%
G36*
X420623Y280923D02*
X420623Y280923D01*
X420623Y292018D01*
X422074Y291788D01*
X423975Y291170D01*
X425757Y290263D01*
X427374Y289087D01*
X428787Y287674D01*
X429963Y286057D01*
X430870Y284275D01*
X431488Y282374D01*
X431718Y280923D01*
X420623Y280923D01*
G37*
%LPD*%
%LPC*%
G36*
X420623Y277877D02*
X420623Y277877D01*
X431718Y277877D01*
X431488Y276426D01*
X430870Y274525D01*
X429963Y272743D01*
X428787Y271126D01*
X427374Y269713D01*
X425757Y268537D01*
X423975Y267630D01*
X422074Y267012D01*
X420623Y266782D01*
X420623Y277877D01*
G37*
%LPD*%
%LPC*%
G36*
X406482Y280923D02*
X406482Y280923D01*
X406712Y282374D01*
X407330Y284275D01*
X408237Y286057D01*
X409413Y287674D01*
X410826Y289087D01*
X412443Y290263D01*
X414225Y291170D01*
X416126Y291788D01*
X417577Y292018D01*
X417577Y280923D01*
X406482Y280923D01*
G37*
%LPD*%
%LPC*%
G36*
X416126Y267012D02*
X416126Y267012D01*
X414225Y267630D01*
X412443Y268537D01*
X410826Y269713D01*
X409413Y271126D01*
X408237Y272743D01*
X407330Y274525D01*
X406712Y276426D01*
X406482Y277877D01*
X417577Y277877D01*
X417577Y266782D01*
X416126Y267012D01*
G37*
%LPD*%
%LPC*%
G36*
X202183Y39623D02*
X202183Y39623D01*
X202183Y49946D01*
X203456Y49745D01*
X205243Y49164D01*
X206917Y48311D01*
X208438Y47206D01*
X209766Y45878D01*
X210871Y44357D01*
X211724Y42683D01*
X212305Y40896D01*
X212506Y39623D01*
X202183Y39623D01*
G37*
%LPD*%
%LPC*%
G36*
X188814Y39623D02*
X188814Y39623D01*
X189015Y40896D01*
X189596Y42683D01*
X190449Y44357D01*
X191554Y45878D01*
X192882Y47206D01*
X194403Y48311D01*
X196077Y49164D01*
X197864Y49745D01*
X199137Y49946D01*
X199137Y39623D01*
X188814Y39623D01*
G37*
%LPD*%
%LPC*%
G36*
X202183Y36577D02*
X202183Y36577D01*
X212506Y36577D01*
X212305Y35304D01*
X211724Y33517D01*
X210871Y31843D01*
X209766Y30322D01*
X208438Y28994D01*
X206917Y27889D01*
X205243Y27036D01*
X203456Y26455D01*
X202183Y26254D01*
X202183Y36577D01*
G37*
%LPD*%
%LPC*%
G36*
X197864Y26455D02*
X197864Y26455D01*
X196077Y27036D01*
X194403Y27889D01*
X192882Y28994D01*
X191554Y30322D01*
X190449Y31843D01*
X189596Y33517D01*
X189015Y35304D01*
X188814Y36577D01*
X199137Y36577D01*
X199137Y26254D01*
X197864Y26455D01*
G37*
%LPD*%
%LPC*%
G36*
X115823Y303783D02*
X115823Y303783D01*
X115823Y312802D01*
X118667Y312802D01*
X124842Y306627D01*
X124842Y303783D01*
X115823Y303783D01*
G37*
%LPD*%
%LPC*%
G36*
X153923Y303783D02*
X153923Y303783D01*
X153923Y312802D01*
X156767Y312802D01*
X162942Y306627D01*
X162942Y303783D01*
X153923Y303783D01*
G37*
%LPD*%
%LPC*%
G36*
X103758Y303783D02*
X103758Y303783D01*
X103758Y306627D01*
X109933Y312802D01*
X112777Y312802D01*
X112777Y303783D01*
X103758Y303783D01*
G37*
%LPD*%
%LPC*%
G36*
X141858Y303783D02*
X141858Y303783D01*
X141858Y306627D01*
X148033Y312802D01*
X150877Y312802D01*
X150877Y303783D01*
X141858Y303783D01*
G37*
%LPD*%
%LPC*%
G36*
X115823Y291718D02*
X115823Y291718D01*
X115823Y300737D01*
X124842Y300737D01*
X124842Y297893D01*
X118667Y291718D01*
X115823Y291718D01*
G37*
%LPD*%
%LPC*%
G36*
X153923Y291718D02*
X153923Y291718D01*
X153923Y300737D01*
X162942Y300737D01*
X162942Y297893D01*
X156767Y291718D01*
X153923Y291718D01*
G37*
%LPD*%
%LPC*%
G36*
X148033Y291718D02*
X148033Y291718D01*
X141858Y297893D01*
X141858Y300737D01*
X150877Y300737D01*
X150877Y291718D01*
X148033Y291718D01*
G37*
%LPD*%
%LPC*%
G36*
X109933Y291718D02*
X109933Y291718D01*
X103758Y297893D01*
X103758Y300737D01*
X112777Y300737D01*
X112777Y291718D01*
X109933Y291718D01*
G37*
%LPD*%
%LPC*%
G36*
X419099Y279399D02*
X419099Y279399D01*
X419099Y279401D01*
X419101Y279401D01*
X419101Y279399D01*
X419099Y279399D01*
G37*
%LPD*%
%LPC*%
G36*
X494699Y470499D02*
X494699Y470499D01*
X494699Y470501D01*
X494701Y470501D01*
X494701Y470499D01*
X494699Y470499D01*
G37*
%LPD*%
%LPC*%
G36*
X494699Y572099D02*
X494699Y572099D01*
X494699Y572101D01*
X494701Y572101D01*
X494701Y572099D01*
X494699Y572099D01*
G37*
%LPD*%
%LPC*%
G36*
X152399Y302259D02*
X152399Y302259D01*
X152399Y302261D01*
X152401Y302261D01*
X152401Y302259D01*
X152399Y302259D01*
G37*
%LPD*%
%LPC*%
G36*
X494699Y368899D02*
X494699Y368899D01*
X494699Y368901D01*
X494701Y368901D01*
X494701Y368899D01*
X494699Y368899D01*
G37*
%LPD*%
%LPC*%
G36*
X200659Y38099D02*
X200659Y38099D01*
X200659Y38101D01*
X200661Y38101D01*
X200661Y38099D01*
X200659Y38099D01*
G37*
%LPD*%
%LPC*%
G36*
X114299Y302259D02*
X114299Y302259D01*
X114299Y302261D01*
X114301Y302261D01*
X114301Y302259D01*
X114299Y302259D01*
G37*
%LPD*%
D10*
X226060Y38100D03*
X200660Y38100D03*
X160020Y38100D03*
X134620Y38100D03*
D11*
X114300Y302260D03*
X114300Y327660D03*
X152400Y302260D03*
X152400Y327660D03*
X114300Y369570D03*
X114300Y394970D03*
X151130Y369570D03*
X151130Y394970D03*
D12*
X336360Y241300D02*
X349440Y241300D01*
X349440Y266700D02*
X336360Y266700D01*
X336360Y292100D02*
X349440Y292100D01*
X349440Y317500D02*
X336360Y317500D01*
X336360Y342900D02*
X349440Y342900D01*
X349440Y368300D02*
X336360Y368300D01*
X336360Y393700D02*
X349440Y393700D01*
X349440Y419100D02*
X336360Y419100D01*
X336360Y444500D02*
X349440Y444500D01*
X349440Y469900D02*
X336360Y469900D01*
X336360Y495300D02*
X349440Y495300D01*
X349440Y520700D02*
X336360Y520700D01*
X197040Y241300D02*
X183960Y241300D01*
X183960Y266700D02*
X197040Y266700D01*
X197040Y292100D02*
X183960Y292100D01*
X183960Y444500D02*
X197040Y444500D01*
X197040Y469900D02*
X183960Y469900D01*
X183960Y495300D02*
X197040Y495300D01*
X197040Y520700D02*
X183960Y520700D01*
X183960Y596900D02*
X197040Y596900D01*
X336360Y596900D02*
X349440Y596900D01*
X349440Y571500D02*
X336360Y571500D01*
X336360Y546100D02*
X349440Y546100D01*
X197040Y571500D02*
X183960Y571500D01*
X183960Y546100D02*
X197040Y546100D01*
X197040Y317500D02*
X183960Y317500D01*
D13*
X241300Y254000D03*
X266700Y254000D03*
X292100Y254000D03*
D12*
X197040Y419100D02*
X183960Y419100D01*
X183960Y393700D02*
X197040Y393700D01*
X197040Y368300D02*
X183960Y368300D01*
X183960Y342900D02*
X197040Y342900D01*
D13*
X241300Y228600D03*
X266700Y228600D03*
X292100Y228600D03*
D10*
X92710Y38100D03*
X67310Y38100D03*
D14*
X50800Y364500D03*
D15*
X50800Y317500D03*
X50800Y270500D03*
D16*
X368300Y127000D03*
D17*
X368300Y177800D03*
X368300Y203200D03*
D16*
X368300Y152400D03*
X63500Y76200D03*
D17*
X63500Y127000D03*
X63500Y152400D03*
D16*
X63500Y101600D03*
D10*
X393700Y584200D03*
X393700Y558800D03*
X393700Y533400D03*
X393700Y482600D03*
X393700Y457200D03*
X393700Y431800D03*
X393700Y381000D03*
X393700Y355600D03*
X393700Y330200D03*
X444500Y177800D03*
X469900Y177800D03*
D18*
X495300Y241300D03*
X419100Y241300D03*
D11*
X114300Y236220D03*
X114300Y261620D03*
X152400Y236220D03*
X152400Y261620D03*
D10*
X444500Y101600D03*
X469900Y101600D03*
D18*
X419100Y279400D03*
X495300Y279400D03*
D10*
X444500Y520700D03*
X469900Y520700D03*
X495300Y520700D03*
X444500Y419100D03*
X469900Y419100D03*
X495300Y419100D03*
X444500Y317500D03*
X469900Y317500D03*
X495300Y317500D03*
D19*
X139700Y459300D03*
X139700Y531300D03*
D20*
X79700Y562800D03*
X79700Y427800D03*
D21*
X494700Y572100D03*
D22*
X444700Y572100D03*
D21*
X494700Y470500D03*
D22*
X444700Y470500D03*
D21*
X494700Y368900D03*
D22*
X444700Y368900D03*
D10*
X316230Y38100D03*
X290830Y38100D03*
X265430Y38100D03*
X394970Y38100D03*
X369570Y38100D03*
X344170Y38100D03*
X473710Y38100D03*
X448310Y38100D03*
X422910Y38100D03*
D23*
X450596Y107696D02*
X450596Y109596D01*
X450596Y107696D02*
X444500Y101600D01*
X495300Y269678D02*
X495300Y279400D01*
X495300Y269678D02*
X515366Y249612D01*
X515366Y174366D01*
X450596Y109596D01*
D24*
X424147Y346264D02*
X422064Y348347D01*
X424147Y346264D02*
X441136Y346264D01*
X469900Y317500D01*
X422064Y352636D02*
X393700Y381000D01*
X422064Y352636D02*
X422064Y348347D01*
D23*
X152400Y302260D02*
X114300Y302260D01*
X59700Y279400D02*
X50800Y270500D01*
X59700Y279400D02*
X87630Y279400D01*
X100965Y292735D01*
X110490Y302260D01*
X114300Y302260D01*
D24*
X456946Y533654D02*
X469900Y520700D01*
X419354Y533654D02*
X419100Y533400D01*
X406400Y546100D01*
X406400Y553180D01*
X406654Y553434D01*
X406654Y564166D01*
X406400Y564420D01*
X406400Y571500D01*
X393700Y584200D01*
X419354Y533654D02*
X456946Y533654D01*
X393700Y482600D02*
X406654Y469646D01*
X406654Y457200D01*
X419354Y444500D01*
X457200Y444500D01*
X469900Y431800D01*
X469900Y419100D01*
D23*
X368300Y190500D02*
X368300Y177800D01*
X368300Y190500D02*
X368300Y203200D01*
X139700Y531300D02*
X127000Y531300D01*
X115350Y519650D01*
X51850Y456150D01*
X51850Y419320D02*
X101600Y369570D01*
X51850Y419320D02*
X51850Y456150D01*
X352234Y206566D02*
X368300Y190500D01*
X224854Y592344D02*
X203852Y613346D01*
X224854Y592344D02*
X224854Y221788D01*
X240076Y206566D01*
X352234Y206566D01*
X115350Y519650D02*
X115350Y576296D01*
X152400Y613346D01*
X203852Y613346D01*
X114300Y369570D02*
X101600Y369570D01*
X114300Y369570D02*
X151130Y369570D01*
X63500Y152400D02*
X63500Y139700D01*
X63500Y127000D01*
X25400Y292100D02*
X50800Y317500D01*
X25400Y292100D02*
X25400Y177800D01*
X63500Y139700D01*
M02*
