G04 EAGLE Gerber RS-274X export*
G75*
%MOMM*%
%FSLAX34Y34*%
%LPD*%
%INSoldermask Top*%
%IPPOS*%
%AMOC8*
5,1,8,0,0,1.08239X$1,22.5*%
G01*
%ADD10C,3.203194*%
%ADD11C,2.082800*%
%ADD12P,1.951982X8X112.500000*%
%ADD13C,1.511200*%
%ADD14C,1.511200*%
%ADD15R,2.978200X2.978200*%
%ADD16C,2.978200*%
%ADD17R,2.387600X2.387600*%
%ADD18C,2.387600*%
%ADD19C,4.253200*%
%ADD20C,2.903200*%
%ADD21C,4.019200*%
%ADD22R,4.019200X4.019200*%

G36*
X495261Y236203D02*
X495261Y236203D01*
X495387Y236202D01*
X496398Y236341D01*
X496446Y236357D01*
X496536Y236376D01*
X497491Y236738D01*
X497534Y236764D01*
X497618Y236803D01*
X498468Y237367D01*
X498505Y237402D01*
X498577Y237459D01*
X499281Y238199D01*
X499309Y238241D01*
X499367Y238312D01*
X499888Y239190D01*
X499906Y239237D01*
X499947Y239319D01*
X500260Y240291D01*
X500267Y240341D01*
X500288Y240430D01*
X500377Y241448D01*
X500372Y241498D01*
X500373Y241589D01*
X500242Y242553D01*
X500226Y242601D01*
X500207Y242690D01*
X499865Y243601D01*
X499839Y243644D01*
X499800Y243728D01*
X499263Y244539D01*
X499228Y244575D01*
X499172Y244648D01*
X498468Y245320D01*
X498426Y245348D01*
X498355Y245406D01*
X497520Y245904D01*
X497472Y245922D01*
X497390Y245962D01*
X496465Y246262D01*
X496414Y246269D01*
X496325Y246291D01*
X495356Y246377D01*
X495309Y246373D01*
X495234Y246376D01*
X494258Y246274D01*
X494210Y246260D01*
X494120Y246244D01*
X493191Y245928D01*
X493147Y245904D01*
X493062Y245867D01*
X492227Y245353D01*
X492190Y245319D01*
X492115Y245265D01*
X491416Y244577D01*
X491386Y244536D01*
X491326Y244467D01*
X490797Y243640D01*
X490778Y243594D01*
X490734Y243513D01*
X490402Y242590D01*
X490394Y242540D01*
X490369Y242451D01*
X490251Y241477D01*
X490254Y241427D01*
X490250Y241341D01*
X490345Y240339D01*
X490359Y240290D01*
X490375Y240200D01*
X490691Y239244D01*
X490715Y239199D01*
X490751Y239115D01*
X491272Y238254D01*
X491305Y238216D01*
X491358Y238141D01*
X492058Y237417D01*
X492099Y237388D01*
X492168Y237327D01*
X493011Y236777D01*
X493057Y236757D01*
X493138Y236713D01*
X494082Y236365D01*
X494132Y236356D01*
X494220Y236331D01*
X495218Y236201D01*
X495261Y236203D01*
G37*
G36*
X418985Y236127D02*
X418985Y236127D01*
X419111Y236126D01*
X420122Y236265D01*
X420170Y236281D01*
X420260Y236300D01*
X421215Y236662D01*
X421258Y236688D01*
X421342Y236727D01*
X422192Y237291D01*
X422229Y237326D01*
X422301Y237383D01*
X423005Y238123D01*
X423033Y238165D01*
X423091Y238236D01*
X423612Y239114D01*
X423630Y239161D01*
X423671Y239243D01*
X423984Y240215D01*
X423991Y240265D01*
X424012Y240354D01*
X424101Y241372D01*
X424096Y241422D01*
X424097Y241513D01*
X423966Y242477D01*
X423950Y242525D01*
X423931Y242614D01*
X423589Y243525D01*
X423563Y243568D01*
X423524Y243652D01*
X422987Y244463D01*
X422952Y244499D01*
X422896Y244572D01*
X422192Y245244D01*
X422150Y245272D01*
X422079Y245330D01*
X421244Y245828D01*
X421196Y245846D01*
X421114Y245886D01*
X420189Y246186D01*
X420138Y246193D01*
X420049Y246215D01*
X419080Y246301D01*
X419033Y246297D01*
X418958Y246300D01*
X417982Y246198D01*
X417934Y246184D01*
X417844Y246168D01*
X416915Y245852D01*
X416871Y245828D01*
X416786Y245791D01*
X415951Y245277D01*
X415914Y245243D01*
X415839Y245189D01*
X415140Y244501D01*
X415110Y244460D01*
X415050Y244391D01*
X414521Y243564D01*
X414502Y243518D01*
X414458Y243437D01*
X414126Y242514D01*
X414118Y242464D01*
X414093Y242375D01*
X413975Y241401D01*
X413978Y241351D01*
X413974Y241265D01*
X414069Y240263D01*
X414083Y240214D01*
X414099Y240124D01*
X414415Y239168D01*
X414439Y239123D01*
X414475Y239039D01*
X414996Y238178D01*
X415029Y238140D01*
X415082Y238065D01*
X415782Y237341D01*
X415823Y237312D01*
X415892Y237251D01*
X416735Y236701D01*
X416781Y236681D01*
X416862Y236637D01*
X417806Y236289D01*
X417856Y236280D01*
X417944Y236255D01*
X418942Y236125D01*
X418985Y236127D01*
G37*
G36*
X495367Y274403D02*
X495367Y274403D01*
X495442Y274400D01*
X496418Y274502D01*
X496466Y274516D01*
X496556Y274532D01*
X497485Y274848D01*
X497529Y274873D01*
X497614Y274909D01*
X498449Y275423D01*
X498486Y275457D01*
X498561Y275511D01*
X499261Y276199D01*
X499290Y276240D01*
X499350Y276309D01*
X499879Y277136D01*
X499898Y277182D01*
X499942Y277263D01*
X500274Y278186D01*
X500282Y278236D01*
X500307Y278325D01*
X500425Y279299D01*
X500422Y279349D01*
X500426Y279435D01*
X500331Y280437D01*
X500317Y280486D01*
X500301Y280576D01*
X499985Y281532D01*
X499961Y281577D01*
X499926Y281661D01*
X499404Y282522D01*
X499371Y282560D01*
X499318Y282635D01*
X498618Y283359D01*
X498577Y283388D01*
X498508Y283449D01*
X497665Y283999D01*
X497619Y284019D01*
X497538Y284063D01*
X496594Y284411D01*
X496544Y284420D01*
X496456Y284445D01*
X495458Y284575D01*
X495415Y284573D01*
X495289Y284574D01*
X494278Y284435D01*
X494230Y284419D01*
X494140Y284400D01*
X493185Y284038D01*
X493142Y284012D01*
X493058Y283974D01*
X492208Y283409D01*
X492171Y283374D01*
X492099Y283317D01*
X491395Y282578D01*
X491367Y282535D01*
X491309Y282464D01*
X490788Y281586D01*
X490770Y281539D01*
X490729Y281457D01*
X490416Y280485D01*
X490409Y280435D01*
X490388Y280346D01*
X490299Y279328D01*
X490304Y279278D01*
X490303Y279187D01*
X490434Y278223D01*
X490450Y278175D01*
X490469Y278086D01*
X490811Y277175D01*
X490837Y277132D01*
X490876Y277049D01*
X491413Y276237D01*
X491448Y276201D01*
X491504Y276128D01*
X492208Y275456D01*
X492250Y275429D01*
X492321Y275370D01*
X493157Y274872D01*
X493204Y274854D01*
X493286Y274814D01*
X494212Y274514D01*
X494262Y274507D01*
X494351Y274485D01*
X495320Y274399D01*
X495367Y274403D01*
G37*
G36*
X419091Y274327D02*
X419091Y274327D01*
X419166Y274324D01*
X420142Y274426D01*
X420190Y274440D01*
X420280Y274456D01*
X421209Y274772D01*
X421253Y274797D01*
X421338Y274833D01*
X422173Y275347D01*
X422210Y275381D01*
X422285Y275435D01*
X422985Y276123D01*
X423014Y276164D01*
X423074Y276233D01*
X423603Y277060D01*
X423622Y277106D01*
X423666Y277187D01*
X423998Y278110D01*
X424006Y278160D01*
X424031Y278249D01*
X424149Y279223D01*
X424146Y279273D01*
X424150Y279359D01*
X424055Y280361D01*
X424041Y280410D01*
X424025Y280500D01*
X423709Y281456D01*
X423685Y281501D01*
X423650Y281585D01*
X423128Y282446D01*
X423095Y282484D01*
X423042Y282559D01*
X422342Y283283D01*
X422301Y283312D01*
X422232Y283373D01*
X421389Y283923D01*
X421343Y283943D01*
X421262Y283987D01*
X420318Y284335D01*
X420268Y284344D01*
X420180Y284369D01*
X419182Y284499D01*
X419139Y284497D01*
X419013Y284498D01*
X418002Y284359D01*
X417954Y284343D01*
X417864Y284324D01*
X416909Y283962D01*
X416866Y283936D01*
X416782Y283898D01*
X415932Y283333D01*
X415895Y283298D01*
X415823Y283241D01*
X415119Y282502D01*
X415091Y282459D01*
X415033Y282388D01*
X414512Y281510D01*
X414494Y281463D01*
X414453Y281381D01*
X414140Y280409D01*
X414133Y280359D01*
X414112Y280270D01*
X414023Y279252D01*
X414028Y279202D01*
X414027Y279111D01*
X414158Y278147D01*
X414174Y278099D01*
X414193Y278010D01*
X414535Y277099D01*
X414561Y277056D01*
X414600Y276973D01*
X415137Y276161D01*
X415172Y276125D01*
X415228Y276052D01*
X415932Y275380D01*
X415974Y275353D01*
X416045Y275294D01*
X416881Y274796D01*
X416928Y274778D01*
X417010Y274738D01*
X417936Y274438D01*
X417986Y274431D01*
X418075Y274409D01*
X419044Y274323D01*
X419091Y274327D01*
G37*
D10*
X546100Y25400D03*
X546100Y609600D03*
X25400Y609600D03*
X25400Y25400D03*
D11*
X226060Y38100D03*
X200660Y38100D03*
X160020Y38100D03*
X134620Y38100D03*
D12*
X114300Y302260D03*
X114300Y327660D03*
X152400Y302260D03*
X152400Y327660D03*
X114300Y369570D03*
X114300Y394970D03*
X151130Y369570D03*
X151130Y394970D03*
D13*
X336360Y241300D02*
X349440Y241300D01*
X349440Y266700D02*
X336360Y266700D01*
X336360Y292100D02*
X349440Y292100D01*
X349440Y317500D02*
X336360Y317500D01*
X336360Y342900D02*
X349440Y342900D01*
X349440Y368300D02*
X336360Y368300D01*
X336360Y393700D02*
X349440Y393700D01*
X349440Y419100D02*
X336360Y419100D01*
X336360Y444500D02*
X349440Y444500D01*
X349440Y469900D02*
X336360Y469900D01*
X336360Y495300D02*
X349440Y495300D01*
X349440Y520700D02*
X336360Y520700D01*
X197040Y241300D02*
X183960Y241300D01*
X183960Y266700D02*
X197040Y266700D01*
X197040Y292100D02*
X183960Y292100D01*
X183960Y444500D02*
X197040Y444500D01*
X197040Y469900D02*
X183960Y469900D01*
X183960Y495300D02*
X197040Y495300D01*
X197040Y520700D02*
X183960Y520700D01*
X183960Y596900D02*
X197040Y596900D01*
X336360Y596900D02*
X349440Y596900D01*
X349440Y571500D02*
X336360Y571500D01*
X336360Y546100D02*
X349440Y546100D01*
X197040Y571500D02*
X183960Y571500D01*
X183960Y546100D02*
X197040Y546100D01*
X197040Y317500D02*
X183960Y317500D01*
D14*
X241300Y254000D03*
X266700Y254000D03*
X292100Y254000D03*
D13*
X197040Y419100D02*
X183960Y419100D01*
X183960Y393700D02*
X197040Y393700D01*
X197040Y368300D02*
X183960Y368300D01*
X183960Y342900D02*
X197040Y342900D01*
D14*
X241300Y228600D03*
X266700Y228600D03*
X292100Y228600D03*
D11*
X92710Y38100D03*
X67310Y38100D03*
D15*
X50800Y364500D03*
D16*
X50800Y317500D03*
X50800Y270500D03*
D17*
X368300Y127000D03*
D18*
X368300Y177800D03*
X368300Y203200D03*
D17*
X368300Y152400D03*
X63500Y76200D03*
D18*
X63500Y127000D03*
X63500Y152400D03*
D17*
X63500Y101600D03*
D11*
X393700Y584200D03*
X393700Y558800D03*
X393700Y533400D03*
X393700Y482600D03*
X393700Y457200D03*
X393700Y431800D03*
X393700Y381000D03*
X393700Y355600D03*
X393700Y330200D03*
X444500Y177800D03*
X469900Y177800D03*
D12*
X114300Y236220D03*
X114300Y261620D03*
X152400Y236220D03*
X152400Y261620D03*
D11*
X444500Y101600D03*
X469900Y101600D03*
X444500Y520700D03*
X469900Y520700D03*
X495300Y520700D03*
X444500Y419100D03*
X469900Y419100D03*
X495300Y419100D03*
X444500Y317500D03*
X469900Y317500D03*
X495300Y317500D03*
D19*
X139700Y459300D03*
X139700Y531300D03*
D20*
X79700Y562800D03*
X79700Y427800D03*
D21*
X494700Y572100D03*
D22*
X444700Y572100D03*
D21*
X494700Y470500D03*
D22*
X444700Y470500D03*
D21*
X494700Y368900D03*
D22*
X444700Y368900D03*
D11*
X316230Y38100D03*
X290830Y38100D03*
X265430Y38100D03*
X394970Y38100D03*
X369570Y38100D03*
X344170Y38100D03*
X473710Y38100D03*
X448310Y38100D03*
X422910Y38100D03*
M02*
