G04 EAGLE Gerber RS-274X export*
G75*
%MOMM*%
%FSLAX34Y34*%
%LPD*%
%INSoldermask Bottom*%
%IPPOS*%
%AMOC8*
5,1,8,0,0,1.08239X$1,22.5*%
G01*
%ADD10C,3.203194*%
%ADD11C,2.082800*%
%ADD12P,1.951982X8X112.500000*%
%ADD13C,1.511200*%
%ADD14C,1.511200*%
%ADD15R,2.978200X2.978200*%
%ADD16C,2.978200*%
%ADD17R,2.387600X2.387600*%
%ADD18C,2.387600*%
%ADD19C,4.253200*%
%ADD20C,2.903200*%
%ADD21C,4.019200*%
%ADD22R,4.019200X4.019200*%

G36*
X497035Y231309D02*
X497035Y231309D01*
X497078Y231321D01*
X497144Y231330D01*
X498761Y231784D01*
X498802Y231803D01*
X498830Y231812D01*
X498840Y231814D01*
X498844Y231816D01*
X498865Y231823D01*
X500379Y232551D01*
X500415Y232577D01*
X500474Y232607D01*
X501839Y233588D01*
X501870Y233620D01*
X501923Y233660D01*
X503097Y234862D01*
X503122Y234899D01*
X503167Y234947D01*
X504114Y236335D01*
X504132Y236376D01*
X504168Y236432D01*
X504860Y237963D01*
X504871Y238006D01*
X504897Y238067D01*
X505312Y239696D01*
X505315Y239740D01*
X505330Y239805D01*
X505456Y241480D01*
X505452Y241527D01*
X505454Y241599D01*
X505249Y243435D01*
X505235Y243481D01*
X505223Y243556D01*
X504663Y245317D01*
X504640Y245359D01*
X504614Y245431D01*
X503721Y247048D01*
X503691Y247086D01*
X503651Y247151D01*
X502460Y248563D01*
X502423Y248594D01*
X502371Y248650D01*
X500927Y249803D01*
X500885Y249826D01*
X500823Y249870D01*
X499182Y250719D01*
X499136Y250734D01*
X499067Y250765D01*
X497292Y251278D01*
X497244Y251283D01*
X497169Y251301D01*
X495329Y251457D01*
X495285Y251453D01*
X495220Y251457D01*
X493389Y251297D01*
X493343Y251284D01*
X493267Y251274D01*
X491503Y250760D01*
X491459Y250739D01*
X491387Y250714D01*
X489757Y249865D01*
X489719Y249836D01*
X489653Y249797D01*
X488220Y248647D01*
X488188Y248611D01*
X488131Y248560D01*
X486950Y247152D01*
X486926Y247111D01*
X486880Y247050D01*
X486670Y246668D01*
X485996Y245438D01*
X485981Y245393D01*
X485947Y245324D01*
X485395Y243571D01*
X485389Y243524D01*
X485369Y243450D01*
X485170Y241623D01*
X485173Y241577D01*
X485167Y241508D01*
X485290Y239832D01*
X485301Y239789D01*
X485307Y239723D01*
X485719Y238093D01*
X485737Y238053D01*
X485755Y237989D01*
X486443Y236456D01*
X486468Y236419D01*
X486497Y236359D01*
X487441Y234969D01*
X487472Y234937D01*
X487510Y234883D01*
X488681Y233677D01*
X488718Y233651D01*
X488765Y233605D01*
X490127Y232621D01*
X490168Y232602D01*
X490222Y232565D01*
X491735Y231832D01*
X491778Y231820D01*
X491789Y231815D01*
X491816Y231802D01*
X491821Y231801D01*
X491838Y231793D01*
X493455Y231335D01*
X493500Y231330D01*
X493564Y231314D01*
X495236Y231143D01*
X495284Y231147D01*
X495363Y231143D01*
X497035Y231309D01*
G37*
G36*
X420759Y231233D02*
X420759Y231233D01*
X420802Y231245D01*
X420868Y231254D01*
X422485Y231708D01*
X422526Y231727D01*
X422554Y231736D01*
X422564Y231738D01*
X422568Y231740D01*
X422589Y231747D01*
X424103Y232475D01*
X424139Y232501D01*
X424198Y232531D01*
X425563Y233512D01*
X425594Y233544D01*
X425647Y233584D01*
X426821Y234786D01*
X426846Y234823D01*
X426891Y234871D01*
X427838Y236259D01*
X427856Y236300D01*
X427892Y236356D01*
X428584Y237887D01*
X428595Y237930D01*
X428621Y237991D01*
X429036Y239620D01*
X429039Y239664D01*
X429054Y239729D01*
X429180Y241404D01*
X429176Y241451D01*
X429178Y241523D01*
X428973Y243359D01*
X428959Y243405D01*
X428947Y243480D01*
X428387Y245241D01*
X428364Y245283D01*
X428338Y245355D01*
X427445Y246972D01*
X427415Y247010D01*
X427375Y247075D01*
X426184Y248487D01*
X426147Y248518D01*
X426095Y248574D01*
X424651Y249727D01*
X424609Y249750D01*
X424547Y249794D01*
X422906Y250643D01*
X422860Y250658D01*
X422791Y250689D01*
X421016Y251202D01*
X420968Y251207D01*
X420893Y251225D01*
X419053Y251381D01*
X419009Y251377D01*
X418944Y251381D01*
X417113Y251221D01*
X417067Y251208D01*
X416991Y251198D01*
X415227Y250684D01*
X415183Y250663D01*
X415111Y250638D01*
X413481Y249789D01*
X413443Y249760D01*
X413377Y249721D01*
X411944Y248571D01*
X411912Y248535D01*
X411855Y248484D01*
X410674Y247076D01*
X410650Y247035D01*
X410604Y246974D01*
X410394Y246592D01*
X409720Y245362D01*
X409705Y245317D01*
X409671Y245248D01*
X409119Y243495D01*
X409113Y243448D01*
X409093Y243374D01*
X408894Y241547D01*
X408897Y241501D01*
X408891Y241432D01*
X409014Y239756D01*
X409025Y239713D01*
X409031Y239647D01*
X409443Y238017D01*
X409461Y237977D01*
X409479Y237913D01*
X410167Y236380D01*
X410192Y236343D01*
X410221Y236283D01*
X411165Y234893D01*
X411196Y234861D01*
X411234Y234807D01*
X412405Y233601D01*
X412442Y233575D01*
X412489Y233529D01*
X413851Y232545D01*
X413892Y232526D01*
X413946Y232489D01*
X415459Y231756D01*
X415502Y231744D01*
X415513Y231739D01*
X415540Y231726D01*
X415545Y231725D01*
X415562Y231717D01*
X417179Y231259D01*
X417224Y231254D01*
X417288Y231238D01*
X418960Y231067D01*
X419008Y231071D01*
X419087Y231067D01*
X420759Y231233D01*
G37*
G36*
X495391Y269323D02*
X495391Y269323D01*
X495456Y269319D01*
X497287Y269479D01*
X497333Y269492D01*
X497409Y269502D01*
X499173Y270016D01*
X499217Y270037D01*
X499289Y270062D01*
X500919Y270911D01*
X500957Y270940D01*
X501023Y270979D01*
X502456Y272129D01*
X502488Y272165D01*
X502545Y272216D01*
X503726Y273624D01*
X503750Y273665D01*
X503796Y273726D01*
X504341Y274719D01*
X504680Y275338D01*
X504695Y275383D01*
X504729Y275452D01*
X505281Y277205D01*
X505287Y277252D01*
X505307Y277326D01*
X505507Y279153D01*
X505503Y279199D01*
X505509Y279268D01*
X505386Y280944D01*
X505375Y280987D01*
X505369Y281053D01*
X504958Y282683D01*
X504939Y282723D01*
X504921Y282787D01*
X504233Y284320D01*
X504208Y284357D01*
X504179Y284417D01*
X503235Y285807D01*
X503204Y285839D01*
X503166Y285893D01*
X501995Y287099D01*
X501959Y287125D01*
X501911Y287171D01*
X500549Y288155D01*
X500508Y288174D01*
X500454Y288211D01*
X498941Y288944D01*
X498898Y288956D01*
X498838Y288983D01*
X497221Y289441D01*
X497176Y289446D01*
X497112Y289462D01*
X495440Y289633D01*
X495392Y289629D01*
X495313Y289633D01*
X493641Y289467D01*
X493598Y289455D01*
X493533Y289446D01*
X491915Y288992D01*
X491874Y288973D01*
X491811Y288953D01*
X490297Y288225D01*
X490261Y288199D01*
X490202Y288169D01*
X488837Y287188D01*
X488806Y287156D01*
X488753Y287116D01*
X487579Y285914D01*
X487554Y285877D01*
X487509Y285829D01*
X486562Y284441D01*
X486544Y284400D01*
X486508Y284344D01*
X485816Y282813D01*
X485805Y282770D01*
X485779Y282709D01*
X485364Y281080D01*
X485361Y281036D01*
X485346Y280971D01*
X485220Y279296D01*
X485224Y279249D01*
X485222Y279177D01*
X485427Y277342D01*
X485441Y277295D01*
X485453Y277220D01*
X486013Y275459D01*
X486036Y275417D01*
X486062Y275345D01*
X486955Y273728D01*
X486985Y273690D01*
X487025Y273625D01*
X488216Y272213D01*
X488253Y272182D01*
X488305Y272126D01*
X489749Y270973D01*
X489791Y270951D01*
X489853Y270906D01*
X491494Y270057D01*
X491540Y270043D01*
X491609Y270011D01*
X493384Y269498D01*
X493432Y269493D01*
X493507Y269476D01*
X495347Y269319D01*
X495391Y269323D01*
G37*
G36*
X419115Y269247D02*
X419115Y269247D01*
X419180Y269243D01*
X421011Y269403D01*
X421057Y269416D01*
X421133Y269426D01*
X422897Y269940D01*
X422941Y269961D01*
X423013Y269986D01*
X424643Y270835D01*
X424681Y270864D01*
X424747Y270903D01*
X426180Y272053D01*
X426212Y272089D01*
X426269Y272140D01*
X427450Y273548D01*
X427474Y273589D01*
X427520Y273650D01*
X428065Y274643D01*
X428404Y275262D01*
X428419Y275307D01*
X428453Y275376D01*
X429005Y277129D01*
X429011Y277176D01*
X429031Y277250D01*
X429231Y279077D01*
X429227Y279123D01*
X429233Y279192D01*
X429110Y280868D01*
X429099Y280911D01*
X429093Y280977D01*
X428682Y282607D01*
X428663Y282647D01*
X428645Y282711D01*
X427957Y284244D01*
X427932Y284281D01*
X427903Y284341D01*
X426959Y285731D01*
X426928Y285763D01*
X426890Y285817D01*
X425719Y287023D01*
X425683Y287049D01*
X425635Y287095D01*
X424273Y288079D01*
X424232Y288098D01*
X424178Y288135D01*
X422665Y288868D01*
X422622Y288880D01*
X422562Y288907D01*
X420945Y289365D01*
X420900Y289370D01*
X420836Y289386D01*
X419164Y289557D01*
X419116Y289553D01*
X419037Y289557D01*
X417365Y289391D01*
X417322Y289379D01*
X417257Y289370D01*
X415639Y288916D01*
X415598Y288897D01*
X415535Y288877D01*
X414021Y288149D01*
X413985Y288123D01*
X413926Y288093D01*
X412561Y287112D01*
X412530Y287080D01*
X412477Y287040D01*
X411303Y285838D01*
X411278Y285801D01*
X411233Y285753D01*
X410286Y284365D01*
X410268Y284324D01*
X410232Y284268D01*
X409540Y282737D01*
X409529Y282694D01*
X409503Y282633D01*
X409088Y281004D01*
X409085Y280960D01*
X409070Y280895D01*
X408944Y279220D01*
X408948Y279173D01*
X408946Y279101D01*
X409151Y277266D01*
X409165Y277219D01*
X409177Y277144D01*
X409737Y275383D01*
X409760Y275341D01*
X409786Y275269D01*
X410679Y273652D01*
X410709Y273614D01*
X410749Y273549D01*
X411940Y272137D01*
X411977Y272106D01*
X412029Y272050D01*
X413473Y270897D01*
X413515Y270875D01*
X413577Y270830D01*
X415218Y269981D01*
X415264Y269967D01*
X415333Y269935D01*
X417108Y269422D01*
X417156Y269417D01*
X417231Y269400D01*
X419071Y269243D01*
X419115Y269247D01*
G37*
D10*
X546100Y25400D03*
X546100Y609600D03*
X25400Y609600D03*
X25400Y25400D03*
D11*
X226060Y38100D03*
X200660Y38100D03*
X160020Y38100D03*
X134620Y38100D03*
D12*
X114300Y302260D03*
X114300Y327660D03*
X152400Y302260D03*
X152400Y327660D03*
X114300Y369570D03*
X114300Y394970D03*
X151130Y369570D03*
X151130Y394970D03*
D13*
X336360Y241300D02*
X349440Y241300D01*
X349440Y266700D02*
X336360Y266700D01*
X336360Y292100D02*
X349440Y292100D01*
X349440Y317500D02*
X336360Y317500D01*
X336360Y342900D02*
X349440Y342900D01*
X349440Y368300D02*
X336360Y368300D01*
X336360Y393700D02*
X349440Y393700D01*
X349440Y419100D02*
X336360Y419100D01*
X336360Y444500D02*
X349440Y444500D01*
X349440Y469900D02*
X336360Y469900D01*
X336360Y495300D02*
X349440Y495300D01*
X349440Y520700D02*
X336360Y520700D01*
X197040Y241300D02*
X183960Y241300D01*
X183960Y266700D02*
X197040Y266700D01*
X197040Y292100D02*
X183960Y292100D01*
X183960Y444500D02*
X197040Y444500D01*
X197040Y469900D02*
X183960Y469900D01*
X183960Y495300D02*
X197040Y495300D01*
X197040Y520700D02*
X183960Y520700D01*
X183960Y596900D02*
X197040Y596900D01*
X336360Y596900D02*
X349440Y596900D01*
X349440Y571500D02*
X336360Y571500D01*
X336360Y546100D02*
X349440Y546100D01*
X197040Y571500D02*
X183960Y571500D01*
X183960Y546100D02*
X197040Y546100D01*
X197040Y317500D02*
X183960Y317500D01*
D14*
X241300Y254000D03*
X266700Y254000D03*
X292100Y254000D03*
D13*
X197040Y419100D02*
X183960Y419100D01*
X183960Y393700D02*
X197040Y393700D01*
X197040Y368300D02*
X183960Y368300D01*
X183960Y342900D02*
X197040Y342900D01*
D14*
X241300Y228600D03*
X266700Y228600D03*
X292100Y228600D03*
D11*
X92710Y38100D03*
X67310Y38100D03*
D15*
X50800Y364500D03*
D16*
X50800Y317500D03*
X50800Y270500D03*
D17*
X368300Y127000D03*
D18*
X368300Y177800D03*
X368300Y203200D03*
D17*
X368300Y152400D03*
X63500Y76200D03*
D18*
X63500Y127000D03*
X63500Y152400D03*
D17*
X63500Y101600D03*
D11*
X393700Y584200D03*
X393700Y558800D03*
X393700Y533400D03*
X393700Y482600D03*
X393700Y457200D03*
X393700Y431800D03*
X393700Y381000D03*
X393700Y355600D03*
X393700Y330200D03*
X444500Y177800D03*
X469900Y177800D03*
D12*
X114300Y236220D03*
X114300Y261620D03*
X152400Y236220D03*
X152400Y261620D03*
D11*
X444500Y101600D03*
X469900Y101600D03*
X444500Y520700D03*
X469900Y520700D03*
X495300Y520700D03*
X444500Y419100D03*
X469900Y419100D03*
X495300Y419100D03*
X444500Y317500D03*
X469900Y317500D03*
X495300Y317500D03*
D19*
X139700Y459300D03*
X139700Y531300D03*
D20*
X79700Y562800D03*
X79700Y427800D03*
D21*
X494700Y572100D03*
D22*
X444700Y572100D03*
D21*
X494700Y470500D03*
D22*
X444700Y470500D03*
D21*
X494700Y368900D03*
D22*
X444700Y368900D03*
D11*
X316230Y38100D03*
X290830Y38100D03*
X265430Y38100D03*
X394970Y38100D03*
X369570Y38100D03*
X344170Y38100D03*
X473710Y38100D03*
X448310Y38100D03*
X422910Y38100D03*
M02*
